G04 #@! TF.GenerationSoftware,KiCad,Pcbnew,5.1.2-f72e74a~84~ubuntu18.04.1*
G04 #@! TF.CreationDate,2019-06-14T20:13:49+08:00*
G04 #@! TF.ProjectId,simCapSE,73696d43-6170-4534-952e-6b696361645f,rev?*
G04 #@! TF.SameCoordinates,Original*
G04 #@! TF.FileFunction,Paste,Bot*
G04 #@! TF.FilePolarity,Positive*
%FSLAX46Y46*%
G04 Gerber Fmt 4.6, Leading zero omitted, Abs format (unit mm)*
G04 Created by KiCad (PCBNEW 5.1.2-f72e74a~84~ubuntu18.04.1) date 2019-06-14 20:13:49*
%MOMM*%
%LPD*%
G04 APERTURE LIST*
%ADD10R,6.000000X6.000000*%
G04 APERTURE END LIST*
D10*
X0Y0D03*
X0Y-8000000D03*
X0Y-16000000D03*
X0Y-24000000D03*
X0Y-32000000D03*
X0Y-40000000D03*
X0Y-48000000D03*
X0Y-56000000D03*
X8000000Y0D03*
X8000000Y-8000000D03*
X8000000Y-16000000D03*
X8000000Y-24000000D03*
X8000000Y-32000000D03*
X8000000Y-40000000D03*
X8000000Y-48000000D03*
X8000000Y-56000000D03*
X16000000Y0D03*
X16000000Y-8000000D03*
X16000000Y-16000000D03*
X16000000Y-24000000D03*
X16000000Y-32000000D03*
X16000000Y-40000000D03*
X16000000Y-48000000D03*
X16000000Y-56000000D03*
X24000000Y0D03*
X24000000Y-8000000D03*
X24000000Y-16000000D03*
X24000000Y-24000000D03*
X24000000Y-32000000D03*
X24000000Y-40000000D03*
X24000000Y-48000000D03*
X24000000Y-56000000D03*
X32000000Y0D03*
X32000000Y-8000000D03*
X32000000Y-16000000D03*
X32000000Y-24000000D03*
X32000000Y-32000000D03*
X32000000Y-40000000D03*
X32000000Y-48000000D03*
X32000000Y-56000000D03*
X40000000Y0D03*
X40000000Y-8000000D03*
X40000000Y-16000000D03*
X40000000Y-24000000D03*
X40000000Y-32000000D03*
X40000000Y-40000000D03*
X40000000Y-48000000D03*
X40000000Y-56000000D03*
X48000000Y0D03*
X48000000Y-8000000D03*
X48000000Y-16000000D03*
X48000000Y-24000000D03*
X48000000Y-32000000D03*
X48000000Y-40000000D03*
X48000000Y-48000000D03*
X48000000Y-56000000D03*
X56000000Y0D03*
X56000000Y-8000000D03*
X56000000Y-16000000D03*
X56000000Y-24000000D03*
X56000000Y-32000000D03*
X56000000Y-40000000D03*
X56000000Y-48000000D03*
X56000000Y-56000000D03*
M02*
