G04 #@! TF.GenerationSoftware,KiCad,Pcbnew,5.1.2-f72e74a~84~ubuntu18.04.1*
G04 #@! TF.CreationDate,2019-06-14T20:13:49+08:00*
G04 #@! TF.ProjectId,simCapSE,73696d43-6170-4534-952e-6b696361645f,rev?*
G04 #@! TF.SameCoordinates,Original*
G04 #@! TF.FileFunction,Copper,L2,Bot*
G04 #@! TF.FilePolarity,Positive*
%FSLAX46Y46*%
G04 Gerber Fmt 4.6, Leading zero omitted, Abs format (unit mm)*
G04 Created by KiCad (PCBNEW 5.1.2-f72e74a~84~ubuntu18.04.1) date 2019-06-14 20:13:49*
%MOMM*%
%LPD*%
G04 APERTURE LIST*
%ADD10R,6.000000X6.000000*%
%ADD11R,1.700000X1.700000*%
%ADD12O,1.700000X1.700000*%
%ADD13C,0.800000*%
%ADD14C,0.200000*%
%ADD15C,0.250000*%
G04 APERTURE END LIST*
D10*
X0Y0D03*
X0Y-8000000D03*
X0Y-16000000D03*
X0Y-24000000D03*
X0Y-32000000D03*
X0Y-40000000D03*
X0Y-48000000D03*
X0Y-56000000D03*
X8000000Y0D03*
X8000000Y-8000000D03*
X8000000Y-16000000D03*
X8000000Y-24000000D03*
X8000000Y-32000000D03*
X8000000Y-40000000D03*
X8000000Y-48000000D03*
X8000000Y-56000000D03*
X16000000Y0D03*
X16000000Y-8000000D03*
X16000000Y-16000000D03*
X16000000Y-24000000D03*
X16000000Y-32000000D03*
X16000000Y-40000000D03*
X16000000Y-48000000D03*
X16000000Y-56000000D03*
X24000000Y0D03*
X24000000Y-8000000D03*
X24000000Y-16000000D03*
X24000000Y-24000000D03*
X24000000Y-32000000D03*
X24000000Y-40000000D03*
X24000000Y-48000000D03*
X24000000Y-56000000D03*
X32000000Y0D03*
X32000000Y-8000000D03*
X32000000Y-16000000D03*
X32000000Y-24000000D03*
X32000000Y-32000000D03*
X32000000Y-40000000D03*
X32000000Y-48000000D03*
X32000000Y-56000000D03*
X40000000Y0D03*
X40000000Y-8000000D03*
X40000000Y-16000000D03*
X40000000Y-24000000D03*
X40000000Y-32000000D03*
X40000000Y-40000000D03*
X40000000Y-48000000D03*
X40000000Y-56000000D03*
X48000000Y0D03*
X48000000Y-8000000D03*
X48000000Y-16000000D03*
X48000000Y-24000000D03*
X48000000Y-32000000D03*
X48000000Y-40000000D03*
X48000000Y-48000000D03*
X48000000Y-56000000D03*
X56000000Y0D03*
X56000000Y-8000000D03*
X56000000Y-16000000D03*
X56000000Y-24000000D03*
X56000000Y-32000000D03*
X56000000Y-40000000D03*
X56000000Y-48000000D03*
X56000000Y-56000000D03*
D11*
X86700000Y-23100000D03*
D12*
X86700000Y-25640000D03*
X86700000Y-28180000D03*
X86700000Y-30720000D03*
X86700000Y-33260000D03*
X86700000Y-35800000D03*
X86700000Y-38340000D03*
D13*
X4050000Y-55550000D03*
X4050000Y-47550000D03*
X4050000Y-39550000D03*
X4050000Y-31550000D03*
X4050000Y-23550000D03*
X4050000Y-15550000D03*
X4050000Y-7550000D03*
X4050000Y450000D03*
X63825000Y-56550000D03*
X78050000Y-33275000D03*
X83175000Y-24900000D03*
X64225000Y-54050000D03*
X64225000Y-46050000D03*
X64225000Y-38050000D03*
X64225000Y-30050000D03*
X64225000Y-14050000D03*
X64225000Y-6050000D03*
X64225000Y1950000D03*
X77025000Y-25600000D03*
X71925000Y-37100000D03*
X64225000Y-22050000D03*
X83150000Y-26150000D03*
X83100000Y-23625000D03*
X83100000Y-22400000D03*
X12050000Y-55550000D03*
X12050000Y-47550000D03*
X12050000Y-39550000D03*
X12050000Y-31550000D03*
X12050000Y-23550000D03*
X12050000Y-15550000D03*
X12050000Y-7550000D03*
X12050000Y450000D03*
X20050000Y-55550000D03*
X20050000Y-47550000D03*
X20050000Y-39550000D03*
X20050000Y-31550000D03*
X20050000Y-23550000D03*
X20050000Y-15550000D03*
X20050000Y-7550000D03*
X20050000Y450000D03*
X36050000Y-55550000D03*
X36050000Y-47550000D03*
X36050000Y-39550000D03*
X36050000Y-31550000D03*
X36050000Y-23550000D03*
X36050000Y-15550000D03*
X36050000Y-7550000D03*
X36050000Y450000D03*
X52050000Y-55550000D03*
X52050000Y-47550000D03*
X52050000Y-39550000D03*
X52050000Y-31550000D03*
X52050000Y-23550000D03*
X52050000Y-15550000D03*
X52050000Y-7550000D03*
X52050000Y450000D03*
X79525000Y-41075000D03*
X79525000Y-21150000D03*
X-725000Y825000D03*
X-725000Y-7175000D03*
X-725000Y-15175000D03*
X-725000Y-23175000D03*
X-725000Y-31175000D03*
X-725000Y-39175000D03*
X-725000Y-47175000D03*
X-725000Y-55175000D03*
X7275000Y825000D03*
X7275000Y-7175000D03*
X7275000Y-15175000D03*
X7275000Y-23175000D03*
X7275000Y-31175000D03*
X7275000Y-39175000D03*
X7275000Y-47175000D03*
X7275000Y-55175000D03*
X15275000Y825000D03*
X15275000Y-7175000D03*
X15275000Y-15175000D03*
X15275000Y-23175000D03*
X15275000Y-31175000D03*
X15275000Y-39175000D03*
X15275000Y-47175000D03*
X15275000Y-55175000D03*
X23275000Y825000D03*
X28050000Y-55550000D03*
X28050000Y-47550000D03*
X28050000Y-39550000D03*
X28050000Y-31550000D03*
X28050000Y-23550000D03*
X28050000Y-15550000D03*
X28050000Y-7550000D03*
X28050000Y450000D03*
X23275000Y-7175000D03*
X23275000Y-15175000D03*
X23275000Y-23175000D03*
X23275000Y-31175000D03*
X23275000Y-39175000D03*
X23275000Y-47175000D03*
X23275000Y-55175000D03*
X31275000Y825000D03*
X31275000Y-7175000D03*
X31275000Y-15175000D03*
X31275000Y-23175000D03*
X31275000Y-31175000D03*
X31275000Y-39175000D03*
X31275000Y-47175000D03*
X31275000Y-55175000D03*
X44050000Y-55550000D03*
X44050000Y-47550000D03*
X44050000Y-39550000D03*
X44050000Y-31550000D03*
X44050000Y-23550000D03*
X44050000Y-15550000D03*
X44050000Y-7550000D03*
X44050000Y450000D03*
X39275000Y825000D03*
X39275000Y-7175000D03*
X39275000Y-15175000D03*
X39275000Y-23175000D03*
X39275000Y-31175000D03*
X39275000Y-39175000D03*
X39275000Y-47175000D03*
X39275000Y-55175000D03*
X47275000Y825000D03*
X47275000Y-7175000D03*
X47275000Y-15175000D03*
X47275000Y-23175000D03*
X47275000Y-31175000D03*
X47275000Y-39175000D03*
X47275000Y-47175000D03*
X47275000Y-55175000D03*
X55275000Y825000D03*
X60050000Y-55550000D03*
X60050000Y-47550000D03*
X60050000Y-39550000D03*
X60050000Y-31550000D03*
X60050000Y-23550000D03*
X60050000Y-15550000D03*
X60050000Y-7550000D03*
X60050000Y450000D03*
X55275000Y-7175000D03*
X55275000Y-15175000D03*
X55275000Y-23175000D03*
X55275000Y-31175000D03*
X55275000Y-39175000D03*
X55275000Y-47175000D03*
X55275000Y-55175000D03*
D14*
X4050000Y-55550000D02*
X4050000Y450000D01*
D15*
X63825000Y-56550000D02*
X78050000Y-42325000D01*
X78050000Y-42325000D02*
X78050000Y-33275000D01*
X85850001Y-32410001D02*
X86700000Y-33260000D01*
X84000009Y-30560009D02*
X85850001Y-32410001D01*
X84000009Y-25725009D02*
X84000009Y-30560009D01*
X83175000Y-24900000D02*
X84000009Y-25725009D01*
X64225000Y-54050000D02*
X64225000Y1950000D01*
X85350038Y-24290038D02*
X85350038Y-23577036D01*
X85350038Y-23577036D02*
X82198001Y-20424999D01*
X82198001Y-20424999D02*
X79176999Y-20424999D01*
X79176999Y-20424999D02*
X77025000Y-22576998D01*
X86700000Y-25640000D02*
X85350038Y-24290038D01*
X77025000Y-22576998D02*
X77025000Y-25600000D01*
X77025000Y-25600000D02*
X77025000Y-32000000D01*
X77025000Y-32000000D02*
X71925000Y-37100000D01*
X77551998Y-22050000D02*
X79176999Y-20424999D01*
D14*
X64225000Y-22615685D02*
X69034315Y-27425000D01*
X64225000Y-22050000D02*
X64225000Y-22615685D01*
X75200000Y-27425000D02*
X77025000Y-25600000D01*
X69034315Y-27425000D02*
X75200000Y-27425000D01*
D15*
X83549999Y-32649999D02*
X85850001Y-34950001D01*
X85850001Y-34950001D02*
X86700000Y-35800000D01*
X83549999Y-26549999D02*
X83549999Y-32649999D01*
X83150000Y-26150000D02*
X83549999Y-26549999D01*
X85850001Y-29870001D02*
X86700000Y-30720000D01*
X84450019Y-28470019D02*
X85850001Y-29870001D01*
X84450019Y-24975019D02*
X84450019Y-28470019D01*
X83100000Y-23625000D02*
X84450019Y-24975019D01*
X85850001Y-27330001D02*
X86700000Y-28180000D01*
X84900028Y-26380028D02*
X85850001Y-27330001D01*
X84900028Y-24200028D02*
X84900028Y-26380028D01*
X83100000Y-22400000D02*
X84900028Y-24200028D01*
D14*
X12050000Y-55550000D02*
X12050000Y450000D01*
X20050000Y-55550000D02*
X20050000Y450000D01*
X36050000Y-55550000D02*
X36050000Y450000D01*
X52050000Y-55550000D02*
X52050000Y450000D01*
D15*
X79525000Y-41075000D02*
X79525000Y-21150000D01*
D14*
X28050000Y-55550000D02*
X28050000Y450000D01*
X44050000Y-55550000D02*
X44050000Y450000D01*
X60050000Y-55550000D02*
X60050000Y450000D01*
M02*
