G04 #@! TF.GenerationSoftware,KiCad,Pcbnew,5.1.2-f72e74a~84~ubuntu18.04.1*
G04 #@! TF.CreationDate,2019-06-14T20:13:49+08:00*
G04 #@! TF.ProjectId,simCapSE,73696d43-6170-4534-952e-6b696361645f,rev?*
G04 #@! TF.SameCoordinates,Original*
G04 #@! TF.FileFunction,Legend,Top*
G04 #@! TF.FilePolarity,Positive*
%FSLAX46Y46*%
G04 Gerber Fmt 4.6, Leading zero omitted, Abs format (unit mm)*
G04 Created by KiCad (PCBNEW 5.1.2-f72e74a~84~ubuntu18.04.1) date 2019-06-14 20:13:49*
%MOMM*%
%LPD*%
G04 APERTURE LIST*
%ADD10C,0.150000*%
%ADD11C,0.120000*%
G04 APERTURE END LIST*
D10*
X82900000Y-50602380D02*
X82900000Y-49602380D01*
X82900000Y-49983333D02*
X82995238Y-49935714D01*
X83185714Y-49935714D01*
X83280952Y-49983333D01*
X83328571Y-50030952D01*
X83376190Y-50126190D01*
X83376190Y-50411904D01*
X83328571Y-50507142D01*
X83280952Y-50554761D01*
X83185714Y-50602380D01*
X82995238Y-50602380D01*
X82900000Y-50554761D01*
X84185714Y-50554761D02*
X84090476Y-50602380D01*
X83900000Y-50602380D01*
X83804761Y-50554761D01*
X83757142Y-50459523D01*
X83757142Y-50078571D01*
X83804761Y-49983333D01*
X83900000Y-49935714D01*
X84090476Y-49935714D01*
X84185714Y-49983333D01*
X84233333Y-50078571D01*
X84233333Y-50173809D01*
X83757142Y-50269047D01*
X85090476Y-50602380D02*
X85090476Y-50078571D01*
X85042857Y-49983333D01*
X84947619Y-49935714D01*
X84757142Y-49935714D01*
X84661904Y-49983333D01*
X85090476Y-50554761D02*
X84995238Y-50602380D01*
X84757142Y-50602380D01*
X84661904Y-50554761D01*
X84614285Y-50459523D01*
X84614285Y-50364285D01*
X84661904Y-50269047D01*
X84757142Y-50221428D01*
X84995238Y-50221428D01*
X85090476Y-50173809D01*
X85566666Y-49935714D02*
X85566666Y-50602380D01*
X85566666Y-50030952D02*
X85614285Y-49983333D01*
X85709523Y-49935714D01*
X85852380Y-49935714D01*
X85947619Y-49983333D01*
X85995238Y-50078571D01*
X85995238Y-50602380D01*
X86328571Y-49935714D02*
X86709523Y-49935714D01*
X86471428Y-49602380D02*
X86471428Y-50459523D01*
X86519047Y-50554761D01*
X86614285Y-50602380D01*
X86709523Y-50602380D01*
X87185714Y-50602380D02*
X87090476Y-50554761D01*
X87042857Y-50507142D01*
X86995238Y-50411904D01*
X86995238Y-50126190D01*
X87042857Y-50030952D01*
X87090476Y-49983333D01*
X87185714Y-49935714D01*
X87328571Y-49935714D01*
X87423809Y-49983333D01*
X87471428Y-50030952D01*
X87519047Y-50126190D01*
X87519047Y-50411904D01*
X87471428Y-50507142D01*
X87423809Y-50554761D01*
X87328571Y-50602380D01*
X87185714Y-50602380D01*
X87852380Y-49935714D02*
X88042857Y-50602380D01*
X88233333Y-50126190D01*
X88423809Y-50602380D01*
X88614285Y-49935714D01*
X89376190Y-50554761D02*
X89280952Y-50602380D01*
X89090476Y-50602380D01*
X88995238Y-50554761D01*
X88947619Y-50459523D01*
X88947619Y-50078571D01*
X88995238Y-49983333D01*
X89090476Y-49935714D01*
X89280952Y-49935714D01*
X89376190Y-49983333D01*
X89423809Y-50078571D01*
X89423809Y-50173809D01*
X88947619Y-50269047D01*
X89995238Y-50602380D02*
X89900000Y-50554761D01*
X89852380Y-50459523D01*
X89852380Y-49602380D01*
D11*
X2560000Y220000D02*
X1100000Y220000D01*
X2560000Y3380000D02*
X400000Y3380000D01*
X2560000Y3380000D02*
X2560000Y2450000D01*
X2560000Y220000D02*
X2560000Y1150000D01*
X2560000Y-7780000D02*
X2560000Y-6850000D01*
X2560000Y-4620000D02*
X2560000Y-5550000D01*
X2560000Y-4620000D02*
X400000Y-4620000D01*
X2560000Y-7780000D02*
X1100000Y-7780000D01*
X2560000Y-15780000D02*
X1100000Y-15780000D01*
X2560000Y-12620000D02*
X400000Y-12620000D01*
X2560000Y-12620000D02*
X2560000Y-13550000D01*
X2560000Y-15780000D02*
X2560000Y-14850000D01*
X2560000Y-23780000D02*
X2560000Y-22850000D01*
X2560000Y-20620000D02*
X2560000Y-21550000D01*
X2560000Y-20620000D02*
X400000Y-20620000D01*
X2560000Y-23780000D02*
X1100000Y-23780000D01*
X2560000Y-31780000D02*
X1100000Y-31780000D01*
X2560000Y-28620000D02*
X400000Y-28620000D01*
X2560000Y-28620000D02*
X2560000Y-29550000D01*
X2560000Y-31780000D02*
X2560000Y-30850000D01*
X2560000Y-39780000D02*
X2560000Y-38850000D01*
X2560000Y-36620000D02*
X2560000Y-37550000D01*
X2560000Y-36620000D02*
X400000Y-36620000D01*
X2560000Y-39780000D02*
X1100000Y-39780000D01*
X2560000Y-47780000D02*
X1100000Y-47780000D01*
X2560000Y-44620000D02*
X400000Y-44620000D01*
X2560000Y-44620000D02*
X2560000Y-45550000D01*
X2560000Y-47780000D02*
X2560000Y-46850000D01*
X2560000Y-55780000D02*
X2560000Y-54850000D01*
X2560000Y-52620000D02*
X2560000Y-53550000D01*
X2560000Y-52620000D02*
X400000Y-52620000D01*
X2560000Y-55780000D02*
X1100000Y-55780000D01*
X10560000Y220000D02*
X9100000Y220000D01*
X10560000Y3380000D02*
X8400000Y3380000D01*
X10560000Y3380000D02*
X10560000Y2450000D01*
X10560000Y220000D02*
X10560000Y1150000D01*
X10560000Y-7780000D02*
X10560000Y-6850000D01*
X10560000Y-4620000D02*
X10560000Y-5550000D01*
X10560000Y-4620000D02*
X8400000Y-4620000D01*
X10560000Y-7780000D02*
X9100000Y-7780000D01*
X10560000Y-15780000D02*
X9100000Y-15780000D01*
X10560000Y-12620000D02*
X8400000Y-12620000D01*
X10560000Y-12620000D02*
X10560000Y-13550000D01*
X10560000Y-15780000D02*
X10560000Y-14850000D01*
X10560000Y-23780000D02*
X10560000Y-22850000D01*
X10560000Y-20620000D02*
X10560000Y-21550000D01*
X10560000Y-20620000D02*
X8400000Y-20620000D01*
X10560000Y-23780000D02*
X9100000Y-23780000D01*
X10560000Y-31780000D02*
X9100000Y-31780000D01*
X10560000Y-28620000D02*
X8400000Y-28620000D01*
X10560000Y-28620000D02*
X10560000Y-29550000D01*
X10560000Y-31780000D02*
X10560000Y-30850000D01*
X10560000Y-39780000D02*
X10560000Y-38850000D01*
X10560000Y-36620000D02*
X10560000Y-37550000D01*
X10560000Y-36620000D02*
X8400000Y-36620000D01*
X10560000Y-39780000D02*
X9100000Y-39780000D01*
X10560000Y-47780000D02*
X9100000Y-47780000D01*
X10560000Y-44620000D02*
X8400000Y-44620000D01*
X10560000Y-44620000D02*
X10560000Y-45550000D01*
X10560000Y-47780000D02*
X10560000Y-46850000D01*
X10560000Y-55780000D02*
X10560000Y-54850000D01*
X10560000Y-52620000D02*
X10560000Y-53550000D01*
X10560000Y-52620000D02*
X8400000Y-52620000D01*
X10560000Y-55780000D02*
X9100000Y-55780000D01*
X18560000Y220000D02*
X17100000Y220000D01*
X18560000Y3380000D02*
X16400000Y3380000D01*
X18560000Y3380000D02*
X18560000Y2450000D01*
X18560000Y220000D02*
X18560000Y1150000D01*
X18560000Y-7780000D02*
X18560000Y-6850000D01*
X18560000Y-4620000D02*
X18560000Y-5550000D01*
X18560000Y-4620000D02*
X16400000Y-4620000D01*
X18560000Y-7780000D02*
X17100000Y-7780000D01*
X18560000Y-15780000D02*
X17100000Y-15780000D01*
X18560000Y-12620000D02*
X16400000Y-12620000D01*
X18560000Y-12620000D02*
X18560000Y-13550000D01*
X18560000Y-15780000D02*
X18560000Y-14850000D01*
X18560000Y-23780000D02*
X18560000Y-22850000D01*
X18560000Y-20620000D02*
X18560000Y-21550000D01*
X18560000Y-20620000D02*
X16400000Y-20620000D01*
X18560000Y-23780000D02*
X17100000Y-23780000D01*
X18560000Y-31780000D02*
X18560000Y-30850000D01*
X18560000Y-28620000D02*
X18560000Y-29550000D01*
X18560000Y-28620000D02*
X16400000Y-28620000D01*
X18560000Y-31780000D02*
X17100000Y-31780000D01*
X18560000Y-39780000D02*
X18560000Y-38850000D01*
X18560000Y-36620000D02*
X18560000Y-37550000D01*
X18560000Y-36620000D02*
X16400000Y-36620000D01*
X18560000Y-39780000D02*
X17100000Y-39780000D01*
X18560000Y-47780000D02*
X17100000Y-47780000D01*
X18560000Y-44620000D02*
X16400000Y-44620000D01*
X18560000Y-44620000D02*
X18560000Y-45550000D01*
X18560000Y-47780000D02*
X18560000Y-46850000D01*
X18560000Y-55780000D02*
X18560000Y-54850000D01*
X18560000Y-52620000D02*
X18560000Y-53550000D01*
X18560000Y-52620000D02*
X16400000Y-52620000D01*
X18560000Y-55780000D02*
X17100000Y-55780000D01*
X26560000Y220000D02*
X25100000Y220000D01*
X26560000Y3380000D02*
X24400000Y3380000D01*
X26560000Y3380000D02*
X26560000Y2450000D01*
X26560000Y220000D02*
X26560000Y1150000D01*
X26560000Y-7780000D02*
X26560000Y-6850000D01*
X26560000Y-4620000D02*
X26560000Y-5550000D01*
X26560000Y-4620000D02*
X24400000Y-4620000D01*
X26560000Y-7780000D02*
X25100000Y-7780000D01*
X26560000Y-15780000D02*
X25100000Y-15780000D01*
X26560000Y-12620000D02*
X24400000Y-12620000D01*
X26560000Y-12620000D02*
X26560000Y-13550000D01*
X26560000Y-15780000D02*
X26560000Y-14850000D01*
X26560000Y-23780000D02*
X26560000Y-22850000D01*
X26560000Y-20620000D02*
X26560000Y-21550000D01*
X26560000Y-20620000D02*
X24400000Y-20620000D01*
X26560000Y-23780000D02*
X25100000Y-23780000D01*
X26560000Y-31780000D02*
X25100000Y-31780000D01*
X26560000Y-28620000D02*
X24400000Y-28620000D01*
X26560000Y-28620000D02*
X26560000Y-29550000D01*
X26560000Y-31780000D02*
X26560000Y-30850000D01*
X26560000Y-39780000D02*
X25100000Y-39780000D01*
X26560000Y-36620000D02*
X24400000Y-36620000D01*
X26560000Y-36620000D02*
X26560000Y-37550000D01*
X26560000Y-39780000D02*
X26560000Y-38850000D01*
X26560000Y-47780000D02*
X26560000Y-46850000D01*
X26560000Y-44620000D02*
X26560000Y-45550000D01*
X26560000Y-44620000D02*
X24400000Y-44620000D01*
X26560000Y-47780000D02*
X25100000Y-47780000D01*
X26560000Y-55780000D02*
X25100000Y-55780000D01*
X26560000Y-52620000D02*
X24400000Y-52620000D01*
X26560000Y-52620000D02*
X26560000Y-53550000D01*
X26560000Y-55780000D02*
X26560000Y-54850000D01*
X34560000Y220000D02*
X34560000Y1150000D01*
X34560000Y3380000D02*
X34560000Y2450000D01*
X34560000Y3380000D02*
X32400000Y3380000D01*
X34560000Y220000D02*
X33100000Y220000D01*
X34560000Y-7780000D02*
X33100000Y-7780000D01*
X34560000Y-4620000D02*
X32400000Y-4620000D01*
X34560000Y-4620000D02*
X34560000Y-5550000D01*
X34560000Y-7780000D02*
X34560000Y-6850000D01*
X34560000Y-15780000D02*
X34560000Y-14850000D01*
X34560000Y-12620000D02*
X34560000Y-13550000D01*
X34560000Y-12620000D02*
X32400000Y-12620000D01*
X34560000Y-15780000D02*
X33100000Y-15780000D01*
X34560000Y-23780000D02*
X33100000Y-23780000D01*
X34560000Y-20620000D02*
X32400000Y-20620000D01*
X34560000Y-20620000D02*
X34560000Y-21550000D01*
X34560000Y-23780000D02*
X34560000Y-22850000D01*
X34560000Y-31780000D02*
X34560000Y-30850000D01*
X34560000Y-28620000D02*
X34560000Y-29550000D01*
X34560000Y-28620000D02*
X32400000Y-28620000D01*
X34560000Y-31780000D02*
X33100000Y-31780000D01*
X34560000Y-39780000D02*
X34560000Y-38850000D01*
X34560000Y-36620000D02*
X34560000Y-37550000D01*
X34560000Y-36620000D02*
X32400000Y-36620000D01*
X34560000Y-39780000D02*
X33100000Y-39780000D01*
X34560000Y-47780000D02*
X33100000Y-47780000D01*
X34560000Y-44620000D02*
X32400000Y-44620000D01*
X34560000Y-44620000D02*
X34560000Y-45550000D01*
X34560000Y-47780000D02*
X34560000Y-46850000D01*
X34560000Y-55780000D02*
X33100000Y-55780000D01*
X34560000Y-52620000D02*
X32400000Y-52620000D01*
X34560000Y-52620000D02*
X34560000Y-53550000D01*
X34560000Y-55780000D02*
X34560000Y-54850000D01*
X42560000Y220000D02*
X42560000Y1150000D01*
X42560000Y3380000D02*
X42560000Y2450000D01*
X42560000Y3380000D02*
X40400000Y3380000D01*
X42560000Y220000D02*
X41100000Y220000D01*
X42560000Y-7780000D02*
X41100000Y-7780000D01*
X42560000Y-4620000D02*
X40400000Y-4620000D01*
X42560000Y-4620000D02*
X42560000Y-5550000D01*
X42560000Y-7780000D02*
X42560000Y-6850000D01*
X42560000Y-15780000D02*
X42560000Y-14850000D01*
X42560000Y-12620000D02*
X42560000Y-13550000D01*
X42560000Y-12620000D02*
X40400000Y-12620000D01*
X42560000Y-15780000D02*
X41100000Y-15780000D01*
X42560000Y-23780000D02*
X41100000Y-23780000D01*
X42560000Y-20620000D02*
X40400000Y-20620000D01*
X42560000Y-20620000D02*
X42560000Y-21550000D01*
X42560000Y-23780000D02*
X42560000Y-22850000D01*
X42560000Y-31780000D02*
X41100000Y-31780000D01*
X42560000Y-28620000D02*
X40400000Y-28620000D01*
X42560000Y-28620000D02*
X42560000Y-29550000D01*
X42560000Y-31780000D02*
X42560000Y-30850000D01*
X42560000Y-39780000D02*
X41100000Y-39780000D01*
X42560000Y-36620000D02*
X40400000Y-36620000D01*
X42560000Y-36620000D02*
X42560000Y-37550000D01*
X42560000Y-39780000D02*
X42560000Y-38850000D01*
X42560000Y-47780000D02*
X41100000Y-47780000D01*
X42560000Y-44620000D02*
X40400000Y-44620000D01*
X42560000Y-44620000D02*
X42560000Y-45550000D01*
X42560000Y-47780000D02*
X42560000Y-46850000D01*
X42560000Y-55780000D02*
X41100000Y-55780000D01*
X42560000Y-52620000D02*
X40400000Y-52620000D01*
X42560000Y-52620000D02*
X42560000Y-53550000D01*
X42560000Y-55780000D02*
X42560000Y-54850000D01*
X50560000Y220000D02*
X50560000Y1150000D01*
X50560000Y3380000D02*
X50560000Y2450000D01*
X50560000Y3380000D02*
X48400000Y3380000D01*
X50560000Y220000D02*
X49100000Y220000D01*
X50560000Y-7780000D02*
X50560000Y-6850000D01*
X50560000Y-4620000D02*
X50560000Y-5550000D01*
X50560000Y-4620000D02*
X48400000Y-4620000D01*
X50560000Y-7780000D02*
X49100000Y-7780000D01*
X50560000Y-15780000D02*
X50560000Y-14850000D01*
X50560000Y-12620000D02*
X50560000Y-13550000D01*
X50560000Y-12620000D02*
X48400000Y-12620000D01*
X50560000Y-15780000D02*
X49100000Y-15780000D01*
X50560000Y-23780000D02*
X50560000Y-22850000D01*
X50560000Y-20620000D02*
X50560000Y-21550000D01*
X50560000Y-20620000D02*
X48400000Y-20620000D01*
X50560000Y-23780000D02*
X49100000Y-23780000D01*
X50560000Y-31780000D02*
X49100000Y-31780000D01*
X50560000Y-28620000D02*
X48400000Y-28620000D01*
X50560000Y-28620000D02*
X50560000Y-29550000D01*
X50560000Y-31780000D02*
X50560000Y-30850000D01*
X50560000Y-39780000D02*
X50560000Y-38850000D01*
X50560000Y-36620000D02*
X50560000Y-37550000D01*
X50560000Y-36620000D02*
X48400000Y-36620000D01*
X50560000Y-39780000D02*
X49100000Y-39780000D01*
X50560000Y-47780000D02*
X50560000Y-46850000D01*
X50560000Y-44620000D02*
X50560000Y-45550000D01*
X50560000Y-44620000D02*
X48400000Y-44620000D01*
X50560000Y-47780000D02*
X49100000Y-47780000D01*
X50560000Y-55780000D02*
X50560000Y-54850000D01*
X50560000Y-52620000D02*
X50560000Y-53550000D01*
X50560000Y-52620000D02*
X48400000Y-52620000D01*
X50560000Y-55780000D02*
X49100000Y-55780000D01*
X58560000Y220000D02*
X57100000Y220000D01*
X58560000Y3380000D02*
X56400000Y3380000D01*
X58560000Y3380000D02*
X58560000Y2450000D01*
X58560000Y220000D02*
X58560000Y1150000D01*
X58560000Y-7780000D02*
X58560000Y-6850000D01*
X58560000Y-4620000D02*
X58560000Y-5550000D01*
X58560000Y-4620000D02*
X56400000Y-4620000D01*
X58560000Y-7780000D02*
X57100000Y-7780000D01*
X58560000Y-15780000D02*
X57100000Y-15780000D01*
X58560000Y-12620000D02*
X56400000Y-12620000D01*
X58560000Y-12620000D02*
X58560000Y-13550000D01*
X58560000Y-15780000D02*
X58560000Y-14850000D01*
X58560000Y-23780000D02*
X58560000Y-22850000D01*
X58560000Y-20620000D02*
X58560000Y-21550000D01*
X58560000Y-20620000D02*
X56400000Y-20620000D01*
X58560000Y-23780000D02*
X57100000Y-23780000D01*
X58560000Y-31780000D02*
X58560000Y-30850000D01*
X58560000Y-28620000D02*
X58560000Y-29550000D01*
X58560000Y-28620000D02*
X56400000Y-28620000D01*
X58560000Y-31780000D02*
X57100000Y-31780000D01*
X58560000Y-39780000D02*
X57100000Y-39780000D01*
X58560000Y-36620000D02*
X56400000Y-36620000D01*
X58560000Y-36620000D02*
X58560000Y-37550000D01*
X58560000Y-39780000D02*
X58560000Y-38850000D01*
X58560000Y-47780000D02*
X57100000Y-47780000D01*
X58560000Y-44620000D02*
X56400000Y-44620000D01*
X58560000Y-44620000D02*
X58560000Y-45550000D01*
X58560000Y-47780000D02*
X58560000Y-46850000D01*
X58560000Y-55780000D02*
X57100000Y-55780000D01*
X58560000Y-52620000D02*
X56400000Y-52620000D01*
X58560000Y-52620000D02*
X58560000Y-53550000D01*
X58560000Y-55780000D02*
X58560000Y-54850000D01*
X60000Y-56190000D02*
X-2800000Y-56190000D01*
X60000Y-58110000D02*
X60000Y-56190000D01*
X-2800000Y-58110000D02*
X60000Y-58110000D01*
X5200000Y-58110000D02*
X8060000Y-58110000D01*
X8060000Y-58110000D02*
X8060000Y-56190000D01*
X8060000Y-56190000D02*
X5200000Y-56190000D01*
X16060000Y-56190000D02*
X13200000Y-56190000D01*
X16060000Y-58110000D02*
X16060000Y-56190000D01*
X13200000Y-58110000D02*
X16060000Y-58110000D01*
X21200000Y-58110000D02*
X24060000Y-58110000D01*
X24060000Y-58110000D02*
X24060000Y-56190000D01*
X24060000Y-56190000D02*
X21200000Y-56190000D01*
X29200000Y-58110000D02*
X32060000Y-58110000D01*
X32060000Y-58110000D02*
X32060000Y-56190000D01*
X32060000Y-56190000D02*
X29200000Y-56190000D01*
X37200000Y-58110000D02*
X40060000Y-58110000D01*
X40060000Y-58110000D02*
X40060000Y-56190000D01*
X40060000Y-56190000D02*
X37200000Y-56190000D01*
X48060000Y-56190000D02*
X45200000Y-56190000D01*
X48060000Y-58110000D02*
X48060000Y-56190000D01*
X45200000Y-58110000D02*
X48060000Y-58110000D01*
X53200000Y-58110000D02*
X56060000Y-58110000D01*
X56060000Y-58110000D02*
X56060000Y-56190000D01*
X56060000Y-56190000D02*
X53200000Y-56190000D01*
X65639999Y1000000D02*
X65639999Y-1860000D01*
X65639999Y-1860000D02*
X67559999Y-1860000D01*
X67559999Y-1860000D02*
X67559999Y1000000D01*
X67559999Y-9860000D02*
X67559999Y-7000000D01*
X65639999Y-9860000D02*
X67559999Y-9860000D01*
X65639999Y-7000000D02*
X65639999Y-9860000D01*
X65639999Y-15000000D02*
X65639999Y-17860000D01*
X65639999Y-17860000D02*
X67559999Y-17860000D01*
X67559999Y-17860000D02*
X67559999Y-15000000D01*
X67559999Y-25860000D02*
X67559999Y-23000000D01*
X65639999Y-25860000D02*
X67559999Y-25860000D01*
X65639999Y-23000000D02*
X65639999Y-25860000D01*
X67559999Y-33860000D02*
X67559999Y-31000000D01*
X65639999Y-33860000D02*
X67559999Y-33860000D01*
X65639999Y-31000000D02*
X65639999Y-33860000D01*
X67559999Y-41860000D02*
X67559999Y-39000000D01*
X65639999Y-41860000D02*
X67559999Y-41860000D01*
X65639999Y-39000000D02*
X65639999Y-41860000D01*
X65639999Y-47000000D02*
X65639999Y-49860000D01*
X65639999Y-49860000D02*
X67559999Y-49860000D01*
X67559999Y-49860000D02*
X67559999Y-47000000D01*
X67559999Y-57860000D02*
X67559999Y-55000000D01*
X65639999Y-57860000D02*
X67559999Y-57860000D01*
X65639999Y-55000000D02*
X65639999Y-57860000D01*
X88140000Y-21770000D02*
X88140000Y-39670000D01*
X88140000Y-39670000D02*
X90800000Y-39670000D01*
X90800000Y-39670000D02*
X90800000Y-21770000D01*
X90800000Y-21770000D02*
X88140000Y-21770000D01*
X90800000Y-22720000D02*
X96800000Y-22720000D01*
X96800000Y-22720000D02*
X96800000Y-23480000D01*
X96800000Y-23480000D02*
X90800000Y-23480000D01*
X90800000Y-22780000D02*
X96800000Y-22780000D01*
X90800000Y-22900000D02*
X96800000Y-22900000D01*
X90800000Y-23020000D02*
X96800000Y-23020000D01*
X90800000Y-23140000D02*
X96800000Y-23140000D01*
X90800000Y-23260000D02*
X96800000Y-23260000D01*
X90800000Y-23380000D02*
X96800000Y-23380000D01*
X87810000Y-22720000D02*
X88140000Y-22720000D01*
X87810000Y-23480000D02*
X88140000Y-23480000D01*
X88140000Y-24370000D02*
X90800000Y-24370000D01*
X90800000Y-25260000D02*
X96800000Y-25260000D01*
X96800000Y-25260000D02*
X96800000Y-26020000D01*
X96800000Y-26020000D02*
X90800000Y-26020000D01*
X87742929Y-25260000D02*
X88140000Y-25260000D01*
X87742929Y-26020000D02*
X88140000Y-26020000D01*
X88140000Y-26910000D02*
X90800000Y-26910000D01*
X90800000Y-27800000D02*
X96800000Y-27800000D01*
X96800000Y-27800000D02*
X96800000Y-28560000D01*
X96800000Y-28560000D02*
X90800000Y-28560000D01*
X87742929Y-27800000D02*
X88140000Y-27800000D01*
X87742929Y-28560000D02*
X88140000Y-28560000D01*
X88140000Y-29450000D02*
X90800000Y-29450000D01*
X90800000Y-30340000D02*
X96800000Y-30340000D01*
X96800000Y-30340000D02*
X96800000Y-31100000D01*
X96800000Y-31100000D02*
X90800000Y-31100000D01*
X87742929Y-30340000D02*
X88140000Y-30340000D01*
X87742929Y-31100000D02*
X88140000Y-31100000D01*
X88140000Y-31990000D02*
X90800000Y-31990000D01*
X90800000Y-32880000D02*
X96800000Y-32880000D01*
X96800000Y-32880000D02*
X96800000Y-33640000D01*
X96800000Y-33640000D02*
X90800000Y-33640000D01*
X87742929Y-32880000D02*
X88140000Y-32880000D01*
X87742929Y-33640000D02*
X88140000Y-33640000D01*
X88140000Y-34530000D02*
X90800000Y-34530000D01*
X90800000Y-35420000D02*
X96800000Y-35420000D01*
X96800000Y-35420000D02*
X96800000Y-36180000D01*
X96800000Y-36180000D02*
X90800000Y-36180000D01*
X87742929Y-35420000D02*
X88140000Y-35420000D01*
X87742929Y-36180000D02*
X88140000Y-36180000D01*
X88140000Y-37070000D02*
X90800000Y-37070000D01*
X90800000Y-37960000D02*
X96800000Y-37960000D01*
X96800000Y-37960000D02*
X96800000Y-38720000D01*
X96800000Y-38720000D02*
X90800000Y-38720000D01*
X87742929Y-37960000D02*
X88140000Y-37960000D01*
X87742929Y-38720000D02*
X88140000Y-38720000D01*
X85430000Y-23100000D02*
X85430000Y-21830000D01*
X85430000Y-21830000D02*
X86700000Y-21830000D01*
X2411252Y-57860000D02*
X1888748Y-57860000D01*
X2411252Y-56440000D02*
X1888748Y-56440000D01*
X10411252Y-56440000D02*
X9888748Y-56440000D01*
X10411252Y-57860000D02*
X9888748Y-57860000D01*
X18411252Y-57860000D02*
X17888748Y-57860000D01*
X18411252Y-56440000D02*
X17888748Y-56440000D01*
X26411252Y-56440000D02*
X25888748Y-56440000D01*
X26411252Y-57860000D02*
X25888748Y-57860000D01*
X34411252Y-57860000D02*
X33888748Y-57860000D01*
X34411252Y-56440000D02*
X33888748Y-56440000D01*
X42411252Y-56440000D02*
X41888748Y-56440000D01*
X42411252Y-57860000D02*
X41888748Y-57860000D01*
X50411252Y-57860000D02*
X49888748Y-57860000D01*
X50411252Y-56440000D02*
X49888748Y-56440000D01*
X58411252Y-57860000D02*
X57888748Y-57860000D01*
X58411252Y-56440000D02*
X57888748Y-56440000D01*
X-2111252Y-54010000D02*
X-1588748Y-54010000D01*
X-2111252Y-52590000D02*
X-1588748Y-52590000D01*
X5888748Y-54010000D02*
X6411252Y-54010000D01*
X5888748Y-52590000D02*
X6411252Y-52590000D01*
X13888748Y-52590000D02*
X14411252Y-52590000D01*
X13888748Y-54010000D02*
X14411252Y-54010000D01*
X21888748Y-52590000D02*
X22411252Y-52590000D01*
X21888748Y-54010000D02*
X22411252Y-54010000D01*
X29888748Y-52590000D02*
X30411252Y-52590000D01*
X29888748Y-54010000D02*
X30411252Y-54010000D01*
X37888748Y-54010000D02*
X38411252Y-54010000D01*
X37888748Y-52590000D02*
X38411252Y-52590000D01*
X45888748Y-54010000D02*
X46411252Y-54010000D01*
X45888748Y-52590000D02*
X46411252Y-52590000D01*
X53888748Y-52590000D02*
X54411252Y-52590000D01*
X53888748Y-54010000D02*
X54411252Y-54010000D01*
X62710000Y-261252D02*
X62710000Y261252D01*
X61290000Y-261252D02*
X61290000Y261252D01*
X62710000Y-8261252D02*
X62710000Y-7738748D01*
X61290000Y-8261252D02*
X61290000Y-7738748D01*
X61290000Y-16261252D02*
X61290000Y-15738748D01*
X62710000Y-16261252D02*
X62710000Y-15738748D01*
X62710000Y-24261252D02*
X62710000Y-23738748D01*
X61290000Y-24261252D02*
X61290000Y-23738748D01*
X62710000Y-32261252D02*
X62710000Y-31738748D01*
X61290000Y-32261252D02*
X61290000Y-31738748D01*
X61290000Y-40261252D02*
X61290000Y-39738748D01*
X62710000Y-40261252D02*
X62710000Y-39738748D01*
X62710000Y-48261252D02*
X62710000Y-47738748D01*
X61290000Y-48261252D02*
X61290000Y-47738748D01*
X61290000Y-56261252D02*
X61290000Y-55738748D01*
X62710000Y-56261252D02*
X62710000Y-55738748D01*
X75365000Y-31660000D02*
X73700000Y-31660000D01*
X75365000Y-31405000D02*
X75365000Y-31660000D01*
X77750000Y-31405000D02*
X75365000Y-31405000D01*
X80135000Y-31405000D02*
X80135000Y-31660000D01*
X77750000Y-31405000D02*
X80135000Y-31405000D01*
X75365000Y-41925000D02*
X75365000Y-41670000D01*
X77750000Y-41925000D02*
X75365000Y-41925000D01*
X80135000Y-41925000D02*
X80135000Y-41670000D01*
X77750000Y-41925000D02*
X80135000Y-41925000D01*
X77750000Y-28255000D02*
X80135000Y-28255000D01*
X80135000Y-28255000D02*
X80135000Y-28000000D01*
X77750000Y-28255000D02*
X75365000Y-28255000D01*
X75365000Y-28255000D02*
X75365000Y-28000000D01*
X77750000Y-17735000D02*
X80135000Y-17735000D01*
X80135000Y-17735000D02*
X80135000Y-17990000D01*
X77750000Y-17735000D02*
X75365000Y-17735000D01*
X75365000Y-17735000D02*
X75365000Y-17990000D01*
X75365000Y-17990000D02*
X73700000Y-17990000D01*
D10*
X1061904Y3847619D02*
X1061904Y4847619D01*
X1300000Y4847619D01*
X1442857Y4800000D01*
X1538095Y4704761D01*
X1585714Y4609523D01*
X1633333Y4419047D01*
X1633333Y4276190D01*
X1585714Y4085714D01*
X1538095Y3990476D01*
X1442857Y3895238D01*
X1300000Y3847619D01*
X1061904Y3847619D01*
X2585714Y3847619D02*
X2014285Y3847619D01*
X2300000Y3847619D02*
X2300000Y4847619D01*
X2204761Y4704761D01*
X2109523Y4609523D01*
X2014285Y4561904D01*
X1061904Y-4152380D02*
X1061904Y-3152380D01*
X1300000Y-3152380D01*
X1442857Y-3200000D01*
X1538095Y-3295238D01*
X1585714Y-3390476D01*
X1633333Y-3580952D01*
X1633333Y-3723809D01*
X1585714Y-3914285D01*
X1538095Y-4009523D01*
X1442857Y-4104761D01*
X1300000Y-4152380D01*
X1061904Y-4152380D01*
X2014285Y-3247619D02*
X2061904Y-3200000D01*
X2157142Y-3152380D01*
X2395238Y-3152380D01*
X2490476Y-3200000D01*
X2538095Y-3247619D01*
X2585714Y-3342857D01*
X2585714Y-3438095D01*
X2538095Y-3580952D01*
X1966666Y-4152380D01*
X2585714Y-4152380D01*
X1061904Y-12152380D02*
X1061904Y-11152380D01*
X1300000Y-11152380D01*
X1442857Y-11200000D01*
X1538095Y-11295238D01*
X1585714Y-11390476D01*
X1633333Y-11580952D01*
X1633333Y-11723809D01*
X1585714Y-11914285D01*
X1538095Y-12009523D01*
X1442857Y-12104761D01*
X1300000Y-12152380D01*
X1061904Y-12152380D01*
X1966666Y-11152380D02*
X2585714Y-11152380D01*
X2252380Y-11533333D01*
X2395238Y-11533333D01*
X2490476Y-11580952D01*
X2538095Y-11628571D01*
X2585714Y-11723809D01*
X2585714Y-11961904D01*
X2538095Y-12057142D01*
X2490476Y-12104761D01*
X2395238Y-12152380D01*
X2109523Y-12152380D01*
X2014285Y-12104761D01*
X1966666Y-12057142D01*
X1061904Y-20152380D02*
X1061904Y-19152380D01*
X1300000Y-19152380D01*
X1442857Y-19200000D01*
X1538095Y-19295238D01*
X1585714Y-19390476D01*
X1633333Y-19580952D01*
X1633333Y-19723809D01*
X1585714Y-19914285D01*
X1538095Y-20009523D01*
X1442857Y-20104761D01*
X1300000Y-20152380D01*
X1061904Y-20152380D01*
X2490476Y-19485714D02*
X2490476Y-20152380D01*
X2252380Y-19104761D02*
X2014285Y-19819047D01*
X2633333Y-19819047D01*
X1061904Y-28152380D02*
X1061904Y-27152380D01*
X1300000Y-27152380D01*
X1442857Y-27200000D01*
X1538095Y-27295238D01*
X1585714Y-27390476D01*
X1633333Y-27580952D01*
X1633333Y-27723809D01*
X1585714Y-27914285D01*
X1538095Y-28009523D01*
X1442857Y-28104761D01*
X1300000Y-28152380D01*
X1061904Y-28152380D01*
X2538095Y-27152380D02*
X2061904Y-27152380D01*
X2014285Y-27628571D01*
X2061904Y-27580952D01*
X2157142Y-27533333D01*
X2395238Y-27533333D01*
X2490476Y-27580952D01*
X2538095Y-27628571D01*
X2585714Y-27723809D01*
X2585714Y-27961904D01*
X2538095Y-28057142D01*
X2490476Y-28104761D01*
X2395238Y-28152380D01*
X2157142Y-28152380D01*
X2061904Y-28104761D01*
X2014285Y-28057142D01*
X1061904Y-36152380D02*
X1061904Y-35152380D01*
X1300000Y-35152380D01*
X1442857Y-35200000D01*
X1538095Y-35295238D01*
X1585714Y-35390476D01*
X1633333Y-35580952D01*
X1633333Y-35723809D01*
X1585714Y-35914285D01*
X1538095Y-36009523D01*
X1442857Y-36104761D01*
X1300000Y-36152380D01*
X1061904Y-36152380D01*
X2490476Y-35152380D02*
X2300000Y-35152380D01*
X2204761Y-35200000D01*
X2157142Y-35247619D01*
X2061904Y-35390476D01*
X2014285Y-35580952D01*
X2014285Y-35961904D01*
X2061904Y-36057142D01*
X2109523Y-36104761D01*
X2204761Y-36152380D01*
X2395238Y-36152380D01*
X2490476Y-36104761D01*
X2538095Y-36057142D01*
X2585714Y-35961904D01*
X2585714Y-35723809D01*
X2538095Y-35628571D01*
X2490476Y-35580952D01*
X2395238Y-35533333D01*
X2204761Y-35533333D01*
X2109523Y-35580952D01*
X2061904Y-35628571D01*
X2014285Y-35723809D01*
X1061904Y-44152380D02*
X1061904Y-43152380D01*
X1300000Y-43152380D01*
X1442857Y-43200000D01*
X1538095Y-43295238D01*
X1585714Y-43390476D01*
X1633333Y-43580952D01*
X1633333Y-43723809D01*
X1585714Y-43914285D01*
X1538095Y-44009523D01*
X1442857Y-44104761D01*
X1300000Y-44152380D01*
X1061904Y-44152380D01*
X1966666Y-43152380D02*
X2633333Y-43152380D01*
X2204761Y-44152380D01*
X1061904Y-52152380D02*
X1061904Y-51152380D01*
X1300000Y-51152380D01*
X1442857Y-51200000D01*
X1538095Y-51295238D01*
X1585714Y-51390476D01*
X1633333Y-51580952D01*
X1633333Y-51723809D01*
X1585714Y-51914285D01*
X1538095Y-52009523D01*
X1442857Y-52104761D01*
X1300000Y-52152380D01*
X1061904Y-52152380D01*
X2204761Y-51580952D02*
X2109523Y-51533333D01*
X2061904Y-51485714D01*
X2014285Y-51390476D01*
X2014285Y-51342857D01*
X2061904Y-51247619D01*
X2109523Y-51200000D01*
X2204761Y-51152380D01*
X2395238Y-51152380D01*
X2490476Y-51200000D01*
X2538095Y-51247619D01*
X2585714Y-51342857D01*
X2585714Y-51390476D01*
X2538095Y-51485714D01*
X2490476Y-51533333D01*
X2395238Y-51580952D01*
X2204761Y-51580952D01*
X2109523Y-51628571D01*
X2061904Y-51676190D01*
X2014285Y-51771428D01*
X2014285Y-51961904D01*
X2061904Y-52057142D01*
X2109523Y-52104761D01*
X2204761Y-52152380D01*
X2395238Y-52152380D01*
X2490476Y-52104761D01*
X2538095Y-52057142D01*
X2585714Y-51961904D01*
X2585714Y-51771428D01*
X2538095Y-51676190D01*
X2490476Y-51628571D01*
X2395238Y-51580952D01*
X9061904Y3847619D02*
X9061904Y4847619D01*
X9300000Y4847619D01*
X9442857Y4800000D01*
X9538095Y4704761D01*
X9585714Y4609523D01*
X9633333Y4419047D01*
X9633333Y4276190D01*
X9585714Y4085714D01*
X9538095Y3990476D01*
X9442857Y3895238D01*
X9300000Y3847619D01*
X9061904Y3847619D01*
X10109523Y3847619D02*
X10300000Y3847619D01*
X10395238Y3895238D01*
X10442857Y3942857D01*
X10538095Y4085714D01*
X10585714Y4276190D01*
X10585714Y4657142D01*
X10538095Y4752380D01*
X10490476Y4800000D01*
X10395238Y4847619D01*
X10204761Y4847619D01*
X10109523Y4800000D01*
X10061904Y4752380D01*
X10014285Y4657142D01*
X10014285Y4419047D01*
X10061904Y4323809D01*
X10109523Y4276190D01*
X10204761Y4228571D01*
X10395238Y4228571D01*
X10490476Y4276190D01*
X10538095Y4323809D01*
X10585714Y4419047D01*
X8585714Y-4152380D02*
X8585714Y-3152380D01*
X8823809Y-3152380D01*
X8966666Y-3200000D01*
X9061904Y-3295238D01*
X9109523Y-3390476D01*
X9157142Y-3580952D01*
X9157142Y-3723809D01*
X9109523Y-3914285D01*
X9061904Y-4009523D01*
X8966666Y-4104761D01*
X8823809Y-4152380D01*
X8585714Y-4152380D01*
X10109523Y-4152380D02*
X9538095Y-4152380D01*
X9823809Y-4152380D02*
X9823809Y-3152380D01*
X9728571Y-3295238D01*
X9633333Y-3390476D01*
X9538095Y-3438095D01*
X10728571Y-3152380D02*
X10823809Y-3152380D01*
X10919047Y-3200000D01*
X10966666Y-3247619D01*
X11014285Y-3342857D01*
X11061904Y-3533333D01*
X11061904Y-3771428D01*
X11014285Y-3961904D01*
X10966666Y-4057142D01*
X10919047Y-4104761D01*
X10823809Y-4152380D01*
X10728571Y-4152380D01*
X10633333Y-4104761D01*
X10585714Y-4057142D01*
X10538095Y-3961904D01*
X10490476Y-3771428D01*
X10490476Y-3533333D01*
X10538095Y-3342857D01*
X10585714Y-3247619D01*
X10633333Y-3200000D01*
X10728571Y-3152380D01*
X8585714Y-12152380D02*
X8585714Y-11152380D01*
X8823809Y-11152380D01*
X8966666Y-11200000D01*
X9061904Y-11295238D01*
X9109523Y-11390476D01*
X9157142Y-11580952D01*
X9157142Y-11723809D01*
X9109523Y-11914285D01*
X9061904Y-12009523D01*
X8966666Y-12104761D01*
X8823809Y-12152380D01*
X8585714Y-12152380D01*
X10109523Y-12152380D02*
X9538095Y-12152380D01*
X9823809Y-12152380D02*
X9823809Y-11152380D01*
X9728571Y-11295238D01*
X9633333Y-11390476D01*
X9538095Y-11438095D01*
X11061904Y-12152380D02*
X10490476Y-12152380D01*
X10776190Y-12152380D02*
X10776190Y-11152380D01*
X10680952Y-11295238D01*
X10585714Y-11390476D01*
X10490476Y-11438095D01*
X8585714Y-20152380D02*
X8585714Y-19152380D01*
X8823809Y-19152380D01*
X8966666Y-19200000D01*
X9061904Y-19295238D01*
X9109523Y-19390476D01*
X9157142Y-19580952D01*
X9157142Y-19723809D01*
X9109523Y-19914285D01*
X9061904Y-20009523D01*
X8966666Y-20104761D01*
X8823809Y-20152380D01*
X8585714Y-20152380D01*
X10109523Y-20152380D02*
X9538095Y-20152380D01*
X9823809Y-20152380D02*
X9823809Y-19152380D01*
X9728571Y-19295238D01*
X9633333Y-19390476D01*
X9538095Y-19438095D01*
X10490476Y-19247619D02*
X10538095Y-19200000D01*
X10633333Y-19152380D01*
X10871428Y-19152380D01*
X10966666Y-19200000D01*
X11014285Y-19247619D01*
X11061904Y-19342857D01*
X11061904Y-19438095D01*
X11014285Y-19580952D01*
X10442857Y-20152380D01*
X11061904Y-20152380D01*
X8585714Y-28152380D02*
X8585714Y-27152380D01*
X8823809Y-27152380D01*
X8966666Y-27200000D01*
X9061904Y-27295238D01*
X9109523Y-27390476D01*
X9157142Y-27580952D01*
X9157142Y-27723809D01*
X9109523Y-27914285D01*
X9061904Y-28009523D01*
X8966666Y-28104761D01*
X8823809Y-28152380D01*
X8585714Y-28152380D01*
X10109523Y-28152380D02*
X9538095Y-28152380D01*
X9823809Y-28152380D02*
X9823809Y-27152380D01*
X9728571Y-27295238D01*
X9633333Y-27390476D01*
X9538095Y-27438095D01*
X10442857Y-27152380D02*
X11061904Y-27152380D01*
X10728571Y-27533333D01*
X10871428Y-27533333D01*
X10966666Y-27580952D01*
X11014285Y-27628571D01*
X11061904Y-27723809D01*
X11061904Y-27961904D01*
X11014285Y-28057142D01*
X10966666Y-28104761D01*
X10871428Y-28152380D01*
X10585714Y-28152380D01*
X10490476Y-28104761D01*
X10442857Y-28057142D01*
X8585714Y-36152380D02*
X8585714Y-35152380D01*
X8823809Y-35152380D01*
X8966666Y-35200000D01*
X9061904Y-35295238D01*
X9109523Y-35390476D01*
X9157142Y-35580952D01*
X9157142Y-35723809D01*
X9109523Y-35914285D01*
X9061904Y-36009523D01*
X8966666Y-36104761D01*
X8823809Y-36152380D01*
X8585714Y-36152380D01*
X10109523Y-36152380D02*
X9538095Y-36152380D01*
X9823809Y-36152380D02*
X9823809Y-35152380D01*
X9728571Y-35295238D01*
X9633333Y-35390476D01*
X9538095Y-35438095D01*
X10966666Y-35485714D02*
X10966666Y-36152380D01*
X10728571Y-35104761D02*
X10490476Y-35819047D01*
X11109523Y-35819047D01*
X8585714Y-44152380D02*
X8585714Y-43152380D01*
X8823809Y-43152380D01*
X8966666Y-43200000D01*
X9061904Y-43295238D01*
X9109523Y-43390476D01*
X9157142Y-43580952D01*
X9157142Y-43723809D01*
X9109523Y-43914285D01*
X9061904Y-44009523D01*
X8966666Y-44104761D01*
X8823809Y-44152380D01*
X8585714Y-44152380D01*
X10109523Y-44152380D02*
X9538095Y-44152380D01*
X9823809Y-44152380D02*
X9823809Y-43152380D01*
X9728571Y-43295238D01*
X9633333Y-43390476D01*
X9538095Y-43438095D01*
X11014285Y-43152380D02*
X10538095Y-43152380D01*
X10490476Y-43628571D01*
X10538095Y-43580952D01*
X10633333Y-43533333D01*
X10871428Y-43533333D01*
X10966666Y-43580952D01*
X11014285Y-43628571D01*
X11061904Y-43723809D01*
X11061904Y-43961904D01*
X11014285Y-44057142D01*
X10966666Y-44104761D01*
X10871428Y-44152380D01*
X10633333Y-44152380D01*
X10538095Y-44104761D01*
X10490476Y-44057142D01*
X8585714Y-52152380D02*
X8585714Y-51152380D01*
X8823809Y-51152380D01*
X8966666Y-51200000D01*
X9061904Y-51295238D01*
X9109523Y-51390476D01*
X9157142Y-51580952D01*
X9157142Y-51723809D01*
X9109523Y-51914285D01*
X9061904Y-52009523D01*
X8966666Y-52104761D01*
X8823809Y-52152380D01*
X8585714Y-52152380D01*
X10109523Y-52152380D02*
X9538095Y-52152380D01*
X9823809Y-52152380D02*
X9823809Y-51152380D01*
X9728571Y-51295238D01*
X9633333Y-51390476D01*
X9538095Y-51438095D01*
X10966666Y-51152380D02*
X10776190Y-51152380D01*
X10680952Y-51200000D01*
X10633333Y-51247619D01*
X10538095Y-51390476D01*
X10490476Y-51580952D01*
X10490476Y-51961904D01*
X10538095Y-52057142D01*
X10585714Y-52104761D01*
X10680952Y-52152380D01*
X10871428Y-52152380D01*
X10966666Y-52104761D01*
X11014285Y-52057142D01*
X11061904Y-51961904D01*
X11061904Y-51723809D01*
X11014285Y-51628571D01*
X10966666Y-51580952D01*
X10871428Y-51533333D01*
X10680952Y-51533333D01*
X10585714Y-51580952D01*
X10538095Y-51628571D01*
X10490476Y-51723809D01*
X16585714Y3847619D02*
X16585714Y4847619D01*
X16823809Y4847619D01*
X16966666Y4800000D01*
X17061904Y4704761D01*
X17109523Y4609523D01*
X17157142Y4419047D01*
X17157142Y4276190D01*
X17109523Y4085714D01*
X17061904Y3990476D01*
X16966666Y3895238D01*
X16823809Y3847619D01*
X16585714Y3847619D01*
X18109523Y3847619D02*
X17538095Y3847619D01*
X17823809Y3847619D02*
X17823809Y4847619D01*
X17728571Y4704761D01*
X17633333Y4609523D01*
X17538095Y4561904D01*
X18442857Y4847619D02*
X19109523Y4847619D01*
X18680952Y3847619D01*
X16585714Y-4152380D02*
X16585714Y-3152380D01*
X16823809Y-3152380D01*
X16966666Y-3200000D01*
X17061904Y-3295238D01*
X17109523Y-3390476D01*
X17157142Y-3580952D01*
X17157142Y-3723809D01*
X17109523Y-3914285D01*
X17061904Y-4009523D01*
X16966666Y-4104761D01*
X16823809Y-4152380D01*
X16585714Y-4152380D01*
X18109523Y-4152380D02*
X17538095Y-4152380D01*
X17823809Y-4152380D02*
X17823809Y-3152380D01*
X17728571Y-3295238D01*
X17633333Y-3390476D01*
X17538095Y-3438095D01*
X18680952Y-3580952D02*
X18585714Y-3533333D01*
X18538095Y-3485714D01*
X18490476Y-3390476D01*
X18490476Y-3342857D01*
X18538095Y-3247619D01*
X18585714Y-3200000D01*
X18680952Y-3152380D01*
X18871428Y-3152380D01*
X18966666Y-3200000D01*
X19014285Y-3247619D01*
X19061904Y-3342857D01*
X19061904Y-3390476D01*
X19014285Y-3485714D01*
X18966666Y-3533333D01*
X18871428Y-3580952D01*
X18680952Y-3580952D01*
X18585714Y-3628571D01*
X18538095Y-3676190D01*
X18490476Y-3771428D01*
X18490476Y-3961904D01*
X18538095Y-4057142D01*
X18585714Y-4104761D01*
X18680952Y-4152380D01*
X18871428Y-4152380D01*
X18966666Y-4104761D01*
X19014285Y-4057142D01*
X19061904Y-3961904D01*
X19061904Y-3771428D01*
X19014285Y-3676190D01*
X18966666Y-3628571D01*
X18871428Y-3580952D01*
X16585714Y-12152380D02*
X16585714Y-11152380D01*
X16823809Y-11152380D01*
X16966666Y-11200000D01*
X17061904Y-11295238D01*
X17109523Y-11390476D01*
X17157142Y-11580952D01*
X17157142Y-11723809D01*
X17109523Y-11914285D01*
X17061904Y-12009523D01*
X16966666Y-12104761D01*
X16823809Y-12152380D01*
X16585714Y-12152380D01*
X18109523Y-12152380D02*
X17538095Y-12152380D01*
X17823809Y-12152380D02*
X17823809Y-11152380D01*
X17728571Y-11295238D01*
X17633333Y-11390476D01*
X17538095Y-11438095D01*
X18585714Y-12152380D02*
X18776190Y-12152380D01*
X18871428Y-12104761D01*
X18919047Y-12057142D01*
X19014285Y-11914285D01*
X19061904Y-11723809D01*
X19061904Y-11342857D01*
X19014285Y-11247619D01*
X18966666Y-11200000D01*
X18871428Y-11152380D01*
X18680952Y-11152380D01*
X18585714Y-11200000D01*
X18538095Y-11247619D01*
X18490476Y-11342857D01*
X18490476Y-11580952D01*
X18538095Y-11676190D01*
X18585714Y-11723809D01*
X18680952Y-11771428D01*
X18871428Y-11771428D01*
X18966666Y-11723809D01*
X19014285Y-11676190D01*
X19061904Y-11580952D01*
X16585714Y-20152380D02*
X16585714Y-19152380D01*
X16823809Y-19152380D01*
X16966666Y-19200000D01*
X17061904Y-19295238D01*
X17109523Y-19390476D01*
X17157142Y-19580952D01*
X17157142Y-19723809D01*
X17109523Y-19914285D01*
X17061904Y-20009523D01*
X16966666Y-20104761D01*
X16823809Y-20152380D01*
X16585714Y-20152380D01*
X17538095Y-19247619D02*
X17585714Y-19200000D01*
X17680952Y-19152380D01*
X17919047Y-19152380D01*
X18014285Y-19200000D01*
X18061904Y-19247619D01*
X18109523Y-19342857D01*
X18109523Y-19438095D01*
X18061904Y-19580952D01*
X17490476Y-20152380D01*
X18109523Y-20152380D01*
X18728571Y-19152380D02*
X18823809Y-19152380D01*
X18919047Y-19200000D01*
X18966666Y-19247619D01*
X19014285Y-19342857D01*
X19061904Y-19533333D01*
X19061904Y-19771428D01*
X19014285Y-19961904D01*
X18966666Y-20057142D01*
X18919047Y-20104761D01*
X18823809Y-20152380D01*
X18728571Y-20152380D01*
X18633333Y-20104761D01*
X18585714Y-20057142D01*
X18538095Y-19961904D01*
X18490476Y-19771428D01*
X18490476Y-19533333D01*
X18538095Y-19342857D01*
X18585714Y-19247619D01*
X18633333Y-19200000D01*
X18728571Y-19152380D01*
X16585714Y-28152380D02*
X16585714Y-27152380D01*
X16823809Y-27152380D01*
X16966666Y-27200000D01*
X17061904Y-27295238D01*
X17109523Y-27390476D01*
X17157142Y-27580952D01*
X17157142Y-27723809D01*
X17109523Y-27914285D01*
X17061904Y-28009523D01*
X16966666Y-28104761D01*
X16823809Y-28152380D01*
X16585714Y-28152380D01*
X17538095Y-27247619D02*
X17585714Y-27200000D01*
X17680952Y-27152380D01*
X17919047Y-27152380D01*
X18014285Y-27200000D01*
X18061904Y-27247619D01*
X18109523Y-27342857D01*
X18109523Y-27438095D01*
X18061904Y-27580952D01*
X17490476Y-28152380D01*
X18109523Y-28152380D01*
X19061904Y-28152380D02*
X18490476Y-28152380D01*
X18776190Y-28152380D02*
X18776190Y-27152380D01*
X18680952Y-27295238D01*
X18585714Y-27390476D01*
X18490476Y-27438095D01*
X16585714Y-36152380D02*
X16585714Y-35152380D01*
X16823809Y-35152380D01*
X16966666Y-35200000D01*
X17061904Y-35295238D01*
X17109523Y-35390476D01*
X17157142Y-35580952D01*
X17157142Y-35723809D01*
X17109523Y-35914285D01*
X17061904Y-36009523D01*
X16966666Y-36104761D01*
X16823809Y-36152380D01*
X16585714Y-36152380D01*
X17538095Y-35247619D02*
X17585714Y-35200000D01*
X17680952Y-35152380D01*
X17919047Y-35152380D01*
X18014285Y-35200000D01*
X18061904Y-35247619D01*
X18109523Y-35342857D01*
X18109523Y-35438095D01*
X18061904Y-35580952D01*
X17490476Y-36152380D01*
X18109523Y-36152380D01*
X18490476Y-35247619D02*
X18538095Y-35200000D01*
X18633333Y-35152380D01*
X18871428Y-35152380D01*
X18966666Y-35200000D01*
X19014285Y-35247619D01*
X19061904Y-35342857D01*
X19061904Y-35438095D01*
X19014285Y-35580952D01*
X18442857Y-36152380D01*
X19061904Y-36152380D01*
X16585714Y-44152380D02*
X16585714Y-43152380D01*
X16823809Y-43152380D01*
X16966666Y-43200000D01*
X17061904Y-43295238D01*
X17109523Y-43390476D01*
X17157142Y-43580952D01*
X17157142Y-43723809D01*
X17109523Y-43914285D01*
X17061904Y-44009523D01*
X16966666Y-44104761D01*
X16823809Y-44152380D01*
X16585714Y-44152380D01*
X17538095Y-43247619D02*
X17585714Y-43200000D01*
X17680952Y-43152380D01*
X17919047Y-43152380D01*
X18014285Y-43200000D01*
X18061904Y-43247619D01*
X18109523Y-43342857D01*
X18109523Y-43438095D01*
X18061904Y-43580952D01*
X17490476Y-44152380D01*
X18109523Y-44152380D01*
X18442857Y-43152380D02*
X19061904Y-43152380D01*
X18728571Y-43533333D01*
X18871428Y-43533333D01*
X18966666Y-43580952D01*
X19014285Y-43628571D01*
X19061904Y-43723809D01*
X19061904Y-43961904D01*
X19014285Y-44057142D01*
X18966666Y-44104761D01*
X18871428Y-44152380D01*
X18585714Y-44152380D01*
X18490476Y-44104761D01*
X18442857Y-44057142D01*
X16585714Y-52152380D02*
X16585714Y-51152380D01*
X16823809Y-51152380D01*
X16966666Y-51200000D01*
X17061904Y-51295238D01*
X17109523Y-51390476D01*
X17157142Y-51580952D01*
X17157142Y-51723809D01*
X17109523Y-51914285D01*
X17061904Y-52009523D01*
X16966666Y-52104761D01*
X16823809Y-52152380D01*
X16585714Y-52152380D01*
X17538095Y-51247619D02*
X17585714Y-51200000D01*
X17680952Y-51152380D01*
X17919047Y-51152380D01*
X18014285Y-51200000D01*
X18061904Y-51247619D01*
X18109523Y-51342857D01*
X18109523Y-51438095D01*
X18061904Y-51580952D01*
X17490476Y-52152380D01*
X18109523Y-52152380D01*
X18966666Y-51485714D02*
X18966666Y-52152380D01*
X18728571Y-51104761D02*
X18490476Y-51819047D01*
X19109523Y-51819047D01*
X24585714Y3847619D02*
X24585714Y4847619D01*
X24823809Y4847619D01*
X24966666Y4800000D01*
X25061904Y4704761D01*
X25109523Y4609523D01*
X25157142Y4419047D01*
X25157142Y4276190D01*
X25109523Y4085714D01*
X25061904Y3990476D01*
X24966666Y3895238D01*
X24823809Y3847619D01*
X24585714Y3847619D01*
X25538095Y4752380D02*
X25585714Y4800000D01*
X25680952Y4847619D01*
X25919047Y4847619D01*
X26014285Y4800000D01*
X26061904Y4752380D01*
X26109523Y4657142D01*
X26109523Y4561904D01*
X26061904Y4419047D01*
X25490476Y3847619D01*
X26109523Y3847619D01*
X27014285Y4847619D02*
X26538095Y4847619D01*
X26490476Y4371428D01*
X26538095Y4419047D01*
X26633333Y4466666D01*
X26871428Y4466666D01*
X26966666Y4419047D01*
X27014285Y4371428D01*
X27061904Y4276190D01*
X27061904Y4038095D01*
X27014285Y3942857D01*
X26966666Y3895238D01*
X26871428Y3847619D01*
X26633333Y3847619D01*
X26538095Y3895238D01*
X26490476Y3942857D01*
X24585714Y-4152380D02*
X24585714Y-3152380D01*
X24823809Y-3152380D01*
X24966666Y-3200000D01*
X25061904Y-3295238D01*
X25109523Y-3390476D01*
X25157142Y-3580952D01*
X25157142Y-3723809D01*
X25109523Y-3914285D01*
X25061904Y-4009523D01*
X24966666Y-4104761D01*
X24823809Y-4152380D01*
X24585714Y-4152380D01*
X25538095Y-3247619D02*
X25585714Y-3200000D01*
X25680952Y-3152380D01*
X25919047Y-3152380D01*
X26014285Y-3200000D01*
X26061904Y-3247619D01*
X26109523Y-3342857D01*
X26109523Y-3438095D01*
X26061904Y-3580952D01*
X25490476Y-4152380D01*
X26109523Y-4152380D01*
X26966666Y-3152380D02*
X26776190Y-3152380D01*
X26680952Y-3200000D01*
X26633333Y-3247619D01*
X26538095Y-3390476D01*
X26490476Y-3580952D01*
X26490476Y-3961904D01*
X26538095Y-4057142D01*
X26585714Y-4104761D01*
X26680952Y-4152380D01*
X26871428Y-4152380D01*
X26966666Y-4104761D01*
X27014285Y-4057142D01*
X27061904Y-3961904D01*
X27061904Y-3723809D01*
X27014285Y-3628571D01*
X26966666Y-3580952D01*
X26871428Y-3533333D01*
X26680952Y-3533333D01*
X26585714Y-3580952D01*
X26538095Y-3628571D01*
X26490476Y-3723809D01*
X24585714Y-12152380D02*
X24585714Y-11152380D01*
X24823809Y-11152380D01*
X24966666Y-11200000D01*
X25061904Y-11295238D01*
X25109523Y-11390476D01*
X25157142Y-11580952D01*
X25157142Y-11723809D01*
X25109523Y-11914285D01*
X25061904Y-12009523D01*
X24966666Y-12104761D01*
X24823809Y-12152380D01*
X24585714Y-12152380D01*
X25538095Y-11247619D02*
X25585714Y-11200000D01*
X25680952Y-11152380D01*
X25919047Y-11152380D01*
X26014285Y-11200000D01*
X26061904Y-11247619D01*
X26109523Y-11342857D01*
X26109523Y-11438095D01*
X26061904Y-11580952D01*
X25490476Y-12152380D01*
X26109523Y-12152380D01*
X26442857Y-11152380D02*
X27109523Y-11152380D01*
X26680952Y-12152380D01*
X24585714Y-20152380D02*
X24585714Y-19152380D01*
X24823809Y-19152380D01*
X24966666Y-19200000D01*
X25061904Y-19295238D01*
X25109523Y-19390476D01*
X25157142Y-19580952D01*
X25157142Y-19723809D01*
X25109523Y-19914285D01*
X25061904Y-20009523D01*
X24966666Y-20104761D01*
X24823809Y-20152380D01*
X24585714Y-20152380D01*
X25538095Y-19247619D02*
X25585714Y-19200000D01*
X25680952Y-19152380D01*
X25919047Y-19152380D01*
X26014285Y-19200000D01*
X26061904Y-19247619D01*
X26109523Y-19342857D01*
X26109523Y-19438095D01*
X26061904Y-19580952D01*
X25490476Y-20152380D01*
X26109523Y-20152380D01*
X26680952Y-19580952D02*
X26585714Y-19533333D01*
X26538095Y-19485714D01*
X26490476Y-19390476D01*
X26490476Y-19342857D01*
X26538095Y-19247619D01*
X26585714Y-19200000D01*
X26680952Y-19152380D01*
X26871428Y-19152380D01*
X26966666Y-19200000D01*
X27014285Y-19247619D01*
X27061904Y-19342857D01*
X27061904Y-19390476D01*
X27014285Y-19485714D01*
X26966666Y-19533333D01*
X26871428Y-19580952D01*
X26680952Y-19580952D01*
X26585714Y-19628571D01*
X26538095Y-19676190D01*
X26490476Y-19771428D01*
X26490476Y-19961904D01*
X26538095Y-20057142D01*
X26585714Y-20104761D01*
X26680952Y-20152380D01*
X26871428Y-20152380D01*
X26966666Y-20104761D01*
X27014285Y-20057142D01*
X27061904Y-19961904D01*
X27061904Y-19771428D01*
X27014285Y-19676190D01*
X26966666Y-19628571D01*
X26871428Y-19580952D01*
X24585714Y-28152380D02*
X24585714Y-27152380D01*
X24823809Y-27152380D01*
X24966666Y-27200000D01*
X25061904Y-27295238D01*
X25109523Y-27390476D01*
X25157142Y-27580952D01*
X25157142Y-27723809D01*
X25109523Y-27914285D01*
X25061904Y-28009523D01*
X24966666Y-28104761D01*
X24823809Y-28152380D01*
X24585714Y-28152380D01*
X25538095Y-27247619D02*
X25585714Y-27200000D01*
X25680952Y-27152380D01*
X25919047Y-27152380D01*
X26014285Y-27200000D01*
X26061904Y-27247619D01*
X26109523Y-27342857D01*
X26109523Y-27438095D01*
X26061904Y-27580952D01*
X25490476Y-28152380D01*
X26109523Y-28152380D01*
X26585714Y-28152380D02*
X26776190Y-28152380D01*
X26871428Y-28104761D01*
X26919047Y-28057142D01*
X27014285Y-27914285D01*
X27061904Y-27723809D01*
X27061904Y-27342857D01*
X27014285Y-27247619D01*
X26966666Y-27200000D01*
X26871428Y-27152380D01*
X26680952Y-27152380D01*
X26585714Y-27200000D01*
X26538095Y-27247619D01*
X26490476Y-27342857D01*
X26490476Y-27580952D01*
X26538095Y-27676190D01*
X26585714Y-27723809D01*
X26680952Y-27771428D01*
X26871428Y-27771428D01*
X26966666Y-27723809D01*
X27014285Y-27676190D01*
X27061904Y-27580952D01*
X24585714Y-36152380D02*
X24585714Y-35152380D01*
X24823809Y-35152380D01*
X24966666Y-35200000D01*
X25061904Y-35295238D01*
X25109523Y-35390476D01*
X25157142Y-35580952D01*
X25157142Y-35723809D01*
X25109523Y-35914285D01*
X25061904Y-36009523D01*
X24966666Y-36104761D01*
X24823809Y-36152380D01*
X24585714Y-36152380D01*
X25490476Y-35152380D02*
X26109523Y-35152380D01*
X25776190Y-35533333D01*
X25919047Y-35533333D01*
X26014285Y-35580952D01*
X26061904Y-35628571D01*
X26109523Y-35723809D01*
X26109523Y-35961904D01*
X26061904Y-36057142D01*
X26014285Y-36104761D01*
X25919047Y-36152380D01*
X25633333Y-36152380D01*
X25538095Y-36104761D01*
X25490476Y-36057142D01*
X26728571Y-35152380D02*
X26823809Y-35152380D01*
X26919047Y-35200000D01*
X26966666Y-35247619D01*
X27014285Y-35342857D01*
X27061904Y-35533333D01*
X27061904Y-35771428D01*
X27014285Y-35961904D01*
X26966666Y-36057142D01*
X26919047Y-36104761D01*
X26823809Y-36152380D01*
X26728571Y-36152380D01*
X26633333Y-36104761D01*
X26585714Y-36057142D01*
X26538095Y-35961904D01*
X26490476Y-35771428D01*
X26490476Y-35533333D01*
X26538095Y-35342857D01*
X26585714Y-35247619D01*
X26633333Y-35200000D01*
X26728571Y-35152380D01*
X24585714Y-44152380D02*
X24585714Y-43152380D01*
X24823809Y-43152380D01*
X24966666Y-43200000D01*
X25061904Y-43295238D01*
X25109523Y-43390476D01*
X25157142Y-43580952D01*
X25157142Y-43723809D01*
X25109523Y-43914285D01*
X25061904Y-44009523D01*
X24966666Y-44104761D01*
X24823809Y-44152380D01*
X24585714Y-44152380D01*
X25490476Y-43152380D02*
X26109523Y-43152380D01*
X25776190Y-43533333D01*
X25919047Y-43533333D01*
X26014285Y-43580952D01*
X26061904Y-43628571D01*
X26109523Y-43723809D01*
X26109523Y-43961904D01*
X26061904Y-44057142D01*
X26014285Y-44104761D01*
X25919047Y-44152380D01*
X25633333Y-44152380D01*
X25538095Y-44104761D01*
X25490476Y-44057142D01*
X27061904Y-44152380D02*
X26490476Y-44152380D01*
X26776190Y-44152380D02*
X26776190Y-43152380D01*
X26680952Y-43295238D01*
X26585714Y-43390476D01*
X26490476Y-43438095D01*
X24585714Y-52152380D02*
X24585714Y-51152380D01*
X24823809Y-51152380D01*
X24966666Y-51200000D01*
X25061904Y-51295238D01*
X25109523Y-51390476D01*
X25157142Y-51580952D01*
X25157142Y-51723809D01*
X25109523Y-51914285D01*
X25061904Y-52009523D01*
X24966666Y-52104761D01*
X24823809Y-52152380D01*
X24585714Y-52152380D01*
X25490476Y-51152380D02*
X26109523Y-51152380D01*
X25776190Y-51533333D01*
X25919047Y-51533333D01*
X26014285Y-51580952D01*
X26061904Y-51628571D01*
X26109523Y-51723809D01*
X26109523Y-51961904D01*
X26061904Y-52057142D01*
X26014285Y-52104761D01*
X25919047Y-52152380D01*
X25633333Y-52152380D01*
X25538095Y-52104761D01*
X25490476Y-52057142D01*
X26490476Y-51247619D02*
X26538095Y-51200000D01*
X26633333Y-51152380D01*
X26871428Y-51152380D01*
X26966666Y-51200000D01*
X27014285Y-51247619D01*
X27061904Y-51342857D01*
X27061904Y-51438095D01*
X27014285Y-51580952D01*
X26442857Y-52152380D01*
X27061904Y-52152380D01*
X32585714Y3847619D02*
X32585714Y4847619D01*
X32823809Y4847619D01*
X32966666Y4800000D01*
X33061904Y4704761D01*
X33109523Y4609523D01*
X33157142Y4419047D01*
X33157142Y4276190D01*
X33109523Y4085714D01*
X33061904Y3990476D01*
X32966666Y3895238D01*
X32823809Y3847619D01*
X32585714Y3847619D01*
X33490476Y4847619D02*
X34109523Y4847619D01*
X33776190Y4466666D01*
X33919047Y4466666D01*
X34014285Y4419047D01*
X34061904Y4371428D01*
X34109523Y4276190D01*
X34109523Y4038095D01*
X34061904Y3942857D01*
X34014285Y3895238D01*
X33919047Y3847619D01*
X33633333Y3847619D01*
X33538095Y3895238D01*
X33490476Y3942857D01*
X34442857Y4847619D02*
X35061904Y4847619D01*
X34728571Y4466666D01*
X34871428Y4466666D01*
X34966666Y4419047D01*
X35014285Y4371428D01*
X35061904Y4276190D01*
X35061904Y4038095D01*
X35014285Y3942857D01*
X34966666Y3895238D01*
X34871428Y3847619D01*
X34585714Y3847619D01*
X34490476Y3895238D01*
X34442857Y3942857D01*
X32585714Y-4152380D02*
X32585714Y-3152380D01*
X32823809Y-3152380D01*
X32966666Y-3200000D01*
X33061904Y-3295238D01*
X33109523Y-3390476D01*
X33157142Y-3580952D01*
X33157142Y-3723809D01*
X33109523Y-3914285D01*
X33061904Y-4009523D01*
X32966666Y-4104761D01*
X32823809Y-4152380D01*
X32585714Y-4152380D01*
X33490476Y-3152380D02*
X34109523Y-3152380D01*
X33776190Y-3533333D01*
X33919047Y-3533333D01*
X34014285Y-3580952D01*
X34061904Y-3628571D01*
X34109523Y-3723809D01*
X34109523Y-3961904D01*
X34061904Y-4057142D01*
X34014285Y-4104761D01*
X33919047Y-4152380D01*
X33633333Y-4152380D01*
X33538095Y-4104761D01*
X33490476Y-4057142D01*
X34966666Y-3485714D02*
X34966666Y-4152380D01*
X34728571Y-3104761D02*
X34490476Y-3819047D01*
X35109523Y-3819047D01*
X32585714Y-12152380D02*
X32585714Y-11152380D01*
X32823809Y-11152380D01*
X32966666Y-11200000D01*
X33061904Y-11295238D01*
X33109523Y-11390476D01*
X33157142Y-11580952D01*
X33157142Y-11723809D01*
X33109523Y-11914285D01*
X33061904Y-12009523D01*
X32966666Y-12104761D01*
X32823809Y-12152380D01*
X32585714Y-12152380D01*
X33490476Y-11152380D02*
X34109523Y-11152380D01*
X33776190Y-11533333D01*
X33919047Y-11533333D01*
X34014285Y-11580952D01*
X34061904Y-11628571D01*
X34109523Y-11723809D01*
X34109523Y-11961904D01*
X34061904Y-12057142D01*
X34014285Y-12104761D01*
X33919047Y-12152380D01*
X33633333Y-12152380D01*
X33538095Y-12104761D01*
X33490476Y-12057142D01*
X35014285Y-11152380D02*
X34538095Y-11152380D01*
X34490476Y-11628571D01*
X34538095Y-11580952D01*
X34633333Y-11533333D01*
X34871428Y-11533333D01*
X34966666Y-11580952D01*
X35014285Y-11628571D01*
X35061904Y-11723809D01*
X35061904Y-11961904D01*
X35014285Y-12057142D01*
X34966666Y-12104761D01*
X34871428Y-12152380D01*
X34633333Y-12152380D01*
X34538095Y-12104761D01*
X34490476Y-12057142D01*
X32585714Y-20152380D02*
X32585714Y-19152380D01*
X32823809Y-19152380D01*
X32966666Y-19200000D01*
X33061904Y-19295238D01*
X33109523Y-19390476D01*
X33157142Y-19580952D01*
X33157142Y-19723809D01*
X33109523Y-19914285D01*
X33061904Y-20009523D01*
X32966666Y-20104761D01*
X32823809Y-20152380D01*
X32585714Y-20152380D01*
X33490476Y-19152380D02*
X34109523Y-19152380D01*
X33776190Y-19533333D01*
X33919047Y-19533333D01*
X34014285Y-19580952D01*
X34061904Y-19628571D01*
X34109523Y-19723809D01*
X34109523Y-19961904D01*
X34061904Y-20057142D01*
X34014285Y-20104761D01*
X33919047Y-20152380D01*
X33633333Y-20152380D01*
X33538095Y-20104761D01*
X33490476Y-20057142D01*
X34966666Y-19152380D02*
X34776190Y-19152380D01*
X34680952Y-19200000D01*
X34633333Y-19247619D01*
X34538095Y-19390476D01*
X34490476Y-19580952D01*
X34490476Y-19961904D01*
X34538095Y-20057142D01*
X34585714Y-20104761D01*
X34680952Y-20152380D01*
X34871428Y-20152380D01*
X34966666Y-20104761D01*
X35014285Y-20057142D01*
X35061904Y-19961904D01*
X35061904Y-19723809D01*
X35014285Y-19628571D01*
X34966666Y-19580952D01*
X34871428Y-19533333D01*
X34680952Y-19533333D01*
X34585714Y-19580952D01*
X34538095Y-19628571D01*
X34490476Y-19723809D01*
X32585714Y-28152380D02*
X32585714Y-27152380D01*
X32823809Y-27152380D01*
X32966666Y-27200000D01*
X33061904Y-27295238D01*
X33109523Y-27390476D01*
X33157142Y-27580952D01*
X33157142Y-27723809D01*
X33109523Y-27914285D01*
X33061904Y-28009523D01*
X32966666Y-28104761D01*
X32823809Y-28152380D01*
X32585714Y-28152380D01*
X33490476Y-27152380D02*
X34109523Y-27152380D01*
X33776190Y-27533333D01*
X33919047Y-27533333D01*
X34014285Y-27580952D01*
X34061904Y-27628571D01*
X34109523Y-27723809D01*
X34109523Y-27961904D01*
X34061904Y-28057142D01*
X34014285Y-28104761D01*
X33919047Y-28152380D01*
X33633333Y-28152380D01*
X33538095Y-28104761D01*
X33490476Y-28057142D01*
X34442857Y-27152380D02*
X35109523Y-27152380D01*
X34680952Y-28152380D01*
X32585714Y-36152380D02*
X32585714Y-35152380D01*
X32823809Y-35152380D01*
X32966666Y-35200000D01*
X33061904Y-35295238D01*
X33109523Y-35390476D01*
X33157142Y-35580952D01*
X33157142Y-35723809D01*
X33109523Y-35914285D01*
X33061904Y-36009523D01*
X32966666Y-36104761D01*
X32823809Y-36152380D01*
X32585714Y-36152380D01*
X33490476Y-35152380D02*
X34109523Y-35152380D01*
X33776190Y-35533333D01*
X33919047Y-35533333D01*
X34014285Y-35580952D01*
X34061904Y-35628571D01*
X34109523Y-35723809D01*
X34109523Y-35961904D01*
X34061904Y-36057142D01*
X34014285Y-36104761D01*
X33919047Y-36152380D01*
X33633333Y-36152380D01*
X33538095Y-36104761D01*
X33490476Y-36057142D01*
X34680952Y-35580952D02*
X34585714Y-35533333D01*
X34538095Y-35485714D01*
X34490476Y-35390476D01*
X34490476Y-35342857D01*
X34538095Y-35247619D01*
X34585714Y-35200000D01*
X34680952Y-35152380D01*
X34871428Y-35152380D01*
X34966666Y-35200000D01*
X35014285Y-35247619D01*
X35061904Y-35342857D01*
X35061904Y-35390476D01*
X35014285Y-35485714D01*
X34966666Y-35533333D01*
X34871428Y-35580952D01*
X34680952Y-35580952D01*
X34585714Y-35628571D01*
X34538095Y-35676190D01*
X34490476Y-35771428D01*
X34490476Y-35961904D01*
X34538095Y-36057142D01*
X34585714Y-36104761D01*
X34680952Y-36152380D01*
X34871428Y-36152380D01*
X34966666Y-36104761D01*
X35014285Y-36057142D01*
X35061904Y-35961904D01*
X35061904Y-35771428D01*
X35014285Y-35676190D01*
X34966666Y-35628571D01*
X34871428Y-35580952D01*
X32585714Y-44152380D02*
X32585714Y-43152380D01*
X32823809Y-43152380D01*
X32966666Y-43200000D01*
X33061904Y-43295238D01*
X33109523Y-43390476D01*
X33157142Y-43580952D01*
X33157142Y-43723809D01*
X33109523Y-43914285D01*
X33061904Y-44009523D01*
X32966666Y-44104761D01*
X32823809Y-44152380D01*
X32585714Y-44152380D01*
X33490476Y-43152380D02*
X34109523Y-43152380D01*
X33776190Y-43533333D01*
X33919047Y-43533333D01*
X34014285Y-43580952D01*
X34061904Y-43628571D01*
X34109523Y-43723809D01*
X34109523Y-43961904D01*
X34061904Y-44057142D01*
X34014285Y-44104761D01*
X33919047Y-44152380D01*
X33633333Y-44152380D01*
X33538095Y-44104761D01*
X33490476Y-44057142D01*
X34585714Y-44152380D02*
X34776190Y-44152380D01*
X34871428Y-44104761D01*
X34919047Y-44057142D01*
X35014285Y-43914285D01*
X35061904Y-43723809D01*
X35061904Y-43342857D01*
X35014285Y-43247619D01*
X34966666Y-43200000D01*
X34871428Y-43152380D01*
X34680952Y-43152380D01*
X34585714Y-43200000D01*
X34538095Y-43247619D01*
X34490476Y-43342857D01*
X34490476Y-43580952D01*
X34538095Y-43676190D01*
X34585714Y-43723809D01*
X34680952Y-43771428D01*
X34871428Y-43771428D01*
X34966666Y-43723809D01*
X35014285Y-43676190D01*
X35061904Y-43580952D01*
X32585714Y-52152380D02*
X32585714Y-51152380D01*
X32823809Y-51152380D01*
X32966666Y-51200000D01*
X33061904Y-51295238D01*
X33109523Y-51390476D01*
X33157142Y-51580952D01*
X33157142Y-51723809D01*
X33109523Y-51914285D01*
X33061904Y-52009523D01*
X32966666Y-52104761D01*
X32823809Y-52152380D01*
X32585714Y-52152380D01*
X34014285Y-51485714D02*
X34014285Y-52152380D01*
X33776190Y-51104761D02*
X33538095Y-51819047D01*
X34157142Y-51819047D01*
X34728571Y-51152380D02*
X34823809Y-51152380D01*
X34919047Y-51200000D01*
X34966666Y-51247619D01*
X35014285Y-51342857D01*
X35061904Y-51533333D01*
X35061904Y-51771428D01*
X35014285Y-51961904D01*
X34966666Y-52057142D01*
X34919047Y-52104761D01*
X34823809Y-52152380D01*
X34728571Y-52152380D01*
X34633333Y-52104761D01*
X34585714Y-52057142D01*
X34538095Y-51961904D01*
X34490476Y-51771428D01*
X34490476Y-51533333D01*
X34538095Y-51342857D01*
X34585714Y-51247619D01*
X34633333Y-51200000D01*
X34728571Y-51152380D01*
X40585714Y3847619D02*
X40585714Y4847619D01*
X40823809Y4847619D01*
X40966666Y4800000D01*
X41061904Y4704761D01*
X41109523Y4609523D01*
X41157142Y4419047D01*
X41157142Y4276190D01*
X41109523Y4085714D01*
X41061904Y3990476D01*
X40966666Y3895238D01*
X40823809Y3847619D01*
X40585714Y3847619D01*
X42014285Y4514285D02*
X42014285Y3847619D01*
X41776190Y4895238D02*
X41538095Y4180952D01*
X42157142Y4180952D01*
X43061904Y3847619D02*
X42490476Y3847619D01*
X42776190Y3847619D02*
X42776190Y4847619D01*
X42680952Y4704761D01*
X42585714Y4609523D01*
X42490476Y4561904D01*
X40585714Y-4152380D02*
X40585714Y-3152380D01*
X40823809Y-3152380D01*
X40966666Y-3200000D01*
X41061904Y-3295238D01*
X41109523Y-3390476D01*
X41157142Y-3580952D01*
X41157142Y-3723809D01*
X41109523Y-3914285D01*
X41061904Y-4009523D01*
X40966666Y-4104761D01*
X40823809Y-4152380D01*
X40585714Y-4152380D01*
X42014285Y-3485714D02*
X42014285Y-4152380D01*
X41776190Y-3104761D02*
X41538095Y-3819047D01*
X42157142Y-3819047D01*
X42490476Y-3247619D02*
X42538095Y-3200000D01*
X42633333Y-3152380D01*
X42871428Y-3152380D01*
X42966666Y-3200000D01*
X43014285Y-3247619D01*
X43061904Y-3342857D01*
X43061904Y-3438095D01*
X43014285Y-3580952D01*
X42442857Y-4152380D01*
X43061904Y-4152380D01*
X40585714Y-12152380D02*
X40585714Y-11152380D01*
X40823809Y-11152380D01*
X40966666Y-11200000D01*
X41061904Y-11295238D01*
X41109523Y-11390476D01*
X41157142Y-11580952D01*
X41157142Y-11723809D01*
X41109523Y-11914285D01*
X41061904Y-12009523D01*
X40966666Y-12104761D01*
X40823809Y-12152380D01*
X40585714Y-12152380D01*
X42014285Y-11485714D02*
X42014285Y-12152380D01*
X41776190Y-11104761D02*
X41538095Y-11819047D01*
X42157142Y-11819047D01*
X42442857Y-11152380D02*
X43061904Y-11152380D01*
X42728571Y-11533333D01*
X42871428Y-11533333D01*
X42966666Y-11580952D01*
X43014285Y-11628571D01*
X43061904Y-11723809D01*
X43061904Y-11961904D01*
X43014285Y-12057142D01*
X42966666Y-12104761D01*
X42871428Y-12152380D01*
X42585714Y-12152380D01*
X42490476Y-12104761D01*
X42442857Y-12057142D01*
X40585714Y-20152380D02*
X40585714Y-19152380D01*
X40823809Y-19152380D01*
X40966666Y-19200000D01*
X41061904Y-19295238D01*
X41109523Y-19390476D01*
X41157142Y-19580952D01*
X41157142Y-19723809D01*
X41109523Y-19914285D01*
X41061904Y-20009523D01*
X40966666Y-20104761D01*
X40823809Y-20152380D01*
X40585714Y-20152380D01*
X42014285Y-19485714D02*
X42014285Y-20152380D01*
X41776190Y-19104761D02*
X41538095Y-19819047D01*
X42157142Y-19819047D01*
X42966666Y-19485714D02*
X42966666Y-20152380D01*
X42728571Y-19104761D02*
X42490476Y-19819047D01*
X43109523Y-19819047D01*
X40585714Y-28152380D02*
X40585714Y-27152380D01*
X40823809Y-27152380D01*
X40966666Y-27200000D01*
X41061904Y-27295238D01*
X41109523Y-27390476D01*
X41157142Y-27580952D01*
X41157142Y-27723809D01*
X41109523Y-27914285D01*
X41061904Y-28009523D01*
X40966666Y-28104761D01*
X40823809Y-28152380D01*
X40585714Y-28152380D01*
X42014285Y-27485714D02*
X42014285Y-28152380D01*
X41776190Y-27104761D02*
X41538095Y-27819047D01*
X42157142Y-27819047D01*
X43014285Y-27152380D02*
X42538095Y-27152380D01*
X42490476Y-27628571D01*
X42538095Y-27580952D01*
X42633333Y-27533333D01*
X42871428Y-27533333D01*
X42966666Y-27580952D01*
X43014285Y-27628571D01*
X43061904Y-27723809D01*
X43061904Y-27961904D01*
X43014285Y-28057142D01*
X42966666Y-28104761D01*
X42871428Y-28152380D01*
X42633333Y-28152380D01*
X42538095Y-28104761D01*
X42490476Y-28057142D01*
X40585714Y-36152380D02*
X40585714Y-35152380D01*
X40823809Y-35152380D01*
X40966666Y-35200000D01*
X41061904Y-35295238D01*
X41109523Y-35390476D01*
X41157142Y-35580952D01*
X41157142Y-35723809D01*
X41109523Y-35914285D01*
X41061904Y-36009523D01*
X40966666Y-36104761D01*
X40823809Y-36152380D01*
X40585714Y-36152380D01*
X42014285Y-35485714D02*
X42014285Y-36152380D01*
X41776190Y-35104761D02*
X41538095Y-35819047D01*
X42157142Y-35819047D01*
X42966666Y-35152380D02*
X42776190Y-35152380D01*
X42680952Y-35200000D01*
X42633333Y-35247619D01*
X42538095Y-35390476D01*
X42490476Y-35580952D01*
X42490476Y-35961904D01*
X42538095Y-36057142D01*
X42585714Y-36104761D01*
X42680952Y-36152380D01*
X42871428Y-36152380D01*
X42966666Y-36104761D01*
X43014285Y-36057142D01*
X43061904Y-35961904D01*
X43061904Y-35723809D01*
X43014285Y-35628571D01*
X42966666Y-35580952D01*
X42871428Y-35533333D01*
X42680952Y-35533333D01*
X42585714Y-35580952D01*
X42538095Y-35628571D01*
X42490476Y-35723809D01*
X40585714Y-44152380D02*
X40585714Y-43152380D01*
X40823809Y-43152380D01*
X40966666Y-43200000D01*
X41061904Y-43295238D01*
X41109523Y-43390476D01*
X41157142Y-43580952D01*
X41157142Y-43723809D01*
X41109523Y-43914285D01*
X41061904Y-44009523D01*
X40966666Y-44104761D01*
X40823809Y-44152380D01*
X40585714Y-44152380D01*
X42014285Y-43485714D02*
X42014285Y-44152380D01*
X41776190Y-43104761D02*
X41538095Y-43819047D01*
X42157142Y-43819047D01*
X42442857Y-43152380D02*
X43109523Y-43152380D01*
X42680952Y-44152380D01*
X40585714Y-52152380D02*
X40585714Y-51152380D01*
X40823809Y-51152380D01*
X40966666Y-51200000D01*
X41061904Y-51295238D01*
X41109523Y-51390476D01*
X41157142Y-51580952D01*
X41157142Y-51723809D01*
X41109523Y-51914285D01*
X41061904Y-52009523D01*
X40966666Y-52104761D01*
X40823809Y-52152380D01*
X40585714Y-52152380D01*
X42014285Y-51485714D02*
X42014285Y-52152380D01*
X41776190Y-51104761D02*
X41538095Y-51819047D01*
X42157142Y-51819047D01*
X42680952Y-51580952D02*
X42585714Y-51533333D01*
X42538095Y-51485714D01*
X42490476Y-51390476D01*
X42490476Y-51342857D01*
X42538095Y-51247619D01*
X42585714Y-51200000D01*
X42680952Y-51152380D01*
X42871428Y-51152380D01*
X42966666Y-51200000D01*
X43014285Y-51247619D01*
X43061904Y-51342857D01*
X43061904Y-51390476D01*
X43014285Y-51485714D01*
X42966666Y-51533333D01*
X42871428Y-51580952D01*
X42680952Y-51580952D01*
X42585714Y-51628571D01*
X42538095Y-51676190D01*
X42490476Y-51771428D01*
X42490476Y-51961904D01*
X42538095Y-52057142D01*
X42585714Y-52104761D01*
X42680952Y-52152380D01*
X42871428Y-52152380D01*
X42966666Y-52104761D01*
X43014285Y-52057142D01*
X43061904Y-51961904D01*
X43061904Y-51771428D01*
X43014285Y-51676190D01*
X42966666Y-51628571D01*
X42871428Y-51580952D01*
X48585714Y3847619D02*
X48585714Y4847619D01*
X48823809Y4847619D01*
X48966666Y4800000D01*
X49061904Y4704761D01*
X49109523Y4609523D01*
X49157142Y4419047D01*
X49157142Y4276190D01*
X49109523Y4085714D01*
X49061904Y3990476D01*
X48966666Y3895238D01*
X48823809Y3847619D01*
X48585714Y3847619D01*
X50014285Y4514285D02*
X50014285Y3847619D01*
X49776190Y4895238D02*
X49538095Y4180952D01*
X50157142Y4180952D01*
X50585714Y3847619D02*
X50776190Y3847619D01*
X50871428Y3895238D01*
X50919047Y3942857D01*
X51014285Y4085714D01*
X51061904Y4276190D01*
X51061904Y4657142D01*
X51014285Y4752380D01*
X50966666Y4800000D01*
X50871428Y4847619D01*
X50680952Y4847619D01*
X50585714Y4800000D01*
X50538095Y4752380D01*
X50490476Y4657142D01*
X50490476Y4419047D01*
X50538095Y4323809D01*
X50585714Y4276190D01*
X50680952Y4228571D01*
X50871428Y4228571D01*
X50966666Y4276190D01*
X51014285Y4323809D01*
X51061904Y4419047D01*
X48585714Y-4152380D02*
X48585714Y-3152380D01*
X48823809Y-3152380D01*
X48966666Y-3200000D01*
X49061904Y-3295238D01*
X49109523Y-3390476D01*
X49157142Y-3580952D01*
X49157142Y-3723809D01*
X49109523Y-3914285D01*
X49061904Y-4009523D01*
X48966666Y-4104761D01*
X48823809Y-4152380D01*
X48585714Y-4152380D01*
X50061904Y-3152380D02*
X49585714Y-3152380D01*
X49538095Y-3628571D01*
X49585714Y-3580952D01*
X49680952Y-3533333D01*
X49919047Y-3533333D01*
X50014285Y-3580952D01*
X50061904Y-3628571D01*
X50109523Y-3723809D01*
X50109523Y-3961904D01*
X50061904Y-4057142D01*
X50014285Y-4104761D01*
X49919047Y-4152380D01*
X49680952Y-4152380D01*
X49585714Y-4104761D01*
X49538095Y-4057142D01*
X50728571Y-3152380D02*
X50823809Y-3152380D01*
X50919047Y-3200000D01*
X50966666Y-3247619D01*
X51014285Y-3342857D01*
X51061904Y-3533333D01*
X51061904Y-3771428D01*
X51014285Y-3961904D01*
X50966666Y-4057142D01*
X50919047Y-4104761D01*
X50823809Y-4152380D01*
X50728571Y-4152380D01*
X50633333Y-4104761D01*
X50585714Y-4057142D01*
X50538095Y-3961904D01*
X50490476Y-3771428D01*
X50490476Y-3533333D01*
X50538095Y-3342857D01*
X50585714Y-3247619D01*
X50633333Y-3200000D01*
X50728571Y-3152380D01*
X48585714Y-12152380D02*
X48585714Y-11152380D01*
X48823809Y-11152380D01*
X48966666Y-11200000D01*
X49061904Y-11295238D01*
X49109523Y-11390476D01*
X49157142Y-11580952D01*
X49157142Y-11723809D01*
X49109523Y-11914285D01*
X49061904Y-12009523D01*
X48966666Y-12104761D01*
X48823809Y-12152380D01*
X48585714Y-12152380D01*
X50061904Y-11152380D02*
X49585714Y-11152380D01*
X49538095Y-11628571D01*
X49585714Y-11580952D01*
X49680952Y-11533333D01*
X49919047Y-11533333D01*
X50014285Y-11580952D01*
X50061904Y-11628571D01*
X50109523Y-11723809D01*
X50109523Y-11961904D01*
X50061904Y-12057142D01*
X50014285Y-12104761D01*
X49919047Y-12152380D01*
X49680952Y-12152380D01*
X49585714Y-12104761D01*
X49538095Y-12057142D01*
X51061904Y-12152380D02*
X50490476Y-12152380D01*
X50776190Y-12152380D02*
X50776190Y-11152380D01*
X50680952Y-11295238D01*
X50585714Y-11390476D01*
X50490476Y-11438095D01*
X48585714Y-20152380D02*
X48585714Y-19152380D01*
X48823809Y-19152380D01*
X48966666Y-19200000D01*
X49061904Y-19295238D01*
X49109523Y-19390476D01*
X49157142Y-19580952D01*
X49157142Y-19723809D01*
X49109523Y-19914285D01*
X49061904Y-20009523D01*
X48966666Y-20104761D01*
X48823809Y-20152380D01*
X48585714Y-20152380D01*
X50061904Y-19152380D02*
X49585714Y-19152380D01*
X49538095Y-19628571D01*
X49585714Y-19580952D01*
X49680952Y-19533333D01*
X49919047Y-19533333D01*
X50014285Y-19580952D01*
X50061904Y-19628571D01*
X50109523Y-19723809D01*
X50109523Y-19961904D01*
X50061904Y-20057142D01*
X50014285Y-20104761D01*
X49919047Y-20152380D01*
X49680952Y-20152380D01*
X49585714Y-20104761D01*
X49538095Y-20057142D01*
X50490476Y-19247619D02*
X50538095Y-19200000D01*
X50633333Y-19152380D01*
X50871428Y-19152380D01*
X50966666Y-19200000D01*
X51014285Y-19247619D01*
X51061904Y-19342857D01*
X51061904Y-19438095D01*
X51014285Y-19580952D01*
X50442857Y-20152380D01*
X51061904Y-20152380D01*
X48585714Y-28152380D02*
X48585714Y-27152380D01*
X48823809Y-27152380D01*
X48966666Y-27200000D01*
X49061904Y-27295238D01*
X49109523Y-27390476D01*
X49157142Y-27580952D01*
X49157142Y-27723809D01*
X49109523Y-27914285D01*
X49061904Y-28009523D01*
X48966666Y-28104761D01*
X48823809Y-28152380D01*
X48585714Y-28152380D01*
X50061904Y-27152380D02*
X49585714Y-27152380D01*
X49538095Y-27628571D01*
X49585714Y-27580952D01*
X49680952Y-27533333D01*
X49919047Y-27533333D01*
X50014285Y-27580952D01*
X50061904Y-27628571D01*
X50109523Y-27723809D01*
X50109523Y-27961904D01*
X50061904Y-28057142D01*
X50014285Y-28104761D01*
X49919047Y-28152380D01*
X49680952Y-28152380D01*
X49585714Y-28104761D01*
X49538095Y-28057142D01*
X50442857Y-27152380D02*
X51061904Y-27152380D01*
X50728571Y-27533333D01*
X50871428Y-27533333D01*
X50966666Y-27580952D01*
X51014285Y-27628571D01*
X51061904Y-27723809D01*
X51061904Y-27961904D01*
X51014285Y-28057142D01*
X50966666Y-28104761D01*
X50871428Y-28152380D01*
X50585714Y-28152380D01*
X50490476Y-28104761D01*
X50442857Y-28057142D01*
X48585714Y-36152380D02*
X48585714Y-35152380D01*
X48823809Y-35152380D01*
X48966666Y-35200000D01*
X49061904Y-35295238D01*
X49109523Y-35390476D01*
X49157142Y-35580952D01*
X49157142Y-35723809D01*
X49109523Y-35914285D01*
X49061904Y-36009523D01*
X48966666Y-36104761D01*
X48823809Y-36152380D01*
X48585714Y-36152380D01*
X50061904Y-35152380D02*
X49585714Y-35152380D01*
X49538095Y-35628571D01*
X49585714Y-35580952D01*
X49680952Y-35533333D01*
X49919047Y-35533333D01*
X50014285Y-35580952D01*
X50061904Y-35628571D01*
X50109523Y-35723809D01*
X50109523Y-35961904D01*
X50061904Y-36057142D01*
X50014285Y-36104761D01*
X49919047Y-36152380D01*
X49680952Y-36152380D01*
X49585714Y-36104761D01*
X49538095Y-36057142D01*
X50966666Y-35485714D02*
X50966666Y-36152380D01*
X50728571Y-35104761D02*
X50490476Y-35819047D01*
X51109523Y-35819047D01*
X48585714Y-44152380D02*
X48585714Y-43152380D01*
X48823809Y-43152380D01*
X48966666Y-43200000D01*
X49061904Y-43295238D01*
X49109523Y-43390476D01*
X49157142Y-43580952D01*
X49157142Y-43723809D01*
X49109523Y-43914285D01*
X49061904Y-44009523D01*
X48966666Y-44104761D01*
X48823809Y-44152380D01*
X48585714Y-44152380D01*
X50061904Y-43152380D02*
X49585714Y-43152380D01*
X49538095Y-43628571D01*
X49585714Y-43580952D01*
X49680952Y-43533333D01*
X49919047Y-43533333D01*
X50014285Y-43580952D01*
X50061904Y-43628571D01*
X50109523Y-43723809D01*
X50109523Y-43961904D01*
X50061904Y-44057142D01*
X50014285Y-44104761D01*
X49919047Y-44152380D01*
X49680952Y-44152380D01*
X49585714Y-44104761D01*
X49538095Y-44057142D01*
X51014285Y-43152380D02*
X50538095Y-43152380D01*
X50490476Y-43628571D01*
X50538095Y-43580952D01*
X50633333Y-43533333D01*
X50871428Y-43533333D01*
X50966666Y-43580952D01*
X51014285Y-43628571D01*
X51061904Y-43723809D01*
X51061904Y-43961904D01*
X51014285Y-44057142D01*
X50966666Y-44104761D01*
X50871428Y-44152380D01*
X50633333Y-44152380D01*
X50538095Y-44104761D01*
X50490476Y-44057142D01*
X48585714Y-52152380D02*
X48585714Y-51152380D01*
X48823809Y-51152380D01*
X48966666Y-51200000D01*
X49061904Y-51295238D01*
X49109523Y-51390476D01*
X49157142Y-51580952D01*
X49157142Y-51723809D01*
X49109523Y-51914285D01*
X49061904Y-52009523D01*
X48966666Y-52104761D01*
X48823809Y-52152380D01*
X48585714Y-52152380D01*
X50061904Y-51152380D02*
X49585714Y-51152380D01*
X49538095Y-51628571D01*
X49585714Y-51580952D01*
X49680952Y-51533333D01*
X49919047Y-51533333D01*
X50014285Y-51580952D01*
X50061904Y-51628571D01*
X50109523Y-51723809D01*
X50109523Y-51961904D01*
X50061904Y-52057142D01*
X50014285Y-52104761D01*
X49919047Y-52152380D01*
X49680952Y-52152380D01*
X49585714Y-52104761D01*
X49538095Y-52057142D01*
X50966666Y-51152380D02*
X50776190Y-51152380D01*
X50680952Y-51200000D01*
X50633333Y-51247619D01*
X50538095Y-51390476D01*
X50490476Y-51580952D01*
X50490476Y-51961904D01*
X50538095Y-52057142D01*
X50585714Y-52104761D01*
X50680952Y-52152380D01*
X50871428Y-52152380D01*
X50966666Y-52104761D01*
X51014285Y-52057142D01*
X51061904Y-51961904D01*
X51061904Y-51723809D01*
X51014285Y-51628571D01*
X50966666Y-51580952D01*
X50871428Y-51533333D01*
X50680952Y-51533333D01*
X50585714Y-51580952D01*
X50538095Y-51628571D01*
X50490476Y-51723809D01*
X56585714Y3847619D02*
X56585714Y4847619D01*
X56823809Y4847619D01*
X56966666Y4800000D01*
X57061904Y4704761D01*
X57109523Y4609523D01*
X57157142Y4419047D01*
X57157142Y4276190D01*
X57109523Y4085714D01*
X57061904Y3990476D01*
X56966666Y3895238D01*
X56823809Y3847619D01*
X56585714Y3847619D01*
X58061904Y4847619D02*
X57585714Y4847619D01*
X57538095Y4371428D01*
X57585714Y4419047D01*
X57680952Y4466666D01*
X57919047Y4466666D01*
X58014285Y4419047D01*
X58061904Y4371428D01*
X58109523Y4276190D01*
X58109523Y4038095D01*
X58061904Y3942857D01*
X58014285Y3895238D01*
X57919047Y3847619D01*
X57680952Y3847619D01*
X57585714Y3895238D01*
X57538095Y3942857D01*
X58442857Y4847619D02*
X59109523Y4847619D01*
X58680952Y3847619D01*
X56585714Y-4152380D02*
X56585714Y-3152380D01*
X56823809Y-3152380D01*
X56966666Y-3200000D01*
X57061904Y-3295238D01*
X57109523Y-3390476D01*
X57157142Y-3580952D01*
X57157142Y-3723809D01*
X57109523Y-3914285D01*
X57061904Y-4009523D01*
X56966666Y-4104761D01*
X56823809Y-4152380D01*
X56585714Y-4152380D01*
X58061904Y-3152380D02*
X57585714Y-3152380D01*
X57538095Y-3628571D01*
X57585714Y-3580952D01*
X57680952Y-3533333D01*
X57919047Y-3533333D01*
X58014285Y-3580952D01*
X58061904Y-3628571D01*
X58109523Y-3723809D01*
X58109523Y-3961904D01*
X58061904Y-4057142D01*
X58014285Y-4104761D01*
X57919047Y-4152380D01*
X57680952Y-4152380D01*
X57585714Y-4104761D01*
X57538095Y-4057142D01*
X58680952Y-3580952D02*
X58585714Y-3533333D01*
X58538095Y-3485714D01*
X58490476Y-3390476D01*
X58490476Y-3342857D01*
X58538095Y-3247619D01*
X58585714Y-3200000D01*
X58680952Y-3152380D01*
X58871428Y-3152380D01*
X58966666Y-3200000D01*
X59014285Y-3247619D01*
X59061904Y-3342857D01*
X59061904Y-3390476D01*
X59014285Y-3485714D01*
X58966666Y-3533333D01*
X58871428Y-3580952D01*
X58680952Y-3580952D01*
X58585714Y-3628571D01*
X58538095Y-3676190D01*
X58490476Y-3771428D01*
X58490476Y-3961904D01*
X58538095Y-4057142D01*
X58585714Y-4104761D01*
X58680952Y-4152380D01*
X58871428Y-4152380D01*
X58966666Y-4104761D01*
X59014285Y-4057142D01*
X59061904Y-3961904D01*
X59061904Y-3771428D01*
X59014285Y-3676190D01*
X58966666Y-3628571D01*
X58871428Y-3580952D01*
X56585714Y-12152380D02*
X56585714Y-11152380D01*
X56823809Y-11152380D01*
X56966666Y-11200000D01*
X57061904Y-11295238D01*
X57109523Y-11390476D01*
X57157142Y-11580952D01*
X57157142Y-11723809D01*
X57109523Y-11914285D01*
X57061904Y-12009523D01*
X56966666Y-12104761D01*
X56823809Y-12152380D01*
X56585714Y-12152380D01*
X58061904Y-11152380D02*
X57585714Y-11152380D01*
X57538095Y-11628571D01*
X57585714Y-11580952D01*
X57680952Y-11533333D01*
X57919047Y-11533333D01*
X58014285Y-11580952D01*
X58061904Y-11628571D01*
X58109523Y-11723809D01*
X58109523Y-11961904D01*
X58061904Y-12057142D01*
X58014285Y-12104761D01*
X57919047Y-12152380D01*
X57680952Y-12152380D01*
X57585714Y-12104761D01*
X57538095Y-12057142D01*
X58585714Y-12152380D02*
X58776190Y-12152380D01*
X58871428Y-12104761D01*
X58919047Y-12057142D01*
X59014285Y-11914285D01*
X59061904Y-11723809D01*
X59061904Y-11342857D01*
X59014285Y-11247619D01*
X58966666Y-11200000D01*
X58871428Y-11152380D01*
X58680952Y-11152380D01*
X58585714Y-11200000D01*
X58538095Y-11247619D01*
X58490476Y-11342857D01*
X58490476Y-11580952D01*
X58538095Y-11676190D01*
X58585714Y-11723809D01*
X58680952Y-11771428D01*
X58871428Y-11771428D01*
X58966666Y-11723809D01*
X59014285Y-11676190D01*
X59061904Y-11580952D01*
X56585714Y-20152380D02*
X56585714Y-19152380D01*
X56823809Y-19152380D01*
X56966666Y-19200000D01*
X57061904Y-19295238D01*
X57109523Y-19390476D01*
X57157142Y-19580952D01*
X57157142Y-19723809D01*
X57109523Y-19914285D01*
X57061904Y-20009523D01*
X56966666Y-20104761D01*
X56823809Y-20152380D01*
X56585714Y-20152380D01*
X58014285Y-19152380D02*
X57823809Y-19152380D01*
X57728571Y-19200000D01*
X57680952Y-19247619D01*
X57585714Y-19390476D01*
X57538095Y-19580952D01*
X57538095Y-19961904D01*
X57585714Y-20057142D01*
X57633333Y-20104761D01*
X57728571Y-20152380D01*
X57919047Y-20152380D01*
X58014285Y-20104761D01*
X58061904Y-20057142D01*
X58109523Y-19961904D01*
X58109523Y-19723809D01*
X58061904Y-19628571D01*
X58014285Y-19580952D01*
X57919047Y-19533333D01*
X57728571Y-19533333D01*
X57633333Y-19580952D01*
X57585714Y-19628571D01*
X57538095Y-19723809D01*
X58728571Y-19152380D02*
X58823809Y-19152380D01*
X58919047Y-19200000D01*
X58966666Y-19247619D01*
X59014285Y-19342857D01*
X59061904Y-19533333D01*
X59061904Y-19771428D01*
X59014285Y-19961904D01*
X58966666Y-20057142D01*
X58919047Y-20104761D01*
X58823809Y-20152380D01*
X58728571Y-20152380D01*
X58633333Y-20104761D01*
X58585714Y-20057142D01*
X58538095Y-19961904D01*
X58490476Y-19771428D01*
X58490476Y-19533333D01*
X58538095Y-19342857D01*
X58585714Y-19247619D01*
X58633333Y-19200000D01*
X58728571Y-19152380D01*
X56585714Y-28152380D02*
X56585714Y-27152380D01*
X56823809Y-27152380D01*
X56966666Y-27200000D01*
X57061904Y-27295238D01*
X57109523Y-27390476D01*
X57157142Y-27580952D01*
X57157142Y-27723809D01*
X57109523Y-27914285D01*
X57061904Y-28009523D01*
X56966666Y-28104761D01*
X56823809Y-28152380D01*
X56585714Y-28152380D01*
X58014285Y-27152380D02*
X57823809Y-27152380D01*
X57728571Y-27200000D01*
X57680952Y-27247619D01*
X57585714Y-27390476D01*
X57538095Y-27580952D01*
X57538095Y-27961904D01*
X57585714Y-28057142D01*
X57633333Y-28104761D01*
X57728571Y-28152380D01*
X57919047Y-28152380D01*
X58014285Y-28104761D01*
X58061904Y-28057142D01*
X58109523Y-27961904D01*
X58109523Y-27723809D01*
X58061904Y-27628571D01*
X58014285Y-27580952D01*
X57919047Y-27533333D01*
X57728571Y-27533333D01*
X57633333Y-27580952D01*
X57585714Y-27628571D01*
X57538095Y-27723809D01*
X59061904Y-28152380D02*
X58490476Y-28152380D01*
X58776190Y-28152380D02*
X58776190Y-27152380D01*
X58680952Y-27295238D01*
X58585714Y-27390476D01*
X58490476Y-27438095D01*
X56585714Y-36152380D02*
X56585714Y-35152380D01*
X56823809Y-35152380D01*
X56966666Y-35200000D01*
X57061904Y-35295238D01*
X57109523Y-35390476D01*
X57157142Y-35580952D01*
X57157142Y-35723809D01*
X57109523Y-35914285D01*
X57061904Y-36009523D01*
X56966666Y-36104761D01*
X56823809Y-36152380D01*
X56585714Y-36152380D01*
X58014285Y-35152380D02*
X57823809Y-35152380D01*
X57728571Y-35200000D01*
X57680952Y-35247619D01*
X57585714Y-35390476D01*
X57538095Y-35580952D01*
X57538095Y-35961904D01*
X57585714Y-36057142D01*
X57633333Y-36104761D01*
X57728571Y-36152380D01*
X57919047Y-36152380D01*
X58014285Y-36104761D01*
X58061904Y-36057142D01*
X58109523Y-35961904D01*
X58109523Y-35723809D01*
X58061904Y-35628571D01*
X58014285Y-35580952D01*
X57919047Y-35533333D01*
X57728571Y-35533333D01*
X57633333Y-35580952D01*
X57585714Y-35628571D01*
X57538095Y-35723809D01*
X58490476Y-35247619D02*
X58538095Y-35200000D01*
X58633333Y-35152380D01*
X58871428Y-35152380D01*
X58966666Y-35200000D01*
X59014285Y-35247619D01*
X59061904Y-35342857D01*
X59061904Y-35438095D01*
X59014285Y-35580952D01*
X58442857Y-36152380D01*
X59061904Y-36152380D01*
X56585714Y-44152380D02*
X56585714Y-43152380D01*
X56823809Y-43152380D01*
X56966666Y-43200000D01*
X57061904Y-43295238D01*
X57109523Y-43390476D01*
X57157142Y-43580952D01*
X57157142Y-43723809D01*
X57109523Y-43914285D01*
X57061904Y-44009523D01*
X56966666Y-44104761D01*
X56823809Y-44152380D01*
X56585714Y-44152380D01*
X58014285Y-43152380D02*
X57823809Y-43152380D01*
X57728571Y-43200000D01*
X57680952Y-43247619D01*
X57585714Y-43390476D01*
X57538095Y-43580952D01*
X57538095Y-43961904D01*
X57585714Y-44057142D01*
X57633333Y-44104761D01*
X57728571Y-44152380D01*
X57919047Y-44152380D01*
X58014285Y-44104761D01*
X58061904Y-44057142D01*
X58109523Y-43961904D01*
X58109523Y-43723809D01*
X58061904Y-43628571D01*
X58014285Y-43580952D01*
X57919047Y-43533333D01*
X57728571Y-43533333D01*
X57633333Y-43580952D01*
X57585714Y-43628571D01*
X57538095Y-43723809D01*
X58442857Y-43152380D02*
X59061904Y-43152380D01*
X58728571Y-43533333D01*
X58871428Y-43533333D01*
X58966666Y-43580952D01*
X59014285Y-43628571D01*
X59061904Y-43723809D01*
X59061904Y-43961904D01*
X59014285Y-44057142D01*
X58966666Y-44104761D01*
X58871428Y-44152380D01*
X58585714Y-44152380D01*
X58490476Y-44104761D01*
X58442857Y-44057142D01*
X56585714Y-52152380D02*
X56585714Y-51152380D01*
X56823809Y-51152380D01*
X56966666Y-51200000D01*
X57061904Y-51295238D01*
X57109523Y-51390476D01*
X57157142Y-51580952D01*
X57157142Y-51723809D01*
X57109523Y-51914285D01*
X57061904Y-52009523D01*
X56966666Y-52104761D01*
X56823809Y-52152380D01*
X56585714Y-52152380D01*
X58014285Y-51152380D02*
X57823809Y-51152380D01*
X57728571Y-51200000D01*
X57680952Y-51247619D01*
X57585714Y-51390476D01*
X57538095Y-51580952D01*
X57538095Y-51961904D01*
X57585714Y-52057142D01*
X57633333Y-52104761D01*
X57728571Y-52152380D01*
X57919047Y-52152380D01*
X58014285Y-52104761D01*
X58061904Y-52057142D01*
X58109523Y-51961904D01*
X58109523Y-51723809D01*
X58061904Y-51628571D01*
X58014285Y-51580952D01*
X57919047Y-51533333D01*
X57728571Y-51533333D01*
X57633333Y-51580952D01*
X57585714Y-51628571D01*
X57538095Y-51723809D01*
X58966666Y-51485714D02*
X58966666Y-52152380D01*
X58728571Y-51104761D02*
X58490476Y-51819047D01*
X59109523Y-51819047D01*
X-3014285Y-59252380D02*
X-3014285Y-58252380D01*
X-2776190Y-58252380D01*
X-2633333Y-58300000D01*
X-2538095Y-58395238D01*
X-2490476Y-58490476D01*
X-2442857Y-58680952D01*
X-2442857Y-58823809D01*
X-2490476Y-59014285D01*
X-2538095Y-59109523D01*
X-2633333Y-59204761D01*
X-2776190Y-59252380D01*
X-3014285Y-59252380D01*
X-1585714Y-58252380D02*
X-1776190Y-58252380D01*
X-1871428Y-58300000D01*
X-1919047Y-58347619D01*
X-2014285Y-58490476D01*
X-2061904Y-58680952D01*
X-2061904Y-59061904D01*
X-2014285Y-59157142D01*
X-1966666Y-59204761D01*
X-1871428Y-59252380D01*
X-1680952Y-59252380D01*
X-1585714Y-59204761D01*
X-1538095Y-59157142D01*
X-1490476Y-59061904D01*
X-1490476Y-58823809D01*
X-1538095Y-58728571D01*
X-1585714Y-58680952D01*
X-1680952Y-58633333D01*
X-1871428Y-58633333D01*
X-1966666Y-58680952D01*
X-2014285Y-58728571D01*
X-2061904Y-58823809D01*
X-585714Y-58252380D02*
X-1061904Y-58252380D01*
X-1109523Y-58728571D01*
X-1061904Y-58680952D01*
X-966666Y-58633333D01*
X-728571Y-58633333D01*
X-633333Y-58680952D01*
X-585714Y-58728571D01*
X-538095Y-58823809D01*
X-538095Y-59061904D01*
X-585714Y-59157142D01*
X-633333Y-59204761D01*
X-728571Y-59252380D01*
X-966666Y-59252380D01*
X-1061904Y-59204761D01*
X-1109523Y-59157142D01*
X4985714Y-59252380D02*
X4985714Y-58252380D01*
X5223809Y-58252380D01*
X5366666Y-58300000D01*
X5461904Y-58395238D01*
X5509523Y-58490476D01*
X5557142Y-58680952D01*
X5557142Y-58823809D01*
X5509523Y-59014285D01*
X5461904Y-59109523D01*
X5366666Y-59204761D01*
X5223809Y-59252380D01*
X4985714Y-59252380D01*
X6414285Y-58252380D02*
X6223809Y-58252380D01*
X6128571Y-58300000D01*
X6080952Y-58347619D01*
X5985714Y-58490476D01*
X5938095Y-58680952D01*
X5938095Y-59061904D01*
X5985714Y-59157142D01*
X6033333Y-59204761D01*
X6128571Y-59252380D01*
X6319047Y-59252380D01*
X6414285Y-59204761D01*
X6461904Y-59157142D01*
X6509523Y-59061904D01*
X6509523Y-58823809D01*
X6461904Y-58728571D01*
X6414285Y-58680952D01*
X6319047Y-58633333D01*
X6128571Y-58633333D01*
X6033333Y-58680952D01*
X5985714Y-58728571D01*
X5938095Y-58823809D01*
X7366666Y-58252380D02*
X7176190Y-58252380D01*
X7080952Y-58300000D01*
X7033333Y-58347619D01*
X6938095Y-58490476D01*
X6890476Y-58680952D01*
X6890476Y-59061904D01*
X6938095Y-59157142D01*
X6985714Y-59204761D01*
X7080952Y-59252380D01*
X7271428Y-59252380D01*
X7366666Y-59204761D01*
X7414285Y-59157142D01*
X7461904Y-59061904D01*
X7461904Y-58823809D01*
X7414285Y-58728571D01*
X7366666Y-58680952D01*
X7271428Y-58633333D01*
X7080952Y-58633333D01*
X6985714Y-58680952D01*
X6938095Y-58728571D01*
X6890476Y-58823809D01*
X12985714Y-59252380D02*
X12985714Y-58252380D01*
X13223809Y-58252380D01*
X13366666Y-58300000D01*
X13461904Y-58395238D01*
X13509523Y-58490476D01*
X13557142Y-58680952D01*
X13557142Y-58823809D01*
X13509523Y-59014285D01*
X13461904Y-59109523D01*
X13366666Y-59204761D01*
X13223809Y-59252380D01*
X12985714Y-59252380D01*
X14414285Y-58252380D02*
X14223809Y-58252380D01*
X14128571Y-58300000D01*
X14080952Y-58347619D01*
X13985714Y-58490476D01*
X13938095Y-58680952D01*
X13938095Y-59061904D01*
X13985714Y-59157142D01*
X14033333Y-59204761D01*
X14128571Y-59252380D01*
X14319047Y-59252380D01*
X14414285Y-59204761D01*
X14461904Y-59157142D01*
X14509523Y-59061904D01*
X14509523Y-58823809D01*
X14461904Y-58728571D01*
X14414285Y-58680952D01*
X14319047Y-58633333D01*
X14128571Y-58633333D01*
X14033333Y-58680952D01*
X13985714Y-58728571D01*
X13938095Y-58823809D01*
X14842857Y-58252380D02*
X15509523Y-58252380D01*
X15080952Y-59252380D01*
X20985714Y-59252380D02*
X20985714Y-58252380D01*
X21223809Y-58252380D01*
X21366666Y-58300000D01*
X21461904Y-58395238D01*
X21509523Y-58490476D01*
X21557142Y-58680952D01*
X21557142Y-58823809D01*
X21509523Y-59014285D01*
X21461904Y-59109523D01*
X21366666Y-59204761D01*
X21223809Y-59252380D01*
X20985714Y-59252380D01*
X22414285Y-58252380D02*
X22223809Y-58252380D01*
X22128571Y-58300000D01*
X22080952Y-58347619D01*
X21985714Y-58490476D01*
X21938095Y-58680952D01*
X21938095Y-59061904D01*
X21985714Y-59157142D01*
X22033333Y-59204761D01*
X22128571Y-59252380D01*
X22319047Y-59252380D01*
X22414285Y-59204761D01*
X22461904Y-59157142D01*
X22509523Y-59061904D01*
X22509523Y-58823809D01*
X22461904Y-58728571D01*
X22414285Y-58680952D01*
X22319047Y-58633333D01*
X22128571Y-58633333D01*
X22033333Y-58680952D01*
X21985714Y-58728571D01*
X21938095Y-58823809D01*
X23080952Y-58680952D02*
X22985714Y-58633333D01*
X22938095Y-58585714D01*
X22890476Y-58490476D01*
X22890476Y-58442857D01*
X22938095Y-58347619D01*
X22985714Y-58300000D01*
X23080952Y-58252380D01*
X23271428Y-58252380D01*
X23366666Y-58300000D01*
X23414285Y-58347619D01*
X23461904Y-58442857D01*
X23461904Y-58490476D01*
X23414285Y-58585714D01*
X23366666Y-58633333D01*
X23271428Y-58680952D01*
X23080952Y-58680952D01*
X22985714Y-58728571D01*
X22938095Y-58776190D01*
X22890476Y-58871428D01*
X22890476Y-59061904D01*
X22938095Y-59157142D01*
X22985714Y-59204761D01*
X23080952Y-59252380D01*
X23271428Y-59252380D01*
X23366666Y-59204761D01*
X23414285Y-59157142D01*
X23461904Y-59061904D01*
X23461904Y-58871428D01*
X23414285Y-58776190D01*
X23366666Y-58728571D01*
X23271428Y-58680952D01*
X28985714Y-59252380D02*
X28985714Y-58252380D01*
X29223809Y-58252380D01*
X29366666Y-58300000D01*
X29461904Y-58395238D01*
X29509523Y-58490476D01*
X29557142Y-58680952D01*
X29557142Y-58823809D01*
X29509523Y-59014285D01*
X29461904Y-59109523D01*
X29366666Y-59204761D01*
X29223809Y-59252380D01*
X28985714Y-59252380D01*
X30414285Y-58252380D02*
X30223809Y-58252380D01*
X30128571Y-58300000D01*
X30080952Y-58347619D01*
X29985714Y-58490476D01*
X29938095Y-58680952D01*
X29938095Y-59061904D01*
X29985714Y-59157142D01*
X30033333Y-59204761D01*
X30128571Y-59252380D01*
X30319047Y-59252380D01*
X30414285Y-59204761D01*
X30461904Y-59157142D01*
X30509523Y-59061904D01*
X30509523Y-58823809D01*
X30461904Y-58728571D01*
X30414285Y-58680952D01*
X30319047Y-58633333D01*
X30128571Y-58633333D01*
X30033333Y-58680952D01*
X29985714Y-58728571D01*
X29938095Y-58823809D01*
X30985714Y-59252380D02*
X31176190Y-59252380D01*
X31271428Y-59204761D01*
X31319047Y-59157142D01*
X31414285Y-59014285D01*
X31461904Y-58823809D01*
X31461904Y-58442857D01*
X31414285Y-58347619D01*
X31366666Y-58300000D01*
X31271428Y-58252380D01*
X31080952Y-58252380D01*
X30985714Y-58300000D01*
X30938095Y-58347619D01*
X30890476Y-58442857D01*
X30890476Y-58680952D01*
X30938095Y-58776190D01*
X30985714Y-58823809D01*
X31080952Y-58871428D01*
X31271428Y-58871428D01*
X31366666Y-58823809D01*
X31414285Y-58776190D01*
X31461904Y-58680952D01*
X36985714Y-59252380D02*
X36985714Y-58252380D01*
X37223809Y-58252380D01*
X37366666Y-58300000D01*
X37461904Y-58395238D01*
X37509523Y-58490476D01*
X37557142Y-58680952D01*
X37557142Y-58823809D01*
X37509523Y-59014285D01*
X37461904Y-59109523D01*
X37366666Y-59204761D01*
X37223809Y-59252380D01*
X36985714Y-59252380D01*
X37890476Y-58252380D02*
X38557142Y-58252380D01*
X38128571Y-59252380D01*
X39128571Y-58252380D02*
X39223809Y-58252380D01*
X39319047Y-58300000D01*
X39366666Y-58347619D01*
X39414285Y-58442857D01*
X39461904Y-58633333D01*
X39461904Y-58871428D01*
X39414285Y-59061904D01*
X39366666Y-59157142D01*
X39319047Y-59204761D01*
X39223809Y-59252380D01*
X39128571Y-59252380D01*
X39033333Y-59204761D01*
X38985714Y-59157142D01*
X38938095Y-59061904D01*
X38890476Y-58871428D01*
X38890476Y-58633333D01*
X38938095Y-58442857D01*
X38985714Y-58347619D01*
X39033333Y-58300000D01*
X39128571Y-58252380D01*
X44985714Y-59252380D02*
X44985714Y-58252380D01*
X45223809Y-58252380D01*
X45366666Y-58300000D01*
X45461904Y-58395238D01*
X45509523Y-58490476D01*
X45557142Y-58680952D01*
X45557142Y-58823809D01*
X45509523Y-59014285D01*
X45461904Y-59109523D01*
X45366666Y-59204761D01*
X45223809Y-59252380D01*
X44985714Y-59252380D01*
X45890476Y-58252380D02*
X46557142Y-58252380D01*
X46128571Y-59252380D01*
X47461904Y-59252380D02*
X46890476Y-59252380D01*
X47176190Y-59252380D02*
X47176190Y-58252380D01*
X47080952Y-58395238D01*
X46985714Y-58490476D01*
X46890476Y-58538095D01*
X52985714Y-59252380D02*
X52985714Y-58252380D01*
X53223809Y-58252380D01*
X53366666Y-58300000D01*
X53461904Y-58395238D01*
X53509523Y-58490476D01*
X53557142Y-58680952D01*
X53557142Y-58823809D01*
X53509523Y-59014285D01*
X53461904Y-59109523D01*
X53366666Y-59204761D01*
X53223809Y-59252380D01*
X52985714Y-59252380D01*
X53890476Y-58252380D02*
X54557142Y-58252380D01*
X54128571Y-59252380D01*
X54890476Y-58347619D02*
X54938095Y-58300000D01*
X55033333Y-58252380D01*
X55271428Y-58252380D01*
X55366666Y-58300000D01*
X55414285Y-58347619D01*
X55461904Y-58442857D01*
X55461904Y-58538095D01*
X55414285Y-58680952D01*
X54842857Y-59252380D01*
X55461904Y-59252380D01*
X65402379Y-1214285D02*
X64402379Y-1214285D01*
X64402379Y-976190D01*
X64449999Y-833333D01*
X64545237Y-738095D01*
X64640475Y-690476D01*
X64830951Y-642857D01*
X64973808Y-642857D01*
X65164284Y-690476D01*
X65259522Y-738095D01*
X65354760Y-833333D01*
X65402379Y-976190D01*
X65402379Y-1214285D01*
X64402379Y-309523D02*
X64402379Y357142D01*
X65402379Y-71428D01*
X64402379Y642857D02*
X64402379Y1261904D01*
X64783332Y928571D01*
X64783332Y1071428D01*
X64830951Y1166666D01*
X64878570Y1214285D01*
X64973808Y1261904D01*
X65211903Y1261904D01*
X65307141Y1214285D01*
X65354760Y1166666D01*
X65402379Y1071428D01*
X65402379Y785714D01*
X65354760Y690476D01*
X65307141Y642857D01*
X65402379Y-9214285D02*
X64402379Y-9214285D01*
X64402379Y-8976190D01*
X64449999Y-8833333D01*
X64545237Y-8738095D01*
X64640475Y-8690476D01*
X64830951Y-8642857D01*
X64973808Y-8642857D01*
X65164284Y-8690476D01*
X65259522Y-8738095D01*
X65354760Y-8833333D01*
X65402379Y-8976190D01*
X65402379Y-9214285D01*
X64402379Y-8309523D02*
X64402379Y-7642857D01*
X65402379Y-8071428D01*
X64735713Y-6833333D02*
X65402379Y-6833333D01*
X64354760Y-7071428D02*
X65069046Y-7309523D01*
X65069046Y-6690476D01*
X65402379Y-17214285D02*
X64402379Y-17214285D01*
X64402379Y-16976190D01*
X64449999Y-16833333D01*
X64545237Y-16738095D01*
X64640475Y-16690476D01*
X64830951Y-16642857D01*
X64973808Y-16642857D01*
X65164284Y-16690476D01*
X65259522Y-16738095D01*
X65354760Y-16833333D01*
X65402379Y-16976190D01*
X65402379Y-17214285D01*
X64402379Y-16309523D02*
X64402379Y-15642857D01*
X65402379Y-16071428D01*
X64402379Y-14785714D02*
X64402379Y-15261904D01*
X64878570Y-15309523D01*
X64830951Y-15261904D01*
X64783332Y-15166666D01*
X64783332Y-14928571D01*
X64830951Y-14833333D01*
X64878570Y-14785714D01*
X64973808Y-14738095D01*
X65211903Y-14738095D01*
X65307141Y-14785714D01*
X65354760Y-14833333D01*
X65402379Y-14928571D01*
X65402379Y-15166666D01*
X65354760Y-15261904D01*
X65307141Y-15309523D01*
X65402379Y-25214285D02*
X64402379Y-25214285D01*
X64402379Y-24976190D01*
X64449999Y-24833333D01*
X64545237Y-24738095D01*
X64640475Y-24690476D01*
X64830951Y-24642857D01*
X64973808Y-24642857D01*
X65164284Y-24690476D01*
X65259522Y-24738095D01*
X65354760Y-24833333D01*
X65402379Y-24976190D01*
X65402379Y-25214285D01*
X64402379Y-24309523D02*
X64402379Y-23642857D01*
X65402379Y-24071428D01*
X64402379Y-22833333D02*
X64402379Y-23023809D01*
X64449999Y-23119047D01*
X64497618Y-23166666D01*
X64640475Y-23261904D01*
X64830951Y-23309523D01*
X65211903Y-23309523D01*
X65307141Y-23261904D01*
X65354760Y-23214285D01*
X65402379Y-23119047D01*
X65402379Y-22928571D01*
X65354760Y-22833333D01*
X65307141Y-22785714D01*
X65211903Y-22738095D01*
X64973808Y-22738095D01*
X64878570Y-22785714D01*
X64830951Y-22833333D01*
X64783332Y-22928571D01*
X64783332Y-23119047D01*
X64830951Y-23214285D01*
X64878570Y-23261904D01*
X64973808Y-23309523D01*
X65402379Y-33214285D02*
X64402379Y-33214285D01*
X64402379Y-32976190D01*
X64449999Y-32833333D01*
X64545237Y-32738095D01*
X64640475Y-32690476D01*
X64830951Y-32642857D01*
X64973808Y-32642857D01*
X65164284Y-32690476D01*
X65259522Y-32738095D01*
X65354760Y-32833333D01*
X65402379Y-32976190D01*
X65402379Y-33214285D01*
X64402379Y-32309523D02*
X64402379Y-31642857D01*
X65402379Y-32071428D01*
X64402379Y-31357142D02*
X64402379Y-30690476D01*
X65402379Y-31119047D01*
X65402379Y-41214285D02*
X64402379Y-41214285D01*
X64402379Y-40976190D01*
X64449999Y-40833333D01*
X64545237Y-40738095D01*
X64640475Y-40690476D01*
X64830951Y-40642857D01*
X64973808Y-40642857D01*
X65164284Y-40690476D01*
X65259522Y-40738095D01*
X65354760Y-40833333D01*
X65402379Y-40976190D01*
X65402379Y-41214285D01*
X64402379Y-40309523D02*
X64402379Y-39642857D01*
X65402379Y-40071428D01*
X64830951Y-39119047D02*
X64783332Y-39214285D01*
X64735713Y-39261904D01*
X64640475Y-39309523D01*
X64592856Y-39309523D01*
X64497618Y-39261904D01*
X64449999Y-39214285D01*
X64402379Y-39119047D01*
X64402379Y-38928571D01*
X64449999Y-38833333D01*
X64497618Y-38785714D01*
X64592856Y-38738095D01*
X64640475Y-38738095D01*
X64735713Y-38785714D01*
X64783332Y-38833333D01*
X64830951Y-38928571D01*
X64830951Y-39119047D01*
X64878570Y-39214285D01*
X64926189Y-39261904D01*
X65021427Y-39309523D01*
X65211903Y-39309523D01*
X65307141Y-39261904D01*
X65354760Y-39214285D01*
X65402379Y-39119047D01*
X65402379Y-38928571D01*
X65354760Y-38833333D01*
X65307141Y-38785714D01*
X65211903Y-38738095D01*
X65021427Y-38738095D01*
X64926189Y-38785714D01*
X64878570Y-38833333D01*
X64830951Y-38928571D01*
X65402379Y-49214285D02*
X64402379Y-49214285D01*
X64402379Y-48976190D01*
X64449999Y-48833333D01*
X64545237Y-48738095D01*
X64640475Y-48690476D01*
X64830951Y-48642857D01*
X64973808Y-48642857D01*
X65164284Y-48690476D01*
X65259522Y-48738095D01*
X65354760Y-48833333D01*
X65402379Y-48976190D01*
X65402379Y-49214285D01*
X64402379Y-48309523D02*
X64402379Y-47642857D01*
X65402379Y-48071428D01*
X65402379Y-47214285D02*
X65402379Y-47023809D01*
X65354760Y-46928571D01*
X65307141Y-46880952D01*
X65164284Y-46785714D01*
X64973808Y-46738095D01*
X64592856Y-46738095D01*
X64497618Y-46785714D01*
X64449999Y-46833333D01*
X64402379Y-46928571D01*
X64402379Y-47119047D01*
X64449999Y-47214285D01*
X64497618Y-47261904D01*
X64592856Y-47309523D01*
X64830951Y-47309523D01*
X64926189Y-47261904D01*
X64973808Y-47214285D01*
X65021427Y-47119047D01*
X65021427Y-46928571D01*
X64973808Y-46833333D01*
X64926189Y-46785714D01*
X64830951Y-46738095D01*
X65402379Y-57214285D02*
X64402379Y-57214285D01*
X64402379Y-56976190D01*
X64449999Y-56833333D01*
X64545237Y-56738095D01*
X64640475Y-56690476D01*
X64830951Y-56642857D01*
X64973808Y-56642857D01*
X65164284Y-56690476D01*
X65259522Y-56738095D01*
X65354760Y-56833333D01*
X65402379Y-56976190D01*
X65402379Y-57214285D01*
X64830951Y-56071428D02*
X64783332Y-56166666D01*
X64735713Y-56214285D01*
X64640475Y-56261904D01*
X64592856Y-56261904D01*
X64497618Y-56214285D01*
X64449999Y-56166666D01*
X64402379Y-56071428D01*
X64402379Y-55880952D01*
X64449999Y-55785714D01*
X64497618Y-55738095D01*
X64592856Y-55690476D01*
X64640475Y-55690476D01*
X64735713Y-55738095D01*
X64783332Y-55785714D01*
X64830951Y-55880952D01*
X64830951Y-56071428D01*
X64878570Y-56166666D01*
X64926189Y-56214285D01*
X65021427Y-56261904D01*
X65211903Y-56261904D01*
X65307141Y-56214285D01*
X65354760Y-56166666D01*
X65402379Y-56071428D01*
X65402379Y-55880952D01*
X65354760Y-55785714D01*
X65307141Y-55738095D01*
X65211903Y-55690476D01*
X65021427Y-55690476D01*
X64926189Y-55738095D01*
X64878570Y-55785714D01*
X64830951Y-55880952D01*
X64402379Y-55071428D02*
X64402379Y-54976190D01*
X64449999Y-54880952D01*
X64497618Y-54833333D01*
X64592856Y-54785714D01*
X64783332Y-54738095D01*
X65021427Y-54738095D01*
X65211903Y-54785714D01*
X65307141Y-54833333D01*
X65354760Y-54880952D01*
X65402379Y-54976190D01*
X65402379Y-55071428D01*
X65354760Y-55166666D01*
X65307141Y-55214285D01*
X65211903Y-55261904D01*
X65021427Y-55309523D01*
X64783332Y-55309523D01*
X64592856Y-55261904D01*
X64497618Y-55214285D01*
X64449999Y-55166666D01*
X64402379Y-55071428D01*
X90751666Y-20282380D02*
X90751666Y-20996666D01*
X90704047Y-21139523D01*
X90608809Y-21234761D01*
X90465952Y-21282380D01*
X90370714Y-21282380D01*
X91751666Y-21282380D02*
X91180238Y-21282380D01*
X91465952Y-21282380D02*
X91465952Y-20282380D01*
X91370714Y-20425238D01*
X91275476Y-20520476D01*
X91180238Y-20568095D01*
X1983333Y-59252380D02*
X1650000Y-58776190D01*
X1411904Y-59252380D02*
X1411904Y-58252380D01*
X1792857Y-58252380D01*
X1888095Y-58300000D01*
X1935714Y-58347619D01*
X1983333Y-58442857D01*
X1983333Y-58585714D01*
X1935714Y-58680952D01*
X1888095Y-58728571D01*
X1792857Y-58776190D01*
X1411904Y-58776190D01*
X2935714Y-59252380D02*
X2364285Y-59252380D01*
X2650000Y-59252380D02*
X2650000Y-58252380D01*
X2554761Y-58395238D01*
X2459523Y-58490476D01*
X2364285Y-58538095D01*
X9983333Y-59252380D02*
X9650000Y-58776190D01*
X9411904Y-59252380D02*
X9411904Y-58252380D01*
X9792857Y-58252380D01*
X9888095Y-58300000D01*
X9935714Y-58347619D01*
X9983333Y-58442857D01*
X9983333Y-58585714D01*
X9935714Y-58680952D01*
X9888095Y-58728571D01*
X9792857Y-58776190D01*
X9411904Y-58776190D01*
X10364285Y-58347619D02*
X10411904Y-58300000D01*
X10507142Y-58252380D01*
X10745238Y-58252380D01*
X10840476Y-58300000D01*
X10888095Y-58347619D01*
X10935714Y-58442857D01*
X10935714Y-58538095D01*
X10888095Y-58680952D01*
X10316666Y-59252380D01*
X10935714Y-59252380D01*
X17983333Y-59252380D02*
X17650000Y-58776190D01*
X17411904Y-59252380D02*
X17411904Y-58252380D01*
X17792857Y-58252380D01*
X17888095Y-58300000D01*
X17935714Y-58347619D01*
X17983333Y-58442857D01*
X17983333Y-58585714D01*
X17935714Y-58680952D01*
X17888095Y-58728571D01*
X17792857Y-58776190D01*
X17411904Y-58776190D01*
X18316666Y-58252380D02*
X18935714Y-58252380D01*
X18602380Y-58633333D01*
X18745238Y-58633333D01*
X18840476Y-58680952D01*
X18888095Y-58728571D01*
X18935714Y-58823809D01*
X18935714Y-59061904D01*
X18888095Y-59157142D01*
X18840476Y-59204761D01*
X18745238Y-59252380D01*
X18459523Y-59252380D01*
X18364285Y-59204761D01*
X18316666Y-59157142D01*
X25983333Y-59252380D02*
X25650000Y-58776190D01*
X25411904Y-59252380D02*
X25411904Y-58252380D01*
X25792857Y-58252380D01*
X25888095Y-58300000D01*
X25935714Y-58347619D01*
X25983333Y-58442857D01*
X25983333Y-58585714D01*
X25935714Y-58680952D01*
X25888095Y-58728571D01*
X25792857Y-58776190D01*
X25411904Y-58776190D01*
X26840476Y-58585714D02*
X26840476Y-59252380D01*
X26602380Y-58204761D02*
X26364285Y-58919047D01*
X26983333Y-58919047D01*
X33983333Y-59252380D02*
X33650000Y-58776190D01*
X33411904Y-59252380D02*
X33411904Y-58252380D01*
X33792857Y-58252380D01*
X33888095Y-58300000D01*
X33935714Y-58347619D01*
X33983333Y-58442857D01*
X33983333Y-58585714D01*
X33935714Y-58680952D01*
X33888095Y-58728571D01*
X33792857Y-58776190D01*
X33411904Y-58776190D01*
X34888095Y-58252380D02*
X34411904Y-58252380D01*
X34364285Y-58728571D01*
X34411904Y-58680952D01*
X34507142Y-58633333D01*
X34745238Y-58633333D01*
X34840476Y-58680952D01*
X34888095Y-58728571D01*
X34935714Y-58823809D01*
X34935714Y-59061904D01*
X34888095Y-59157142D01*
X34840476Y-59204761D01*
X34745238Y-59252380D01*
X34507142Y-59252380D01*
X34411904Y-59204761D01*
X34364285Y-59157142D01*
X41983333Y-59252380D02*
X41650000Y-58776190D01*
X41411904Y-59252380D02*
X41411904Y-58252380D01*
X41792857Y-58252380D01*
X41888095Y-58300000D01*
X41935714Y-58347619D01*
X41983333Y-58442857D01*
X41983333Y-58585714D01*
X41935714Y-58680952D01*
X41888095Y-58728571D01*
X41792857Y-58776190D01*
X41411904Y-58776190D01*
X42840476Y-58252380D02*
X42650000Y-58252380D01*
X42554761Y-58300000D01*
X42507142Y-58347619D01*
X42411904Y-58490476D01*
X42364285Y-58680952D01*
X42364285Y-59061904D01*
X42411904Y-59157142D01*
X42459523Y-59204761D01*
X42554761Y-59252380D01*
X42745238Y-59252380D01*
X42840476Y-59204761D01*
X42888095Y-59157142D01*
X42935714Y-59061904D01*
X42935714Y-58823809D01*
X42888095Y-58728571D01*
X42840476Y-58680952D01*
X42745238Y-58633333D01*
X42554761Y-58633333D01*
X42459523Y-58680952D01*
X42411904Y-58728571D01*
X42364285Y-58823809D01*
X49983333Y-59252380D02*
X49650000Y-58776190D01*
X49411904Y-59252380D02*
X49411904Y-58252380D01*
X49792857Y-58252380D01*
X49888095Y-58300000D01*
X49935714Y-58347619D01*
X49983333Y-58442857D01*
X49983333Y-58585714D01*
X49935714Y-58680952D01*
X49888095Y-58728571D01*
X49792857Y-58776190D01*
X49411904Y-58776190D01*
X50316666Y-58252380D02*
X50983333Y-58252380D01*
X50554761Y-59252380D01*
X57983333Y-59252380D02*
X57650000Y-58776190D01*
X57411904Y-59252380D02*
X57411904Y-58252380D01*
X57792857Y-58252380D01*
X57888095Y-58300000D01*
X57935714Y-58347619D01*
X57983333Y-58442857D01*
X57983333Y-58585714D01*
X57935714Y-58680952D01*
X57888095Y-58728571D01*
X57792857Y-58776190D01*
X57411904Y-58776190D01*
X58554761Y-58680952D02*
X58459523Y-58633333D01*
X58411904Y-58585714D01*
X58364285Y-58490476D01*
X58364285Y-58442857D01*
X58411904Y-58347619D01*
X58459523Y-58300000D01*
X58554761Y-58252380D01*
X58745238Y-58252380D01*
X58840476Y-58300000D01*
X58888095Y-58347619D01*
X58935714Y-58442857D01*
X58935714Y-58490476D01*
X58888095Y-58585714D01*
X58840476Y-58633333D01*
X58745238Y-58680952D01*
X58554761Y-58680952D01*
X58459523Y-58728571D01*
X58411904Y-58776190D01*
X58364285Y-58871428D01*
X58364285Y-59061904D01*
X58411904Y-59157142D01*
X58459523Y-59204761D01*
X58554761Y-59252380D01*
X58745238Y-59252380D01*
X58840476Y-59204761D01*
X58888095Y-59157142D01*
X58935714Y-59061904D01*
X58935714Y-58871428D01*
X58888095Y-58776190D01*
X58840476Y-58728571D01*
X58745238Y-58680952D01*
X-2016666Y-52102380D02*
X-2350000Y-51626190D01*
X-2588095Y-52102380D02*
X-2588095Y-51102380D01*
X-2207142Y-51102380D01*
X-2111904Y-51150000D01*
X-2064285Y-51197619D01*
X-2016666Y-51292857D01*
X-2016666Y-51435714D01*
X-2064285Y-51530952D01*
X-2111904Y-51578571D01*
X-2207142Y-51626190D01*
X-2588095Y-51626190D01*
X-1540476Y-52102380D02*
X-1350000Y-52102380D01*
X-1254761Y-52054761D01*
X-1207142Y-52007142D01*
X-1111904Y-51864285D01*
X-1064285Y-51673809D01*
X-1064285Y-51292857D01*
X-1111904Y-51197619D01*
X-1159523Y-51150000D01*
X-1254761Y-51102380D01*
X-1445238Y-51102380D01*
X-1540476Y-51150000D01*
X-1588095Y-51197619D01*
X-1635714Y-51292857D01*
X-1635714Y-51530952D01*
X-1588095Y-51626190D01*
X-1540476Y-51673809D01*
X-1445238Y-51721428D01*
X-1254761Y-51721428D01*
X-1159523Y-51673809D01*
X-1111904Y-51626190D01*
X-1064285Y-51530952D01*
X5507142Y-52102380D02*
X5173809Y-51626190D01*
X4935714Y-52102380D02*
X4935714Y-51102380D01*
X5316666Y-51102380D01*
X5411904Y-51150000D01*
X5459523Y-51197619D01*
X5507142Y-51292857D01*
X5507142Y-51435714D01*
X5459523Y-51530952D01*
X5411904Y-51578571D01*
X5316666Y-51626190D01*
X4935714Y-51626190D01*
X6459523Y-52102380D02*
X5888095Y-52102380D01*
X6173809Y-52102380D02*
X6173809Y-51102380D01*
X6078571Y-51245238D01*
X5983333Y-51340476D01*
X5888095Y-51388095D01*
X7078571Y-51102380D02*
X7173809Y-51102380D01*
X7269047Y-51150000D01*
X7316666Y-51197619D01*
X7364285Y-51292857D01*
X7411904Y-51483333D01*
X7411904Y-51721428D01*
X7364285Y-51911904D01*
X7316666Y-52007142D01*
X7269047Y-52054761D01*
X7173809Y-52102380D01*
X7078571Y-52102380D01*
X6983333Y-52054761D01*
X6935714Y-52007142D01*
X6888095Y-51911904D01*
X6840476Y-51721428D01*
X6840476Y-51483333D01*
X6888095Y-51292857D01*
X6935714Y-51197619D01*
X6983333Y-51150000D01*
X7078571Y-51102380D01*
X13507142Y-52102380D02*
X13173809Y-51626190D01*
X12935714Y-52102380D02*
X12935714Y-51102380D01*
X13316666Y-51102380D01*
X13411904Y-51150000D01*
X13459523Y-51197619D01*
X13507142Y-51292857D01*
X13507142Y-51435714D01*
X13459523Y-51530952D01*
X13411904Y-51578571D01*
X13316666Y-51626190D01*
X12935714Y-51626190D01*
X14459523Y-52102380D02*
X13888095Y-52102380D01*
X14173809Y-52102380D02*
X14173809Y-51102380D01*
X14078571Y-51245238D01*
X13983333Y-51340476D01*
X13888095Y-51388095D01*
X15411904Y-52102380D02*
X14840476Y-52102380D01*
X15126190Y-52102380D02*
X15126190Y-51102380D01*
X15030952Y-51245238D01*
X14935714Y-51340476D01*
X14840476Y-51388095D01*
X21507142Y-52102380D02*
X21173809Y-51626190D01*
X20935714Y-52102380D02*
X20935714Y-51102380D01*
X21316666Y-51102380D01*
X21411904Y-51150000D01*
X21459523Y-51197619D01*
X21507142Y-51292857D01*
X21507142Y-51435714D01*
X21459523Y-51530952D01*
X21411904Y-51578571D01*
X21316666Y-51626190D01*
X20935714Y-51626190D01*
X22459523Y-52102380D02*
X21888095Y-52102380D01*
X22173809Y-52102380D02*
X22173809Y-51102380D01*
X22078571Y-51245238D01*
X21983333Y-51340476D01*
X21888095Y-51388095D01*
X22840476Y-51197619D02*
X22888095Y-51150000D01*
X22983333Y-51102380D01*
X23221428Y-51102380D01*
X23316666Y-51150000D01*
X23364285Y-51197619D01*
X23411904Y-51292857D01*
X23411904Y-51388095D01*
X23364285Y-51530952D01*
X22792857Y-52102380D01*
X23411904Y-52102380D01*
X29507142Y-52102380D02*
X29173809Y-51626190D01*
X28935714Y-52102380D02*
X28935714Y-51102380D01*
X29316666Y-51102380D01*
X29411904Y-51150000D01*
X29459523Y-51197619D01*
X29507142Y-51292857D01*
X29507142Y-51435714D01*
X29459523Y-51530952D01*
X29411904Y-51578571D01*
X29316666Y-51626190D01*
X28935714Y-51626190D01*
X30459523Y-52102380D02*
X29888095Y-52102380D01*
X30173809Y-52102380D02*
X30173809Y-51102380D01*
X30078571Y-51245238D01*
X29983333Y-51340476D01*
X29888095Y-51388095D01*
X30792857Y-51102380D02*
X31411904Y-51102380D01*
X31078571Y-51483333D01*
X31221428Y-51483333D01*
X31316666Y-51530952D01*
X31364285Y-51578571D01*
X31411904Y-51673809D01*
X31411904Y-51911904D01*
X31364285Y-52007142D01*
X31316666Y-52054761D01*
X31221428Y-52102380D01*
X30935714Y-52102380D01*
X30840476Y-52054761D01*
X30792857Y-52007142D01*
X37507142Y-52102380D02*
X37173809Y-51626190D01*
X36935714Y-52102380D02*
X36935714Y-51102380D01*
X37316666Y-51102380D01*
X37411904Y-51150000D01*
X37459523Y-51197619D01*
X37507142Y-51292857D01*
X37507142Y-51435714D01*
X37459523Y-51530952D01*
X37411904Y-51578571D01*
X37316666Y-51626190D01*
X36935714Y-51626190D01*
X38459523Y-52102380D02*
X37888095Y-52102380D01*
X38173809Y-52102380D02*
X38173809Y-51102380D01*
X38078571Y-51245238D01*
X37983333Y-51340476D01*
X37888095Y-51388095D01*
X39316666Y-51435714D02*
X39316666Y-52102380D01*
X39078571Y-51054761D02*
X38840476Y-51769047D01*
X39459523Y-51769047D01*
X45507142Y-52102380D02*
X45173809Y-51626190D01*
X44935714Y-52102380D02*
X44935714Y-51102380D01*
X45316666Y-51102380D01*
X45411904Y-51150000D01*
X45459523Y-51197619D01*
X45507142Y-51292857D01*
X45507142Y-51435714D01*
X45459523Y-51530952D01*
X45411904Y-51578571D01*
X45316666Y-51626190D01*
X44935714Y-51626190D01*
X46459523Y-52102380D02*
X45888095Y-52102380D01*
X46173809Y-52102380D02*
X46173809Y-51102380D01*
X46078571Y-51245238D01*
X45983333Y-51340476D01*
X45888095Y-51388095D01*
X47364285Y-51102380D02*
X46888095Y-51102380D01*
X46840476Y-51578571D01*
X46888095Y-51530952D01*
X46983333Y-51483333D01*
X47221428Y-51483333D01*
X47316666Y-51530952D01*
X47364285Y-51578571D01*
X47411904Y-51673809D01*
X47411904Y-51911904D01*
X47364285Y-52007142D01*
X47316666Y-52054761D01*
X47221428Y-52102380D01*
X46983333Y-52102380D01*
X46888095Y-52054761D01*
X46840476Y-52007142D01*
X53507142Y-52102380D02*
X53173809Y-51626190D01*
X52935714Y-52102380D02*
X52935714Y-51102380D01*
X53316666Y-51102380D01*
X53411904Y-51150000D01*
X53459523Y-51197619D01*
X53507142Y-51292857D01*
X53507142Y-51435714D01*
X53459523Y-51530952D01*
X53411904Y-51578571D01*
X53316666Y-51626190D01*
X52935714Y-51626190D01*
X54459523Y-52102380D02*
X53888095Y-52102380D01*
X54173809Y-52102380D02*
X54173809Y-51102380D01*
X54078571Y-51245238D01*
X53983333Y-51340476D01*
X53888095Y-51388095D01*
X55316666Y-51102380D02*
X55126190Y-51102380D01*
X55030952Y-51150000D01*
X54983333Y-51197619D01*
X54888095Y-51340476D01*
X54840476Y-51530952D01*
X54840476Y-51911904D01*
X54888095Y-52007142D01*
X54935714Y-52054761D01*
X55030952Y-52102380D01*
X55221428Y-52102380D01*
X55316666Y-52054761D01*
X55364285Y-52007142D01*
X55411904Y-51911904D01*
X55411904Y-51673809D01*
X55364285Y-51578571D01*
X55316666Y-51530952D01*
X55221428Y-51483333D01*
X55030952Y-51483333D01*
X54935714Y-51530952D01*
X54888095Y-51578571D01*
X54840476Y-51673809D01*
X60802380Y-642857D02*
X60326190Y-976190D01*
X60802380Y-1214285D02*
X59802380Y-1214285D01*
X59802380Y-833333D01*
X59850000Y-738095D01*
X59897619Y-690476D01*
X59992857Y-642857D01*
X60135714Y-642857D01*
X60230952Y-690476D01*
X60278571Y-738095D01*
X60326190Y-833333D01*
X60326190Y-1214285D01*
X60802380Y309523D02*
X60802380Y-261904D01*
X60802380Y23809D02*
X59802380Y23809D01*
X59945238Y-71428D01*
X60040476Y-166666D01*
X60088095Y-261904D01*
X59802380Y642857D02*
X59802380Y1309523D01*
X60802380Y880952D01*
X60802380Y-8642857D02*
X60326190Y-8976190D01*
X60802380Y-9214285D02*
X59802380Y-9214285D01*
X59802380Y-8833333D01*
X59850000Y-8738095D01*
X59897619Y-8690476D01*
X59992857Y-8642857D01*
X60135714Y-8642857D01*
X60230952Y-8690476D01*
X60278571Y-8738095D01*
X60326190Y-8833333D01*
X60326190Y-9214285D01*
X60802380Y-7690476D02*
X60802380Y-8261904D01*
X60802380Y-7976190D02*
X59802380Y-7976190D01*
X59945238Y-8071428D01*
X60040476Y-8166666D01*
X60088095Y-8261904D01*
X60230952Y-7119047D02*
X60183333Y-7214285D01*
X60135714Y-7261904D01*
X60040476Y-7309523D01*
X59992857Y-7309523D01*
X59897619Y-7261904D01*
X59850000Y-7214285D01*
X59802380Y-7119047D01*
X59802380Y-6928571D01*
X59850000Y-6833333D01*
X59897619Y-6785714D01*
X59992857Y-6738095D01*
X60040476Y-6738095D01*
X60135714Y-6785714D01*
X60183333Y-6833333D01*
X60230952Y-6928571D01*
X60230952Y-7119047D01*
X60278571Y-7214285D01*
X60326190Y-7261904D01*
X60421428Y-7309523D01*
X60611904Y-7309523D01*
X60707142Y-7261904D01*
X60754761Y-7214285D01*
X60802380Y-7119047D01*
X60802380Y-6928571D01*
X60754761Y-6833333D01*
X60707142Y-6785714D01*
X60611904Y-6738095D01*
X60421428Y-6738095D01*
X60326190Y-6785714D01*
X60278571Y-6833333D01*
X60230952Y-6928571D01*
X60802380Y-16642857D02*
X60326190Y-16976190D01*
X60802380Y-17214285D02*
X59802380Y-17214285D01*
X59802380Y-16833333D01*
X59850000Y-16738095D01*
X59897619Y-16690476D01*
X59992857Y-16642857D01*
X60135714Y-16642857D01*
X60230952Y-16690476D01*
X60278571Y-16738095D01*
X60326190Y-16833333D01*
X60326190Y-17214285D01*
X60802380Y-15690476D02*
X60802380Y-16261904D01*
X60802380Y-15976190D02*
X59802380Y-15976190D01*
X59945238Y-16071428D01*
X60040476Y-16166666D01*
X60088095Y-16261904D01*
X60802380Y-15214285D02*
X60802380Y-15023809D01*
X60754761Y-14928571D01*
X60707142Y-14880952D01*
X60564285Y-14785714D01*
X60373809Y-14738095D01*
X59992857Y-14738095D01*
X59897619Y-14785714D01*
X59850000Y-14833333D01*
X59802380Y-14928571D01*
X59802380Y-15119047D01*
X59850000Y-15214285D01*
X59897619Y-15261904D01*
X59992857Y-15309523D01*
X60230952Y-15309523D01*
X60326190Y-15261904D01*
X60373809Y-15214285D01*
X60421428Y-15119047D01*
X60421428Y-14928571D01*
X60373809Y-14833333D01*
X60326190Y-14785714D01*
X60230952Y-14738095D01*
X60802380Y-24642857D02*
X60326190Y-24976190D01*
X60802380Y-25214285D02*
X59802380Y-25214285D01*
X59802380Y-24833333D01*
X59850000Y-24738095D01*
X59897619Y-24690476D01*
X59992857Y-24642857D01*
X60135714Y-24642857D01*
X60230952Y-24690476D01*
X60278571Y-24738095D01*
X60326190Y-24833333D01*
X60326190Y-25214285D01*
X59897619Y-24261904D02*
X59850000Y-24214285D01*
X59802380Y-24119047D01*
X59802380Y-23880952D01*
X59850000Y-23785714D01*
X59897619Y-23738095D01*
X59992857Y-23690476D01*
X60088095Y-23690476D01*
X60230952Y-23738095D01*
X60802380Y-24309523D01*
X60802380Y-23690476D01*
X59802380Y-23071428D02*
X59802380Y-22976190D01*
X59850000Y-22880952D01*
X59897619Y-22833333D01*
X59992857Y-22785714D01*
X60183333Y-22738095D01*
X60421428Y-22738095D01*
X60611904Y-22785714D01*
X60707142Y-22833333D01*
X60754761Y-22880952D01*
X60802380Y-22976190D01*
X60802380Y-23071428D01*
X60754761Y-23166666D01*
X60707142Y-23214285D01*
X60611904Y-23261904D01*
X60421428Y-23309523D01*
X60183333Y-23309523D01*
X59992857Y-23261904D01*
X59897619Y-23214285D01*
X59850000Y-23166666D01*
X59802380Y-23071428D01*
X60802380Y-32642857D02*
X60326190Y-32976190D01*
X60802380Y-33214285D02*
X59802380Y-33214285D01*
X59802380Y-32833333D01*
X59850000Y-32738095D01*
X59897619Y-32690476D01*
X59992857Y-32642857D01*
X60135714Y-32642857D01*
X60230952Y-32690476D01*
X60278571Y-32738095D01*
X60326190Y-32833333D01*
X60326190Y-33214285D01*
X59897619Y-32261904D02*
X59850000Y-32214285D01*
X59802380Y-32119047D01*
X59802380Y-31880952D01*
X59850000Y-31785714D01*
X59897619Y-31738095D01*
X59992857Y-31690476D01*
X60088095Y-31690476D01*
X60230952Y-31738095D01*
X60802380Y-32309523D01*
X60802380Y-31690476D01*
X60802380Y-30738095D02*
X60802380Y-31309523D01*
X60802380Y-31023809D02*
X59802380Y-31023809D01*
X59945238Y-31119047D01*
X60040476Y-31214285D01*
X60088095Y-31309523D01*
X60802380Y-40642857D02*
X60326190Y-40976190D01*
X60802380Y-41214285D02*
X59802380Y-41214285D01*
X59802380Y-40833333D01*
X59850000Y-40738095D01*
X59897619Y-40690476D01*
X59992857Y-40642857D01*
X60135714Y-40642857D01*
X60230952Y-40690476D01*
X60278571Y-40738095D01*
X60326190Y-40833333D01*
X60326190Y-41214285D01*
X59897619Y-40261904D02*
X59850000Y-40214285D01*
X59802380Y-40119047D01*
X59802380Y-39880952D01*
X59850000Y-39785714D01*
X59897619Y-39738095D01*
X59992857Y-39690476D01*
X60088095Y-39690476D01*
X60230952Y-39738095D01*
X60802380Y-40309523D01*
X60802380Y-39690476D01*
X59897619Y-39309523D02*
X59850000Y-39261904D01*
X59802380Y-39166666D01*
X59802380Y-38928571D01*
X59850000Y-38833333D01*
X59897619Y-38785714D01*
X59992857Y-38738095D01*
X60088095Y-38738095D01*
X60230952Y-38785714D01*
X60802380Y-39357142D01*
X60802380Y-38738095D01*
X60802380Y-48642857D02*
X60326190Y-48976190D01*
X60802380Y-49214285D02*
X59802380Y-49214285D01*
X59802380Y-48833333D01*
X59850000Y-48738095D01*
X59897619Y-48690476D01*
X59992857Y-48642857D01*
X60135714Y-48642857D01*
X60230952Y-48690476D01*
X60278571Y-48738095D01*
X60326190Y-48833333D01*
X60326190Y-49214285D01*
X59897619Y-48261904D02*
X59850000Y-48214285D01*
X59802380Y-48119047D01*
X59802380Y-47880952D01*
X59850000Y-47785714D01*
X59897619Y-47738095D01*
X59992857Y-47690476D01*
X60088095Y-47690476D01*
X60230952Y-47738095D01*
X60802380Y-48309523D01*
X60802380Y-47690476D01*
X59802380Y-47357142D02*
X59802380Y-46738095D01*
X60183333Y-47071428D01*
X60183333Y-46928571D01*
X60230952Y-46833333D01*
X60278571Y-46785714D01*
X60373809Y-46738095D01*
X60611904Y-46738095D01*
X60707142Y-46785714D01*
X60754761Y-46833333D01*
X60802380Y-46928571D01*
X60802380Y-47214285D01*
X60754761Y-47309523D01*
X60707142Y-47357142D01*
X60802380Y-56642857D02*
X60326190Y-56976190D01*
X60802380Y-57214285D02*
X59802380Y-57214285D01*
X59802380Y-56833333D01*
X59850000Y-56738095D01*
X59897619Y-56690476D01*
X59992857Y-56642857D01*
X60135714Y-56642857D01*
X60230952Y-56690476D01*
X60278571Y-56738095D01*
X60326190Y-56833333D01*
X60326190Y-57214285D01*
X59897619Y-56261904D02*
X59850000Y-56214285D01*
X59802380Y-56119047D01*
X59802380Y-55880952D01*
X59850000Y-55785714D01*
X59897619Y-55738095D01*
X59992857Y-55690476D01*
X60088095Y-55690476D01*
X60230952Y-55738095D01*
X60802380Y-56309523D01*
X60802380Y-55690476D01*
X60135714Y-54833333D02*
X60802380Y-54833333D01*
X59754761Y-55071428D02*
X60469047Y-55309523D01*
X60469047Y-54690476D01*
X76988095Y-30017380D02*
X76988095Y-30826904D01*
X77035714Y-30922142D01*
X77083333Y-30969761D01*
X77178571Y-31017380D01*
X77369047Y-31017380D01*
X77464285Y-30969761D01*
X77511904Y-30922142D01*
X77559523Y-30826904D01*
X77559523Y-30017380D01*
X78559523Y-31017380D02*
X77988095Y-31017380D01*
X78273809Y-31017380D02*
X78273809Y-30017380D01*
X78178571Y-30160238D01*
X78083333Y-30255476D01*
X77988095Y-30303095D01*
X76988095Y-16347380D02*
X76988095Y-17156904D01*
X77035714Y-17252142D01*
X77083333Y-17299761D01*
X77178571Y-17347380D01*
X77369047Y-17347380D01*
X77464285Y-17299761D01*
X77511904Y-17252142D01*
X77559523Y-17156904D01*
X77559523Y-16347380D01*
X77988095Y-16442619D02*
X78035714Y-16395000D01*
X78130952Y-16347380D01*
X78369047Y-16347380D01*
X78464285Y-16395000D01*
X78511904Y-16442619D01*
X78559523Y-16537857D01*
X78559523Y-16633095D01*
X78511904Y-16775952D01*
X77940476Y-17347380D01*
X78559523Y-17347380D01*
M02*
