G04 #@! TF.GenerationSoftware,KiCad,Pcbnew,5.1.2-f72e74a~84~ubuntu18.04.1*
G04 #@! TF.CreationDate,2019-06-14T20:13:49+08:00*
G04 #@! TF.ProjectId,simCapSE,73696d43-6170-4534-952e-6b696361645f,rev?*
G04 #@! TF.SameCoordinates,Original*
G04 #@! TF.FileFunction,Legend,Bot*
G04 #@! TF.FilePolarity,Positive*
%FSLAX46Y46*%
G04 Gerber Fmt 4.6, Leading zero omitted, Abs format (unit mm)*
G04 Created by KiCad (PCBNEW 5.1.2-f72e74a~84~ubuntu18.04.1) date 2019-06-14 20:13:49*
%MOMM*%
%LPD*%
G04 APERTURE LIST*
%ADD10C,0.150000*%
G04 APERTURE END LIST*
D10*
X91838095Y-38804761D02*
X91695238Y-38852380D01*
X91457142Y-38852380D01*
X91361904Y-38804761D01*
X91314285Y-38757142D01*
X91266666Y-38661904D01*
X91266666Y-38566666D01*
X91314285Y-38471428D01*
X91361904Y-38423809D01*
X91457142Y-38376190D01*
X91647619Y-38328571D01*
X91742857Y-38280952D01*
X91790476Y-38233333D01*
X91838095Y-38138095D01*
X91838095Y-38042857D01*
X91790476Y-37947619D01*
X91742857Y-37900000D01*
X91647619Y-37852380D01*
X91409523Y-37852380D01*
X91266666Y-37900000D01*
X90838095Y-38328571D02*
X90504761Y-38328571D01*
X90361904Y-38852380D02*
X90838095Y-38852380D01*
X90838095Y-37852380D01*
X90361904Y-37852380D01*
X89361904Y-38852380D02*
X89695238Y-38376190D01*
X89933333Y-38852380D02*
X89933333Y-37852380D01*
X89552380Y-37852380D01*
X89457142Y-37900000D01*
X89409523Y-37947619D01*
X89361904Y-38042857D01*
X89361904Y-38185714D01*
X89409523Y-38280952D01*
X89457142Y-38328571D01*
X89552380Y-38376190D01*
X89933333Y-38376190D01*
X93161904Y-36397619D02*
X92400000Y-36397619D01*
X92209523Y-36254761D02*
X92066666Y-36302380D01*
X91828571Y-36302380D01*
X91733333Y-36254761D01*
X91685714Y-36207142D01*
X91638095Y-36111904D01*
X91638095Y-36016666D01*
X91685714Y-35921428D01*
X91733333Y-35873809D01*
X91828571Y-35826190D01*
X92019047Y-35778571D01*
X92114285Y-35730952D01*
X92161904Y-35683333D01*
X92209523Y-35588095D01*
X92209523Y-35492857D01*
X92161904Y-35397619D01*
X92114285Y-35350000D01*
X92019047Y-35302380D01*
X91780952Y-35302380D01*
X91638095Y-35350000D01*
X90638095Y-36302380D02*
X90971428Y-35826190D01*
X91209523Y-36302380D02*
X91209523Y-35302380D01*
X90828571Y-35302380D01*
X90733333Y-35350000D01*
X90685714Y-35397619D01*
X90638095Y-35492857D01*
X90638095Y-35635714D01*
X90685714Y-35730952D01*
X90733333Y-35778571D01*
X90828571Y-35826190D01*
X91209523Y-35826190D01*
X89638095Y-36207142D02*
X89685714Y-36254761D01*
X89828571Y-36302380D01*
X89923809Y-36302380D01*
X90066666Y-36254761D01*
X90161904Y-36159523D01*
X90209523Y-36064285D01*
X90257142Y-35873809D01*
X90257142Y-35730952D01*
X90209523Y-35540476D01*
X90161904Y-35445238D01*
X90066666Y-35350000D01*
X89923809Y-35302380D01*
X89828571Y-35302380D01*
X89685714Y-35350000D01*
X89638095Y-35397619D01*
X88733333Y-36302380D02*
X89209523Y-36302380D01*
X89209523Y-35302380D01*
X87828571Y-36302380D02*
X88161904Y-35826190D01*
X88400000Y-36302380D02*
X88400000Y-35302380D01*
X88019047Y-35302380D01*
X87923809Y-35350000D01*
X87876190Y-35397619D01*
X87828571Y-35492857D01*
X87828571Y-35635714D01*
X87876190Y-35730952D01*
X87923809Y-35778571D01*
X88019047Y-35826190D01*
X88400000Y-35826190D01*
X92490476Y-33804761D02*
X92347619Y-33852380D01*
X92109523Y-33852380D01*
X92014285Y-33804761D01*
X91966666Y-33757142D01*
X91919047Y-33661904D01*
X91919047Y-33566666D01*
X91966666Y-33471428D01*
X92014285Y-33423809D01*
X92109523Y-33376190D01*
X92300000Y-33328571D01*
X92395238Y-33280952D01*
X92442857Y-33233333D01*
X92490476Y-33138095D01*
X92490476Y-33042857D01*
X92442857Y-32947619D01*
X92395238Y-32900000D01*
X92300000Y-32852380D01*
X92061904Y-32852380D01*
X91919047Y-32900000D01*
X90919047Y-33852380D02*
X91252380Y-33376190D01*
X91490476Y-33852380D02*
X91490476Y-32852380D01*
X91109523Y-32852380D01*
X91014285Y-32900000D01*
X90966666Y-32947619D01*
X90919047Y-33042857D01*
X90919047Y-33185714D01*
X90966666Y-33280952D01*
X91014285Y-33328571D01*
X91109523Y-33376190D01*
X91490476Y-33376190D01*
X89919047Y-33757142D02*
X89966666Y-33804761D01*
X90109523Y-33852380D01*
X90204761Y-33852380D01*
X90347619Y-33804761D01*
X90442857Y-33709523D01*
X90490476Y-33614285D01*
X90538095Y-33423809D01*
X90538095Y-33280952D01*
X90490476Y-33090476D01*
X90442857Y-32995238D01*
X90347619Y-32900000D01*
X90204761Y-32852380D01*
X90109523Y-32852380D01*
X89966666Y-32900000D01*
X89919047Y-32947619D01*
X89014285Y-33852380D02*
X89490476Y-33852380D01*
X89490476Y-32852380D01*
X88680952Y-33852380D02*
X88680952Y-32852380D01*
X88109523Y-33852380D02*
X88538095Y-33280952D01*
X88109523Y-32852380D02*
X88680952Y-33423809D01*
X91370238Y-31277380D02*
X91703571Y-30801190D01*
X91941666Y-31277380D02*
X91941666Y-30277380D01*
X91560714Y-30277380D01*
X91465476Y-30325000D01*
X91417857Y-30372619D01*
X91370238Y-30467857D01*
X91370238Y-30610714D01*
X91417857Y-30705952D01*
X91465476Y-30753571D01*
X91560714Y-30801190D01*
X91941666Y-30801190D01*
X90370238Y-31182142D02*
X90417857Y-31229761D01*
X90560714Y-31277380D01*
X90655952Y-31277380D01*
X90798809Y-31229761D01*
X90894047Y-31134523D01*
X90941666Y-31039285D01*
X90989285Y-30848809D01*
X90989285Y-30705952D01*
X90941666Y-30515476D01*
X90894047Y-30420238D01*
X90798809Y-30325000D01*
X90655952Y-30277380D01*
X90560714Y-30277380D01*
X90417857Y-30325000D01*
X90370238Y-30372619D01*
X89465476Y-31277380D02*
X89941666Y-31277380D01*
X89941666Y-30277380D01*
X89132142Y-31277380D02*
X89132142Y-30277380D01*
X88560714Y-31277380D02*
X88989285Y-30705952D01*
X88560714Y-30277380D02*
X89132142Y-30848809D01*
X91832142Y-28772619D02*
X91070238Y-28772619D01*
X90641666Y-27677380D02*
X90451190Y-27677380D01*
X90355952Y-27725000D01*
X90260714Y-27820238D01*
X90213095Y-28010714D01*
X90213095Y-28344047D01*
X90260714Y-28534523D01*
X90355952Y-28629761D01*
X90451190Y-28677380D01*
X90641666Y-28677380D01*
X90736904Y-28629761D01*
X90832142Y-28534523D01*
X90879761Y-28344047D01*
X90879761Y-28010714D01*
X90832142Y-27820238D01*
X90736904Y-27725000D01*
X90641666Y-27677380D01*
X89784523Y-28153571D02*
X89451190Y-28153571D01*
X89308333Y-28677380D02*
X89784523Y-28677380D01*
X89784523Y-27677380D01*
X89308333Y-27677380D01*
X91261904Y-25250000D02*
X91357142Y-25202380D01*
X91500000Y-25202380D01*
X91642857Y-25250000D01*
X91738095Y-25345238D01*
X91785714Y-25440476D01*
X91833333Y-25630952D01*
X91833333Y-25773809D01*
X91785714Y-25964285D01*
X91738095Y-26059523D01*
X91642857Y-26154761D01*
X91500000Y-26202380D01*
X91404761Y-26202380D01*
X91261904Y-26154761D01*
X91214285Y-26107142D01*
X91214285Y-25773809D01*
X91404761Y-25773809D01*
X90785714Y-26202380D02*
X90785714Y-25202380D01*
X90214285Y-26202380D01*
X90214285Y-25202380D01*
X89738095Y-26202380D02*
X89738095Y-25202380D01*
X89500000Y-25202380D01*
X89357142Y-25250000D01*
X89261904Y-25345238D01*
X89214285Y-25440476D01*
X89166666Y-25630952D01*
X89166666Y-25773809D01*
X89214285Y-25964285D01*
X89261904Y-26059523D01*
X89357142Y-26154761D01*
X89500000Y-26202380D01*
X89738095Y-26202380D01*
X91882261Y-22627380D02*
X91548928Y-23627380D01*
X91215595Y-22627380D01*
X90310833Y-23532142D02*
X90358452Y-23579761D01*
X90501309Y-23627380D01*
X90596547Y-23627380D01*
X90739404Y-23579761D01*
X90834642Y-23484523D01*
X90882261Y-23389285D01*
X90929880Y-23198809D01*
X90929880Y-23055952D01*
X90882261Y-22865476D01*
X90834642Y-22770238D01*
X90739404Y-22675000D01*
X90596547Y-22627380D01*
X90501309Y-22627380D01*
X90358452Y-22675000D01*
X90310833Y-22722619D01*
X89310833Y-23532142D02*
X89358452Y-23579761D01*
X89501309Y-23627380D01*
X89596547Y-23627380D01*
X89739404Y-23579761D01*
X89834642Y-23484523D01*
X89882261Y-23389285D01*
X89929880Y-23198809D01*
X89929880Y-23055952D01*
X89882261Y-22865476D01*
X89834642Y-22770238D01*
X89739404Y-22675000D01*
X89596547Y-22627380D01*
X89501309Y-22627380D01*
X89358452Y-22675000D01*
X89310833Y-22722619D01*
M02*
