G04 #@! TF.GenerationSoftware,KiCad,Pcbnew,5.1.2-f72e74a~84~ubuntu18.04.1*
G04 #@! TF.CreationDate,2019-06-14T20:13:49+08:00*
G04 #@! TF.ProjectId,simCapSE,73696d43-6170-4534-952e-6b696361645f,rev?*
G04 #@! TF.SameCoordinates,Original*
G04 #@! TF.FileFunction,Soldermask,Top*
G04 #@! TF.FilePolarity,Negative*
%FSLAX46Y46*%
G04 Gerber Fmt 4.6, Leading zero omitted, Abs format (unit mm)*
G04 Created by KiCad (PCBNEW 5.1.2-f72e74a~84~ubuntu18.04.1) date 2019-06-14 20:13:49*
%MOMM*%
%LPD*%
G04 APERTURE LIST*
%ADD10R,0.900000X0.800000*%
%ADD11C,0.100000*%
%ADD12C,1.150000*%
%ADD13R,1.700000X1.700000*%
%ADD14O,1.700000X1.700000*%
%ADD15C,0.600000*%
G04 APERTURE END LIST*
D10*
X2800000Y1800000D03*
X800000Y850000D03*
X800000Y2750000D03*
X800000Y-5250000D03*
X800000Y-7150000D03*
X2800000Y-6200000D03*
X2800000Y-14200000D03*
X800000Y-15150000D03*
X800000Y-13250000D03*
X800000Y-21250000D03*
X800000Y-23150000D03*
X2800000Y-22200000D03*
X2800000Y-30200000D03*
X800000Y-31150000D03*
X800000Y-29250000D03*
X800000Y-37250000D03*
X800000Y-39150000D03*
X2800000Y-38200000D03*
X2800000Y-46200000D03*
X800000Y-47150000D03*
X800000Y-45250000D03*
X800000Y-53250000D03*
X800000Y-55150000D03*
X2800000Y-54200000D03*
X10800000Y1800000D03*
X8800000Y850000D03*
X8800000Y2750000D03*
X8800000Y-5250000D03*
X8800000Y-7150000D03*
X10800000Y-6200000D03*
X10800000Y-14200000D03*
X8800000Y-15150000D03*
X8800000Y-13250000D03*
X8800000Y-21250000D03*
X8800000Y-23150000D03*
X10800000Y-22200000D03*
X10800000Y-30200000D03*
X8800000Y-31150000D03*
X8800000Y-29250000D03*
X8800000Y-37250000D03*
X8800000Y-39150000D03*
X10800000Y-38200000D03*
X10800000Y-46200000D03*
X8800000Y-47150000D03*
X8800000Y-45250000D03*
X8800000Y-53250000D03*
X8800000Y-55150000D03*
X10800000Y-54200000D03*
X18800000Y1800000D03*
X16800000Y850000D03*
X16800000Y2750000D03*
X16800000Y-5250000D03*
X16800000Y-7150000D03*
X18800000Y-6200000D03*
X18800000Y-14200000D03*
X16800000Y-15150000D03*
X16800000Y-13250000D03*
X16800000Y-21250000D03*
X16800000Y-23150000D03*
X18800000Y-22200000D03*
X16800000Y-29250000D03*
X16800000Y-31150000D03*
X18800000Y-30200000D03*
X16800000Y-37250000D03*
X16800000Y-39150000D03*
X18800000Y-38200000D03*
X18800000Y-46200000D03*
X16800000Y-47150000D03*
X16800000Y-45250000D03*
X16800000Y-53250000D03*
X16800000Y-55150000D03*
X18800000Y-54200000D03*
X26800000Y1800000D03*
X24800000Y850000D03*
X24800000Y2750000D03*
X24800000Y-5250000D03*
X24800000Y-7150000D03*
X26800000Y-6200000D03*
X26800000Y-14200000D03*
X24800000Y-15150000D03*
X24800000Y-13250000D03*
X24800000Y-21250000D03*
X24800000Y-23150000D03*
X26800000Y-22200000D03*
X26800000Y-30200000D03*
X24800000Y-31150000D03*
X24800000Y-29250000D03*
X26800000Y-38200000D03*
X24800000Y-39150000D03*
X24800000Y-37250000D03*
X24800000Y-45250000D03*
X24800000Y-47150000D03*
X26800000Y-46200000D03*
X26800000Y-54200000D03*
X24800000Y-55150000D03*
X24800000Y-53250000D03*
X32800000Y2750000D03*
X32800000Y850000D03*
X34800000Y1800000D03*
X34800000Y-6200000D03*
X32800000Y-7150000D03*
X32800000Y-5250000D03*
X32800000Y-13250000D03*
X32800000Y-15150000D03*
X34800000Y-14200000D03*
X34800000Y-22200000D03*
X32800000Y-23150000D03*
X32800000Y-21250000D03*
X32800000Y-29250000D03*
X32800000Y-31150000D03*
X34800000Y-30200000D03*
X32800000Y-37250000D03*
X32800000Y-39150000D03*
X34800000Y-38200000D03*
X34800000Y-46200000D03*
X32800000Y-47150000D03*
X32800000Y-45250000D03*
X34800000Y-54200000D03*
X32800000Y-55150000D03*
X32800000Y-53250000D03*
X40800000Y2750000D03*
X40800000Y850000D03*
X42800000Y1800000D03*
X42800000Y-6200000D03*
X40800000Y-7150000D03*
X40800000Y-5250000D03*
X40800000Y-13250000D03*
X40800000Y-15150000D03*
X42800000Y-14200000D03*
X42800000Y-22200000D03*
X40800000Y-23150000D03*
X40800000Y-21250000D03*
X42800000Y-30200000D03*
X40800000Y-31150000D03*
X40800000Y-29250000D03*
X42800000Y-38200000D03*
X40800000Y-39150000D03*
X40800000Y-37250000D03*
X42800000Y-46200000D03*
X40800000Y-47150000D03*
X40800000Y-45250000D03*
X42800000Y-54200000D03*
X40800000Y-55150000D03*
X40800000Y-53250000D03*
X48800000Y2750000D03*
X48800000Y850000D03*
X50800000Y1800000D03*
X48800000Y-5250000D03*
X48800000Y-7150000D03*
X50800000Y-6200000D03*
X48800000Y-13250000D03*
X48800000Y-15150000D03*
X50800000Y-14200000D03*
X48800000Y-21250000D03*
X48800000Y-23150000D03*
X50800000Y-22200000D03*
X50800000Y-30200000D03*
X48800000Y-31150000D03*
X48800000Y-29250000D03*
X48800000Y-37250000D03*
X48800000Y-39150000D03*
X50800000Y-38200000D03*
X48800000Y-45250000D03*
X48800000Y-47150000D03*
X50800000Y-46200000D03*
X48800000Y-53250000D03*
X48800000Y-55150000D03*
X50800000Y-54200000D03*
X58800000Y1800000D03*
X56800000Y850000D03*
X56800000Y2750000D03*
X56800000Y-5250000D03*
X56800000Y-7150000D03*
X58800000Y-6200000D03*
X58800000Y-14200000D03*
X56800000Y-15150000D03*
X56800000Y-13250000D03*
X56800000Y-21250000D03*
X56800000Y-23150000D03*
X58800000Y-22200000D03*
X56800000Y-29250000D03*
X56800000Y-31150000D03*
X58800000Y-30200000D03*
X58800000Y-38200000D03*
X56800000Y-39150000D03*
X56800000Y-37250000D03*
X58800000Y-46200000D03*
X56800000Y-47150000D03*
X56800000Y-45250000D03*
X58800000Y-54200000D03*
X56800000Y-55150000D03*
X56800000Y-53250000D03*
D11*
G36*
X-2475495Y-56451204D02*
G01*
X-2451227Y-56454804D01*
X-2427428Y-56460765D01*
X-2404329Y-56469030D01*
X-2382150Y-56479520D01*
X-2361107Y-56492132D01*
X-2341401Y-56506747D01*
X-2323223Y-56523223D01*
X-2306747Y-56541401D01*
X-2292132Y-56561107D01*
X-2279520Y-56582150D01*
X-2269030Y-56604329D01*
X-2260765Y-56627428D01*
X-2254804Y-56651227D01*
X-2251204Y-56675495D01*
X-2250000Y-56699999D01*
X-2250000Y-57600001D01*
X-2251204Y-57624505D01*
X-2254804Y-57648773D01*
X-2260765Y-57672572D01*
X-2269030Y-57695671D01*
X-2279520Y-57717850D01*
X-2292132Y-57738893D01*
X-2306747Y-57758599D01*
X-2323223Y-57776777D01*
X-2341401Y-57793253D01*
X-2361107Y-57807868D01*
X-2382150Y-57820480D01*
X-2404329Y-57830970D01*
X-2427428Y-57839235D01*
X-2451227Y-57845196D01*
X-2475495Y-57848796D01*
X-2499999Y-57850000D01*
X-3150001Y-57850000D01*
X-3174505Y-57848796D01*
X-3198773Y-57845196D01*
X-3222572Y-57839235D01*
X-3245671Y-57830970D01*
X-3267850Y-57820480D01*
X-3288893Y-57807868D01*
X-3308599Y-57793253D01*
X-3326777Y-57776777D01*
X-3343253Y-57758599D01*
X-3357868Y-57738893D01*
X-3370480Y-57717850D01*
X-3380970Y-57695671D01*
X-3389235Y-57672572D01*
X-3395196Y-57648773D01*
X-3398796Y-57624505D01*
X-3400000Y-57600001D01*
X-3400000Y-56699999D01*
X-3398796Y-56675495D01*
X-3395196Y-56651227D01*
X-3389235Y-56627428D01*
X-3380970Y-56604329D01*
X-3370480Y-56582150D01*
X-3357868Y-56561107D01*
X-3343253Y-56541401D01*
X-3326777Y-56523223D01*
X-3308599Y-56506747D01*
X-3288893Y-56492132D01*
X-3267850Y-56479520D01*
X-3245671Y-56469030D01*
X-3222572Y-56460765D01*
X-3198773Y-56454804D01*
X-3174505Y-56451204D01*
X-3150001Y-56450000D01*
X-2499999Y-56450000D01*
X-2475495Y-56451204D01*
X-2475495Y-56451204D01*
G37*
D12*
X-2825000Y-57150000D03*
D11*
G36*
X-425495Y-56451204D02*
G01*
X-401227Y-56454804D01*
X-377428Y-56460765D01*
X-354329Y-56469030D01*
X-332150Y-56479520D01*
X-311107Y-56492132D01*
X-291401Y-56506747D01*
X-273223Y-56523223D01*
X-256747Y-56541401D01*
X-242132Y-56561107D01*
X-229520Y-56582150D01*
X-219030Y-56604329D01*
X-210765Y-56627428D01*
X-204804Y-56651227D01*
X-201204Y-56675495D01*
X-200000Y-56699999D01*
X-200000Y-57600001D01*
X-201204Y-57624505D01*
X-204804Y-57648773D01*
X-210765Y-57672572D01*
X-219030Y-57695671D01*
X-229520Y-57717850D01*
X-242132Y-57738893D01*
X-256747Y-57758599D01*
X-273223Y-57776777D01*
X-291401Y-57793253D01*
X-311107Y-57807868D01*
X-332150Y-57820480D01*
X-354329Y-57830970D01*
X-377428Y-57839235D01*
X-401227Y-57845196D01*
X-425495Y-57848796D01*
X-449999Y-57850000D01*
X-1100001Y-57850000D01*
X-1124505Y-57848796D01*
X-1148773Y-57845196D01*
X-1172572Y-57839235D01*
X-1195671Y-57830970D01*
X-1217850Y-57820480D01*
X-1238893Y-57807868D01*
X-1258599Y-57793253D01*
X-1276777Y-57776777D01*
X-1293253Y-57758599D01*
X-1307868Y-57738893D01*
X-1320480Y-57717850D01*
X-1330970Y-57695671D01*
X-1339235Y-57672572D01*
X-1345196Y-57648773D01*
X-1348796Y-57624505D01*
X-1350000Y-57600001D01*
X-1350000Y-56699999D01*
X-1348796Y-56675495D01*
X-1345196Y-56651227D01*
X-1339235Y-56627428D01*
X-1330970Y-56604329D01*
X-1320480Y-56582150D01*
X-1307868Y-56561107D01*
X-1293253Y-56541401D01*
X-1276777Y-56523223D01*
X-1258599Y-56506747D01*
X-1238893Y-56492132D01*
X-1217850Y-56479520D01*
X-1195671Y-56469030D01*
X-1172572Y-56460765D01*
X-1148773Y-56454804D01*
X-1124505Y-56451204D01*
X-1100001Y-56450000D01*
X-449999Y-56450000D01*
X-425495Y-56451204D01*
X-425495Y-56451204D01*
G37*
D12*
X-775000Y-57150000D03*
D11*
G36*
X7574505Y-56451204D02*
G01*
X7598773Y-56454804D01*
X7622572Y-56460765D01*
X7645671Y-56469030D01*
X7667850Y-56479520D01*
X7688893Y-56492132D01*
X7708599Y-56506747D01*
X7726777Y-56523223D01*
X7743253Y-56541401D01*
X7757868Y-56561107D01*
X7770480Y-56582150D01*
X7780970Y-56604329D01*
X7789235Y-56627428D01*
X7795196Y-56651227D01*
X7798796Y-56675495D01*
X7800000Y-56699999D01*
X7800000Y-57600001D01*
X7798796Y-57624505D01*
X7795196Y-57648773D01*
X7789235Y-57672572D01*
X7780970Y-57695671D01*
X7770480Y-57717850D01*
X7757868Y-57738893D01*
X7743253Y-57758599D01*
X7726777Y-57776777D01*
X7708599Y-57793253D01*
X7688893Y-57807868D01*
X7667850Y-57820480D01*
X7645671Y-57830970D01*
X7622572Y-57839235D01*
X7598773Y-57845196D01*
X7574505Y-57848796D01*
X7550001Y-57850000D01*
X6899999Y-57850000D01*
X6875495Y-57848796D01*
X6851227Y-57845196D01*
X6827428Y-57839235D01*
X6804329Y-57830970D01*
X6782150Y-57820480D01*
X6761107Y-57807868D01*
X6741401Y-57793253D01*
X6723223Y-57776777D01*
X6706747Y-57758599D01*
X6692132Y-57738893D01*
X6679520Y-57717850D01*
X6669030Y-57695671D01*
X6660765Y-57672572D01*
X6654804Y-57648773D01*
X6651204Y-57624505D01*
X6650000Y-57600001D01*
X6650000Y-56699999D01*
X6651204Y-56675495D01*
X6654804Y-56651227D01*
X6660765Y-56627428D01*
X6669030Y-56604329D01*
X6679520Y-56582150D01*
X6692132Y-56561107D01*
X6706747Y-56541401D01*
X6723223Y-56523223D01*
X6741401Y-56506747D01*
X6761107Y-56492132D01*
X6782150Y-56479520D01*
X6804329Y-56469030D01*
X6827428Y-56460765D01*
X6851227Y-56454804D01*
X6875495Y-56451204D01*
X6899999Y-56450000D01*
X7550001Y-56450000D01*
X7574505Y-56451204D01*
X7574505Y-56451204D01*
G37*
D12*
X7225000Y-57150000D03*
D11*
G36*
X5524505Y-56451204D02*
G01*
X5548773Y-56454804D01*
X5572572Y-56460765D01*
X5595671Y-56469030D01*
X5617850Y-56479520D01*
X5638893Y-56492132D01*
X5658599Y-56506747D01*
X5676777Y-56523223D01*
X5693253Y-56541401D01*
X5707868Y-56561107D01*
X5720480Y-56582150D01*
X5730970Y-56604329D01*
X5739235Y-56627428D01*
X5745196Y-56651227D01*
X5748796Y-56675495D01*
X5750000Y-56699999D01*
X5750000Y-57600001D01*
X5748796Y-57624505D01*
X5745196Y-57648773D01*
X5739235Y-57672572D01*
X5730970Y-57695671D01*
X5720480Y-57717850D01*
X5707868Y-57738893D01*
X5693253Y-57758599D01*
X5676777Y-57776777D01*
X5658599Y-57793253D01*
X5638893Y-57807868D01*
X5617850Y-57820480D01*
X5595671Y-57830970D01*
X5572572Y-57839235D01*
X5548773Y-57845196D01*
X5524505Y-57848796D01*
X5500001Y-57850000D01*
X4849999Y-57850000D01*
X4825495Y-57848796D01*
X4801227Y-57845196D01*
X4777428Y-57839235D01*
X4754329Y-57830970D01*
X4732150Y-57820480D01*
X4711107Y-57807868D01*
X4691401Y-57793253D01*
X4673223Y-57776777D01*
X4656747Y-57758599D01*
X4642132Y-57738893D01*
X4629520Y-57717850D01*
X4619030Y-57695671D01*
X4610765Y-57672572D01*
X4604804Y-57648773D01*
X4601204Y-57624505D01*
X4600000Y-57600001D01*
X4600000Y-56699999D01*
X4601204Y-56675495D01*
X4604804Y-56651227D01*
X4610765Y-56627428D01*
X4619030Y-56604329D01*
X4629520Y-56582150D01*
X4642132Y-56561107D01*
X4656747Y-56541401D01*
X4673223Y-56523223D01*
X4691401Y-56506747D01*
X4711107Y-56492132D01*
X4732150Y-56479520D01*
X4754329Y-56469030D01*
X4777428Y-56460765D01*
X4801227Y-56454804D01*
X4825495Y-56451204D01*
X4849999Y-56450000D01*
X5500001Y-56450000D01*
X5524505Y-56451204D01*
X5524505Y-56451204D01*
G37*
D12*
X5175000Y-57150000D03*
D11*
G36*
X13524505Y-56451204D02*
G01*
X13548773Y-56454804D01*
X13572572Y-56460765D01*
X13595671Y-56469030D01*
X13617850Y-56479520D01*
X13638893Y-56492132D01*
X13658599Y-56506747D01*
X13676777Y-56523223D01*
X13693253Y-56541401D01*
X13707868Y-56561107D01*
X13720480Y-56582150D01*
X13730970Y-56604329D01*
X13739235Y-56627428D01*
X13745196Y-56651227D01*
X13748796Y-56675495D01*
X13750000Y-56699999D01*
X13750000Y-57600001D01*
X13748796Y-57624505D01*
X13745196Y-57648773D01*
X13739235Y-57672572D01*
X13730970Y-57695671D01*
X13720480Y-57717850D01*
X13707868Y-57738893D01*
X13693253Y-57758599D01*
X13676777Y-57776777D01*
X13658599Y-57793253D01*
X13638893Y-57807868D01*
X13617850Y-57820480D01*
X13595671Y-57830970D01*
X13572572Y-57839235D01*
X13548773Y-57845196D01*
X13524505Y-57848796D01*
X13500001Y-57850000D01*
X12849999Y-57850000D01*
X12825495Y-57848796D01*
X12801227Y-57845196D01*
X12777428Y-57839235D01*
X12754329Y-57830970D01*
X12732150Y-57820480D01*
X12711107Y-57807868D01*
X12691401Y-57793253D01*
X12673223Y-57776777D01*
X12656747Y-57758599D01*
X12642132Y-57738893D01*
X12629520Y-57717850D01*
X12619030Y-57695671D01*
X12610765Y-57672572D01*
X12604804Y-57648773D01*
X12601204Y-57624505D01*
X12600000Y-57600001D01*
X12600000Y-56699999D01*
X12601204Y-56675495D01*
X12604804Y-56651227D01*
X12610765Y-56627428D01*
X12619030Y-56604329D01*
X12629520Y-56582150D01*
X12642132Y-56561107D01*
X12656747Y-56541401D01*
X12673223Y-56523223D01*
X12691401Y-56506747D01*
X12711107Y-56492132D01*
X12732150Y-56479520D01*
X12754329Y-56469030D01*
X12777428Y-56460765D01*
X12801227Y-56454804D01*
X12825495Y-56451204D01*
X12849999Y-56450000D01*
X13500001Y-56450000D01*
X13524505Y-56451204D01*
X13524505Y-56451204D01*
G37*
D12*
X13175000Y-57150000D03*
D11*
G36*
X15574505Y-56451204D02*
G01*
X15598773Y-56454804D01*
X15622572Y-56460765D01*
X15645671Y-56469030D01*
X15667850Y-56479520D01*
X15688893Y-56492132D01*
X15708599Y-56506747D01*
X15726777Y-56523223D01*
X15743253Y-56541401D01*
X15757868Y-56561107D01*
X15770480Y-56582150D01*
X15780970Y-56604329D01*
X15789235Y-56627428D01*
X15795196Y-56651227D01*
X15798796Y-56675495D01*
X15800000Y-56699999D01*
X15800000Y-57600001D01*
X15798796Y-57624505D01*
X15795196Y-57648773D01*
X15789235Y-57672572D01*
X15780970Y-57695671D01*
X15770480Y-57717850D01*
X15757868Y-57738893D01*
X15743253Y-57758599D01*
X15726777Y-57776777D01*
X15708599Y-57793253D01*
X15688893Y-57807868D01*
X15667850Y-57820480D01*
X15645671Y-57830970D01*
X15622572Y-57839235D01*
X15598773Y-57845196D01*
X15574505Y-57848796D01*
X15550001Y-57850000D01*
X14899999Y-57850000D01*
X14875495Y-57848796D01*
X14851227Y-57845196D01*
X14827428Y-57839235D01*
X14804329Y-57830970D01*
X14782150Y-57820480D01*
X14761107Y-57807868D01*
X14741401Y-57793253D01*
X14723223Y-57776777D01*
X14706747Y-57758599D01*
X14692132Y-57738893D01*
X14679520Y-57717850D01*
X14669030Y-57695671D01*
X14660765Y-57672572D01*
X14654804Y-57648773D01*
X14651204Y-57624505D01*
X14650000Y-57600001D01*
X14650000Y-56699999D01*
X14651204Y-56675495D01*
X14654804Y-56651227D01*
X14660765Y-56627428D01*
X14669030Y-56604329D01*
X14679520Y-56582150D01*
X14692132Y-56561107D01*
X14706747Y-56541401D01*
X14723223Y-56523223D01*
X14741401Y-56506747D01*
X14761107Y-56492132D01*
X14782150Y-56479520D01*
X14804329Y-56469030D01*
X14827428Y-56460765D01*
X14851227Y-56454804D01*
X14875495Y-56451204D01*
X14899999Y-56450000D01*
X15550001Y-56450000D01*
X15574505Y-56451204D01*
X15574505Y-56451204D01*
G37*
D12*
X15225000Y-57150000D03*
D11*
G36*
X23574505Y-56451204D02*
G01*
X23598773Y-56454804D01*
X23622572Y-56460765D01*
X23645671Y-56469030D01*
X23667850Y-56479520D01*
X23688893Y-56492132D01*
X23708599Y-56506747D01*
X23726777Y-56523223D01*
X23743253Y-56541401D01*
X23757868Y-56561107D01*
X23770480Y-56582150D01*
X23780970Y-56604329D01*
X23789235Y-56627428D01*
X23795196Y-56651227D01*
X23798796Y-56675495D01*
X23800000Y-56699999D01*
X23800000Y-57600001D01*
X23798796Y-57624505D01*
X23795196Y-57648773D01*
X23789235Y-57672572D01*
X23780970Y-57695671D01*
X23770480Y-57717850D01*
X23757868Y-57738893D01*
X23743253Y-57758599D01*
X23726777Y-57776777D01*
X23708599Y-57793253D01*
X23688893Y-57807868D01*
X23667850Y-57820480D01*
X23645671Y-57830970D01*
X23622572Y-57839235D01*
X23598773Y-57845196D01*
X23574505Y-57848796D01*
X23550001Y-57850000D01*
X22899999Y-57850000D01*
X22875495Y-57848796D01*
X22851227Y-57845196D01*
X22827428Y-57839235D01*
X22804329Y-57830970D01*
X22782150Y-57820480D01*
X22761107Y-57807868D01*
X22741401Y-57793253D01*
X22723223Y-57776777D01*
X22706747Y-57758599D01*
X22692132Y-57738893D01*
X22679520Y-57717850D01*
X22669030Y-57695671D01*
X22660765Y-57672572D01*
X22654804Y-57648773D01*
X22651204Y-57624505D01*
X22650000Y-57600001D01*
X22650000Y-56699999D01*
X22651204Y-56675495D01*
X22654804Y-56651227D01*
X22660765Y-56627428D01*
X22669030Y-56604329D01*
X22679520Y-56582150D01*
X22692132Y-56561107D01*
X22706747Y-56541401D01*
X22723223Y-56523223D01*
X22741401Y-56506747D01*
X22761107Y-56492132D01*
X22782150Y-56479520D01*
X22804329Y-56469030D01*
X22827428Y-56460765D01*
X22851227Y-56454804D01*
X22875495Y-56451204D01*
X22899999Y-56450000D01*
X23550001Y-56450000D01*
X23574505Y-56451204D01*
X23574505Y-56451204D01*
G37*
D12*
X23225000Y-57150000D03*
D11*
G36*
X21524505Y-56451204D02*
G01*
X21548773Y-56454804D01*
X21572572Y-56460765D01*
X21595671Y-56469030D01*
X21617850Y-56479520D01*
X21638893Y-56492132D01*
X21658599Y-56506747D01*
X21676777Y-56523223D01*
X21693253Y-56541401D01*
X21707868Y-56561107D01*
X21720480Y-56582150D01*
X21730970Y-56604329D01*
X21739235Y-56627428D01*
X21745196Y-56651227D01*
X21748796Y-56675495D01*
X21750000Y-56699999D01*
X21750000Y-57600001D01*
X21748796Y-57624505D01*
X21745196Y-57648773D01*
X21739235Y-57672572D01*
X21730970Y-57695671D01*
X21720480Y-57717850D01*
X21707868Y-57738893D01*
X21693253Y-57758599D01*
X21676777Y-57776777D01*
X21658599Y-57793253D01*
X21638893Y-57807868D01*
X21617850Y-57820480D01*
X21595671Y-57830970D01*
X21572572Y-57839235D01*
X21548773Y-57845196D01*
X21524505Y-57848796D01*
X21500001Y-57850000D01*
X20849999Y-57850000D01*
X20825495Y-57848796D01*
X20801227Y-57845196D01*
X20777428Y-57839235D01*
X20754329Y-57830970D01*
X20732150Y-57820480D01*
X20711107Y-57807868D01*
X20691401Y-57793253D01*
X20673223Y-57776777D01*
X20656747Y-57758599D01*
X20642132Y-57738893D01*
X20629520Y-57717850D01*
X20619030Y-57695671D01*
X20610765Y-57672572D01*
X20604804Y-57648773D01*
X20601204Y-57624505D01*
X20600000Y-57600001D01*
X20600000Y-56699999D01*
X20601204Y-56675495D01*
X20604804Y-56651227D01*
X20610765Y-56627428D01*
X20619030Y-56604329D01*
X20629520Y-56582150D01*
X20642132Y-56561107D01*
X20656747Y-56541401D01*
X20673223Y-56523223D01*
X20691401Y-56506747D01*
X20711107Y-56492132D01*
X20732150Y-56479520D01*
X20754329Y-56469030D01*
X20777428Y-56460765D01*
X20801227Y-56454804D01*
X20825495Y-56451204D01*
X20849999Y-56450000D01*
X21500001Y-56450000D01*
X21524505Y-56451204D01*
X21524505Y-56451204D01*
G37*
D12*
X21175000Y-57150000D03*
D11*
G36*
X31574505Y-56451204D02*
G01*
X31598773Y-56454804D01*
X31622572Y-56460765D01*
X31645671Y-56469030D01*
X31667850Y-56479520D01*
X31688893Y-56492132D01*
X31708599Y-56506747D01*
X31726777Y-56523223D01*
X31743253Y-56541401D01*
X31757868Y-56561107D01*
X31770480Y-56582150D01*
X31780970Y-56604329D01*
X31789235Y-56627428D01*
X31795196Y-56651227D01*
X31798796Y-56675495D01*
X31800000Y-56699999D01*
X31800000Y-57600001D01*
X31798796Y-57624505D01*
X31795196Y-57648773D01*
X31789235Y-57672572D01*
X31780970Y-57695671D01*
X31770480Y-57717850D01*
X31757868Y-57738893D01*
X31743253Y-57758599D01*
X31726777Y-57776777D01*
X31708599Y-57793253D01*
X31688893Y-57807868D01*
X31667850Y-57820480D01*
X31645671Y-57830970D01*
X31622572Y-57839235D01*
X31598773Y-57845196D01*
X31574505Y-57848796D01*
X31550001Y-57850000D01*
X30899999Y-57850000D01*
X30875495Y-57848796D01*
X30851227Y-57845196D01*
X30827428Y-57839235D01*
X30804329Y-57830970D01*
X30782150Y-57820480D01*
X30761107Y-57807868D01*
X30741401Y-57793253D01*
X30723223Y-57776777D01*
X30706747Y-57758599D01*
X30692132Y-57738893D01*
X30679520Y-57717850D01*
X30669030Y-57695671D01*
X30660765Y-57672572D01*
X30654804Y-57648773D01*
X30651204Y-57624505D01*
X30650000Y-57600001D01*
X30650000Y-56699999D01*
X30651204Y-56675495D01*
X30654804Y-56651227D01*
X30660765Y-56627428D01*
X30669030Y-56604329D01*
X30679520Y-56582150D01*
X30692132Y-56561107D01*
X30706747Y-56541401D01*
X30723223Y-56523223D01*
X30741401Y-56506747D01*
X30761107Y-56492132D01*
X30782150Y-56479520D01*
X30804329Y-56469030D01*
X30827428Y-56460765D01*
X30851227Y-56454804D01*
X30875495Y-56451204D01*
X30899999Y-56450000D01*
X31550001Y-56450000D01*
X31574505Y-56451204D01*
X31574505Y-56451204D01*
G37*
D12*
X31225000Y-57150000D03*
D11*
G36*
X29524505Y-56451204D02*
G01*
X29548773Y-56454804D01*
X29572572Y-56460765D01*
X29595671Y-56469030D01*
X29617850Y-56479520D01*
X29638893Y-56492132D01*
X29658599Y-56506747D01*
X29676777Y-56523223D01*
X29693253Y-56541401D01*
X29707868Y-56561107D01*
X29720480Y-56582150D01*
X29730970Y-56604329D01*
X29739235Y-56627428D01*
X29745196Y-56651227D01*
X29748796Y-56675495D01*
X29750000Y-56699999D01*
X29750000Y-57600001D01*
X29748796Y-57624505D01*
X29745196Y-57648773D01*
X29739235Y-57672572D01*
X29730970Y-57695671D01*
X29720480Y-57717850D01*
X29707868Y-57738893D01*
X29693253Y-57758599D01*
X29676777Y-57776777D01*
X29658599Y-57793253D01*
X29638893Y-57807868D01*
X29617850Y-57820480D01*
X29595671Y-57830970D01*
X29572572Y-57839235D01*
X29548773Y-57845196D01*
X29524505Y-57848796D01*
X29500001Y-57850000D01*
X28849999Y-57850000D01*
X28825495Y-57848796D01*
X28801227Y-57845196D01*
X28777428Y-57839235D01*
X28754329Y-57830970D01*
X28732150Y-57820480D01*
X28711107Y-57807868D01*
X28691401Y-57793253D01*
X28673223Y-57776777D01*
X28656747Y-57758599D01*
X28642132Y-57738893D01*
X28629520Y-57717850D01*
X28619030Y-57695671D01*
X28610765Y-57672572D01*
X28604804Y-57648773D01*
X28601204Y-57624505D01*
X28600000Y-57600001D01*
X28600000Y-56699999D01*
X28601204Y-56675495D01*
X28604804Y-56651227D01*
X28610765Y-56627428D01*
X28619030Y-56604329D01*
X28629520Y-56582150D01*
X28642132Y-56561107D01*
X28656747Y-56541401D01*
X28673223Y-56523223D01*
X28691401Y-56506747D01*
X28711107Y-56492132D01*
X28732150Y-56479520D01*
X28754329Y-56469030D01*
X28777428Y-56460765D01*
X28801227Y-56454804D01*
X28825495Y-56451204D01*
X28849999Y-56450000D01*
X29500001Y-56450000D01*
X29524505Y-56451204D01*
X29524505Y-56451204D01*
G37*
D12*
X29175000Y-57150000D03*
D11*
G36*
X39574505Y-56451204D02*
G01*
X39598773Y-56454804D01*
X39622572Y-56460765D01*
X39645671Y-56469030D01*
X39667850Y-56479520D01*
X39688893Y-56492132D01*
X39708599Y-56506747D01*
X39726777Y-56523223D01*
X39743253Y-56541401D01*
X39757868Y-56561107D01*
X39770480Y-56582150D01*
X39780970Y-56604329D01*
X39789235Y-56627428D01*
X39795196Y-56651227D01*
X39798796Y-56675495D01*
X39800000Y-56699999D01*
X39800000Y-57600001D01*
X39798796Y-57624505D01*
X39795196Y-57648773D01*
X39789235Y-57672572D01*
X39780970Y-57695671D01*
X39770480Y-57717850D01*
X39757868Y-57738893D01*
X39743253Y-57758599D01*
X39726777Y-57776777D01*
X39708599Y-57793253D01*
X39688893Y-57807868D01*
X39667850Y-57820480D01*
X39645671Y-57830970D01*
X39622572Y-57839235D01*
X39598773Y-57845196D01*
X39574505Y-57848796D01*
X39550001Y-57850000D01*
X38899999Y-57850000D01*
X38875495Y-57848796D01*
X38851227Y-57845196D01*
X38827428Y-57839235D01*
X38804329Y-57830970D01*
X38782150Y-57820480D01*
X38761107Y-57807868D01*
X38741401Y-57793253D01*
X38723223Y-57776777D01*
X38706747Y-57758599D01*
X38692132Y-57738893D01*
X38679520Y-57717850D01*
X38669030Y-57695671D01*
X38660765Y-57672572D01*
X38654804Y-57648773D01*
X38651204Y-57624505D01*
X38650000Y-57600001D01*
X38650000Y-56699999D01*
X38651204Y-56675495D01*
X38654804Y-56651227D01*
X38660765Y-56627428D01*
X38669030Y-56604329D01*
X38679520Y-56582150D01*
X38692132Y-56561107D01*
X38706747Y-56541401D01*
X38723223Y-56523223D01*
X38741401Y-56506747D01*
X38761107Y-56492132D01*
X38782150Y-56479520D01*
X38804329Y-56469030D01*
X38827428Y-56460765D01*
X38851227Y-56454804D01*
X38875495Y-56451204D01*
X38899999Y-56450000D01*
X39550001Y-56450000D01*
X39574505Y-56451204D01*
X39574505Y-56451204D01*
G37*
D12*
X39225000Y-57150000D03*
D11*
G36*
X37524505Y-56451204D02*
G01*
X37548773Y-56454804D01*
X37572572Y-56460765D01*
X37595671Y-56469030D01*
X37617850Y-56479520D01*
X37638893Y-56492132D01*
X37658599Y-56506747D01*
X37676777Y-56523223D01*
X37693253Y-56541401D01*
X37707868Y-56561107D01*
X37720480Y-56582150D01*
X37730970Y-56604329D01*
X37739235Y-56627428D01*
X37745196Y-56651227D01*
X37748796Y-56675495D01*
X37750000Y-56699999D01*
X37750000Y-57600001D01*
X37748796Y-57624505D01*
X37745196Y-57648773D01*
X37739235Y-57672572D01*
X37730970Y-57695671D01*
X37720480Y-57717850D01*
X37707868Y-57738893D01*
X37693253Y-57758599D01*
X37676777Y-57776777D01*
X37658599Y-57793253D01*
X37638893Y-57807868D01*
X37617850Y-57820480D01*
X37595671Y-57830970D01*
X37572572Y-57839235D01*
X37548773Y-57845196D01*
X37524505Y-57848796D01*
X37500001Y-57850000D01*
X36849999Y-57850000D01*
X36825495Y-57848796D01*
X36801227Y-57845196D01*
X36777428Y-57839235D01*
X36754329Y-57830970D01*
X36732150Y-57820480D01*
X36711107Y-57807868D01*
X36691401Y-57793253D01*
X36673223Y-57776777D01*
X36656747Y-57758599D01*
X36642132Y-57738893D01*
X36629520Y-57717850D01*
X36619030Y-57695671D01*
X36610765Y-57672572D01*
X36604804Y-57648773D01*
X36601204Y-57624505D01*
X36600000Y-57600001D01*
X36600000Y-56699999D01*
X36601204Y-56675495D01*
X36604804Y-56651227D01*
X36610765Y-56627428D01*
X36619030Y-56604329D01*
X36629520Y-56582150D01*
X36642132Y-56561107D01*
X36656747Y-56541401D01*
X36673223Y-56523223D01*
X36691401Y-56506747D01*
X36711107Y-56492132D01*
X36732150Y-56479520D01*
X36754329Y-56469030D01*
X36777428Y-56460765D01*
X36801227Y-56454804D01*
X36825495Y-56451204D01*
X36849999Y-56450000D01*
X37500001Y-56450000D01*
X37524505Y-56451204D01*
X37524505Y-56451204D01*
G37*
D12*
X37175000Y-57150000D03*
D11*
G36*
X45524505Y-56451204D02*
G01*
X45548773Y-56454804D01*
X45572572Y-56460765D01*
X45595671Y-56469030D01*
X45617850Y-56479520D01*
X45638893Y-56492132D01*
X45658599Y-56506747D01*
X45676777Y-56523223D01*
X45693253Y-56541401D01*
X45707868Y-56561107D01*
X45720480Y-56582150D01*
X45730970Y-56604329D01*
X45739235Y-56627428D01*
X45745196Y-56651227D01*
X45748796Y-56675495D01*
X45750000Y-56699999D01*
X45750000Y-57600001D01*
X45748796Y-57624505D01*
X45745196Y-57648773D01*
X45739235Y-57672572D01*
X45730970Y-57695671D01*
X45720480Y-57717850D01*
X45707868Y-57738893D01*
X45693253Y-57758599D01*
X45676777Y-57776777D01*
X45658599Y-57793253D01*
X45638893Y-57807868D01*
X45617850Y-57820480D01*
X45595671Y-57830970D01*
X45572572Y-57839235D01*
X45548773Y-57845196D01*
X45524505Y-57848796D01*
X45500001Y-57850000D01*
X44849999Y-57850000D01*
X44825495Y-57848796D01*
X44801227Y-57845196D01*
X44777428Y-57839235D01*
X44754329Y-57830970D01*
X44732150Y-57820480D01*
X44711107Y-57807868D01*
X44691401Y-57793253D01*
X44673223Y-57776777D01*
X44656747Y-57758599D01*
X44642132Y-57738893D01*
X44629520Y-57717850D01*
X44619030Y-57695671D01*
X44610765Y-57672572D01*
X44604804Y-57648773D01*
X44601204Y-57624505D01*
X44600000Y-57600001D01*
X44600000Y-56699999D01*
X44601204Y-56675495D01*
X44604804Y-56651227D01*
X44610765Y-56627428D01*
X44619030Y-56604329D01*
X44629520Y-56582150D01*
X44642132Y-56561107D01*
X44656747Y-56541401D01*
X44673223Y-56523223D01*
X44691401Y-56506747D01*
X44711107Y-56492132D01*
X44732150Y-56479520D01*
X44754329Y-56469030D01*
X44777428Y-56460765D01*
X44801227Y-56454804D01*
X44825495Y-56451204D01*
X44849999Y-56450000D01*
X45500001Y-56450000D01*
X45524505Y-56451204D01*
X45524505Y-56451204D01*
G37*
D12*
X45175000Y-57150000D03*
D11*
G36*
X47574505Y-56451204D02*
G01*
X47598773Y-56454804D01*
X47622572Y-56460765D01*
X47645671Y-56469030D01*
X47667850Y-56479520D01*
X47688893Y-56492132D01*
X47708599Y-56506747D01*
X47726777Y-56523223D01*
X47743253Y-56541401D01*
X47757868Y-56561107D01*
X47770480Y-56582150D01*
X47780970Y-56604329D01*
X47789235Y-56627428D01*
X47795196Y-56651227D01*
X47798796Y-56675495D01*
X47800000Y-56699999D01*
X47800000Y-57600001D01*
X47798796Y-57624505D01*
X47795196Y-57648773D01*
X47789235Y-57672572D01*
X47780970Y-57695671D01*
X47770480Y-57717850D01*
X47757868Y-57738893D01*
X47743253Y-57758599D01*
X47726777Y-57776777D01*
X47708599Y-57793253D01*
X47688893Y-57807868D01*
X47667850Y-57820480D01*
X47645671Y-57830970D01*
X47622572Y-57839235D01*
X47598773Y-57845196D01*
X47574505Y-57848796D01*
X47550001Y-57850000D01*
X46899999Y-57850000D01*
X46875495Y-57848796D01*
X46851227Y-57845196D01*
X46827428Y-57839235D01*
X46804329Y-57830970D01*
X46782150Y-57820480D01*
X46761107Y-57807868D01*
X46741401Y-57793253D01*
X46723223Y-57776777D01*
X46706747Y-57758599D01*
X46692132Y-57738893D01*
X46679520Y-57717850D01*
X46669030Y-57695671D01*
X46660765Y-57672572D01*
X46654804Y-57648773D01*
X46651204Y-57624505D01*
X46650000Y-57600001D01*
X46650000Y-56699999D01*
X46651204Y-56675495D01*
X46654804Y-56651227D01*
X46660765Y-56627428D01*
X46669030Y-56604329D01*
X46679520Y-56582150D01*
X46692132Y-56561107D01*
X46706747Y-56541401D01*
X46723223Y-56523223D01*
X46741401Y-56506747D01*
X46761107Y-56492132D01*
X46782150Y-56479520D01*
X46804329Y-56469030D01*
X46827428Y-56460765D01*
X46851227Y-56454804D01*
X46875495Y-56451204D01*
X46899999Y-56450000D01*
X47550001Y-56450000D01*
X47574505Y-56451204D01*
X47574505Y-56451204D01*
G37*
D12*
X47225000Y-57150000D03*
D11*
G36*
X55574505Y-56451204D02*
G01*
X55598773Y-56454804D01*
X55622572Y-56460765D01*
X55645671Y-56469030D01*
X55667850Y-56479520D01*
X55688893Y-56492132D01*
X55708599Y-56506747D01*
X55726777Y-56523223D01*
X55743253Y-56541401D01*
X55757868Y-56561107D01*
X55770480Y-56582150D01*
X55780970Y-56604329D01*
X55789235Y-56627428D01*
X55795196Y-56651227D01*
X55798796Y-56675495D01*
X55800000Y-56699999D01*
X55800000Y-57600001D01*
X55798796Y-57624505D01*
X55795196Y-57648773D01*
X55789235Y-57672572D01*
X55780970Y-57695671D01*
X55770480Y-57717850D01*
X55757868Y-57738893D01*
X55743253Y-57758599D01*
X55726777Y-57776777D01*
X55708599Y-57793253D01*
X55688893Y-57807868D01*
X55667850Y-57820480D01*
X55645671Y-57830970D01*
X55622572Y-57839235D01*
X55598773Y-57845196D01*
X55574505Y-57848796D01*
X55550001Y-57850000D01*
X54899999Y-57850000D01*
X54875495Y-57848796D01*
X54851227Y-57845196D01*
X54827428Y-57839235D01*
X54804329Y-57830970D01*
X54782150Y-57820480D01*
X54761107Y-57807868D01*
X54741401Y-57793253D01*
X54723223Y-57776777D01*
X54706747Y-57758599D01*
X54692132Y-57738893D01*
X54679520Y-57717850D01*
X54669030Y-57695671D01*
X54660765Y-57672572D01*
X54654804Y-57648773D01*
X54651204Y-57624505D01*
X54650000Y-57600001D01*
X54650000Y-56699999D01*
X54651204Y-56675495D01*
X54654804Y-56651227D01*
X54660765Y-56627428D01*
X54669030Y-56604329D01*
X54679520Y-56582150D01*
X54692132Y-56561107D01*
X54706747Y-56541401D01*
X54723223Y-56523223D01*
X54741401Y-56506747D01*
X54761107Y-56492132D01*
X54782150Y-56479520D01*
X54804329Y-56469030D01*
X54827428Y-56460765D01*
X54851227Y-56454804D01*
X54875495Y-56451204D01*
X54899999Y-56450000D01*
X55550001Y-56450000D01*
X55574505Y-56451204D01*
X55574505Y-56451204D01*
G37*
D12*
X55225000Y-57150000D03*
D11*
G36*
X53524505Y-56451204D02*
G01*
X53548773Y-56454804D01*
X53572572Y-56460765D01*
X53595671Y-56469030D01*
X53617850Y-56479520D01*
X53638893Y-56492132D01*
X53658599Y-56506747D01*
X53676777Y-56523223D01*
X53693253Y-56541401D01*
X53707868Y-56561107D01*
X53720480Y-56582150D01*
X53730970Y-56604329D01*
X53739235Y-56627428D01*
X53745196Y-56651227D01*
X53748796Y-56675495D01*
X53750000Y-56699999D01*
X53750000Y-57600001D01*
X53748796Y-57624505D01*
X53745196Y-57648773D01*
X53739235Y-57672572D01*
X53730970Y-57695671D01*
X53720480Y-57717850D01*
X53707868Y-57738893D01*
X53693253Y-57758599D01*
X53676777Y-57776777D01*
X53658599Y-57793253D01*
X53638893Y-57807868D01*
X53617850Y-57820480D01*
X53595671Y-57830970D01*
X53572572Y-57839235D01*
X53548773Y-57845196D01*
X53524505Y-57848796D01*
X53500001Y-57850000D01*
X52849999Y-57850000D01*
X52825495Y-57848796D01*
X52801227Y-57845196D01*
X52777428Y-57839235D01*
X52754329Y-57830970D01*
X52732150Y-57820480D01*
X52711107Y-57807868D01*
X52691401Y-57793253D01*
X52673223Y-57776777D01*
X52656747Y-57758599D01*
X52642132Y-57738893D01*
X52629520Y-57717850D01*
X52619030Y-57695671D01*
X52610765Y-57672572D01*
X52604804Y-57648773D01*
X52601204Y-57624505D01*
X52600000Y-57600001D01*
X52600000Y-56699999D01*
X52601204Y-56675495D01*
X52604804Y-56651227D01*
X52610765Y-56627428D01*
X52619030Y-56604329D01*
X52629520Y-56582150D01*
X52642132Y-56561107D01*
X52656747Y-56541401D01*
X52673223Y-56523223D01*
X52691401Y-56506747D01*
X52711107Y-56492132D01*
X52732150Y-56479520D01*
X52754329Y-56469030D01*
X52777428Y-56460765D01*
X52801227Y-56454804D01*
X52825495Y-56451204D01*
X52849999Y-56450000D01*
X53500001Y-56450000D01*
X53524505Y-56451204D01*
X53524505Y-56451204D01*
G37*
D12*
X53175000Y-57150000D03*
D11*
G36*
X67074504Y-451204D02*
G01*
X67098772Y-454804D01*
X67122571Y-460765D01*
X67145670Y-469030D01*
X67167849Y-479520D01*
X67188892Y-492132D01*
X67208598Y-506747D01*
X67226776Y-523223D01*
X67243252Y-541401D01*
X67257867Y-561107D01*
X67270479Y-582150D01*
X67280969Y-604329D01*
X67289234Y-627428D01*
X67295195Y-651227D01*
X67298795Y-675495D01*
X67299999Y-699999D01*
X67299999Y-1350001D01*
X67298795Y-1374505D01*
X67295195Y-1398773D01*
X67289234Y-1422572D01*
X67280969Y-1445671D01*
X67270479Y-1467850D01*
X67257867Y-1488893D01*
X67243252Y-1508599D01*
X67226776Y-1526777D01*
X67208598Y-1543253D01*
X67188892Y-1557868D01*
X67167849Y-1570480D01*
X67145670Y-1580970D01*
X67122571Y-1589235D01*
X67098772Y-1595196D01*
X67074504Y-1598796D01*
X67050000Y-1600000D01*
X66149998Y-1600000D01*
X66125494Y-1598796D01*
X66101226Y-1595196D01*
X66077427Y-1589235D01*
X66054328Y-1580970D01*
X66032149Y-1570480D01*
X66011106Y-1557868D01*
X65991400Y-1543253D01*
X65973222Y-1526777D01*
X65956746Y-1508599D01*
X65942131Y-1488893D01*
X65929519Y-1467850D01*
X65919029Y-1445671D01*
X65910764Y-1422572D01*
X65904803Y-1398773D01*
X65901203Y-1374505D01*
X65899999Y-1350001D01*
X65899999Y-699999D01*
X65901203Y-675495D01*
X65904803Y-651227D01*
X65910764Y-627428D01*
X65919029Y-604329D01*
X65929519Y-582150D01*
X65942131Y-561107D01*
X65956746Y-541401D01*
X65973222Y-523223D01*
X65991400Y-506747D01*
X66011106Y-492132D01*
X66032149Y-479520D01*
X66054328Y-469030D01*
X66077427Y-460765D01*
X66101226Y-454804D01*
X66125494Y-451204D01*
X66149998Y-450000D01*
X67050000Y-450000D01*
X67074504Y-451204D01*
X67074504Y-451204D01*
G37*
D12*
X66599999Y-1025000D03*
D11*
G36*
X67074504Y1598796D02*
G01*
X67098772Y1595196D01*
X67122571Y1589235D01*
X67145670Y1580970D01*
X67167849Y1570480D01*
X67188892Y1557868D01*
X67208598Y1543253D01*
X67226776Y1526777D01*
X67243252Y1508599D01*
X67257867Y1488893D01*
X67270479Y1467850D01*
X67280969Y1445671D01*
X67289234Y1422572D01*
X67295195Y1398773D01*
X67298795Y1374505D01*
X67299999Y1350001D01*
X67299999Y699999D01*
X67298795Y675495D01*
X67295195Y651227D01*
X67289234Y627428D01*
X67280969Y604329D01*
X67270479Y582150D01*
X67257867Y561107D01*
X67243252Y541401D01*
X67226776Y523223D01*
X67208598Y506747D01*
X67188892Y492132D01*
X67167849Y479520D01*
X67145670Y469030D01*
X67122571Y460765D01*
X67098772Y454804D01*
X67074504Y451204D01*
X67050000Y450000D01*
X66149998Y450000D01*
X66125494Y451204D01*
X66101226Y454804D01*
X66077427Y460765D01*
X66054328Y469030D01*
X66032149Y479520D01*
X66011106Y492132D01*
X65991400Y506747D01*
X65973222Y523223D01*
X65956746Y541401D01*
X65942131Y561107D01*
X65929519Y582150D01*
X65919029Y604329D01*
X65910764Y627428D01*
X65904803Y651227D01*
X65901203Y675495D01*
X65899999Y699999D01*
X65899999Y1350001D01*
X65901203Y1374505D01*
X65904803Y1398773D01*
X65910764Y1422572D01*
X65919029Y1445671D01*
X65929519Y1467850D01*
X65942131Y1488893D01*
X65956746Y1508599D01*
X65973222Y1526777D01*
X65991400Y1543253D01*
X66011106Y1557868D01*
X66032149Y1570480D01*
X66054328Y1580970D01*
X66077427Y1589235D01*
X66101226Y1595196D01*
X66125494Y1598796D01*
X66149998Y1600000D01*
X67050000Y1600000D01*
X67074504Y1598796D01*
X67074504Y1598796D01*
G37*
D12*
X66599999Y1025000D03*
D11*
G36*
X67074504Y-6401204D02*
G01*
X67098772Y-6404804D01*
X67122571Y-6410765D01*
X67145670Y-6419030D01*
X67167849Y-6429520D01*
X67188892Y-6442132D01*
X67208598Y-6456747D01*
X67226776Y-6473223D01*
X67243252Y-6491401D01*
X67257867Y-6511107D01*
X67270479Y-6532150D01*
X67280969Y-6554329D01*
X67289234Y-6577428D01*
X67295195Y-6601227D01*
X67298795Y-6625495D01*
X67299999Y-6649999D01*
X67299999Y-7300001D01*
X67298795Y-7324505D01*
X67295195Y-7348773D01*
X67289234Y-7372572D01*
X67280969Y-7395671D01*
X67270479Y-7417850D01*
X67257867Y-7438893D01*
X67243252Y-7458599D01*
X67226776Y-7476777D01*
X67208598Y-7493253D01*
X67188892Y-7507868D01*
X67167849Y-7520480D01*
X67145670Y-7530970D01*
X67122571Y-7539235D01*
X67098772Y-7545196D01*
X67074504Y-7548796D01*
X67050000Y-7550000D01*
X66149998Y-7550000D01*
X66125494Y-7548796D01*
X66101226Y-7545196D01*
X66077427Y-7539235D01*
X66054328Y-7530970D01*
X66032149Y-7520480D01*
X66011106Y-7507868D01*
X65991400Y-7493253D01*
X65973222Y-7476777D01*
X65956746Y-7458599D01*
X65942131Y-7438893D01*
X65929519Y-7417850D01*
X65919029Y-7395671D01*
X65910764Y-7372572D01*
X65904803Y-7348773D01*
X65901203Y-7324505D01*
X65899999Y-7300001D01*
X65899999Y-6649999D01*
X65901203Y-6625495D01*
X65904803Y-6601227D01*
X65910764Y-6577428D01*
X65919029Y-6554329D01*
X65929519Y-6532150D01*
X65942131Y-6511107D01*
X65956746Y-6491401D01*
X65973222Y-6473223D01*
X65991400Y-6456747D01*
X66011106Y-6442132D01*
X66032149Y-6429520D01*
X66054328Y-6419030D01*
X66077427Y-6410765D01*
X66101226Y-6404804D01*
X66125494Y-6401204D01*
X66149998Y-6400000D01*
X67050000Y-6400000D01*
X67074504Y-6401204D01*
X67074504Y-6401204D01*
G37*
D12*
X66599999Y-6975000D03*
D11*
G36*
X67074504Y-8451204D02*
G01*
X67098772Y-8454804D01*
X67122571Y-8460765D01*
X67145670Y-8469030D01*
X67167849Y-8479520D01*
X67188892Y-8492132D01*
X67208598Y-8506747D01*
X67226776Y-8523223D01*
X67243252Y-8541401D01*
X67257867Y-8561107D01*
X67270479Y-8582150D01*
X67280969Y-8604329D01*
X67289234Y-8627428D01*
X67295195Y-8651227D01*
X67298795Y-8675495D01*
X67299999Y-8699999D01*
X67299999Y-9350001D01*
X67298795Y-9374505D01*
X67295195Y-9398773D01*
X67289234Y-9422572D01*
X67280969Y-9445671D01*
X67270479Y-9467850D01*
X67257867Y-9488893D01*
X67243252Y-9508599D01*
X67226776Y-9526777D01*
X67208598Y-9543253D01*
X67188892Y-9557868D01*
X67167849Y-9570480D01*
X67145670Y-9580970D01*
X67122571Y-9589235D01*
X67098772Y-9595196D01*
X67074504Y-9598796D01*
X67050000Y-9600000D01*
X66149998Y-9600000D01*
X66125494Y-9598796D01*
X66101226Y-9595196D01*
X66077427Y-9589235D01*
X66054328Y-9580970D01*
X66032149Y-9570480D01*
X66011106Y-9557868D01*
X65991400Y-9543253D01*
X65973222Y-9526777D01*
X65956746Y-9508599D01*
X65942131Y-9488893D01*
X65929519Y-9467850D01*
X65919029Y-9445671D01*
X65910764Y-9422572D01*
X65904803Y-9398773D01*
X65901203Y-9374505D01*
X65899999Y-9350001D01*
X65899999Y-8699999D01*
X65901203Y-8675495D01*
X65904803Y-8651227D01*
X65910764Y-8627428D01*
X65919029Y-8604329D01*
X65929519Y-8582150D01*
X65942131Y-8561107D01*
X65956746Y-8541401D01*
X65973222Y-8523223D01*
X65991400Y-8506747D01*
X66011106Y-8492132D01*
X66032149Y-8479520D01*
X66054328Y-8469030D01*
X66077427Y-8460765D01*
X66101226Y-8454804D01*
X66125494Y-8451204D01*
X66149998Y-8450000D01*
X67050000Y-8450000D01*
X67074504Y-8451204D01*
X67074504Y-8451204D01*
G37*
D12*
X66599999Y-9025000D03*
D11*
G36*
X67074504Y-16451204D02*
G01*
X67098772Y-16454804D01*
X67122571Y-16460765D01*
X67145670Y-16469030D01*
X67167849Y-16479520D01*
X67188892Y-16492132D01*
X67208598Y-16506747D01*
X67226776Y-16523223D01*
X67243252Y-16541401D01*
X67257867Y-16561107D01*
X67270479Y-16582150D01*
X67280969Y-16604329D01*
X67289234Y-16627428D01*
X67295195Y-16651227D01*
X67298795Y-16675495D01*
X67299999Y-16699999D01*
X67299999Y-17350001D01*
X67298795Y-17374505D01*
X67295195Y-17398773D01*
X67289234Y-17422572D01*
X67280969Y-17445671D01*
X67270479Y-17467850D01*
X67257867Y-17488893D01*
X67243252Y-17508599D01*
X67226776Y-17526777D01*
X67208598Y-17543253D01*
X67188892Y-17557868D01*
X67167849Y-17570480D01*
X67145670Y-17580970D01*
X67122571Y-17589235D01*
X67098772Y-17595196D01*
X67074504Y-17598796D01*
X67050000Y-17600000D01*
X66149998Y-17600000D01*
X66125494Y-17598796D01*
X66101226Y-17595196D01*
X66077427Y-17589235D01*
X66054328Y-17580970D01*
X66032149Y-17570480D01*
X66011106Y-17557868D01*
X65991400Y-17543253D01*
X65973222Y-17526777D01*
X65956746Y-17508599D01*
X65942131Y-17488893D01*
X65929519Y-17467850D01*
X65919029Y-17445671D01*
X65910764Y-17422572D01*
X65904803Y-17398773D01*
X65901203Y-17374505D01*
X65899999Y-17350001D01*
X65899999Y-16699999D01*
X65901203Y-16675495D01*
X65904803Y-16651227D01*
X65910764Y-16627428D01*
X65919029Y-16604329D01*
X65929519Y-16582150D01*
X65942131Y-16561107D01*
X65956746Y-16541401D01*
X65973222Y-16523223D01*
X65991400Y-16506747D01*
X66011106Y-16492132D01*
X66032149Y-16479520D01*
X66054328Y-16469030D01*
X66077427Y-16460765D01*
X66101226Y-16454804D01*
X66125494Y-16451204D01*
X66149998Y-16450000D01*
X67050000Y-16450000D01*
X67074504Y-16451204D01*
X67074504Y-16451204D01*
G37*
D12*
X66599999Y-17025000D03*
D11*
G36*
X67074504Y-14401204D02*
G01*
X67098772Y-14404804D01*
X67122571Y-14410765D01*
X67145670Y-14419030D01*
X67167849Y-14429520D01*
X67188892Y-14442132D01*
X67208598Y-14456747D01*
X67226776Y-14473223D01*
X67243252Y-14491401D01*
X67257867Y-14511107D01*
X67270479Y-14532150D01*
X67280969Y-14554329D01*
X67289234Y-14577428D01*
X67295195Y-14601227D01*
X67298795Y-14625495D01*
X67299999Y-14649999D01*
X67299999Y-15300001D01*
X67298795Y-15324505D01*
X67295195Y-15348773D01*
X67289234Y-15372572D01*
X67280969Y-15395671D01*
X67270479Y-15417850D01*
X67257867Y-15438893D01*
X67243252Y-15458599D01*
X67226776Y-15476777D01*
X67208598Y-15493253D01*
X67188892Y-15507868D01*
X67167849Y-15520480D01*
X67145670Y-15530970D01*
X67122571Y-15539235D01*
X67098772Y-15545196D01*
X67074504Y-15548796D01*
X67050000Y-15550000D01*
X66149998Y-15550000D01*
X66125494Y-15548796D01*
X66101226Y-15545196D01*
X66077427Y-15539235D01*
X66054328Y-15530970D01*
X66032149Y-15520480D01*
X66011106Y-15507868D01*
X65991400Y-15493253D01*
X65973222Y-15476777D01*
X65956746Y-15458599D01*
X65942131Y-15438893D01*
X65929519Y-15417850D01*
X65919029Y-15395671D01*
X65910764Y-15372572D01*
X65904803Y-15348773D01*
X65901203Y-15324505D01*
X65899999Y-15300001D01*
X65899999Y-14649999D01*
X65901203Y-14625495D01*
X65904803Y-14601227D01*
X65910764Y-14577428D01*
X65919029Y-14554329D01*
X65929519Y-14532150D01*
X65942131Y-14511107D01*
X65956746Y-14491401D01*
X65973222Y-14473223D01*
X65991400Y-14456747D01*
X66011106Y-14442132D01*
X66032149Y-14429520D01*
X66054328Y-14419030D01*
X66077427Y-14410765D01*
X66101226Y-14404804D01*
X66125494Y-14401204D01*
X66149998Y-14400000D01*
X67050000Y-14400000D01*
X67074504Y-14401204D01*
X67074504Y-14401204D01*
G37*
D12*
X66599999Y-14975000D03*
D11*
G36*
X67074504Y-22401204D02*
G01*
X67098772Y-22404804D01*
X67122571Y-22410765D01*
X67145670Y-22419030D01*
X67167849Y-22429520D01*
X67188892Y-22442132D01*
X67208598Y-22456747D01*
X67226776Y-22473223D01*
X67243252Y-22491401D01*
X67257867Y-22511107D01*
X67270479Y-22532150D01*
X67280969Y-22554329D01*
X67289234Y-22577428D01*
X67295195Y-22601227D01*
X67298795Y-22625495D01*
X67299999Y-22649999D01*
X67299999Y-23300001D01*
X67298795Y-23324505D01*
X67295195Y-23348773D01*
X67289234Y-23372572D01*
X67280969Y-23395671D01*
X67270479Y-23417850D01*
X67257867Y-23438893D01*
X67243252Y-23458599D01*
X67226776Y-23476777D01*
X67208598Y-23493253D01*
X67188892Y-23507868D01*
X67167849Y-23520480D01*
X67145670Y-23530970D01*
X67122571Y-23539235D01*
X67098772Y-23545196D01*
X67074504Y-23548796D01*
X67050000Y-23550000D01*
X66149998Y-23550000D01*
X66125494Y-23548796D01*
X66101226Y-23545196D01*
X66077427Y-23539235D01*
X66054328Y-23530970D01*
X66032149Y-23520480D01*
X66011106Y-23507868D01*
X65991400Y-23493253D01*
X65973222Y-23476777D01*
X65956746Y-23458599D01*
X65942131Y-23438893D01*
X65929519Y-23417850D01*
X65919029Y-23395671D01*
X65910764Y-23372572D01*
X65904803Y-23348773D01*
X65901203Y-23324505D01*
X65899999Y-23300001D01*
X65899999Y-22649999D01*
X65901203Y-22625495D01*
X65904803Y-22601227D01*
X65910764Y-22577428D01*
X65919029Y-22554329D01*
X65929519Y-22532150D01*
X65942131Y-22511107D01*
X65956746Y-22491401D01*
X65973222Y-22473223D01*
X65991400Y-22456747D01*
X66011106Y-22442132D01*
X66032149Y-22429520D01*
X66054328Y-22419030D01*
X66077427Y-22410765D01*
X66101226Y-22404804D01*
X66125494Y-22401204D01*
X66149998Y-22400000D01*
X67050000Y-22400000D01*
X67074504Y-22401204D01*
X67074504Y-22401204D01*
G37*
D12*
X66599999Y-22975000D03*
D11*
G36*
X67074504Y-24451204D02*
G01*
X67098772Y-24454804D01*
X67122571Y-24460765D01*
X67145670Y-24469030D01*
X67167849Y-24479520D01*
X67188892Y-24492132D01*
X67208598Y-24506747D01*
X67226776Y-24523223D01*
X67243252Y-24541401D01*
X67257867Y-24561107D01*
X67270479Y-24582150D01*
X67280969Y-24604329D01*
X67289234Y-24627428D01*
X67295195Y-24651227D01*
X67298795Y-24675495D01*
X67299999Y-24699999D01*
X67299999Y-25350001D01*
X67298795Y-25374505D01*
X67295195Y-25398773D01*
X67289234Y-25422572D01*
X67280969Y-25445671D01*
X67270479Y-25467850D01*
X67257867Y-25488893D01*
X67243252Y-25508599D01*
X67226776Y-25526777D01*
X67208598Y-25543253D01*
X67188892Y-25557868D01*
X67167849Y-25570480D01*
X67145670Y-25580970D01*
X67122571Y-25589235D01*
X67098772Y-25595196D01*
X67074504Y-25598796D01*
X67050000Y-25600000D01*
X66149998Y-25600000D01*
X66125494Y-25598796D01*
X66101226Y-25595196D01*
X66077427Y-25589235D01*
X66054328Y-25580970D01*
X66032149Y-25570480D01*
X66011106Y-25557868D01*
X65991400Y-25543253D01*
X65973222Y-25526777D01*
X65956746Y-25508599D01*
X65942131Y-25488893D01*
X65929519Y-25467850D01*
X65919029Y-25445671D01*
X65910764Y-25422572D01*
X65904803Y-25398773D01*
X65901203Y-25374505D01*
X65899999Y-25350001D01*
X65899999Y-24699999D01*
X65901203Y-24675495D01*
X65904803Y-24651227D01*
X65910764Y-24627428D01*
X65919029Y-24604329D01*
X65929519Y-24582150D01*
X65942131Y-24561107D01*
X65956746Y-24541401D01*
X65973222Y-24523223D01*
X65991400Y-24506747D01*
X66011106Y-24492132D01*
X66032149Y-24479520D01*
X66054328Y-24469030D01*
X66077427Y-24460765D01*
X66101226Y-24454804D01*
X66125494Y-24451204D01*
X66149998Y-24450000D01*
X67050000Y-24450000D01*
X67074504Y-24451204D01*
X67074504Y-24451204D01*
G37*
D12*
X66599999Y-25025000D03*
D11*
G36*
X67074504Y-30401204D02*
G01*
X67098772Y-30404804D01*
X67122571Y-30410765D01*
X67145670Y-30419030D01*
X67167849Y-30429520D01*
X67188892Y-30442132D01*
X67208598Y-30456747D01*
X67226776Y-30473223D01*
X67243252Y-30491401D01*
X67257867Y-30511107D01*
X67270479Y-30532150D01*
X67280969Y-30554329D01*
X67289234Y-30577428D01*
X67295195Y-30601227D01*
X67298795Y-30625495D01*
X67299999Y-30649999D01*
X67299999Y-31300001D01*
X67298795Y-31324505D01*
X67295195Y-31348773D01*
X67289234Y-31372572D01*
X67280969Y-31395671D01*
X67270479Y-31417850D01*
X67257867Y-31438893D01*
X67243252Y-31458599D01*
X67226776Y-31476777D01*
X67208598Y-31493253D01*
X67188892Y-31507868D01*
X67167849Y-31520480D01*
X67145670Y-31530970D01*
X67122571Y-31539235D01*
X67098772Y-31545196D01*
X67074504Y-31548796D01*
X67050000Y-31550000D01*
X66149998Y-31550000D01*
X66125494Y-31548796D01*
X66101226Y-31545196D01*
X66077427Y-31539235D01*
X66054328Y-31530970D01*
X66032149Y-31520480D01*
X66011106Y-31507868D01*
X65991400Y-31493253D01*
X65973222Y-31476777D01*
X65956746Y-31458599D01*
X65942131Y-31438893D01*
X65929519Y-31417850D01*
X65919029Y-31395671D01*
X65910764Y-31372572D01*
X65904803Y-31348773D01*
X65901203Y-31324505D01*
X65899999Y-31300001D01*
X65899999Y-30649999D01*
X65901203Y-30625495D01*
X65904803Y-30601227D01*
X65910764Y-30577428D01*
X65919029Y-30554329D01*
X65929519Y-30532150D01*
X65942131Y-30511107D01*
X65956746Y-30491401D01*
X65973222Y-30473223D01*
X65991400Y-30456747D01*
X66011106Y-30442132D01*
X66032149Y-30429520D01*
X66054328Y-30419030D01*
X66077427Y-30410765D01*
X66101226Y-30404804D01*
X66125494Y-30401204D01*
X66149998Y-30400000D01*
X67050000Y-30400000D01*
X67074504Y-30401204D01*
X67074504Y-30401204D01*
G37*
D12*
X66599999Y-30975000D03*
D11*
G36*
X67074504Y-32451204D02*
G01*
X67098772Y-32454804D01*
X67122571Y-32460765D01*
X67145670Y-32469030D01*
X67167849Y-32479520D01*
X67188892Y-32492132D01*
X67208598Y-32506747D01*
X67226776Y-32523223D01*
X67243252Y-32541401D01*
X67257867Y-32561107D01*
X67270479Y-32582150D01*
X67280969Y-32604329D01*
X67289234Y-32627428D01*
X67295195Y-32651227D01*
X67298795Y-32675495D01*
X67299999Y-32699999D01*
X67299999Y-33350001D01*
X67298795Y-33374505D01*
X67295195Y-33398773D01*
X67289234Y-33422572D01*
X67280969Y-33445671D01*
X67270479Y-33467850D01*
X67257867Y-33488893D01*
X67243252Y-33508599D01*
X67226776Y-33526777D01*
X67208598Y-33543253D01*
X67188892Y-33557868D01*
X67167849Y-33570480D01*
X67145670Y-33580970D01*
X67122571Y-33589235D01*
X67098772Y-33595196D01*
X67074504Y-33598796D01*
X67050000Y-33600000D01*
X66149998Y-33600000D01*
X66125494Y-33598796D01*
X66101226Y-33595196D01*
X66077427Y-33589235D01*
X66054328Y-33580970D01*
X66032149Y-33570480D01*
X66011106Y-33557868D01*
X65991400Y-33543253D01*
X65973222Y-33526777D01*
X65956746Y-33508599D01*
X65942131Y-33488893D01*
X65929519Y-33467850D01*
X65919029Y-33445671D01*
X65910764Y-33422572D01*
X65904803Y-33398773D01*
X65901203Y-33374505D01*
X65899999Y-33350001D01*
X65899999Y-32699999D01*
X65901203Y-32675495D01*
X65904803Y-32651227D01*
X65910764Y-32627428D01*
X65919029Y-32604329D01*
X65929519Y-32582150D01*
X65942131Y-32561107D01*
X65956746Y-32541401D01*
X65973222Y-32523223D01*
X65991400Y-32506747D01*
X66011106Y-32492132D01*
X66032149Y-32479520D01*
X66054328Y-32469030D01*
X66077427Y-32460765D01*
X66101226Y-32454804D01*
X66125494Y-32451204D01*
X66149998Y-32450000D01*
X67050000Y-32450000D01*
X67074504Y-32451204D01*
X67074504Y-32451204D01*
G37*
D12*
X66599999Y-33025000D03*
D11*
G36*
X67074504Y-38401204D02*
G01*
X67098772Y-38404804D01*
X67122571Y-38410765D01*
X67145670Y-38419030D01*
X67167849Y-38429520D01*
X67188892Y-38442132D01*
X67208598Y-38456747D01*
X67226776Y-38473223D01*
X67243252Y-38491401D01*
X67257867Y-38511107D01*
X67270479Y-38532150D01*
X67280969Y-38554329D01*
X67289234Y-38577428D01*
X67295195Y-38601227D01*
X67298795Y-38625495D01*
X67299999Y-38649999D01*
X67299999Y-39300001D01*
X67298795Y-39324505D01*
X67295195Y-39348773D01*
X67289234Y-39372572D01*
X67280969Y-39395671D01*
X67270479Y-39417850D01*
X67257867Y-39438893D01*
X67243252Y-39458599D01*
X67226776Y-39476777D01*
X67208598Y-39493253D01*
X67188892Y-39507868D01*
X67167849Y-39520480D01*
X67145670Y-39530970D01*
X67122571Y-39539235D01*
X67098772Y-39545196D01*
X67074504Y-39548796D01*
X67050000Y-39550000D01*
X66149998Y-39550000D01*
X66125494Y-39548796D01*
X66101226Y-39545196D01*
X66077427Y-39539235D01*
X66054328Y-39530970D01*
X66032149Y-39520480D01*
X66011106Y-39507868D01*
X65991400Y-39493253D01*
X65973222Y-39476777D01*
X65956746Y-39458599D01*
X65942131Y-39438893D01*
X65929519Y-39417850D01*
X65919029Y-39395671D01*
X65910764Y-39372572D01*
X65904803Y-39348773D01*
X65901203Y-39324505D01*
X65899999Y-39300001D01*
X65899999Y-38649999D01*
X65901203Y-38625495D01*
X65904803Y-38601227D01*
X65910764Y-38577428D01*
X65919029Y-38554329D01*
X65929519Y-38532150D01*
X65942131Y-38511107D01*
X65956746Y-38491401D01*
X65973222Y-38473223D01*
X65991400Y-38456747D01*
X66011106Y-38442132D01*
X66032149Y-38429520D01*
X66054328Y-38419030D01*
X66077427Y-38410765D01*
X66101226Y-38404804D01*
X66125494Y-38401204D01*
X66149998Y-38400000D01*
X67050000Y-38400000D01*
X67074504Y-38401204D01*
X67074504Y-38401204D01*
G37*
D12*
X66599999Y-38975000D03*
D11*
G36*
X67074504Y-40451204D02*
G01*
X67098772Y-40454804D01*
X67122571Y-40460765D01*
X67145670Y-40469030D01*
X67167849Y-40479520D01*
X67188892Y-40492132D01*
X67208598Y-40506747D01*
X67226776Y-40523223D01*
X67243252Y-40541401D01*
X67257867Y-40561107D01*
X67270479Y-40582150D01*
X67280969Y-40604329D01*
X67289234Y-40627428D01*
X67295195Y-40651227D01*
X67298795Y-40675495D01*
X67299999Y-40699999D01*
X67299999Y-41350001D01*
X67298795Y-41374505D01*
X67295195Y-41398773D01*
X67289234Y-41422572D01*
X67280969Y-41445671D01*
X67270479Y-41467850D01*
X67257867Y-41488893D01*
X67243252Y-41508599D01*
X67226776Y-41526777D01*
X67208598Y-41543253D01*
X67188892Y-41557868D01*
X67167849Y-41570480D01*
X67145670Y-41580970D01*
X67122571Y-41589235D01*
X67098772Y-41595196D01*
X67074504Y-41598796D01*
X67050000Y-41600000D01*
X66149998Y-41600000D01*
X66125494Y-41598796D01*
X66101226Y-41595196D01*
X66077427Y-41589235D01*
X66054328Y-41580970D01*
X66032149Y-41570480D01*
X66011106Y-41557868D01*
X65991400Y-41543253D01*
X65973222Y-41526777D01*
X65956746Y-41508599D01*
X65942131Y-41488893D01*
X65929519Y-41467850D01*
X65919029Y-41445671D01*
X65910764Y-41422572D01*
X65904803Y-41398773D01*
X65901203Y-41374505D01*
X65899999Y-41350001D01*
X65899999Y-40699999D01*
X65901203Y-40675495D01*
X65904803Y-40651227D01*
X65910764Y-40627428D01*
X65919029Y-40604329D01*
X65929519Y-40582150D01*
X65942131Y-40561107D01*
X65956746Y-40541401D01*
X65973222Y-40523223D01*
X65991400Y-40506747D01*
X66011106Y-40492132D01*
X66032149Y-40479520D01*
X66054328Y-40469030D01*
X66077427Y-40460765D01*
X66101226Y-40454804D01*
X66125494Y-40451204D01*
X66149998Y-40450000D01*
X67050000Y-40450000D01*
X67074504Y-40451204D01*
X67074504Y-40451204D01*
G37*
D12*
X66599999Y-41025000D03*
D11*
G36*
X67074504Y-48451204D02*
G01*
X67098772Y-48454804D01*
X67122571Y-48460765D01*
X67145670Y-48469030D01*
X67167849Y-48479520D01*
X67188892Y-48492132D01*
X67208598Y-48506747D01*
X67226776Y-48523223D01*
X67243252Y-48541401D01*
X67257867Y-48561107D01*
X67270479Y-48582150D01*
X67280969Y-48604329D01*
X67289234Y-48627428D01*
X67295195Y-48651227D01*
X67298795Y-48675495D01*
X67299999Y-48699999D01*
X67299999Y-49350001D01*
X67298795Y-49374505D01*
X67295195Y-49398773D01*
X67289234Y-49422572D01*
X67280969Y-49445671D01*
X67270479Y-49467850D01*
X67257867Y-49488893D01*
X67243252Y-49508599D01*
X67226776Y-49526777D01*
X67208598Y-49543253D01*
X67188892Y-49557868D01*
X67167849Y-49570480D01*
X67145670Y-49580970D01*
X67122571Y-49589235D01*
X67098772Y-49595196D01*
X67074504Y-49598796D01*
X67050000Y-49600000D01*
X66149998Y-49600000D01*
X66125494Y-49598796D01*
X66101226Y-49595196D01*
X66077427Y-49589235D01*
X66054328Y-49580970D01*
X66032149Y-49570480D01*
X66011106Y-49557868D01*
X65991400Y-49543253D01*
X65973222Y-49526777D01*
X65956746Y-49508599D01*
X65942131Y-49488893D01*
X65929519Y-49467850D01*
X65919029Y-49445671D01*
X65910764Y-49422572D01*
X65904803Y-49398773D01*
X65901203Y-49374505D01*
X65899999Y-49350001D01*
X65899999Y-48699999D01*
X65901203Y-48675495D01*
X65904803Y-48651227D01*
X65910764Y-48627428D01*
X65919029Y-48604329D01*
X65929519Y-48582150D01*
X65942131Y-48561107D01*
X65956746Y-48541401D01*
X65973222Y-48523223D01*
X65991400Y-48506747D01*
X66011106Y-48492132D01*
X66032149Y-48479520D01*
X66054328Y-48469030D01*
X66077427Y-48460765D01*
X66101226Y-48454804D01*
X66125494Y-48451204D01*
X66149998Y-48450000D01*
X67050000Y-48450000D01*
X67074504Y-48451204D01*
X67074504Y-48451204D01*
G37*
D12*
X66599999Y-49025000D03*
D11*
G36*
X67074504Y-46401204D02*
G01*
X67098772Y-46404804D01*
X67122571Y-46410765D01*
X67145670Y-46419030D01*
X67167849Y-46429520D01*
X67188892Y-46442132D01*
X67208598Y-46456747D01*
X67226776Y-46473223D01*
X67243252Y-46491401D01*
X67257867Y-46511107D01*
X67270479Y-46532150D01*
X67280969Y-46554329D01*
X67289234Y-46577428D01*
X67295195Y-46601227D01*
X67298795Y-46625495D01*
X67299999Y-46649999D01*
X67299999Y-47300001D01*
X67298795Y-47324505D01*
X67295195Y-47348773D01*
X67289234Y-47372572D01*
X67280969Y-47395671D01*
X67270479Y-47417850D01*
X67257867Y-47438893D01*
X67243252Y-47458599D01*
X67226776Y-47476777D01*
X67208598Y-47493253D01*
X67188892Y-47507868D01*
X67167849Y-47520480D01*
X67145670Y-47530970D01*
X67122571Y-47539235D01*
X67098772Y-47545196D01*
X67074504Y-47548796D01*
X67050000Y-47550000D01*
X66149998Y-47550000D01*
X66125494Y-47548796D01*
X66101226Y-47545196D01*
X66077427Y-47539235D01*
X66054328Y-47530970D01*
X66032149Y-47520480D01*
X66011106Y-47507868D01*
X65991400Y-47493253D01*
X65973222Y-47476777D01*
X65956746Y-47458599D01*
X65942131Y-47438893D01*
X65929519Y-47417850D01*
X65919029Y-47395671D01*
X65910764Y-47372572D01*
X65904803Y-47348773D01*
X65901203Y-47324505D01*
X65899999Y-47300001D01*
X65899999Y-46649999D01*
X65901203Y-46625495D01*
X65904803Y-46601227D01*
X65910764Y-46577428D01*
X65919029Y-46554329D01*
X65929519Y-46532150D01*
X65942131Y-46511107D01*
X65956746Y-46491401D01*
X65973222Y-46473223D01*
X65991400Y-46456747D01*
X66011106Y-46442132D01*
X66032149Y-46429520D01*
X66054328Y-46419030D01*
X66077427Y-46410765D01*
X66101226Y-46404804D01*
X66125494Y-46401204D01*
X66149998Y-46400000D01*
X67050000Y-46400000D01*
X67074504Y-46401204D01*
X67074504Y-46401204D01*
G37*
D12*
X66599999Y-46975000D03*
D11*
G36*
X67074504Y-54401204D02*
G01*
X67098772Y-54404804D01*
X67122571Y-54410765D01*
X67145670Y-54419030D01*
X67167849Y-54429520D01*
X67188892Y-54442132D01*
X67208598Y-54456747D01*
X67226776Y-54473223D01*
X67243252Y-54491401D01*
X67257867Y-54511107D01*
X67270479Y-54532150D01*
X67280969Y-54554329D01*
X67289234Y-54577428D01*
X67295195Y-54601227D01*
X67298795Y-54625495D01*
X67299999Y-54649999D01*
X67299999Y-55300001D01*
X67298795Y-55324505D01*
X67295195Y-55348773D01*
X67289234Y-55372572D01*
X67280969Y-55395671D01*
X67270479Y-55417850D01*
X67257867Y-55438893D01*
X67243252Y-55458599D01*
X67226776Y-55476777D01*
X67208598Y-55493253D01*
X67188892Y-55507868D01*
X67167849Y-55520480D01*
X67145670Y-55530970D01*
X67122571Y-55539235D01*
X67098772Y-55545196D01*
X67074504Y-55548796D01*
X67050000Y-55550000D01*
X66149998Y-55550000D01*
X66125494Y-55548796D01*
X66101226Y-55545196D01*
X66077427Y-55539235D01*
X66054328Y-55530970D01*
X66032149Y-55520480D01*
X66011106Y-55507868D01*
X65991400Y-55493253D01*
X65973222Y-55476777D01*
X65956746Y-55458599D01*
X65942131Y-55438893D01*
X65929519Y-55417850D01*
X65919029Y-55395671D01*
X65910764Y-55372572D01*
X65904803Y-55348773D01*
X65901203Y-55324505D01*
X65899999Y-55300001D01*
X65899999Y-54649999D01*
X65901203Y-54625495D01*
X65904803Y-54601227D01*
X65910764Y-54577428D01*
X65919029Y-54554329D01*
X65929519Y-54532150D01*
X65942131Y-54511107D01*
X65956746Y-54491401D01*
X65973222Y-54473223D01*
X65991400Y-54456747D01*
X66011106Y-54442132D01*
X66032149Y-54429520D01*
X66054328Y-54419030D01*
X66077427Y-54410765D01*
X66101226Y-54404804D01*
X66125494Y-54401204D01*
X66149998Y-54400000D01*
X67050000Y-54400000D01*
X67074504Y-54401204D01*
X67074504Y-54401204D01*
G37*
D12*
X66599999Y-54975000D03*
D11*
G36*
X67074504Y-56451204D02*
G01*
X67098772Y-56454804D01*
X67122571Y-56460765D01*
X67145670Y-56469030D01*
X67167849Y-56479520D01*
X67188892Y-56492132D01*
X67208598Y-56506747D01*
X67226776Y-56523223D01*
X67243252Y-56541401D01*
X67257867Y-56561107D01*
X67270479Y-56582150D01*
X67280969Y-56604329D01*
X67289234Y-56627428D01*
X67295195Y-56651227D01*
X67298795Y-56675495D01*
X67299999Y-56699999D01*
X67299999Y-57350001D01*
X67298795Y-57374505D01*
X67295195Y-57398773D01*
X67289234Y-57422572D01*
X67280969Y-57445671D01*
X67270479Y-57467850D01*
X67257867Y-57488893D01*
X67243252Y-57508599D01*
X67226776Y-57526777D01*
X67208598Y-57543253D01*
X67188892Y-57557868D01*
X67167849Y-57570480D01*
X67145670Y-57580970D01*
X67122571Y-57589235D01*
X67098772Y-57595196D01*
X67074504Y-57598796D01*
X67050000Y-57600000D01*
X66149998Y-57600000D01*
X66125494Y-57598796D01*
X66101226Y-57595196D01*
X66077427Y-57589235D01*
X66054328Y-57580970D01*
X66032149Y-57570480D01*
X66011106Y-57557868D01*
X65991400Y-57543253D01*
X65973222Y-57526777D01*
X65956746Y-57508599D01*
X65942131Y-57488893D01*
X65929519Y-57467850D01*
X65919029Y-57445671D01*
X65910764Y-57422572D01*
X65904803Y-57398773D01*
X65901203Y-57374505D01*
X65899999Y-57350001D01*
X65899999Y-56699999D01*
X65901203Y-56675495D01*
X65904803Y-56651227D01*
X65910764Y-56627428D01*
X65919029Y-56604329D01*
X65929519Y-56582150D01*
X65942131Y-56561107D01*
X65956746Y-56541401D01*
X65973222Y-56523223D01*
X65991400Y-56506747D01*
X66011106Y-56492132D01*
X66032149Y-56479520D01*
X66054328Y-56469030D01*
X66077427Y-56460765D01*
X66101226Y-56454804D01*
X66125494Y-56451204D01*
X66149998Y-56450000D01*
X67050000Y-56450000D01*
X67074504Y-56451204D01*
X67074504Y-56451204D01*
G37*
D12*
X66599999Y-57025000D03*
D13*
X86700000Y-23100000D03*
D14*
X86700000Y-25640000D03*
X86700000Y-28180000D03*
X86700000Y-30720000D03*
X86700000Y-33260000D03*
X86700000Y-35800000D03*
X86700000Y-38340000D03*
D11*
G36*
X3524505Y-56451204D02*
G01*
X3548773Y-56454804D01*
X3572572Y-56460765D01*
X3595671Y-56469030D01*
X3617850Y-56479520D01*
X3638893Y-56492132D01*
X3658599Y-56506747D01*
X3676777Y-56523223D01*
X3693253Y-56541401D01*
X3707868Y-56561107D01*
X3720480Y-56582150D01*
X3730970Y-56604329D01*
X3739235Y-56627428D01*
X3745196Y-56651227D01*
X3748796Y-56675495D01*
X3750000Y-56699999D01*
X3750000Y-57600001D01*
X3748796Y-57624505D01*
X3745196Y-57648773D01*
X3739235Y-57672572D01*
X3730970Y-57695671D01*
X3720480Y-57717850D01*
X3707868Y-57738893D01*
X3693253Y-57758599D01*
X3676777Y-57776777D01*
X3658599Y-57793253D01*
X3638893Y-57807868D01*
X3617850Y-57820480D01*
X3595671Y-57830970D01*
X3572572Y-57839235D01*
X3548773Y-57845196D01*
X3524505Y-57848796D01*
X3500001Y-57850000D01*
X2849999Y-57850000D01*
X2825495Y-57848796D01*
X2801227Y-57845196D01*
X2777428Y-57839235D01*
X2754329Y-57830970D01*
X2732150Y-57820480D01*
X2711107Y-57807868D01*
X2691401Y-57793253D01*
X2673223Y-57776777D01*
X2656747Y-57758599D01*
X2642132Y-57738893D01*
X2629520Y-57717850D01*
X2619030Y-57695671D01*
X2610765Y-57672572D01*
X2604804Y-57648773D01*
X2601204Y-57624505D01*
X2600000Y-57600001D01*
X2600000Y-56699999D01*
X2601204Y-56675495D01*
X2604804Y-56651227D01*
X2610765Y-56627428D01*
X2619030Y-56604329D01*
X2629520Y-56582150D01*
X2642132Y-56561107D01*
X2656747Y-56541401D01*
X2673223Y-56523223D01*
X2691401Y-56506747D01*
X2711107Y-56492132D01*
X2732150Y-56479520D01*
X2754329Y-56469030D01*
X2777428Y-56460765D01*
X2801227Y-56454804D01*
X2825495Y-56451204D01*
X2849999Y-56450000D01*
X3500001Y-56450000D01*
X3524505Y-56451204D01*
X3524505Y-56451204D01*
G37*
D12*
X3175000Y-57150000D03*
D11*
G36*
X1474505Y-56451204D02*
G01*
X1498773Y-56454804D01*
X1522572Y-56460765D01*
X1545671Y-56469030D01*
X1567850Y-56479520D01*
X1588893Y-56492132D01*
X1608599Y-56506747D01*
X1626777Y-56523223D01*
X1643253Y-56541401D01*
X1657868Y-56561107D01*
X1670480Y-56582150D01*
X1680970Y-56604329D01*
X1689235Y-56627428D01*
X1695196Y-56651227D01*
X1698796Y-56675495D01*
X1700000Y-56699999D01*
X1700000Y-57600001D01*
X1698796Y-57624505D01*
X1695196Y-57648773D01*
X1689235Y-57672572D01*
X1680970Y-57695671D01*
X1670480Y-57717850D01*
X1657868Y-57738893D01*
X1643253Y-57758599D01*
X1626777Y-57776777D01*
X1608599Y-57793253D01*
X1588893Y-57807868D01*
X1567850Y-57820480D01*
X1545671Y-57830970D01*
X1522572Y-57839235D01*
X1498773Y-57845196D01*
X1474505Y-57848796D01*
X1450001Y-57850000D01*
X799999Y-57850000D01*
X775495Y-57848796D01*
X751227Y-57845196D01*
X727428Y-57839235D01*
X704329Y-57830970D01*
X682150Y-57820480D01*
X661107Y-57807868D01*
X641401Y-57793253D01*
X623223Y-57776777D01*
X606747Y-57758599D01*
X592132Y-57738893D01*
X579520Y-57717850D01*
X569030Y-57695671D01*
X560765Y-57672572D01*
X554804Y-57648773D01*
X551204Y-57624505D01*
X550000Y-57600001D01*
X550000Y-56699999D01*
X551204Y-56675495D01*
X554804Y-56651227D01*
X560765Y-56627428D01*
X569030Y-56604329D01*
X579520Y-56582150D01*
X592132Y-56561107D01*
X606747Y-56541401D01*
X623223Y-56523223D01*
X641401Y-56506747D01*
X661107Y-56492132D01*
X682150Y-56479520D01*
X704329Y-56469030D01*
X727428Y-56460765D01*
X751227Y-56454804D01*
X775495Y-56451204D01*
X799999Y-56450000D01*
X1450001Y-56450000D01*
X1474505Y-56451204D01*
X1474505Y-56451204D01*
G37*
D12*
X1125000Y-57150000D03*
D11*
G36*
X9474505Y-56451204D02*
G01*
X9498773Y-56454804D01*
X9522572Y-56460765D01*
X9545671Y-56469030D01*
X9567850Y-56479520D01*
X9588893Y-56492132D01*
X9608599Y-56506747D01*
X9626777Y-56523223D01*
X9643253Y-56541401D01*
X9657868Y-56561107D01*
X9670480Y-56582150D01*
X9680970Y-56604329D01*
X9689235Y-56627428D01*
X9695196Y-56651227D01*
X9698796Y-56675495D01*
X9700000Y-56699999D01*
X9700000Y-57600001D01*
X9698796Y-57624505D01*
X9695196Y-57648773D01*
X9689235Y-57672572D01*
X9680970Y-57695671D01*
X9670480Y-57717850D01*
X9657868Y-57738893D01*
X9643253Y-57758599D01*
X9626777Y-57776777D01*
X9608599Y-57793253D01*
X9588893Y-57807868D01*
X9567850Y-57820480D01*
X9545671Y-57830970D01*
X9522572Y-57839235D01*
X9498773Y-57845196D01*
X9474505Y-57848796D01*
X9450001Y-57850000D01*
X8799999Y-57850000D01*
X8775495Y-57848796D01*
X8751227Y-57845196D01*
X8727428Y-57839235D01*
X8704329Y-57830970D01*
X8682150Y-57820480D01*
X8661107Y-57807868D01*
X8641401Y-57793253D01*
X8623223Y-57776777D01*
X8606747Y-57758599D01*
X8592132Y-57738893D01*
X8579520Y-57717850D01*
X8569030Y-57695671D01*
X8560765Y-57672572D01*
X8554804Y-57648773D01*
X8551204Y-57624505D01*
X8550000Y-57600001D01*
X8550000Y-56699999D01*
X8551204Y-56675495D01*
X8554804Y-56651227D01*
X8560765Y-56627428D01*
X8569030Y-56604329D01*
X8579520Y-56582150D01*
X8592132Y-56561107D01*
X8606747Y-56541401D01*
X8623223Y-56523223D01*
X8641401Y-56506747D01*
X8661107Y-56492132D01*
X8682150Y-56479520D01*
X8704329Y-56469030D01*
X8727428Y-56460765D01*
X8751227Y-56454804D01*
X8775495Y-56451204D01*
X8799999Y-56450000D01*
X9450001Y-56450000D01*
X9474505Y-56451204D01*
X9474505Y-56451204D01*
G37*
D12*
X9125000Y-57150000D03*
D11*
G36*
X11524505Y-56451204D02*
G01*
X11548773Y-56454804D01*
X11572572Y-56460765D01*
X11595671Y-56469030D01*
X11617850Y-56479520D01*
X11638893Y-56492132D01*
X11658599Y-56506747D01*
X11676777Y-56523223D01*
X11693253Y-56541401D01*
X11707868Y-56561107D01*
X11720480Y-56582150D01*
X11730970Y-56604329D01*
X11739235Y-56627428D01*
X11745196Y-56651227D01*
X11748796Y-56675495D01*
X11750000Y-56699999D01*
X11750000Y-57600001D01*
X11748796Y-57624505D01*
X11745196Y-57648773D01*
X11739235Y-57672572D01*
X11730970Y-57695671D01*
X11720480Y-57717850D01*
X11707868Y-57738893D01*
X11693253Y-57758599D01*
X11676777Y-57776777D01*
X11658599Y-57793253D01*
X11638893Y-57807868D01*
X11617850Y-57820480D01*
X11595671Y-57830970D01*
X11572572Y-57839235D01*
X11548773Y-57845196D01*
X11524505Y-57848796D01*
X11500001Y-57850000D01*
X10849999Y-57850000D01*
X10825495Y-57848796D01*
X10801227Y-57845196D01*
X10777428Y-57839235D01*
X10754329Y-57830970D01*
X10732150Y-57820480D01*
X10711107Y-57807868D01*
X10691401Y-57793253D01*
X10673223Y-57776777D01*
X10656747Y-57758599D01*
X10642132Y-57738893D01*
X10629520Y-57717850D01*
X10619030Y-57695671D01*
X10610765Y-57672572D01*
X10604804Y-57648773D01*
X10601204Y-57624505D01*
X10600000Y-57600001D01*
X10600000Y-56699999D01*
X10601204Y-56675495D01*
X10604804Y-56651227D01*
X10610765Y-56627428D01*
X10619030Y-56604329D01*
X10629520Y-56582150D01*
X10642132Y-56561107D01*
X10656747Y-56541401D01*
X10673223Y-56523223D01*
X10691401Y-56506747D01*
X10711107Y-56492132D01*
X10732150Y-56479520D01*
X10754329Y-56469030D01*
X10777428Y-56460765D01*
X10801227Y-56454804D01*
X10825495Y-56451204D01*
X10849999Y-56450000D01*
X11500001Y-56450000D01*
X11524505Y-56451204D01*
X11524505Y-56451204D01*
G37*
D12*
X11175000Y-57150000D03*
D11*
G36*
X19524505Y-56451204D02*
G01*
X19548773Y-56454804D01*
X19572572Y-56460765D01*
X19595671Y-56469030D01*
X19617850Y-56479520D01*
X19638893Y-56492132D01*
X19658599Y-56506747D01*
X19676777Y-56523223D01*
X19693253Y-56541401D01*
X19707868Y-56561107D01*
X19720480Y-56582150D01*
X19730970Y-56604329D01*
X19739235Y-56627428D01*
X19745196Y-56651227D01*
X19748796Y-56675495D01*
X19750000Y-56699999D01*
X19750000Y-57600001D01*
X19748796Y-57624505D01*
X19745196Y-57648773D01*
X19739235Y-57672572D01*
X19730970Y-57695671D01*
X19720480Y-57717850D01*
X19707868Y-57738893D01*
X19693253Y-57758599D01*
X19676777Y-57776777D01*
X19658599Y-57793253D01*
X19638893Y-57807868D01*
X19617850Y-57820480D01*
X19595671Y-57830970D01*
X19572572Y-57839235D01*
X19548773Y-57845196D01*
X19524505Y-57848796D01*
X19500001Y-57850000D01*
X18849999Y-57850000D01*
X18825495Y-57848796D01*
X18801227Y-57845196D01*
X18777428Y-57839235D01*
X18754329Y-57830970D01*
X18732150Y-57820480D01*
X18711107Y-57807868D01*
X18691401Y-57793253D01*
X18673223Y-57776777D01*
X18656747Y-57758599D01*
X18642132Y-57738893D01*
X18629520Y-57717850D01*
X18619030Y-57695671D01*
X18610765Y-57672572D01*
X18604804Y-57648773D01*
X18601204Y-57624505D01*
X18600000Y-57600001D01*
X18600000Y-56699999D01*
X18601204Y-56675495D01*
X18604804Y-56651227D01*
X18610765Y-56627428D01*
X18619030Y-56604329D01*
X18629520Y-56582150D01*
X18642132Y-56561107D01*
X18656747Y-56541401D01*
X18673223Y-56523223D01*
X18691401Y-56506747D01*
X18711107Y-56492132D01*
X18732150Y-56479520D01*
X18754329Y-56469030D01*
X18777428Y-56460765D01*
X18801227Y-56454804D01*
X18825495Y-56451204D01*
X18849999Y-56450000D01*
X19500001Y-56450000D01*
X19524505Y-56451204D01*
X19524505Y-56451204D01*
G37*
D12*
X19175000Y-57150000D03*
D11*
G36*
X17474505Y-56451204D02*
G01*
X17498773Y-56454804D01*
X17522572Y-56460765D01*
X17545671Y-56469030D01*
X17567850Y-56479520D01*
X17588893Y-56492132D01*
X17608599Y-56506747D01*
X17626777Y-56523223D01*
X17643253Y-56541401D01*
X17657868Y-56561107D01*
X17670480Y-56582150D01*
X17680970Y-56604329D01*
X17689235Y-56627428D01*
X17695196Y-56651227D01*
X17698796Y-56675495D01*
X17700000Y-56699999D01*
X17700000Y-57600001D01*
X17698796Y-57624505D01*
X17695196Y-57648773D01*
X17689235Y-57672572D01*
X17680970Y-57695671D01*
X17670480Y-57717850D01*
X17657868Y-57738893D01*
X17643253Y-57758599D01*
X17626777Y-57776777D01*
X17608599Y-57793253D01*
X17588893Y-57807868D01*
X17567850Y-57820480D01*
X17545671Y-57830970D01*
X17522572Y-57839235D01*
X17498773Y-57845196D01*
X17474505Y-57848796D01*
X17450001Y-57850000D01*
X16799999Y-57850000D01*
X16775495Y-57848796D01*
X16751227Y-57845196D01*
X16727428Y-57839235D01*
X16704329Y-57830970D01*
X16682150Y-57820480D01*
X16661107Y-57807868D01*
X16641401Y-57793253D01*
X16623223Y-57776777D01*
X16606747Y-57758599D01*
X16592132Y-57738893D01*
X16579520Y-57717850D01*
X16569030Y-57695671D01*
X16560765Y-57672572D01*
X16554804Y-57648773D01*
X16551204Y-57624505D01*
X16550000Y-57600001D01*
X16550000Y-56699999D01*
X16551204Y-56675495D01*
X16554804Y-56651227D01*
X16560765Y-56627428D01*
X16569030Y-56604329D01*
X16579520Y-56582150D01*
X16592132Y-56561107D01*
X16606747Y-56541401D01*
X16623223Y-56523223D01*
X16641401Y-56506747D01*
X16661107Y-56492132D01*
X16682150Y-56479520D01*
X16704329Y-56469030D01*
X16727428Y-56460765D01*
X16751227Y-56454804D01*
X16775495Y-56451204D01*
X16799999Y-56450000D01*
X17450001Y-56450000D01*
X17474505Y-56451204D01*
X17474505Y-56451204D01*
G37*
D12*
X17125000Y-57150000D03*
D11*
G36*
X25474505Y-56451204D02*
G01*
X25498773Y-56454804D01*
X25522572Y-56460765D01*
X25545671Y-56469030D01*
X25567850Y-56479520D01*
X25588893Y-56492132D01*
X25608599Y-56506747D01*
X25626777Y-56523223D01*
X25643253Y-56541401D01*
X25657868Y-56561107D01*
X25670480Y-56582150D01*
X25680970Y-56604329D01*
X25689235Y-56627428D01*
X25695196Y-56651227D01*
X25698796Y-56675495D01*
X25700000Y-56699999D01*
X25700000Y-57600001D01*
X25698796Y-57624505D01*
X25695196Y-57648773D01*
X25689235Y-57672572D01*
X25680970Y-57695671D01*
X25670480Y-57717850D01*
X25657868Y-57738893D01*
X25643253Y-57758599D01*
X25626777Y-57776777D01*
X25608599Y-57793253D01*
X25588893Y-57807868D01*
X25567850Y-57820480D01*
X25545671Y-57830970D01*
X25522572Y-57839235D01*
X25498773Y-57845196D01*
X25474505Y-57848796D01*
X25450001Y-57850000D01*
X24799999Y-57850000D01*
X24775495Y-57848796D01*
X24751227Y-57845196D01*
X24727428Y-57839235D01*
X24704329Y-57830970D01*
X24682150Y-57820480D01*
X24661107Y-57807868D01*
X24641401Y-57793253D01*
X24623223Y-57776777D01*
X24606747Y-57758599D01*
X24592132Y-57738893D01*
X24579520Y-57717850D01*
X24569030Y-57695671D01*
X24560765Y-57672572D01*
X24554804Y-57648773D01*
X24551204Y-57624505D01*
X24550000Y-57600001D01*
X24550000Y-56699999D01*
X24551204Y-56675495D01*
X24554804Y-56651227D01*
X24560765Y-56627428D01*
X24569030Y-56604329D01*
X24579520Y-56582150D01*
X24592132Y-56561107D01*
X24606747Y-56541401D01*
X24623223Y-56523223D01*
X24641401Y-56506747D01*
X24661107Y-56492132D01*
X24682150Y-56479520D01*
X24704329Y-56469030D01*
X24727428Y-56460765D01*
X24751227Y-56454804D01*
X24775495Y-56451204D01*
X24799999Y-56450000D01*
X25450001Y-56450000D01*
X25474505Y-56451204D01*
X25474505Y-56451204D01*
G37*
D12*
X25125000Y-57150000D03*
D11*
G36*
X27524505Y-56451204D02*
G01*
X27548773Y-56454804D01*
X27572572Y-56460765D01*
X27595671Y-56469030D01*
X27617850Y-56479520D01*
X27638893Y-56492132D01*
X27658599Y-56506747D01*
X27676777Y-56523223D01*
X27693253Y-56541401D01*
X27707868Y-56561107D01*
X27720480Y-56582150D01*
X27730970Y-56604329D01*
X27739235Y-56627428D01*
X27745196Y-56651227D01*
X27748796Y-56675495D01*
X27750000Y-56699999D01*
X27750000Y-57600001D01*
X27748796Y-57624505D01*
X27745196Y-57648773D01*
X27739235Y-57672572D01*
X27730970Y-57695671D01*
X27720480Y-57717850D01*
X27707868Y-57738893D01*
X27693253Y-57758599D01*
X27676777Y-57776777D01*
X27658599Y-57793253D01*
X27638893Y-57807868D01*
X27617850Y-57820480D01*
X27595671Y-57830970D01*
X27572572Y-57839235D01*
X27548773Y-57845196D01*
X27524505Y-57848796D01*
X27500001Y-57850000D01*
X26849999Y-57850000D01*
X26825495Y-57848796D01*
X26801227Y-57845196D01*
X26777428Y-57839235D01*
X26754329Y-57830970D01*
X26732150Y-57820480D01*
X26711107Y-57807868D01*
X26691401Y-57793253D01*
X26673223Y-57776777D01*
X26656747Y-57758599D01*
X26642132Y-57738893D01*
X26629520Y-57717850D01*
X26619030Y-57695671D01*
X26610765Y-57672572D01*
X26604804Y-57648773D01*
X26601204Y-57624505D01*
X26600000Y-57600001D01*
X26600000Y-56699999D01*
X26601204Y-56675495D01*
X26604804Y-56651227D01*
X26610765Y-56627428D01*
X26619030Y-56604329D01*
X26629520Y-56582150D01*
X26642132Y-56561107D01*
X26656747Y-56541401D01*
X26673223Y-56523223D01*
X26691401Y-56506747D01*
X26711107Y-56492132D01*
X26732150Y-56479520D01*
X26754329Y-56469030D01*
X26777428Y-56460765D01*
X26801227Y-56454804D01*
X26825495Y-56451204D01*
X26849999Y-56450000D01*
X27500001Y-56450000D01*
X27524505Y-56451204D01*
X27524505Y-56451204D01*
G37*
D12*
X27175000Y-57150000D03*
D11*
G36*
X35524505Y-56451204D02*
G01*
X35548773Y-56454804D01*
X35572572Y-56460765D01*
X35595671Y-56469030D01*
X35617850Y-56479520D01*
X35638893Y-56492132D01*
X35658599Y-56506747D01*
X35676777Y-56523223D01*
X35693253Y-56541401D01*
X35707868Y-56561107D01*
X35720480Y-56582150D01*
X35730970Y-56604329D01*
X35739235Y-56627428D01*
X35745196Y-56651227D01*
X35748796Y-56675495D01*
X35750000Y-56699999D01*
X35750000Y-57600001D01*
X35748796Y-57624505D01*
X35745196Y-57648773D01*
X35739235Y-57672572D01*
X35730970Y-57695671D01*
X35720480Y-57717850D01*
X35707868Y-57738893D01*
X35693253Y-57758599D01*
X35676777Y-57776777D01*
X35658599Y-57793253D01*
X35638893Y-57807868D01*
X35617850Y-57820480D01*
X35595671Y-57830970D01*
X35572572Y-57839235D01*
X35548773Y-57845196D01*
X35524505Y-57848796D01*
X35500001Y-57850000D01*
X34849999Y-57850000D01*
X34825495Y-57848796D01*
X34801227Y-57845196D01*
X34777428Y-57839235D01*
X34754329Y-57830970D01*
X34732150Y-57820480D01*
X34711107Y-57807868D01*
X34691401Y-57793253D01*
X34673223Y-57776777D01*
X34656747Y-57758599D01*
X34642132Y-57738893D01*
X34629520Y-57717850D01*
X34619030Y-57695671D01*
X34610765Y-57672572D01*
X34604804Y-57648773D01*
X34601204Y-57624505D01*
X34600000Y-57600001D01*
X34600000Y-56699999D01*
X34601204Y-56675495D01*
X34604804Y-56651227D01*
X34610765Y-56627428D01*
X34619030Y-56604329D01*
X34629520Y-56582150D01*
X34642132Y-56561107D01*
X34656747Y-56541401D01*
X34673223Y-56523223D01*
X34691401Y-56506747D01*
X34711107Y-56492132D01*
X34732150Y-56479520D01*
X34754329Y-56469030D01*
X34777428Y-56460765D01*
X34801227Y-56454804D01*
X34825495Y-56451204D01*
X34849999Y-56450000D01*
X35500001Y-56450000D01*
X35524505Y-56451204D01*
X35524505Y-56451204D01*
G37*
D12*
X35175000Y-57150000D03*
D11*
G36*
X33474505Y-56451204D02*
G01*
X33498773Y-56454804D01*
X33522572Y-56460765D01*
X33545671Y-56469030D01*
X33567850Y-56479520D01*
X33588893Y-56492132D01*
X33608599Y-56506747D01*
X33626777Y-56523223D01*
X33643253Y-56541401D01*
X33657868Y-56561107D01*
X33670480Y-56582150D01*
X33680970Y-56604329D01*
X33689235Y-56627428D01*
X33695196Y-56651227D01*
X33698796Y-56675495D01*
X33700000Y-56699999D01*
X33700000Y-57600001D01*
X33698796Y-57624505D01*
X33695196Y-57648773D01*
X33689235Y-57672572D01*
X33680970Y-57695671D01*
X33670480Y-57717850D01*
X33657868Y-57738893D01*
X33643253Y-57758599D01*
X33626777Y-57776777D01*
X33608599Y-57793253D01*
X33588893Y-57807868D01*
X33567850Y-57820480D01*
X33545671Y-57830970D01*
X33522572Y-57839235D01*
X33498773Y-57845196D01*
X33474505Y-57848796D01*
X33450001Y-57850000D01*
X32799999Y-57850000D01*
X32775495Y-57848796D01*
X32751227Y-57845196D01*
X32727428Y-57839235D01*
X32704329Y-57830970D01*
X32682150Y-57820480D01*
X32661107Y-57807868D01*
X32641401Y-57793253D01*
X32623223Y-57776777D01*
X32606747Y-57758599D01*
X32592132Y-57738893D01*
X32579520Y-57717850D01*
X32569030Y-57695671D01*
X32560765Y-57672572D01*
X32554804Y-57648773D01*
X32551204Y-57624505D01*
X32550000Y-57600001D01*
X32550000Y-56699999D01*
X32551204Y-56675495D01*
X32554804Y-56651227D01*
X32560765Y-56627428D01*
X32569030Y-56604329D01*
X32579520Y-56582150D01*
X32592132Y-56561107D01*
X32606747Y-56541401D01*
X32623223Y-56523223D01*
X32641401Y-56506747D01*
X32661107Y-56492132D01*
X32682150Y-56479520D01*
X32704329Y-56469030D01*
X32727428Y-56460765D01*
X32751227Y-56454804D01*
X32775495Y-56451204D01*
X32799999Y-56450000D01*
X33450001Y-56450000D01*
X33474505Y-56451204D01*
X33474505Y-56451204D01*
G37*
D12*
X33125000Y-57150000D03*
D11*
G36*
X41474505Y-56451204D02*
G01*
X41498773Y-56454804D01*
X41522572Y-56460765D01*
X41545671Y-56469030D01*
X41567850Y-56479520D01*
X41588893Y-56492132D01*
X41608599Y-56506747D01*
X41626777Y-56523223D01*
X41643253Y-56541401D01*
X41657868Y-56561107D01*
X41670480Y-56582150D01*
X41680970Y-56604329D01*
X41689235Y-56627428D01*
X41695196Y-56651227D01*
X41698796Y-56675495D01*
X41700000Y-56699999D01*
X41700000Y-57600001D01*
X41698796Y-57624505D01*
X41695196Y-57648773D01*
X41689235Y-57672572D01*
X41680970Y-57695671D01*
X41670480Y-57717850D01*
X41657868Y-57738893D01*
X41643253Y-57758599D01*
X41626777Y-57776777D01*
X41608599Y-57793253D01*
X41588893Y-57807868D01*
X41567850Y-57820480D01*
X41545671Y-57830970D01*
X41522572Y-57839235D01*
X41498773Y-57845196D01*
X41474505Y-57848796D01*
X41450001Y-57850000D01*
X40799999Y-57850000D01*
X40775495Y-57848796D01*
X40751227Y-57845196D01*
X40727428Y-57839235D01*
X40704329Y-57830970D01*
X40682150Y-57820480D01*
X40661107Y-57807868D01*
X40641401Y-57793253D01*
X40623223Y-57776777D01*
X40606747Y-57758599D01*
X40592132Y-57738893D01*
X40579520Y-57717850D01*
X40569030Y-57695671D01*
X40560765Y-57672572D01*
X40554804Y-57648773D01*
X40551204Y-57624505D01*
X40550000Y-57600001D01*
X40550000Y-56699999D01*
X40551204Y-56675495D01*
X40554804Y-56651227D01*
X40560765Y-56627428D01*
X40569030Y-56604329D01*
X40579520Y-56582150D01*
X40592132Y-56561107D01*
X40606747Y-56541401D01*
X40623223Y-56523223D01*
X40641401Y-56506747D01*
X40661107Y-56492132D01*
X40682150Y-56479520D01*
X40704329Y-56469030D01*
X40727428Y-56460765D01*
X40751227Y-56454804D01*
X40775495Y-56451204D01*
X40799999Y-56450000D01*
X41450001Y-56450000D01*
X41474505Y-56451204D01*
X41474505Y-56451204D01*
G37*
D12*
X41125000Y-57150000D03*
D11*
G36*
X43524505Y-56451204D02*
G01*
X43548773Y-56454804D01*
X43572572Y-56460765D01*
X43595671Y-56469030D01*
X43617850Y-56479520D01*
X43638893Y-56492132D01*
X43658599Y-56506747D01*
X43676777Y-56523223D01*
X43693253Y-56541401D01*
X43707868Y-56561107D01*
X43720480Y-56582150D01*
X43730970Y-56604329D01*
X43739235Y-56627428D01*
X43745196Y-56651227D01*
X43748796Y-56675495D01*
X43750000Y-56699999D01*
X43750000Y-57600001D01*
X43748796Y-57624505D01*
X43745196Y-57648773D01*
X43739235Y-57672572D01*
X43730970Y-57695671D01*
X43720480Y-57717850D01*
X43707868Y-57738893D01*
X43693253Y-57758599D01*
X43676777Y-57776777D01*
X43658599Y-57793253D01*
X43638893Y-57807868D01*
X43617850Y-57820480D01*
X43595671Y-57830970D01*
X43572572Y-57839235D01*
X43548773Y-57845196D01*
X43524505Y-57848796D01*
X43500001Y-57850000D01*
X42849999Y-57850000D01*
X42825495Y-57848796D01*
X42801227Y-57845196D01*
X42777428Y-57839235D01*
X42754329Y-57830970D01*
X42732150Y-57820480D01*
X42711107Y-57807868D01*
X42691401Y-57793253D01*
X42673223Y-57776777D01*
X42656747Y-57758599D01*
X42642132Y-57738893D01*
X42629520Y-57717850D01*
X42619030Y-57695671D01*
X42610765Y-57672572D01*
X42604804Y-57648773D01*
X42601204Y-57624505D01*
X42600000Y-57600001D01*
X42600000Y-56699999D01*
X42601204Y-56675495D01*
X42604804Y-56651227D01*
X42610765Y-56627428D01*
X42619030Y-56604329D01*
X42629520Y-56582150D01*
X42642132Y-56561107D01*
X42656747Y-56541401D01*
X42673223Y-56523223D01*
X42691401Y-56506747D01*
X42711107Y-56492132D01*
X42732150Y-56479520D01*
X42754329Y-56469030D01*
X42777428Y-56460765D01*
X42801227Y-56454804D01*
X42825495Y-56451204D01*
X42849999Y-56450000D01*
X43500001Y-56450000D01*
X43524505Y-56451204D01*
X43524505Y-56451204D01*
G37*
D12*
X43175000Y-57150000D03*
D11*
G36*
X51524505Y-56451204D02*
G01*
X51548773Y-56454804D01*
X51572572Y-56460765D01*
X51595671Y-56469030D01*
X51617850Y-56479520D01*
X51638893Y-56492132D01*
X51658599Y-56506747D01*
X51676777Y-56523223D01*
X51693253Y-56541401D01*
X51707868Y-56561107D01*
X51720480Y-56582150D01*
X51730970Y-56604329D01*
X51739235Y-56627428D01*
X51745196Y-56651227D01*
X51748796Y-56675495D01*
X51750000Y-56699999D01*
X51750000Y-57600001D01*
X51748796Y-57624505D01*
X51745196Y-57648773D01*
X51739235Y-57672572D01*
X51730970Y-57695671D01*
X51720480Y-57717850D01*
X51707868Y-57738893D01*
X51693253Y-57758599D01*
X51676777Y-57776777D01*
X51658599Y-57793253D01*
X51638893Y-57807868D01*
X51617850Y-57820480D01*
X51595671Y-57830970D01*
X51572572Y-57839235D01*
X51548773Y-57845196D01*
X51524505Y-57848796D01*
X51500001Y-57850000D01*
X50849999Y-57850000D01*
X50825495Y-57848796D01*
X50801227Y-57845196D01*
X50777428Y-57839235D01*
X50754329Y-57830970D01*
X50732150Y-57820480D01*
X50711107Y-57807868D01*
X50691401Y-57793253D01*
X50673223Y-57776777D01*
X50656747Y-57758599D01*
X50642132Y-57738893D01*
X50629520Y-57717850D01*
X50619030Y-57695671D01*
X50610765Y-57672572D01*
X50604804Y-57648773D01*
X50601204Y-57624505D01*
X50600000Y-57600001D01*
X50600000Y-56699999D01*
X50601204Y-56675495D01*
X50604804Y-56651227D01*
X50610765Y-56627428D01*
X50619030Y-56604329D01*
X50629520Y-56582150D01*
X50642132Y-56561107D01*
X50656747Y-56541401D01*
X50673223Y-56523223D01*
X50691401Y-56506747D01*
X50711107Y-56492132D01*
X50732150Y-56479520D01*
X50754329Y-56469030D01*
X50777428Y-56460765D01*
X50801227Y-56454804D01*
X50825495Y-56451204D01*
X50849999Y-56450000D01*
X51500001Y-56450000D01*
X51524505Y-56451204D01*
X51524505Y-56451204D01*
G37*
D12*
X51175000Y-57150000D03*
D11*
G36*
X49474505Y-56451204D02*
G01*
X49498773Y-56454804D01*
X49522572Y-56460765D01*
X49545671Y-56469030D01*
X49567850Y-56479520D01*
X49588893Y-56492132D01*
X49608599Y-56506747D01*
X49626777Y-56523223D01*
X49643253Y-56541401D01*
X49657868Y-56561107D01*
X49670480Y-56582150D01*
X49680970Y-56604329D01*
X49689235Y-56627428D01*
X49695196Y-56651227D01*
X49698796Y-56675495D01*
X49700000Y-56699999D01*
X49700000Y-57600001D01*
X49698796Y-57624505D01*
X49695196Y-57648773D01*
X49689235Y-57672572D01*
X49680970Y-57695671D01*
X49670480Y-57717850D01*
X49657868Y-57738893D01*
X49643253Y-57758599D01*
X49626777Y-57776777D01*
X49608599Y-57793253D01*
X49588893Y-57807868D01*
X49567850Y-57820480D01*
X49545671Y-57830970D01*
X49522572Y-57839235D01*
X49498773Y-57845196D01*
X49474505Y-57848796D01*
X49450001Y-57850000D01*
X48799999Y-57850000D01*
X48775495Y-57848796D01*
X48751227Y-57845196D01*
X48727428Y-57839235D01*
X48704329Y-57830970D01*
X48682150Y-57820480D01*
X48661107Y-57807868D01*
X48641401Y-57793253D01*
X48623223Y-57776777D01*
X48606747Y-57758599D01*
X48592132Y-57738893D01*
X48579520Y-57717850D01*
X48569030Y-57695671D01*
X48560765Y-57672572D01*
X48554804Y-57648773D01*
X48551204Y-57624505D01*
X48550000Y-57600001D01*
X48550000Y-56699999D01*
X48551204Y-56675495D01*
X48554804Y-56651227D01*
X48560765Y-56627428D01*
X48569030Y-56604329D01*
X48579520Y-56582150D01*
X48592132Y-56561107D01*
X48606747Y-56541401D01*
X48623223Y-56523223D01*
X48641401Y-56506747D01*
X48661107Y-56492132D01*
X48682150Y-56479520D01*
X48704329Y-56469030D01*
X48727428Y-56460765D01*
X48751227Y-56454804D01*
X48775495Y-56451204D01*
X48799999Y-56450000D01*
X49450001Y-56450000D01*
X49474505Y-56451204D01*
X49474505Y-56451204D01*
G37*
D12*
X49125000Y-57150000D03*
D11*
G36*
X59524505Y-56451204D02*
G01*
X59548773Y-56454804D01*
X59572572Y-56460765D01*
X59595671Y-56469030D01*
X59617850Y-56479520D01*
X59638893Y-56492132D01*
X59658599Y-56506747D01*
X59676777Y-56523223D01*
X59693253Y-56541401D01*
X59707868Y-56561107D01*
X59720480Y-56582150D01*
X59730970Y-56604329D01*
X59739235Y-56627428D01*
X59745196Y-56651227D01*
X59748796Y-56675495D01*
X59750000Y-56699999D01*
X59750000Y-57600001D01*
X59748796Y-57624505D01*
X59745196Y-57648773D01*
X59739235Y-57672572D01*
X59730970Y-57695671D01*
X59720480Y-57717850D01*
X59707868Y-57738893D01*
X59693253Y-57758599D01*
X59676777Y-57776777D01*
X59658599Y-57793253D01*
X59638893Y-57807868D01*
X59617850Y-57820480D01*
X59595671Y-57830970D01*
X59572572Y-57839235D01*
X59548773Y-57845196D01*
X59524505Y-57848796D01*
X59500001Y-57850000D01*
X58849999Y-57850000D01*
X58825495Y-57848796D01*
X58801227Y-57845196D01*
X58777428Y-57839235D01*
X58754329Y-57830970D01*
X58732150Y-57820480D01*
X58711107Y-57807868D01*
X58691401Y-57793253D01*
X58673223Y-57776777D01*
X58656747Y-57758599D01*
X58642132Y-57738893D01*
X58629520Y-57717850D01*
X58619030Y-57695671D01*
X58610765Y-57672572D01*
X58604804Y-57648773D01*
X58601204Y-57624505D01*
X58600000Y-57600001D01*
X58600000Y-56699999D01*
X58601204Y-56675495D01*
X58604804Y-56651227D01*
X58610765Y-56627428D01*
X58619030Y-56604329D01*
X58629520Y-56582150D01*
X58642132Y-56561107D01*
X58656747Y-56541401D01*
X58673223Y-56523223D01*
X58691401Y-56506747D01*
X58711107Y-56492132D01*
X58732150Y-56479520D01*
X58754329Y-56469030D01*
X58777428Y-56460765D01*
X58801227Y-56454804D01*
X58825495Y-56451204D01*
X58849999Y-56450000D01*
X59500001Y-56450000D01*
X59524505Y-56451204D01*
X59524505Y-56451204D01*
G37*
D12*
X59175000Y-57150000D03*
D11*
G36*
X57474505Y-56451204D02*
G01*
X57498773Y-56454804D01*
X57522572Y-56460765D01*
X57545671Y-56469030D01*
X57567850Y-56479520D01*
X57588893Y-56492132D01*
X57608599Y-56506747D01*
X57626777Y-56523223D01*
X57643253Y-56541401D01*
X57657868Y-56561107D01*
X57670480Y-56582150D01*
X57680970Y-56604329D01*
X57689235Y-56627428D01*
X57695196Y-56651227D01*
X57698796Y-56675495D01*
X57700000Y-56699999D01*
X57700000Y-57600001D01*
X57698796Y-57624505D01*
X57695196Y-57648773D01*
X57689235Y-57672572D01*
X57680970Y-57695671D01*
X57670480Y-57717850D01*
X57657868Y-57738893D01*
X57643253Y-57758599D01*
X57626777Y-57776777D01*
X57608599Y-57793253D01*
X57588893Y-57807868D01*
X57567850Y-57820480D01*
X57545671Y-57830970D01*
X57522572Y-57839235D01*
X57498773Y-57845196D01*
X57474505Y-57848796D01*
X57450001Y-57850000D01*
X56799999Y-57850000D01*
X56775495Y-57848796D01*
X56751227Y-57845196D01*
X56727428Y-57839235D01*
X56704329Y-57830970D01*
X56682150Y-57820480D01*
X56661107Y-57807868D01*
X56641401Y-57793253D01*
X56623223Y-57776777D01*
X56606747Y-57758599D01*
X56592132Y-57738893D01*
X56579520Y-57717850D01*
X56569030Y-57695671D01*
X56560765Y-57672572D01*
X56554804Y-57648773D01*
X56551204Y-57624505D01*
X56550000Y-57600001D01*
X56550000Y-56699999D01*
X56551204Y-56675495D01*
X56554804Y-56651227D01*
X56560765Y-56627428D01*
X56569030Y-56604329D01*
X56579520Y-56582150D01*
X56592132Y-56561107D01*
X56606747Y-56541401D01*
X56623223Y-56523223D01*
X56641401Y-56506747D01*
X56661107Y-56492132D01*
X56682150Y-56479520D01*
X56704329Y-56469030D01*
X56727428Y-56460765D01*
X56751227Y-56454804D01*
X56775495Y-56451204D01*
X56799999Y-56450000D01*
X57450001Y-56450000D01*
X57474505Y-56451204D01*
X57474505Y-56451204D01*
G37*
D12*
X57125000Y-57150000D03*
D11*
G36*
X-475495Y-52601204D02*
G01*
X-451227Y-52604804D01*
X-427428Y-52610765D01*
X-404329Y-52619030D01*
X-382150Y-52629520D01*
X-361107Y-52642132D01*
X-341401Y-52656747D01*
X-323223Y-52673223D01*
X-306747Y-52691401D01*
X-292132Y-52711107D01*
X-279520Y-52732150D01*
X-269030Y-52754329D01*
X-260765Y-52777428D01*
X-254804Y-52801227D01*
X-251204Y-52825495D01*
X-250000Y-52849999D01*
X-250000Y-53750001D01*
X-251204Y-53774505D01*
X-254804Y-53798773D01*
X-260765Y-53822572D01*
X-269030Y-53845671D01*
X-279520Y-53867850D01*
X-292132Y-53888893D01*
X-306747Y-53908599D01*
X-323223Y-53926777D01*
X-341401Y-53943253D01*
X-361107Y-53957868D01*
X-382150Y-53970480D01*
X-404329Y-53980970D01*
X-427428Y-53989235D01*
X-451227Y-53995196D01*
X-475495Y-53998796D01*
X-499999Y-54000000D01*
X-1150001Y-54000000D01*
X-1174505Y-53998796D01*
X-1198773Y-53995196D01*
X-1222572Y-53989235D01*
X-1245671Y-53980970D01*
X-1267850Y-53970480D01*
X-1288893Y-53957868D01*
X-1308599Y-53943253D01*
X-1326777Y-53926777D01*
X-1343253Y-53908599D01*
X-1357868Y-53888893D01*
X-1370480Y-53867850D01*
X-1380970Y-53845671D01*
X-1389235Y-53822572D01*
X-1395196Y-53798773D01*
X-1398796Y-53774505D01*
X-1400000Y-53750001D01*
X-1400000Y-52849999D01*
X-1398796Y-52825495D01*
X-1395196Y-52801227D01*
X-1389235Y-52777428D01*
X-1380970Y-52754329D01*
X-1370480Y-52732150D01*
X-1357868Y-52711107D01*
X-1343253Y-52691401D01*
X-1326777Y-52673223D01*
X-1308599Y-52656747D01*
X-1288893Y-52642132D01*
X-1267850Y-52629520D01*
X-1245671Y-52619030D01*
X-1222572Y-52610765D01*
X-1198773Y-52604804D01*
X-1174505Y-52601204D01*
X-1150001Y-52600000D01*
X-499999Y-52600000D01*
X-475495Y-52601204D01*
X-475495Y-52601204D01*
G37*
D12*
X-825000Y-53300000D03*
D11*
G36*
X-2525495Y-52601204D02*
G01*
X-2501227Y-52604804D01*
X-2477428Y-52610765D01*
X-2454329Y-52619030D01*
X-2432150Y-52629520D01*
X-2411107Y-52642132D01*
X-2391401Y-52656747D01*
X-2373223Y-52673223D01*
X-2356747Y-52691401D01*
X-2342132Y-52711107D01*
X-2329520Y-52732150D01*
X-2319030Y-52754329D01*
X-2310765Y-52777428D01*
X-2304804Y-52801227D01*
X-2301204Y-52825495D01*
X-2300000Y-52849999D01*
X-2300000Y-53750001D01*
X-2301204Y-53774505D01*
X-2304804Y-53798773D01*
X-2310765Y-53822572D01*
X-2319030Y-53845671D01*
X-2329520Y-53867850D01*
X-2342132Y-53888893D01*
X-2356747Y-53908599D01*
X-2373223Y-53926777D01*
X-2391401Y-53943253D01*
X-2411107Y-53957868D01*
X-2432150Y-53970480D01*
X-2454329Y-53980970D01*
X-2477428Y-53989235D01*
X-2501227Y-53995196D01*
X-2525495Y-53998796D01*
X-2549999Y-54000000D01*
X-3200001Y-54000000D01*
X-3224505Y-53998796D01*
X-3248773Y-53995196D01*
X-3272572Y-53989235D01*
X-3295671Y-53980970D01*
X-3317850Y-53970480D01*
X-3338893Y-53957868D01*
X-3358599Y-53943253D01*
X-3376777Y-53926777D01*
X-3393253Y-53908599D01*
X-3407868Y-53888893D01*
X-3420480Y-53867850D01*
X-3430970Y-53845671D01*
X-3439235Y-53822572D01*
X-3445196Y-53798773D01*
X-3448796Y-53774505D01*
X-3450000Y-53750001D01*
X-3450000Y-52849999D01*
X-3448796Y-52825495D01*
X-3445196Y-52801227D01*
X-3439235Y-52777428D01*
X-3430970Y-52754329D01*
X-3420480Y-52732150D01*
X-3407868Y-52711107D01*
X-3393253Y-52691401D01*
X-3376777Y-52673223D01*
X-3358599Y-52656747D01*
X-3338893Y-52642132D01*
X-3317850Y-52629520D01*
X-3295671Y-52619030D01*
X-3272572Y-52610765D01*
X-3248773Y-52604804D01*
X-3224505Y-52601204D01*
X-3200001Y-52600000D01*
X-2549999Y-52600000D01*
X-2525495Y-52601204D01*
X-2525495Y-52601204D01*
G37*
D12*
X-2875000Y-53300000D03*
D11*
G36*
X7524505Y-52601204D02*
G01*
X7548773Y-52604804D01*
X7572572Y-52610765D01*
X7595671Y-52619030D01*
X7617850Y-52629520D01*
X7638893Y-52642132D01*
X7658599Y-52656747D01*
X7676777Y-52673223D01*
X7693253Y-52691401D01*
X7707868Y-52711107D01*
X7720480Y-52732150D01*
X7730970Y-52754329D01*
X7739235Y-52777428D01*
X7745196Y-52801227D01*
X7748796Y-52825495D01*
X7750000Y-52849999D01*
X7750000Y-53750001D01*
X7748796Y-53774505D01*
X7745196Y-53798773D01*
X7739235Y-53822572D01*
X7730970Y-53845671D01*
X7720480Y-53867850D01*
X7707868Y-53888893D01*
X7693253Y-53908599D01*
X7676777Y-53926777D01*
X7658599Y-53943253D01*
X7638893Y-53957868D01*
X7617850Y-53970480D01*
X7595671Y-53980970D01*
X7572572Y-53989235D01*
X7548773Y-53995196D01*
X7524505Y-53998796D01*
X7500001Y-54000000D01*
X6849999Y-54000000D01*
X6825495Y-53998796D01*
X6801227Y-53995196D01*
X6777428Y-53989235D01*
X6754329Y-53980970D01*
X6732150Y-53970480D01*
X6711107Y-53957868D01*
X6691401Y-53943253D01*
X6673223Y-53926777D01*
X6656747Y-53908599D01*
X6642132Y-53888893D01*
X6629520Y-53867850D01*
X6619030Y-53845671D01*
X6610765Y-53822572D01*
X6604804Y-53798773D01*
X6601204Y-53774505D01*
X6600000Y-53750001D01*
X6600000Y-52849999D01*
X6601204Y-52825495D01*
X6604804Y-52801227D01*
X6610765Y-52777428D01*
X6619030Y-52754329D01*
X6629520Y-52732150D01*
X6642132Y-52711107D01*
X6656747Y-52691401D01*
X6673223Y-52673223D01*
X6691401Y-52656747D01*
X6711107Y-52642132D01*
X6732150Y-52629520D01*
X6754329Y-52619030D01*
X6777428Y-52610765D01*
X6801227Y-52604804D01*
X6825495Y-52601204D01*
X6849999Y-52600000D01*
X7500001Y-52600000D01*
X7524505Y-52601204D01*
X7524505Y-52601204D01*
G37*
D12*
X7175000Y-53300000D03*
D11*
G36*
X5474505Y-52601204D02*
G01*
X5498773Y-52604804D01*
X5522572Y-52610765D01*
X5545671Y-52619030D01*
X5567850Y-52629520D01*
X5588893Y-52642132D01*
X5608599Y-52656747D01*
X5626777Y-52673223D01*
X5643253Y-52691401D01*
X5657868Y-52711107D01*
X5670480Y-52732150D01*
X5680970Y-52754329D01*
X5689235Y-52777428D01*
X5695196Y-52801227D01*
X5698796Y-52825495D01*
X5700000Y-52849999D01*
X5700000Y-53750001D01*
X5698796Y-53774505D01*
X5695196Y-53798773D01*
X5689235Y-53822572D01*
X5680970Y-53845671D01*
X5670480Y-53867850D01*
X5657868Y-53888893D01*
X5643253Y-53908599D01*
X5626777Y-53926777D01*
X5608599Y-53943253D01*
X5588893Y-53957868D01*
X5567850Y-53970480D01*
X5545671Y-53980970D01*
X5522572Y-53989235D01*
X5498773Y-53995196D01*
X5474505Y-53998796D01*
X5450001Y-54000000D01*
X4799999Y-54000000D01*
X4775495Y-53998796D01*
X4751227Y-53995196D01*
X4727428Y-53989235D01*
X4704329Y-53980970D01*
X4682150Y-53970480D01*
X4661107Y-53957868D01*
X4641401Y-53943253D01*
X4623223Y-53926777D01*
X4606747Y-53908599D01*
X4592132Y-53888893D01*
X4579520Y-53867850D01*
X4569030Y-53845671D01*
X4560765Y-53822572D01*
X4554804Y-53798773D01*
X4551204Y-53774505D01*
X4550000Y-53750001D01*
X4550000Y-52849999D01*
X4551204Y-52825495D01*
X4554804Y-52801227D01*
X4560765Y-52777428D01*
X4569030Y-52754329D01*
X4579520Y-52732150D01*
X4592132Y-52711107D01*
X4606747Y-52691401D01*
X4623223Y-52673223D01*
X4641401Y-52656747D01*
X4661107Y-52642132D01*
X4682150Y-52629520D01*
X4704329Y-52619030D01*
X4727428Y-52610765D01*
X4751227Y-52604804D01*
X4775495Y-52601204D01*
X4799999Y-52600000D01*
X5450001Y-52600000D01*
X5474505Y-52601204D01*
X5474505Y-52601204D01*
G37*
D12*
X5125000Y-53300000D03*
D11*
G36*
X13474505Y-52601204D02*
G01*
X13498773Y-52604804D01*
X13522572Y-52610765D01*
X13545671Y-52619030D01*
X13567850Y-52629520D01*
X13588893Y-52642132D01*
X13608599Y-52656747D01*
X13626777Y-52673223D01*
X13643253Y-52691401D01*
X13657868Y-52711107D01*
X13670480Y-52732150D01*
X13680970Y-52754329D01*
X13689235Y-52777428D01*
X13695196Y-52801227D01*
X13698796Y-52825495D01*
X13700000Y-52849999D01*
X13700000Y-53750001D01*
X13698796Y-53774505D01*
X13695196Y-53798773D01*
X13689235Y-53822572D01*
X13680970Y-53845671D01*
X13670480Y-53867850D01*
X13657868Y-53888893D01*
X13643253Y-53908599D01*
X13626777Y-53926777D01*
X13608599Y-53943253D01*
X13588893Y-53957868D01*
X13567850Y-53970480D01*
X13545671Y-53980970D01*
X13522572Y-53989235D01*
X13498773Y-53995196D01*
X13474505Y-53998796D01*
X13450001Y-54000000D01*
X12799999Y-54000000D01*
X12775495Y-53998796D01*
X12751227Y-53995196D01*
X12727428Y-53989235D01*
X12704329Y-53980970D01*
X12682150Y-53970480D01*
X12661107Y-53957868D01*
X12641401Y-53943253D01*
X12623223Y-53926777D01*
X12606747Y-53908599D01*
X12592132Y-53888893D01*
X12579520Y-53867850D01*
X12569030Y-53845671D01*
X12560765Y-53822572D01*
X12554804Y-53798773D01*
X12551204Y-53774505D01*
X12550000Y-53750001D01*
X12550000Y-52849999D01*
X12551204Y-52825495D01*
X12554804Y-52801227D01*
X12560765Y-52777428D01*
X12569030Y-52754329D01*
X12579520Y-52732150D01*
X12592132Y-52711107D01*
X12606747Y-52691401D01*
X12623223Y-52673223D01*
X12641401Y-52656747D01*
X12661107Y-52642132D01*
X12682150Y-52629520D01*
X12704329Y-52619030D01*
X12727428Y-52610765D01*
X12751227Y-52604804D01*
X12775495Y-52601204D01*
X12799999Y-52600000D01*
X13450001Y-52600000D01*
X13474505Y-52601204D01*
X13474505Y-52601204D01*
G37*
D12*
X13125000Y-53300000D03*
D11*
G36*
X15524505Y-52601204D02*
G01*
X15548773Y-52604804D01*
X15572572Y-52610765D01*
X15595671Y-52619030D01*
X15617850Y-52629520D01*
X15638893Y-52642132D01*
X15658599Y-52656747D01*
X15676777Y-52673223D01*
X15693253Y-52691401D01*
X15707868Y-52711107D01*
X15720480Y-52732150D01*
X15730970Y-52754329D01*
X15739235Y-52777428D01*
X15745196Y-52801227D01*
X15748796Y-52825495D01*
X15750000Y-52849999D01*
X15750000Y-53750001D01*
X15748796Y-53774505D01*
X15745196Y-53798773D01*
X15739235Y-53822572D01*
X15730970Y-53845671D01*
X15720480Y-53867850D01*
X15707868Y-53888893D01*
X15693253Y-53908599D01*
X15676777Y-53926777D01*
X15658599Y-53943253D01*
X15638893Y-53957868D01*
X15617850Y-53970480D01*
X15595671Y-53980970D01*
X15572572Y-53989235D01*
X15548773Y-53995196D01*
X15524505Y-53998796D01*
X15500001Y-54000000D01*
X14849999Y-54000000D01*
X14825495Y-53998796D01*
X14801227Y-53995196D01*
X14777428Y-53989235D01*
X14754329Y-53980970D01*
X14732150Y-53970480D01*
X14711107Y-53957868D01*
X14691401Y-53943253D01*
X14673223Y-53926777D01*
X14656747Y-53908599D01*
X14642132Y-53888893D01*
X14629520Y-53867850D01*
X14619030Y-53845671D01*
X14610765Y-53822572D01*
X14604804Y-53798773D01*
X14601204Y-53774505D01*
X14600000Y-53750001D01*
X14600000Y-52849999D01*
X14601204Y-52825495D01*
X14604804Y-52801227D01*
X14610765Y-52777428D01*
X14619030Y-52754329D01*
X14629520Y-52732150D01*
X14642132Y-52711107D01*
X14656747Y-52691401D01*
X14673223Y-52673223D01*
X14691401Y-52656747D01*
X14711107Y-52642132D01*
X14732150Y-52629520D01*
X14754329Y-52619030D01*
X14777428Y-52610765D01*
X14801227Y-52604804D01*
X14825495Y-52601204D01*
X14849999Y-52600000D01*
X15500001Y-52600000D01*
X15524505Y-52601204D01*
X15524505Y-52601204D01*
G37*
D12*
X15175000Y-53300000D03*
D11*
G36*
X21474505Y-52601204D02*
G01*
X21498773Y-52604804D01*
X21522572Y-52610765D01*
X21545671Y-52619030D01*
X21567850Y-52629520D01*
X21588893Y-52642132D01*
X21608599Y-52656747D01*
X21626777Y-52673223D01*
X21643253Y-52691401D01*
X21657868Y-52711107D01*
X21670480Y-52732150D01*
X21680970Y-52754329D01*
X21689235Y-52777428D01*
X21695196Y-52801227D01*
X21698796Y-52825495D01*
X21700000Y-52849999D01*
X21700000Y-53750001D01*
X21698796Y-53774505D01*
X21695196Y-53798773D01*
X21689235Y-53822572D01*
X21680970Y-53845671D01*
X21670480Y-53867850D01*
X21657868Y-53888893D01*
X21643253Y-53908599D01*
X21626777Y-53926777D01*
X21608599Y-53943253D01*
X21588893Y-53957868D01*
X21567850Y-53970480D01*
X21545671Y-53980970D01*
X21522572Y-53989235D01*
X21498773Y-53995196D01*
X21474505Y-53998796D01*
X21450001Y-54000000D01*
X20799999Y-54000000D01*
X20775495Y-53998796D01*
X20751227Y-53995196D01*
X20727428Y-53989235D01*
X20704329Y-53980970D01*
X20682150Y-53970480D01*
X20661107Y-53957868D01*
X20641401Y-53943253D01*
X20623223Y-53926777D01*
X20606747Y-53908599D01*
X20592132Y-53888893D01*
X20579520Y-53867850D01*
X20569030Y-53845671D01*
X20560765Y-53822572D01*
X20554804Y-53798773D01*
X20551204Y-53774505D01*
X20550000Y-53750001D01*
X20550000Y-52849999D01*
X20551204Y-52825495D01*
X20554804Y-52801227D01*
X20560765Y-52777428D01*
X20569030Y-52754329D01*
X20579520Y-52732150D01*
X20592132Y-52711107D01*
X20606747Y-52691401D01*
X20623223Y-52673223D01*
X20641401Y-52656747D01*
X20661107Y-52642132D01*
X20682150Y-52629520D01*
X20704329Y-52619030D01*
X20727428Y-52610765D01*
X20751227Y-52604804D01*
X20775495Y-52601204D01*
X20799999Y-52600000D01*
X21450001Y-52600000D01*
X21474505Y-52601204D01*
X21474505Y-52601204D01*
G37*
D12*
X21125000Y-53300000D03*
D11*
G36*
X23524505Y-52601204D02*
G01*
X23548773Y-52604804D01*
X23572572Y-52610765D01*
X23595671Y-52619030D01*
X23617850Y-52629520D01*
X23638893Y-52642132D01*
X23658599Y-52656747D01*
X23676777Y-52673223D01*
X23693253Y-52691401D01*
X23707868Y-52711107D01*
X23720480Y-52732150D01*
X23730970Y-52754329D01*
X23739235Y-52777428D01*
X23745196Y-52801227D01*
X23748796Y-52825495D01*
X23750000Y-52849999D01*
X23750000Y-53750001D01*
X23748796Y-53774505D01*
X23745196Y-53798773D01*
X23739235Y-53822572D01*
X23730970Y-53845671D01*
X23720480Y-53867850D01*
X23707868Y-53888893D01*
X23693253Y-53908599D01*
X23676777Y-53926777D01*
X23658599Y-53943253D01*
X23638893Y-53957868D01*
X23617850Y-53970480D01*
X23595671Y-53980970D01*
X23572572Y-53989235D01*
X23548773Y-53995196D01*
X23524505Y-53998796D01*
X23500001Y-54000000D01*
X22849999Y-54000000D01*
X22825495Y-53998796D01*
X22801227Y-53995196D01*
X22777428Y-53989235D01*
X22754329Y-53980970D01*
X22732150Y-53970480D01*
X22711107Y-53957868D01*
X22691401Y-53943253D01*
X22673223Y-53926777D01*
X22656747Y-53908599D01*
X22642132Y-53888893D01*
X22629520Y-53867850D01*
X22619030Y-53845671D01*
X22610765Y-53822572D01*
X22604804Y-53798773D01*
X22601204Y-53774505D01*
X22600000Y-53750001D01*
X22600000Y-52849999D01*
X22601204Y-52825495D01*
X22604804Y-52801227D01*
X22610765Y-52777428D01*
X22619030Y-52754329D01*
X22629520Y-52732150D01*
X22642132Y-52711107D01*
X22656747Y-52691401D01*
X22673223Y-52673223D01*
X22691401Y-52656747D01*
X22711107Y-52642132D01*
X22732150Y-52629520D01*
X22754329Y-52619030D01*
X22777428Y-52610765D01*
X22801227Y-52604804D01*
X22825495Y-52601204D01*
X22849999Y-52600000D01*
X23500001Y-52600000D01*
X23524505Y-52601204D01*
X23524505Y-52601204D01*
G37*
D12*
X23175000Y-53300000D03*
D11*
G36*
X29474505Y-52601204D02*
G01*
X29498773Y-52604804D01*
X29522572Y-52610765D01*
X29545671Y-52619030D01*
X29567850Y-52629520D01*
X29588893Y-52642132D01*
X29608599Y-52656747D01*
X29626777Y-52673223D01*
X29643253Y-52691401D01*
X29657868Y-52711107D01*
X29670480Y-52732150D01*
X29680970Y-52754329D01*
X29689235Y-52777428D01*
X29695196Y-52801227D01*
X29698796Y-52825495D01*
X29700000Y-52849999D01*
X29700000Y-53750001D01*
X29698796Y-53774505D01*
X29695196Y-53798773D01*
X29689235Y-53822572D01*
X29680970Y-53845671D01*
X29670480Y-53867850D01*
X29657868Y-53888893D01*
X29643253Y-53908599D01*
X29626777Y-53926777D01*
X29608599Y-53943253D01*
X29588893Y-53957868D01*
X29567850Y-53970480D01*
X29545671Y-53980970D01*
X29522572Y-53989235D01*
X29498773Y-53995196D01*
X29474505Y-53998796D01*
X29450001Y-54000000D01*
X28799999Y-54000000D01*
X28775495Y-53998796D01*
X28751227Y-53995196D01*
X28727428Y-53989235D01*
X28704329Y-53980970D01*
X28682150Y-53970480D01*
X28661107Y-53957868D01*
X28641401Y-53943253D01*
X28623223Y-53926777D01*
X28606747Y-53908599D01*
X28592132Y-53888893D01*
X28579520Y-53867850D01*
X28569030Y-53845671D01*
X28560765Y-53822572D01*
X28554804Y-53798773D01*
X28551204Y-53774505D01*
X28550000Y-53750001D01*
X28550000Y-52849999D01*
X28551204Y-52825495D01*
X28554804Y-52801227D01*
X28560765Y-52777428D01*
X28569030Y-52754329D01*
X28579520Y-52732150D01*
X28592132Y-52711107D01*
X28606747Y-52691401D01*
X28623223Y-52673223D01*
X28641401Y-52656747D01*
X28661107Y-52642132D01*
X28682150Y-52629520D01*
X28704329Y-52619030D01*
X28727428Y-52610765D01*
X28751227Y-52604804D01*
X28775495Y-52601204D01*
X28799999Y-52600000D01*
X29450001Y-52600000D01*
X29474505Y-52601204D01*
X29474505Y-52601204D01*
G37*
D12*
X29125000Y-53300000D03*
D11*
G36*
X31524505Y-52601204D02*
G01*
X31548773Y-52604804D01*
X31572572Y-52610765D01*
X31595671Y-52619030D01*
X31617850Y-52629520D01*
X31638893Y-52642132D01*
X31658599Y-52656747D01*
X31676777Y-52673223D01*
X31693253Y-52691401D01*
X31707868Y-52711107D01*
X31720480Y-52732150D01*
X31730970Y-52754329D01*
X31739235Y-52777428D01*
X31745196Y-52801227D01*
X31748796Y-52825495D01*
X31750000Y-52849999D01*
X31750000Y-53750001D01*
X31748796Y-53774505D01*
X31745196Y-53798773D01*
X31739235Y-53822572D01*
X31730970Y-53845671D01*
X31720480Y-53867850D01*
X31707868Y-53888893D01*
X31693253Y-53908599D01*
X31676777Y-53926777D01*
X31658599Y-53943253D01*
X31638893Y-53957868D01*
X31617850Y-53970480D01*
X31595671Y-53980970D01*
X31572572Y-53989235D01*
X31548773Y-53995196D01*
X31524505Y-53998796D01*
X31500001Y-54000000D01*
X30849999Y-54000000D01*
X30825495Y-53998796D01*
X30801227Y-53995196D01*
X30777428Y-53989235D01*
X30754329Y-53980970D01*
X30732150Y-53970480D01*
X30711107Y-53957868D01*
X30691401Y-53943253D01*
X30673223Y-53926777D01*
X30656747Y-53908599D01*
X30642132Y-53888893D01*
X30629520Y-53867850D01*
X30619030Y-53845671D01*
X30610765Y-53822572D01*
X30604804Y-53798773D01*
X30601204Y-53774505D01*
X30600000Y-53750001D01*
X30600000Y-52849999D01*
X30601204Y-52825495D01*
X30604804Y-52801227D01*
X30610765Y-52777428D01*
X30619030Y-52754329D01*
X30629520Y-52732150D01*
X30642132Y-52711107D01*
X30656747Y-52691401D01*
X30673223Y-52673223D01*
X30691401Y-52656747D01*
X30711107Y-52642132D01*
X30732150Y-52629520D01*
X30754329Y-52619030D01*
X30777428Y-52610765D01*
X30801227Y-52604804D01*
X30825495Y-52601204D01*
X30849999Y-52600000D01*
X31500001Y-52600000D01*
X31524505Y-52601204D01*
X31524505Y-52601204D01*
G37*
D12*
X31175000Y-53300000D03*
D11*
G36*
X39524505Y-52601204D02*
G01*
X39548773Y-52604804D01*
X39572572Y-52610765D01*
X39595671Y-52619030D01*
X39617850Y-52629520D01*
X39638893Y-52642132D01*
X39658599Y-52656747D01*
X39676777Y-52673223D01*
X39693253Y-52691401D01*
X39707868Y-52711107D01*
X39720480Y-52732150D01*
X39730970Y-52754329D01*
X39739235Y-52777428D01*
X39745196Y-52801227D01*
X39748796Y-52825495D01*
X39750000Y-52849999D01*
X39750000Y-53750001D01*
X39748796Y-53774505D01*
X39745196Y-53798773D01*
X39739235Y-53822572D01*
X39730970Y-53845671D01*
X39720480Y-53867850D01*
X39707868Y-53888893D01*
X39693253Y-53908599D01*
X39676777Y-53926777D01*
X39658599Y-53943253D01*
X39638893Y-53957868D01*
X39617850Y-53970480D01*
X39595671Y-53980970D01*
X39572572Y-53989235D01*
X39548773Y-53995196D01*
X39524505Y-53998796D01*
X39500001Y-54000000D01*
X38849999Y-54000000D01*
X38825495Y-53998796D01*
X38801227Y-53995196D01*
X38777428Y-53989235D01*
X38754329Y-53980970D01*
X38732150Y-53970480D01*
X38711107Y-53957868D01*
X38691401Y-53943253D01*
X38673223Y-53926777D01*
X38656747Y-53908599D01*
X38642132Y-53888893D01*
X38629520Y-53867850D01*
X38619030Y-53845671D01*
X38610765Y-53822572D01*
X38604804Y-53798773D01*
X38601204Y-53774505D01*
X38600000Y-53750001D01*
X38600000Y-52849999D01*
X38601204Y-52825495D01*
X38604804Y-52801227D01*
X38610765Y-52777428D01*
X38619030Y-52754329D01*
X38629520Y-52732150D01*
X38642132Y-52711107D01*
X38656747Y-52691401D01*
X38673223Y-52673223D01*
X38691401Y-52656747D01*
X38711107Y-52642132D01*
X38732150Y-52629520D01*
X38754329Y-52619030D01*
X38777428Y-52610765D01*
X38801227Y-52604804D01*
X38825495Y-52601204D01*
X38849999Y-52600000D01*
X39500001Y-52600000D01*
X39524505Y-52601204D01*
X39524505Y-52601204D01*
G37*
D12*
X39175000Y-53300000D03*
D11*
G36*
X37474505Y-52601204D02*
G01*
X37498773Y-52604804D01*
X37522572Y-52610765D01*
X37545671Y-52619030D01*
X37567850Y-52629520D01*
X37588893Y-52642132D01*
X37608599Y-52656747D01*
X37626777Y-52673223D01*
X37643253Y-52691401D01*
X37657868Y-52711107D01*
X37670480Y-52732150D01*
X37680970Y-52754329D01*
X37689235Y-52777428D01*
X37695196Y-52801227D01*
X37698796Y-52825495D01*
X37700000Y-52849999D01*
X37700000Y-53750001D01*
X37698796Y-53774505D01*
X37695196Y-53798773D01*
X37689235Y-53822572D01*
X37680970Y-53845671D01*
X37670480Y-53867850D01*
X37657868Y-53888893D01*
X37643253Y-53908599D01*
X37626777Y-53926777D01*
X37608599Y-53943253D01*
X37588893Y-53957868D01*
X37567850Y-53970480D01*
X37545671Y-53980970D01*
X37522572Y-53989235D01*
X37498773Y-53995196D01*
X37474505Y-53998796D01*
X37450001Y-54000000D01*
X36799999Y-54000000D01*
X36775495Y-53998796D01*
X36751227Y-53995196D01*
X36727428Y-53989235D01*
X36704329Y-53980970D01*
X36682150Y-53970480D01*
X36661107Y-53957868D01*
X36641401Y-53943253D01*
X36623223Y-53926777D01*
X36606747Y-53908599D01*
X36592132Y-53888893D01*
X36579520Y-53867850D01*
X36569030Y-53845671D01*
X36560765Y-53822572D01*
X36554804Y-53798773D01*
X36551204Y-53774505D01*
X36550000Y-53750001D01*
X36550000Y-52849999D01*
X36551204Y-52825495D01*
X36554804Y-52801227D01*
X36560765Y-52777428D01*
X36569030Y-52754329D01*
X36579520Y-52732150D01*
X36592132Y-52711107D01*
X36606747Y-52691401D01*
X36623223Y-52673223D01*
X36641401Y-52656747D01*
X36661107Y-52642132D01*
X36682150Y-52629520D01*
X36704329Y-52619030D01*
X36727428Y-52610765D01*
X36751227Y-52604804D01*
X36775495Y-52601204D01*
X36799999Y-52600000D01*
X37450001Y-52600000D01*
X37474505Y-52601204D01*
X37474505Y-52601204D01*
G37*
D12*
X37125000Y-53300000D03*
D11*
G36*
X47524505Y-52601204D02*
G01*
X47548773Y-52604804D01*
X47572572Y-52610765D01*
X47595671Y-52619030D01*
X47617850Y-52629520D01*
X47638893Y-52642132D01*
X47658599Y-52656747D01*
X47676777Y-52673223D01*
X47693253Y-52691401D01*
X47707868Y-52711107D01*
X47720480Y-52732150D01*
X47730970Y-52754329D01*
X47739235Y-52777428D01*
X47745196Y-52801227D01*
X47748796Y-52825495D01*
X47750000Y-52849999D01*
X47750000Y-53750001D01*
X47748796Y-53774505D01*
X47745196Y-53798773D01*
X47739235Y-53822572D01*
X47730970Y-53845671D01*
X47720480Y-53867850D01*
X47707868Y-53888893D01*
X47693253Y-53908599D01*
X47676777Y-53926777D01*
X47658599Y-53943253D01*
X47638893Y-53957868D01*
X47617850Y-53970480D01*
X47595671Y-53980970D01*
X47572572Y-53989235D01*
X47548773Y-53995196D01*
X47524505Y-53998796D01*
X47500001Y-54000000D01*
X46849999Y-54000000D01*
X46825495Y-53998796D01*
X46801227Y-53995196D01*
X46777428Y-53989235D01*
X46754329Y-53980970D01*
X46732150Y-53970480D01*
X46711107Y-53957868D01*
X46691401Y-53943253D01*
X46673223Y-53926777D01*
X46656747Y-53908599D01*
X46642132Y-53888893D01*
X46629520Y-53867850D01*
X46619030Y-53845671D01*
X46610765Y-53822572D01*
X46604804Y-53798773D01*
X46601204Y-53774505D01*
X46600000Y-53750001D01*
X46600000Y-52849999D01*
X46601204Y-52825495D01*
X46604804Y-52801227D01*
X46610765Y-52777428D01*
X46619030Y-52754329D01*
X46629520Y-52732150D01*
X46642132Y-52711107D01*
X46656747Y-52691401D01*
X46673223Y-52673223D01*
X46691401Y-52656747D01*
X46711107Y-52642132D01*
X46732150Y-52629520D01*
X46754329Y-52619030D01*
X46777428Y-52610765D01*
X46801227Y-52604804D01*
X46825495Y-52601204D01*
X46849999Y-52600000D01*
X47500001Y-52600000D01*
X47524505Y-52601204D01*
X47524505Y-52601204D01*
G37*
D12*
X47175000Y-53300000D03*
D11*
G36*
X45474505Y-52601204D02*
G01*
X45498773Y-52604804D01*
X45522572Y-52610765D01*
X45545671Y-52619030D01*
X45567850Y-52629520D01*
X45588893Y-52642132D01*
X45608599Y-52656747D01*
X45626777Y-52673223D01*
X45643253Y-52691401D01*
X45657868Y-52711107D01*
X45670480Y-52732150D01*
X45680970Y-52754329D01*
X45689235Y-52777428D01*
X45695196Y-52801227D01*
X45698796Y-52825495D01*
X45700000Y-52849999D01*
X45700000Y-53750001D01*
X45698796Y-53774505D01*
X45695196Y-53798773D01*
X45689235Y-53822572D01*
X45680970Y-53845671D01*
X45670480Y-53867850D01*
X45657868Y-53888893D01*
X45643253Y-53908599D01*
X45626777Y-53926777D01*
X45608599Y-53943253D01*
X45588893Y-53957868D01*
X45567850Y-53970480D01*
X45545671Y-53980970D01*
X45522572Y-53989235D01*
X45498773Y-53995196D01*
X45474505Y-53998796D01*
X45450001Y-54000000D01*
X44799999Y-54000000D01*
X44775495Y-53998796D01*
X44751227Y-53995196D01*
X44727428Y-53989235D01*
X44704329Y-53980970D01*
X44682150Y-53970480D01*
X44661107Y-53957868D01*
X44641401Y-53943253D01*
X44623223Y-53926777D01*
X44606747Y-53908599D01*
X44592132Y-53888893D01*
X44579520Y-53867850D01*
X44569030Y-53845671D01*
X44560765Y-53822572D01*
X44554804Y-53798773D01*
X44551204Y-53774505D01*
X44550000Y-53750001D01*
X44550000Y-52849999D01*
X44551204Y-52825495D01*
X44554804Y-52801227D01*
X44560765Y-52777428D01*
X44569030Y-52754329D01*
X44579520Y-52732150D01*
X44592132Y-52711107D01*
X44606747Y-52691401D01*
X44623223Y-52673223D01*
X44641401Y-52656747D01*
X44661107Y-52642132D01*
X44682150Y-52629520D01*
X44704329Y-52619030D01*
X44727428Y-52610765D01*
X44751227Y-52604804D01*
X44775495Y-52601204D01*
X44799999Y-52600000D01*
X45450001Y-52600000D01*
X45474505Y-52601204D01*
X45474505Y-52601204D01*
G37*
D12*
X45125000Y-53300000D03*
D11*
G36*
X53474505Y-52601204D02*
G01*
X53498773Y-52604804D01*
X53522572Y-52610765D01*
X53545671Y-52619030D01*
X53567850Y-52629520D01*
X53588893Y-52642132D01*
X53608599Y-52656747D01*
X53626777Y-52673223D01*
X53643253Y-52691401D01*
X53657868Y-52711107D01*
X53670480Y-52732150D01*
X53680970Y-52754329D01*
X53689235Y-52777428D01*
X53695196Y-52801227D01*
X53698796Y-52825495D01*
X53700000Y-52849999D01*
X53700000Y-53750001D01*
X53698796Y-53774505D01*
X53695196Y-53798773D01*
X53689235Y-53822572D01*
X53680970Y-53845671D01*
X53670480Y-53867850D01*
X53657868Y-53888893D01*
X53643253Y-53908599D01*
X53626777Y-53926777D01*
X53608599Y-53943253D01*
X53588893Y-53957868D01*
X53567850Y-53970480D01*
X53545671Y-53980970D01*
X53522572Y-53989235D01*
X53498773Y-53995196D01*
X53474505Y-53998796D01*
X53450001Y-54000000D01*
X52799999Y-54000000D01*
X52775495Y-53998796D01*
X52751227Y-53995196D01*
X52727428Y-53989235D01*
X52704329Y-53980970D01*
X52682150Y-53970480D01*
X52661107Y-53957868D01*
X52641401Y-53943253D01*
X52623223Y-53926777D01*
X52606747Y-53908599D01*
X52592132Y-53888893D01*
X52579520Y-53867850D01*
X52569030Y-53845671D01*
X52560765Y-53822572D01*
X52554804Y-53798773D01*
X52551204Y-53774505D01*
X52550000Y-53750001D01*
X52550000Y-52849999D01*
X52551204Y-52825495D01*
X52554804Y-52801227D01*
X52560765Y-52777428D01*
X52569030Y-52754329D01*
X52579520Y-52732150D01*
X52592132Y-52711107D01*
X52606747Y-52691401D01*
X52623223Y-52673223D01*
X52641401Y-52656747D01*
X52661107Y-52642132D01*
X52682150Y-52629520D01*
X52704329Y-52619030D01*
X52727428Y-52610765D01*
X52751227Y-52604804D01*
X52775495Y-52601204D01*
X52799999Y-52600000D01*
X53450001Y-52600000D01*
X53474505Y-52601204D01*
X53474505Y-52601204D01*
G37*
D12*
X53125000Y-53300000D03*
D11*
G36*
X55524505Y-52601204D02*
G01*
X55548773Y-52604804D01*
X55572572Y-52610765D01*
X55595671Y-52619030D01*
X55617850Y-52629520D01*
X55638893Y-52642132D01*
X55658599Y-52656747D01*
X55676777Y-52673223D01*
X55693253Y-52691401D01*
X55707868Y-52711107D01*
X55720480Y-52732150D01*
X55730970Y-52754329D01*
X55739235Y-52777428D01*
X55745196Y-52801227D01*
X55748796Y-52825495D01*
X55750000Y-52849999D01*
X55750000Y-53750001D01*
X55748796Y-53774505D01*
X55745196Y-53798773D01*
X55739235Y-53822572D01*
X55730970Y-53845671D01*
X55720480Y-53867850D01*
X55707868Y-53888893D01*
X55693253Y-53908599D01*
X55676777Y-53926777D01*
X55658599Y-53943253D01*
X55638893Y-53957868D01*
X55617850Y-53970480D01*
X55595671Y-53980970D01*
X55572572Y-53989235D01*
X55548773Y-53995196D01*
X55524505Y-53998796D01*
X55500001Y-54000000D01*
X54849999Y-54000000D01*
X54825495Y-53998796D01*
X54801227Y-53995196D01*
X54777428Y-53989235D01*
X54754329Y-53980970D01*
X54732150Y-53970480D01*
X54711107Y-53957868D01*
X54691401Y-53943253D01*
X54673223Y-53926777D01*
X54656747Y-53908599D01*
X54642132Y-53888893D01*
X54629520Y-53867850D01*
X54619030Y-53845671D01*
X54610765Y-53822572D01*
X54604804Y-53798773D01*
X54601204Y-53774505D01*
X54600000Y-53750001D01*
X54600000Y-52849999D01*
X54601204Y-52825495D01*
X54604804Y-52801227D01*
X54610765Y-52777428D01*
X54619030Y-52754329D01*
X54629520Y-52732150D01*
X54642132Y-52711107D01*
X54656747Y-52691401D01*
X54673223Y-52673223D01*
X54691401Y-52656747D01*
X54711107Y-52642132D01*
X54732150Y-52629520D01*
X54754329Y-52619030D01*
X54777428Y-52610765D01*
X54801227Y-52604804D01*
X54825495Y-52601204D01*
X54849999Y-52600000D01*
X55500001Y-52600000D01*
X55524505Y-52601204D01*
X55524505Y-52601204D01*
G37*
D12*
X55175000Y-53300000D03*
D11*
G36*
X62474505Y1598796D02*
G01*
X62498773Y1595196D01*
X62522572Y1589235D01*
X62545671Y1580970D01*
X62567850Y1570480D01*
X62588893Y1557868D01*
X62608599Y1543253D01*
X62626777Y1526777D01*
X62643253Y1508599D01*
X62657868Y1488893D01*
X62670480Y1467850D01*
X62680970Y1445671D01*
X62689235Y1422572D01*
X62695196Y1398773D01*
X62698796Y1374505D01*
X62700000Y1350001D01*
X62700000Y699999D01*
X62698796Y675495D01*
X62695196Y651227D01*
X62689235Y627428D01*
X62680970Y604329D01*
X62670480Y582150D01*
X62657868Y561107D01*
X62643253Y541401D01*
X62626777Y523223D01*
X62608599Y506747D01*
X62588893Y492132D01*
X62567850Y479520D01*
X62545671Y469030D01*
X62522572Y460765D01*
X62498773Y454804D01*
X62474505Y451204D01*
X62450001Y450000D01*
X61549999Y450000D01*
X61525495Y451204D01*
X61501227Y454804D01*
X61477428Y460765D01*
X61454329Y469030D01*
X61432150Y479520D01*
X61411107Y492132D01*
X61391401Y506747D01*
X61373223Y523223D01*
X61356747Y541401D01*
X61342132Y561107D01*
X61329520Y582150D01*
X61319030Y604329D01*
X61310765Y627428D01*
X61304804Y651227D01*
X61301204Y675495D01*
X61300000Y699999D01*
X61300000Y1350001D01*
X61301204Y1374505D01*
X61304804Y1398773D01*
X61310765Y1422572D01*
X61319030Y1445671D01*
X61329520Y1467850D01*
X61342132Y1488893D01*
X61356747Y1508599D01*
X61373223Y1526777D01*
X61391401Y1543253D01*
X61411107Y1557868D01*
X61432150Y1570480D01*
X61454329Y1580970D01*
X61477428Y1589235D01*
X61501227Y1595196D01*
X61525495Y1598796D01*
X61549999Y1600000D01*
X62450001Y1600000D01*
X62474505Y1598796D01*
X62474505Y1598796D01*
G37*
D12*
X62000000Y1025000D03*
D11*
G36*
X62474505Y-451204D02*
G01*
X62498773Y-454804D01*
X62522572Y-460765D01*
X62545671Y-469030D01*
X62567850Y-479520D01*
X62588893Y-492132D01*
X62608599Y-506747D01*
X62626777Y-523223D01*
X62643253Y-541401D01*
X62657868Y-561107D01*
X62670480Y-582150D01*
X62680970Y-604329D01*
X62689235Y-627428D01*
X62695196Y-651227D01*
X62698796Y-675495D01*
X62700000Y-699999D01*
X62700000Y-1350001D01*
X62698796Y-1374505D01*
X62695196Y-1398773D01*
X62689235Y-1422572D01*
X62680970Y-1445671D01*
X62670480Y-1467850D01*
X62657868Y-1488893D01*
X62643253Y-1508599D01*
X62626777Y-1526777D01*
X62608599Y-1543253D01*
X62588893Y-1557868D01*
X62567850Y-1570480D01*
X62545671Y-1580970D01*
X62522572Y-1589235D01*
X62498773Y-1595196D01*
X62474505Y-1598796D01*
X62450001Y-1600000D01*
X61549999Y-1600000D01*
X61525495Y-1598796D01*
X61501227Y-1595196D01*
X61477428Y-1589235D01*
X61454329Y-1580970D01*
X61432150Y-1570480D01*
X61411107Y-1557868D01*
X61391401Y-1543253D01*
X61373223Y-1526777D01*
X61356747Y-1508599D01*
X61342132Y-1488893D01*
X61329520Y-1467850D01*
X61319030Y-1445671D01*
X61310765Y-1422572D01*
X61304804Y-1398773D01*
X61301204Y-1374505D01*
X61300000Y-1350001D01*
X61300000Y-699999D01*
X61301204Y-675495D01*
X61304804Y-651227D01*
X61310765Y-627428D01*
X61319030Y-604329D01*
X61329520Y-582150D01*
X61342132Y-561107D01*
X61356747Y-541401D01*
X61373223Y-523223D01*
X61391401Y-506747D01*
X61411107Y-492132D01*
X61432150Y-479520D01*
X61454329Y-469030D01*
X61477428Y-460765D01*
X61501227Y-454804D01*
X61525495Y-451204D01*
X61549999Y-450000D01*
X62450001Y-450000D01*
X62474505Y-451204D01*
X62474505Y-451204D01*
G37*
D12*
X62000000Y-1025000D03*
D11*
G36*
X62474505Y-6401204D02*
G01*
X62498773Y-6404804D01*
X62522572Y-6410765D01*
X62545671Y-6419030D01*
X62567850Y-6429520D01*
X62588893Y-6442132D01*
X62608599Y-6456747D01*
X62626777Y-6473223D01*
X62643253Y-6491401D01*
X62657868Y-6511107D01*
X62670480Y-6532150D01*
X62680970Y-6554329D01*
X62689235Y-6577428D01*
X62695196Y-6601227D01*
X62698796Y-6625495D01*
X62700000Y-6649999D01*
X62700000Y-7300001D01*
X62698796Y-7324505D01*
X62695196Y-7348773D01*
X62689235Y-7372572D01*
X62680970Y-7395671D01*
X62670480Y-7417850D01*
X62657868Y-7438893D01*
X62643253Y-7458599D01*
X62626777Y-7476777D01*
X62608599Y-7493253D01*
X62588893Y-7507868D01*
X62567850Y-7520480D01*
X62545671Y-7530970D01*
X62522572Y-7539235D01*
X62498773Y-7545196D01*
X62474505Y-7548796D01*
X62450001Y-7550000D01*
X61549999Y-7550000D01*
X61525495Y-7548796D01*
X61501227Y-7545196D01*
X61477428Y-7539235D01*
X61454329Y-7530970D01*
X61432150Y-7520480D01*
X61411107Y-7507868D01*
X61391401Y-7493253D01*
X61373223Y-7476777D01*
X61356747Y-7458599D01*
X61342132Y-7438893D01*
X61329520Y-7417850D01*
X61319030Y-7395671D01*
X61310765Y-7372572D01*
X61304804Y-7348773D01*
X61301204Y-7324505D01*
X61300000Y-7300001D01*
X61300000Y-6649999D01*
X61301204Y-6625495D01*
X61304804Y-6601227D01*
X61310765Y-6577428D01*
X61319030Y-6554329D01*
X61329520Y-6532150D01*
X61342132Y-6511107D01*
X61356747Y-6491401D01*
X61373223Y-6473223D01*
X61391401Y-6456747D01*
X61411107Y-6442132D01*
X61432150Y-6429520D01*
X61454329Y-6419030D01*
X61477428Y-6410765D01*
X61501227Y-6404804D01*
X61525495Y-6401204D01*
X61549999Y-6400000D01*
X62450001Y-6400000D01*
X62474505Y-6401204D01*
X62474505Y-6401204D01*
G37*
D12*
X62000000Y-6975000D03*
D11*
G36*
X62474505Y-8451204D02*
G01*
X62498773Y-8454804D01*
X62522572Y-8460765D01*
X62545671Y-8469030D01*
X62567850Y-8479520D01*
X62588893Y-8492132D01*
X62608599Y-8506747D01*
X62626777Y-8523223D01*
X62643253Y-8541401D01*
X62657868Y-8561107D01*
X62670480Y-8582150D01*
X62680970Y-8604329D01*
X62689235Y-8627428D01*
X62695196Y-8651227D01*
X62698796Y-8675495D01*
X62700000Y-8699999D01*
X62700000Y-9350001D01*
X62698796Y-9374505D01*
X62695196Y-9398773D01*
X62689235Y-9422572D01*
X62680970Y-9445671D01*
X62670480Y-9467850D01*
X62657868Y-9488893D01*
X62643253Y-9508599D01*
X62626777Y-9526777D01*
X62608599Y-9543253D01*
X62588893Y-9557868D01*
X62567850Y-9570480D01*
X62545671Y-9580970D01*
X62522572Y-9589235D01*
X62498773Y-9595196D01*
X62474505Y-9598796D01*
X62450001Y-9600000D01*
X61549999Y-9600000D01*
X61525495Y-9598796D01*
X61501227Y-9595196D01*
X61477428Y-9589235D01*
X61454329Y-9580970D01*
X61432150Y-9570480D01*
X61411107Y-9557868D01*
X61391401Y-9543253D01*
X61373223Y-9526777D01*
X61356747Y-9508599D01*
X61342132Y-9488893D01*
X61329520Y-9467850D01*
X61319030Y-9445671D01*
X61310765Y-9422572D01*
X61304804Y-9398773D01*
X61301204Y-9374505D01*
X61300000Y-9350001D01*
X61300000Y-8699999D01*
X61301204Y-8675495D01*
X61304804Y-8651227D01*
X61310765Y-8627428D01*
X61319030Y-8604329D01*
X61329520Y-8582150D01*
X61342132Y-8561107D01*
X61356747Y-8541401D01*
X61373223Y-8523223D01*
X61391401Y-8506747D01*
X61411107Y-8492132D01*
X61432150Y-8479520D01*
X61454329Y-8469030D01*
X61477428Y-8460765D01*
X61501227Y-8454804D01*
X61525495Y-8451204D01*
X61549999Y-8450000D01*
X62450001Y-8450000D01*
X62474505Y-8451204D01*
X62474505Y-8451204D01*
G37*
D12*
X62000000Y-9025000D03*
D11*
G36*
X62474505Y-16451204D02*
G01*
X62498773Y-16454804D01*
X62522572Y-16460765D01*
X62545671Y-16469030D01*
X62567850Y-16479520D01*
X62588893Y-16492132D01*
X62608599Y-16506747D01*
X62626777Y-16523223D01*
X62643253Y-16541401D01*
X62657868Y-16561107D01*
X62670480Y-16582150D01*
X62680970Y-16604329D01*
X62689235Y-16627428D01*
X62695196Y-16651227D01*
X62698796Y-16675495D01*
X62700000Y-16699999D01*
X62700000Y-17350001D01*
X62698796Y-17374505D01*
X62695196Y-17398773D01*
X62689235Y-17422572D01*
X62680970Y-17445671D01*
X62670480Y-17467850D01*
X62657868Y-17488893D01*
X62643253Y-17508599D01*
X62626777Y-17526777D01*
X62608599Y-17543253D01*
X62588893Y-17557868D01*
X62567850Y-17570480D01*
X62545671Y-17580970D01*
X62522572Y-17589235D01*
X62498773Y-17595196D01*
X62474505Y-17598796D01*
X62450001Y-17600000D01*
X61549999Y-17600000D01*
X61525495Y-17598796D01*
X61501227Y-17595196D01*
X61477428Y-17589235D01*
X61454329Y-17580970D01*
X61432150Y-17570480D01*
X61411107Y-17557868D01*
X61391401Y-17543253D01*
X61373223Y-17526777D01*
X61356747Y-17508599D01*
X61342132Y-17488893D01*
X61329520Y-17467850D01*
X61319030Y-17445671D01*
X61310765Y-17422572D01*
X61304804Y-17398773D01*
X61301204Y-17374505D01*
X61300000Y-17350001D01*
X61300000Y-16699999D01*
X61301204Y-16675495D01*
X61304804Y-16651227D01*
X61310765Y-16627428D01*
X61319030Y-16604329D01*
X61329520Y-16582150D01*
X61342132Y-16561107D01*
X61356747Y-16541401D01*
X61373223Y-16523223D01*
X61391401Y-16506747D01*
X61411107Y-16492132D01*
X61432150Y-16479520D01*
X61454329Y-16469030D01*
X61477428Y-16460765D01*
X61501227Y-16454804D01*
X61525495Y-16451204D01*
X61549999Y-16450000D01*
X62450001Y-16450000D01*
X62474505Y-16451204D01*
X62474505Y-16451204D01*
G37*
D12*
X62000000Y-17025000D03*
D11*
G36*
X62474505Y-14401204D02*
G01*
X62498773Y-14404804D01*
X62522572Y-14410765D01*
X62545671Y-14419030D01*
X62567850Y-14429520D01*
X62588893Y-14442132D01*
X62608599Y-14456747D01*
X62626777Y-14473223D01*
X62643253Y-14491401D01*
X62657868Y-14511107D01*
X62670480Y-14532150D01*
X62680970Y-14554329D01*
X62689235Y-14577428D01*
X62695196Y-14601227D01*
X62698796Y-14625495D01*
X62700000Y-14649999D01*
X62700000Y-15300001D01*
X62698796Y-15324505D01*
X62695196Y-15348773D01*
X62689235Y-15372572D01*
X62680970Y-15395671D01*
X62670480Y-15417850D01*
X62657868Y-15438893D01*
X62643253Y-15458599D01*
X62626777Y-15476777D01*
X62608599Y-15493253D01*
X62588893Y-15507868D01*
X62567850Y-15520480D01*
X62545671Y-15530970D01*
X62522572Y-15539235D01*
X62498773Y-15545196D01*
X62474505Y-15548796D01*
X62450001Y-15550000D01*
X61549999Y-15550000D01*
X61525495Y-15548796D01*
X61501227Y-15545196D01*
X61477428Y-15539235D01*
X61454329Y-15530970D01*
X61432150Y-15520480D01*
X61411107Y-15507868D01*
X61391401Y-15493253D01*
X61373223Y-15476777D01*
X61356747Y-15458599D01*
X61342132Y-15438893D01*
X61329520Y-15417850D01*
X61319030Y-15395671D01*
X61310765Y-15372572D01*
X61304804Y-15348773D01*
X61301204Y-15324505D01*
X61300000Y-15300001D01*
X61300000Y-14649999D01*
X61301204Y-14625495D01*
X61304804Y-14601227D01*
X61310765Y-14577428D01*
X61319030Y-14554329D01*
X61329520Y-14532150D01*
X61342132Y-14511107D01*
X61356747Y-14491401D01*
X61373223Y-14473223D01*
X61391401Y-14456747D01*
X61411107Y-14442132D01*
X61432150Y-14429520D01*
X61454329Y-14419030D01*
X61477428Y-14410765D01*
X61501227Y-14404804D01*
X61525495Y-14401204D01*
X61549999Y-14400000D01*
X62450001Y-14400000D01*
X62474505Y-14401204D01*
X62474505Y-14401204D01*
G37*
D12*
X62000000Y-14975000D03*
D11*
G36*
X62474505Y-22401204D02*
G01*
X62498773Y-22404804D01*
X62522572Y-22410765D01*
X62545671Y-22419030D01*
X62567850Y-22429520D01*
X62588893Y-22442132D01*
X62608599Y-22456747D01*
X62626777Y-22473223D01*
X62643253Y-22491401D01*
X62657868Y-22511107D01*
X62670480Y-22532150D01*
X62680970Y-22554329D01*
X62689235Y-22577428D01*
X62695196Y-22601227D01*
X62698796Y-22625495D01*
X62700000Y-22649999D01*
X62700000Y-23300001D01*
X62698796Y-23324505D01*
X62695196Y-23348773D01*
X62689235Y-23372572D01*
X62680970Y-23395671D01*
X62670480Y-23417850D01*
X62657868Y-23438893D01*
X62643253Y-23458599D01*
X62626777Y-23476777D01*
X62608599Y-23493253D01*
X62588893Y-23507868D01*
X62567850Y-23520480D01*
X62545671Y-23530970D01*
X62522572Y-23539235D01*
X62498773Y-23545196D01*
X62474505Y-23548796D01*
X62450001Y-23550000D01*
X61549999Y-23550000D01*
X61525495Y-23548796D01*
X61501227Y-23545196D01*
X61477428Y-23539235D01*
X61454329Y-23530970D01*
X61432150Y-23520480D01*
X61411107Y-23507868D01*
X61391401Y-23493253D01*
X61373223Y-23476777D01*
X61356747Y-23458599D01*
X61342132Y-23438893D01*
X61329520Y-23417850D01*
X61319030Y-23395671D01*
X61310765Y-23372572D01*
X61304804Y-23348773D01*
X61301204Y-23324505D01*
X61300000Y-23300001D01*
X61300000Y-22649999D01*
X61301204Y-22625495D01*
X61304804Y-22601227D01*
X61310765Y-22577428D01*
X61319030Y-22554329D01*
X61329520Y-22532150D01*
X61342132Y-22511107D01*
X61356747Y-22491401D01*
X61373223Y-22473223D01*
X61391401Y-22456747D01*
X61411107Y-22442132D01*
X61432150Y-22429520D01*
X61454329Y-22419030D01*
X61477428Y-22410765D01*
X61501227Y-22404804D01*
X61525495Y-22401204D01*
X61549999Y-22400000D01*
X62450001Y-22400000D01*
X62474505Y-22401204D01*
X62474505Y-22401204D01*
G37*
D12*
X62000000Y-22975000D03*
D11*
G36*
X62474505Y-24451204D02*
G01*
X62498773Y-24454804D01*
X62522572Y-24460765D01*
X62545671Y-24469030D01*
X62567850Y-24479520D01*
X62588893Y-24492132D01*
X62608599Y-24506747D01*
X62626777Y-24523223D01*
X62643253Y-24541401D01*
X62657868Y-24561107D01*
X62670480Y-24582150D01*
X62680970Y-24604329D01*
X62689235Y-24627428D01*
X62695196Y-24651227D01*
X62698796Y-24675495D01*
X62700000Y-24699999D01*
X62700000Y-25350001D01*
X62698796Y-25374505D01*
X62695196Y-25398773D01*
X62689235Y-25422572D01*
X62680970Y-25445671D01*
X62670480Y-25467850D01*
X62657868Y-25488893D01*
X62643253Y-25508599D01*
X62626777Y-25526777D01*
X62608599Y-25543253D01*
X62588893Y-25557868D01*
X62567850Y-25570480D01*
X62545671Y-25580970D01*
X62522572Y-25589235D01*
X62498773Y-25595196D01*
X62474505Y-25598796D01*
X62450001Y-25600000D01*
X61549999Y-25600000D01*
X61525495Y-25598796D01*
X61501227Y-25595196D01*
X61477428Y-25589235D01*
X61454329Y-25580970D01*
X61432150Y-25570480D01*
X61411107Y-25557868D01*
X61391401Y-25543253D01*
X61373223Y-25526777D01*
X61356747Y-25508599D01*
X61342132Y-25488893D01*
X61329520Y-25467850D01*
X61319030Y-25445671D01*
X61310765Y-25422572D01*
X61304804Y-25398773D01*
X61301204Y-25374505D01*
X61300000Y-25350001D01*
X61300000Y-24699999D01*
X61301204Y-24675495D01*
X61304804Y-24651227D01*
X61310765Y-24627428D01*
X61319030Y-24604329D01*
X61329520Y-24582150D01*
X61342132Y-24561107D01*
X61356747Y-24541401D01*
X61373223Y-24523223D01*
X61391401Y-24506747D01*
X61411107Y-24492132D01*
X61432150Y-24479520D01*
X61454329Y-24469030D01*
X61477428Y-24460765D01*
X61501227Y-24454804D01*
X61525495Y-24451204D01*
X61549999Y-24450000D01*
X62450001Y-24450000D01*
X62474505Y-24451204D01*
X62474505Y-24451204D01*
G37*
D12*
X62000000Y-25025000D03*
D11*
G36*
X62474505Y-30401204D02*
G01*
X62498773Y-30404804D01*
X62522572Y-30410765D01*
X62545671Y-30419030D01*
X62567850Y-30429520D01*
X62588893Y-30442132D01*
X62608599Y-30456747D01*
X62626777Y-30473223D01*
X62643253Y-30491401D01*
X62657868Y-30511107D01*
X62670480Y-30532150D01*
X62680970Y-30554329D01*
X62689235Y-30577428D01*
X62695196Y-30601227D01*
X62698796Y-30625495D01*
X62700000Y-30649999D01*
X62700000Y-31300001D01*
X62698796Y-31324505D01*
X62695196Y-31348773D01*
X62689235Y-31372572D01*
X62680970Y-31395671D01*
X62670480Y-31417850D01*
X62657868Y-31438893D01*
X62643253Y-31458599D01*
X62626777Y-31476777D01*
X62608599Y-31493253D01*
X62588893Y-31507868D01*
X62567850Y-31520480D01*
X62545671Y-31530970D01*
X62522572Y-31539235D01*
X62498773Y-31545196D01*
X62474505Y-31548796D01*
X62450001Y-31550000D01*
X61549999Y-31550000D01*
X61525495Y-31548796D01*
X61501227Y-31545196D01*
X61477428Y-31539235D01*
X61454329Y-31530970D01*
X61432150Y-31520480D01*
X61411107Y-31507868D01*
X61391401Y-31493253D01*
X61373223Y-31476777D01*
X61356747Y-31458599D01*
X61342132Y-31438893D01*
X61329520Y-31417850D01*
X61319030Y-31395671D01*
X61310765Y-31372572D01*
X61304804Y-31348773D01*
X61301204Y-31324505D01*
X61300000Y-31300001D01*
X61300000Y-30649999D01*
X61301204Y-30625495D01*
X61304804Y-30601227D01*
X61310765Y-30577428D01*
X61319030Y-30554329D01*
X61329520Y-30532150D01*
X61342132Y-30511107D01*
X61356747Y-30491401D01*
X61373223Y-30473223D01*
X61391401Y-30456747D01*
X61411107Y-30442132D01*
X61432150Y-30429520D01*
X61454329Y-30419030D01*
X61477428Y-30410765D01*
X61501227Y-30404804D01*
X61525495Y-30401204D01*
X61549999Y-30400000D01*
X62450001Y-30400000D01*
X62474505Y-30401204D01*
X62474505Y-30401204D01*
G37*
D12*
X62000000Y-30975000D03*
D11*
G36*
X62474505Y-32451204D02*
G01*
X62498773Y-32454804D01*
X62522572Y-32460765D01*
X62545671Y-32469030D01*
X62567850Y-32479520D01*
X62588893Y-32492132D01*
X62608599Y-32506747D01*
X62626777Y-32523223D01*
X62643253Y-32541401D01*
X62657868Y-32561107D01*
X62670480Y-32582150D01*
X62680970Y-32604329D01*
X62689235Y-32627428D01*
X62695196Y-32651227D01*
X62698796Y-32675495D01*
X62700000Y-32699999D01*
X62700000Y-33350001D01*
X62698796Y-33374505D01*
X62695196Y-33398773D01*
X62689235Y-33422572D01*
X62680970Y-33445671D01*
X62670480Y-33467850D01*
X62657868Y-33488893D01*
X62643253Y-33508599D01*
X62626777Y-33526777D01*
X62608599Y-33543253D01*
X62588893Y-33557868D01*
X62567850Y-33570480D01*
X62545671Y-33580970D01*
X62522572Y-33589235D01*
X62498773Y-33595196D01*
X62474505Y-33598796D01*
X62450001Y-33600000D01*
X61549999Y-33600000D01*
X61525495Y-33598796D01*
X61501227Y-33595196D01*
X61477428Y-33589235D01*
X61454329Y-33580970D01*
X61432150Y-33570480D01*
X61411107Y-33557868D01*
X61391401Y-33543253D01*
X61373223Y-33526777D01*
X61356747Y-33508599D01*
X61342132Y-33488893D01*
X61329520Y-33467850D01*
X61319030Y-33445671D01*
X61310765Y-33422572D01*
X61304804Y-33398773D01*
X61301204Y-33374505D01*
X61300000Y-33350001D01*
X61300000Y-32699999D01*
X61301204Y-32675495D01*
X61304804Y-32651227D01*
X61310765Y-32627428D01*
X61319030Y-32604329D01*
X61329520Y-32582150D01*
X61342132Y-32561107D01*
X61356747Y-32541401D01*
X61373223Y-32523223D01*
X61391401Y-32506747D01*
X61411107Y-32492132D01*
X61432150Y-32479520D01*
X61454329Y-32469030D01*
X61477428Y-32460765D01*
X61501227Y-32454804D01*
X61525495Y-32451204D01*
X61549999Y-32450000D01*
X62450001Y-32450000D01*
X62474505Y-32451204D01*
X62474505Y-32451204D01*
G37*
D12*
X62000000Y-33025000D03*
D11*
G36*
X62474505Y-40451204D02*
G01*
X62498773Y-40454804D01*
X62522572Y-40460765D01*
X62545671Y-40469030D01*
X62567850Y-40479520D01*
X62588893Y-40492132D01*
X62608599Y-40506747D01*
X62626777Y-40523223D01*
X62643253Y-40541401D01*
X62657868Y-40561107D01*
X62670480Y-40582150D01*
X62680970Y-40604329D01*
X62689235Y-40627428D01*
X62695196Y-40651227D01*
X62698796Y-40675495D01*
X62700000Y-40699999D01*
X62700000Y-41350001D01*
X62698796Y-41374505D01*
X62695196Y-41398773D01*
X62689235Y-41422572D01*
X62680970Y-41445671D01*
X62670480Y-41467850D01*
X62657868Y-41488893D01*
X62643253Y-41508599D01*
X62626777Y-41526777D01*
X62608599Y-41543253D01*
X62588893Y-41557868D01*
X62567850Y-41570480D01*
X62545671Y-41580970D01*
X62522572Y-41589235D01*
X62498773Y-41595196D01*
X62474505Y-41598796D01*
X62450001Y-41600000D01*
X61549999Y-41600000D01*
X61525495Y-41598796D01*
X61501227Y-41595196D01*
X61477428Y-41589235D01*
X61454329Y-41580970D01*
X61432150Y-41570480D01*
X61411107Y-41557868D01*
X61391401Y-41543253D01*
X61373223Y-41526777D01*
X61356747Y-41508599D01*
X61342132Y-41488893D01*
X61329520Y-41467850D01*
X61319030Y-41445671D01*
X61310765Y-41422572D01*
X61304804Y-41398773D01*
X61301204Y-41374505D01*
X61300000Y-41350001D01*
X61300000Y-40699999D01*
X61301204Y-40675495D01*
X61304804Y-40651227D01*
X61310765Y-40627428D01*
X61319030Y-40604329D01*
X61329520Y-40582150D01*
X61342132Y-40561107D01*
X61356747Y-40541401D01*
X61373223Y-40523223D01*
X61391401Y-40506747D01*
X61411107Y-40492132D01*
X61432150Y-40479520D01*
X61454329Y-40469030D01*
X61477428Y-40460765D01*
X61501227Y-40454804D01*
X61525495Y-40451204D01*
X61549999Y-40450000D01*
X62450001Y-40450000D01*
X62474505Y-40451204D01*
X62474505Y-40451204D01*
G37*
D12*
X62000000Y-41025000D03*
D11*
G36*
X62474505Y-38401204D02*
G01*
X62498773Y-38404804D01*
X62522572Y-38410765D01*
X62545671Y-38419030D01*
X62567850Y-38429520D01*
X62588893Y-38442132D01*
X62608599Y-38456747D01*
X62626777Y-38473223D01*
X62643253Y-38491401D01*
X62657868Y-38511107D01*
X62670480Y-38532150D01*
X62680970Y-38554329D01*
X62689235Y-38577428D01*
X62695196Y-38601227D01*
X62698796Y-38625495D01*
X62700000Y-38649999D01*
X62700000Y-39300001D01*
X62698796Y-39324505D01*
X62695196Y-39348773D01*
X62689235Y-39372572D01*
X62680970Y-39395671D01*
X62670480Y-39417850D01*
X62657868Y-39438893D01*
X62643253Y-39458599D01*
X62626777Y-39476777D01*
X62608599Y-39493253D01*
X62588893Y-39507868D01*
X62567850Y-39520480D01*
X62545671Y-39530970D01*
X62522572Y-39539235D01*
X62498773Y-39545196D01*
X62474505Y-39548796D01*
X62450001Y-39550000D01*
X61549999Y-39550000D01*
X61525495Y-39548796D01*
X61501227Y-39545196D01*
X61477428Y-39539235D01*
X61454329Y-39530970D01*
X61432150Y-39520480D01*
X61411107Y-39507868D01*
X61391401Y-39493253D01*
X61373223Y-39476777D01*
X61356747Y-39458599D01*
X61342132Y-39438893D01*
X61329520Y-39417850D01*
X61319030Y-39395671D01*
X61310765Y-39372572D01*
X61304804Y-39348773D01*
X61301204Y-39324505D01*
X61300000Y-39300001D01*
X61300000Y-38649999D01*
X61301204Y-38625495D01*
X61304804Y-38601227D01*
X61310765Y-38577428D01*
X61319030Y-38554329D01*
X61329520Y-38532150D01*
X61342132Y-38511107D01*
X61356747Y-38491401D01*
X61373223Y-38473223D01*
X61391401Y-38456747D01*
X61411107Y-38442132D01*
X61432150Y-38429520D01*
X61454329Y-38419030D01*
X61477428Y-38410765D01*
X61501227Y-38404804D01*
X61525495Y-38401204D01*
X61549999Y-38400000D01*
X62450001Y-38400000D01*
X62474505Y-38401204D01*
X62474505Y-38401204D01*
G37*
D12*
X62000000Y-38975000D03*
D11*
G36*
X62474505Y-46401204D02*
G01*
X62498773Y-46404804D01*
X62522572Y-46410765D01*
X62545671Y-46419030D01*
X62567850Y-46429520D01*
X62588893Y-46442132D01*
X62608599Y-46456747D01*
X62626777Y-46473223D01*
X62643253Y-46491401D01*
X62657868Y-46511107D01*
X62670480Y-46532150D01*
X62680970Y-46554329D01*
X62689235Y-46577428D01*
X62695196Y-46601227D01*
X62698796Y-46625495D01*
X62700000Y-46649999D01*
X62700000Y-47300001D01*
X62698796Y-47324505D01*
X62695196Y-47348773D01*
X62689235Y-47372572D01*
X62680970Y-47395671D01*
X62670480Y-47417850D01*
X62657868Y-47438893D01*
X62643253Y-47458599D01*
X62626777Y-47476777D01*
X62608599Y-47493253D01*
X62588893Y-47507868D01*
X62567850Y-47520480D01*
X62545671Y-47530970D01*
X62522572Y-47539235D01*
X62498773Y-47545196D01*
X62474505Y-47548796D01*
X62450001Y-47550000D01*
X61549999Y-47550000D01*
X61525495Y-47548796D01*
X61501227Y-47545196D01*
X61477428Y-47539235D01*
X61454329Y-47530970D01*
X61432150Y-47520480D01*
X61411107Y-47507868D01*
X61391401Y-47493253D01*
X61373223Y-47476777D01*
X61356747Y-47458599D01*
X61342132Y-47438893D01*
X61329520Y-47417850D01*
X61319030Y-47395671D01*
X61310765Y-47372572D01*
X61304804Y-47348773D01*
X61301204Y-47324505D01*
X61300000Y-47300001D01*
X61300000Y-46649999D01*
X61301204Y-46625495D01*
X61304804Y-46601227D01*
X61310765Y-46577428D01*
X61319030Y-46554329D01*
X61329520Y-46532150D01*
X61342132Y-46511107D01*
X61356747Y-46491401D01*
X61373223Y-46473223D01*
X61391401Y-46456747D01*
X61411107Y-46442132D01*
X61432150Y-46429520D01*
X61454329Y-46419030D01*
X61477428Y-46410765D01*
X61501227Y-46404804D01*
X61525495Y-46401204D01*
X61549999Y-46400000D01*
X62450001Y-46400000D01*
X62474505Y-46401204D01*
X62474505Y-46401204D01*
G37*
D12*
X62000000Y-46975000D03*
D11*
G36*
X62474505Y-48451204D02*
G01*
X62498773Y-48454804D01*
X62522572Y-48460765D01*
X62545671Y-48469030D01*
X62567850Y-48479520D01*
X62588893Y-48492132D01*
X62608599Y-48506747D01*
X62626777Y-48523223D01*
X62643253Y-48541401D01*
X62657868Y-48561107D01*
X62670480Y-48582150D01*
X62680970Y-48604329D01*
X62689235Y-48627428D01*
X62695196Y-48651227D01*
X62698796Y-48675495D01*
X62700000Y-48699999D01*
X62700000Y-49350001D01*
X62698796Y-49374505D01*
X62695196Y-49398773D01*
X62689235Y-49422572D01*
X62680970Y-49445671D01*
X62670480Y-49467850D01*
X62657868Y-49488893D01*
X62643253Y-49508599D01*
X62626777Y-49526777D01*
X62608599Y-49543253D01*
X62588893Y-49557868D01*
X62567850Y-49570480D01*
X62545671Y-49580970D01*
X62522572Y-49589235D01*
X62498773Y-49595196D01*
X62474505Y-49598796D01*
X62450001Y-49600000D01*
X61549999Y-49600000D01*
X61525495Y-49598796D01*
X61501227Y-49595196D01*
X61477428Y-49589235D01*
X61454329Y-49580970D01*
X61432150Y-49570480D01*
X61411107Y-49557868D01*
X61391401Y-49543253D01*
X61373223Y-49526777D01*
X61356747Y-49508599D01*
X61342132Y-49488893D01*
X61329520Y-49467850D01*
X61319030Y-49445671D01*
X61310765Y-49422572D01*
X61304804Y-49398773D01*
X61301204Y-49374505D01*
X61300000Y-49350001D01*
X61300000Y-48699999D01*
X61301204Y-48675495D01*
X61304804Y-48651227D01*
X61310765Y-48627428D01*
X61319030Y-48604329D01*
X61329520Y-48582150D01*
X61342132Y-48561107D01*
X61356747Y-48541401D01*
X61373223Y-48523223D01*
X61391401Y-48506747D01*
X61411107Y-48492132D01*
X61432150Y-48479520D01*
X61454329Y-48469030D01*
X61477428Y-48460765D01*
X61501227Y-48454804D01*
X61525495Y-48451204D01*
X61549999Y-48450000D01*
X62450001Y-48450000D01*
X62474505Y-48451204D01*
X62474505Y-48451204D01*
G37*
D12*
X62000000Y-49025000D03*
D11*
G36*
X62474505Y-56451204D02*
G01*
X62498773Y-56454804D01*
X62522572Y-56460765D01*
X62545671Y-56469030D01*
X62567850Y-56479520D01*
X62588893Y-56492132D01*
X62608599Y-56506747D01*
X62626777Y-56523223D01*
X62643253Y-56541401D01*
X62657868Y-56561107D01*
X62670480Y-56582150D01*
X62680970Y-56604329D01*
X62689235Y-56627428D01*
X62695196Y-56651227D01*
X62698796Y-56675495D01*
X62700000Y-56699999D01*
X62700000Y-57350001D01*
X62698796Y-57374505D01*
X62695196Y-57398773D01*
X62689235Y-57422572D01*
X62680970Y-57445671D01*
X62670480Y-57467850D01*
X62657868Y-57488893D01*
X62643253Y-57508599D01*
X62626777Y-57526777D01*
X62608599Y-57543253D01*
X62588893Y-57557868D01*
X62567850Y-57570480D01*
X62545671Y-57580970D01*
X62522572Y-57589235D01*
X62498773Y-57595196D01*
X62474505Y-57598796D01*
X62450001Y-57600000D01*
X61549999Y-57600000D01*
X61525495Y-57598796D01*
X61501227Y-57595196D01*
X61477428Y-57589235D01*
X61454329Y-57580970D01*
X61432150Y-57570480D01*
X61411107Y-57557868D01*
X61391401Y-57543253D01*
X61373223Y-57526777D01*
X61356747Y-57508599D01*
X61342132Y-57488893D01*
X61329520Y-57467850D01*
X61319030Y-57445671D01*
X61310765Y-57422572D01*
X61304804Y-57398773D01*
X61301204Y-57374505D01*
X61300000Y-57350001D01*
X61300000Y-56699999D01*
X61301204Y-56675495D01*
X61304804Y-56651227D01*
X61310765Y-56627428D01*
X61319030Y-56604329D01*
X61329520Y-56582150D01*
X61342132Y-56561107D01*
X61356747Y-56541401D01*
X61373223Y-56523223D01*
X61391401Y-56506747D01*
X61411107Y-56492132D01*
X61432150Y-56479520D01*
X61454329Y-56469030D01*
X61477428Y-56460765D01*
X61501227Y-56454804D01*
X61525495Y-56451204D01*
X61549999Y-56450000D01*
X62450001Y-56450000D01*
X62474505Y-56451204D01*
X62474505Y-56451204D01*
G37*
D12*
X62000000Y-57025000D03*
D11*
G36*
X62474505Y-54401204D02*
G01*
X62498773Y-54404804D01*
X62522572Y-54410765D01*
X62545671Y-54419030D01*
X62567850Y-54429520D01*
X62588893Y-54442132D01*
X62608599Y-54456747D01*
X62626777Y-54473223D01*
X62643253Y-54491401D01*
X62657868Y-54511107D01*
X62670480Y-54532150D01*
X62680970Y-54554329D01*
X62689235Y-54577428D01*
X62695196Y-54601227D01*
X62698796Y-54625495D01*
X62700000Y-54649999D01*
X62700000Y-55300001D01*
X62698796Y-55324505D01*
X62695196Y-55348773D01*
X62689235Y-55372572D01*
X62680970Y-55395671D01*
X62670480Y-55417850D01*
X62657868Y-55438893D01*
X62643253Y-55458599D01*
X62626777Y-55476777D01*
X62608599Y-55493253D01*
X62588893Y-55507868D01*
X62567850Y-55520480D01*
X62545671Y-55530970D01*
X62522572Y-55539235D01*
X62498773Y-55545196D01*
X62474505Y-55548796D01*
X62450001Y-55550000D01*
X61549999Y-55550000D01*
X61525495Y-55548796D01*
X61501227Y-55545196D01*
X61477428Y-55539235D01*
X61454329Y-55530970D01*
X61432150Y-55520480D01*
X61411107Y-55507868D01*
X61391401Y-55493253D01*
X61373223Y-55476777D01*
X61356747Y-55458599D01*
X61342132Y-55438893D01*
X61329520Y-55417850D01*
X61319030Y-55395671D01*
X61310765Y-55372572D01*
X61304804Y-55348773D01*
X61301204Y-55324505D01*
X61300000Y-55300001D01*
X61300000Y-54649999D01*
X61301204Y-54625495D01*
X61304804Y-54601227D01*
X61310765Y-54577428D01*
X61319030Y-54554329D01*
X61329520Y-54532150D01*
X61342132Y-54511107D01*
X61356747Y-54491401D01*
X61373223Y-54473223D01*
X61391401Y-54456747D01*
X61411107Y-54442132D01*
X61432150Y-54429520D01*
X61454329Y-54419030D01*
X61477428Y-54410765D01*
X61501227Y-54404804D01*
X61525495Y-54401204D01*
X61549999Y-54400000D01*
X62450001Y-54400000D01*
X62474505Y-54401204D01*
X62474505Y-54401204D01*
G37*
D12*
X62000000Y-54975000D03*
D11*
G36*
X81664703Y-31920722D02*
G01*
X81679264Y-31922882D01*
X81693543Y-31926459D01*
X81707403Y-31931418D01*
X81720710Y-31937712D01*
X81733336Y-31945280D01*
X81745159Y-31954048D01*
X81756066Y-31963934D01*
X81765952Y-31974841D01*
X81774720Y-31986664D01*
X81782288Y-31999290D01*
X81788582Y-32012597D01*
X81793541Y-32026457D01*
X81797118Y-32040736D01*
X81799278Y-32055297D01*
X81800000Y-32070000D01*
X81800000Y-32370000D01*
X81799278Y-32384703D01*
X81797118Y-32399264D01*
X81793541Y-32413543D01*
X81788582Y-32427403D01*
X81782288Y-32440710D01*
X81774720Y-32453336D01*
X81765952Y-32465159D01*
X81756066Y-32476066D01*
X81745159Y-32485952D01*
X81733336Y-32494720D01*
X81720710Y-32502288D01*
X81707403Y-32508582D01*
X81693543Y-32513541D01*
X81679264Y-32517118D01*
X81664703Y-32519278D01*
X81650000Y-32520000D01*
X80350000Y-32520000D01*
X80335297Y-32519278D01*
X80320736Y-32517118D01*
X80306457Y-32513541D01*
X80292597Y-32508582D01*
X80279290Y-32502288D01*
X80266664Y-32494720D01*
X80254841Y-32485952D01*
X80243934Y-32476066D01*
X80234048Y-32465159D01*
X80225280Y-32453336D01*
X80217712Y-32440710D01*
X80211418Y-32427403D01*
X80206459Y-32413543D01*
X80202882Y-32399264D01*
X80200722Y-32384703D01*
X80200000Y-32370000D01*
X80200000Y-32070000D01*
X80200722Y-32055297D01*
X80202882Y-32040736D01*
X80206459Y-32026457D01*
X80211418Y-32012597D01*
X80217712Y-31999290D01*
X80225280Y-31986664D01*
X80234048Y-31974841D01*
X80243934Y-31963934D01*
X80254841Y-31954048D01*
X80266664Y-31945280D01*
X80279290Y-31937712D01*
X80292597Y-31931418D01*
X80306457Y-31926459D01*
X80320736Y-31922882D01*
X80335297Y-31920722D01*
X80350000Y-31920000D01*
X81650000Y-31920000D01*
X81664703Y-31920722D01*
X81664703Y-31920722D01*
G37*
D15*
X81000000Y-32220000D03*
D11*
G36*
X81664703Y-33190722D02*
G01*
X81679264Y-33192882D01*
X81693543Y-33196459D01*
X81707403Y-33201418D01*
X81720710Y-33207712D01*
X81733336Y-33215280D01*
X81745159Y-33224048D01*
X81756066Y-33233934D01*
X81765952Y-33244841D01*
X81774720Y-33256664D01*
X81782288Y-33269290D01*
X81788582Y-33282597D01*
X81793541Y-33296457D01*
X81797118Y-33310736D01*
X81799278Y-33325297D01*
X81800000Y-33340000D01*
X81800000Y-33640000D01*
X81799278Y-33654703D01*
X81797118Y-33669264D01*
X81793541Y-33683543D01*
X81788582Y-33697403D01*
X81782288Y-33710710D01*
X81774720Y-33723336D01*
X81765952Y-33735159D01*
X81756066Y-33746066D01*
X81745159Y-33755952D01*
X81733336Y-33764720D01*
X81720710Y-33772288D01*
X81707403Y-33778582D01*
X81693543Y-33783541D01*
X81679264Y-33787118D01*
X81664703Y-33789278D01*
X81650000Y-33790000D01*
X80350000Y-33790000D01*
X80335297Y-33789278D01*
X80320736Y-33787118D01*
X80306457Y-33783541D01*
X80292597Y-33778582D01*
X80279290Y-33772288D01*
X80266664Y-33764720D01*
X80254841Y-33755952D01*
X80243934Y-33746066D01*
X80234048Y-33735159D01*
X80225280Y-33723336D01*
X80217712Y-33710710D01*
X80211418Y-33697403D01*
X80206459Y-33683543D01*
X80202882Y-33669264D01*
X80200722Y-33654703D01*
X80200000Y-33640000D01*
X80200000Y-33340000D01*
X80200722Y-33325297D01*
X80202882Y-33310736D01*
X80206459Y-33296457D01*
X80211418Y-33282597D01*
X80217712Y-33269290D01*
X80225280Y-33256664D01*
X80234048Y-33244841D01*
X80243934Y-33233934D01*
X80254841Y-33224048D01*
X80266664Y-33215280D01*
X80279290Y-33207712D01*
X80292597Y-33201418D01*
X80306457Y-33196459D01*
X80320736Y-33192882D01*
X80335297Y-33190722D01*
X80350000Y-33190000D01*
X81650000Y-33190000D01*
X81664703Y-33190722D01*
X81664703Y-33190722D01*
G37*
D15*
X81000000Y-33490000D03*
D11*
G36*
X81664703Y-34460722D02*
G01*
X81679264Y-34462882D01*
X81693543Y-34466459D01*
X81707403Y-34471418D01*
X81720710Y-34477712D01*
X81733336Y-34485280D01*
X81745159Y-34494048D01*
X81756066Y-34503934D01*
X81765952Y-34514841D01*
X81774720Y-34526664D01*
X81782288Y-34539290D01*
X81788582Y-34552597D01*
X81793541Y-34566457D01*
X81797118Y-34580736D01*
X81799278Y-34595297D01*
X81800000Y-34610000D01*
X81800000Y-34910000D01*
X81799278Y-34924703D01*
X81797118Y-34939264D01*
X81793541Y-34953543D01*
X81788582Y-34967403D01*
X81782288Y-34980710D01*
X81774720Y-34993336D01*
X81765952Y-35005159D01*
X81756066Y-35016066D01*
X81745159Y-35025952D01*
X81733336Y-35034720D01*
X81720710Y-35042288D01*
X81707403Y-35048582D01*
X81693543Y-35053541D01*
X81679264Y-35057118D01*
X81664703Y-35059278D01*
X81650000Y-35060000D01*
X80350000Y-35060000D01*
X80335297Y-35059278D01*
X80320736Y-35057118D01*
X80306457Y-35053541D01*
X80292597Y-35048582D01*
X80279290Y-35042288D01*
X80266664Y-35034720D01*
X80254841Y-35025952D01*
X80243934Y-35016066D01*
X80234048Y-35005159D01*
X80225280Y-34993336D01*
X80217712Y-34980710D01*
X80211418Y-34967403D01*
X80206459Y-34953543D01*
X80202882Y-34939264D01*
X80200722Y-34924703D01*
X80200000Y-34910000D01*
X80200000Y-34610000D01*
X80200722Y-34595297D01*
X80202882Y-34580736D01*
X80206459Y-34566457D01*
X80211418Y-34552597D01*
X80217712Y-34539290D01*
X80225280Y-34526664D01*
X80234048Y-34514841D01*
X80243934Y-34503934D01*
X80254841Y-34494048D01*
X80266664Y-34485280D01*
X80279290Y-34477712D01*
X80292597Y-34471418D01*
X80306457Y-34466459D01*
X80320736Y-34462882D01*
X80335297Y-34460722D01*
X80350000Y-34460000D01*
X81650000Y-34460000D01*
X81664703Y-34460722D01*
X81664703Y-34460722D01*
G37*
D15*
X81000000Y-34760000D03*
D11*
G36*
X81664703Y-35730722D02*
G01*
X81679264Y-35732882D01*
X81693543Y-35736459D01*
X81707403Y-35741418D01*
X81720710Y-35747712D01*
X81733336Y-35755280D01*
X81745159Y-35764048D01*
X81756066Y-35773934D01*
X81765952Y-35784841D01*
X81774720Y-35796664D01*
X81782288Y-35809290D01*
X81788582Y-35822597D01*
X81793541Y-35836457D01*
X81797118Y-35850736D01*
X81799278Y-35865297D01*
X81800000Y-35880000D01*
X81800000Y-36180000D01*
X81799278Y-36194703D01*
X81797118Y-36209264D01*
X81793541Y-36223543D01*
X81788582Y-36237403D01*
X81782288Y-36250710D01*
X81774720Y-36263336D01*
X81765952Y-36275159D01*
X81756066Y-36286066D01*
X81745159Y-36295952D01*
X81733336Y-36304720D01*
X81720710Y-36312288D01*
X81707403Y-36318582D01*
X81693543Y-36323541D01*
X81679264Y-36327118D01*
X81664703Y-36329278D01*
X81650000Y-36330000D01*
X80350000Y-36330000D01*
X80335297Y-36329278D01*
X80320736Y-36327118D01*
X80306457Y-36323541D01*
X80292597Y-36318582D01*
X80279290Y-36312288D01*
X80266664Y-36304720D01*
X80254841Y-36295952D01*
X80243934Y-36286066D01*
X80234048Y-36275159D01*
X80225280Y-36263336D01*
X80217712Y-36250710D01*
X80211418Y-36237403D01*
X80206459Y-36223543D01*
X80202882Y-36209264D01*
X80200722Y-36194703D01*
X80200000Y-36180000D01*
X80200000Y-35880000D01*
X80200722Y-35865297D01*
X80202882Y-35850736D01*
X80206459Y-35836457D01*
X80211418Y-35822597D01*
X80217712Y-35809290D01*
X80225280Y-35796664D01*
X80234048Y-35784841D01*
X80243934Y-35773934D01*
X80254841Y-35764048D01*
X80266664Y-35755280D01*
X80279290Y-35747712D01*
X80292597Y-35741418D01*
X80306457Y-35736459D01*
X80320736Y-35732882D01*
X80335297Y-35730722D01*
X80350000Y-35730000D01*
X81650000Y-35730000D01*
X81664703Y-35730722D01*
X81664703Y-35730722D01*
G37*
D15*
X81000000Y-36030000D03*
D11*
G36*
X81664703Y-37000722D02*
G01*
X81679264Y-37002882D01*
X81693543Y-37006459D01*
X81707403Y-37011418D01*
X81720710Y-37017712D01*
X81733336Y-37025280D01*
X81745159Y-37034048D01*
X81756066Y-37043934D01*
X81765952Y-37054841D01*
X81774720Y-37066664D01*
X81782288Y-37079290D01*
X81788582Y-37092597D01*
X81793541Y-37106457D01*
X81797118Y-37120736D01*
X81799278Y-37135297D01*
X81800000Y-37150000D01*
X81800000Y-37450000D01*
X81799278Y-37464703D01*
X81797118Y-37479264D01*
X81793541Y-37493543D01*
X81788582Y-37507403D01*
X81782288Y-37520710D01*
X81774720Y-37533336D01*
X81765952Y-37545159D01*
X81756066Y-37556066D01*
X81745159Y-37565952D01*
X81733336Y-37574720D01*
X81720710Y-37582288D01*
X81707403Y-37588582D01*
X81693543Y-37593541D01*
X81679264Y-37597118D01*
X81664703Y-37599278D01*
X81650000Y-37600000D01*
X80350000Y-37600000D01*
X80335297Y-37599278D01*
X80320736Y-37597118D01*
X80306457Y-37593541D01*
X80292597Y-37588582D01*
X80279290Y-37582288D01*
X80266664Y-37574720D01*
X80254841Y-37565952D01*
X80243934Y-37556066D01*
X80234048Y-37545159D01*
X80225280Y-37533336D01*
X80217712Y-37520710D01*
X80211418Y-37507403D01*
X80206459Y-37493543D01*
X80202882Y-37479264D01*
X80200722Y-37464703D01*
X80200000Y-37450000D01*
X80200000Y-37150000D01*
X80200722Y-37135297D01*
X80202882Y-37120736D01*
X80206459Y-37106457D01*
X80211418Y-37092597D01*
X80217712Y-37079290D01*
X80225280Y-37066664D01*
X80234048Y-37054841D01*
X80243934Y-37043934D01*
X80254841Y-37034048D01*
X80266664Y-37025280D01*
X80279290Y-37017712D01*
X80292597Y-37011418D01*
X80306457Y-37006459D01*
X80320736Y-37002882D01*
X80335297Y-37000722D01*
X80350000Y-37000000D01*
X81650000Y-37000000D01*
X81664703Y-37000722D01*
X81664703Y-37000722D01*
G37*
D15*
X81000000Y-37300000D03*
D11*
G36*
X81664703Y-38270722D02*
G01*
X81679264Y-38272882D01*
X81693543Y-38276459D01*
X81707403Y-38281418D01*
X81720710Y-38287712D01*
X81733336Y-38295280D01*
X81745159Y-38304048D01*
X81756066Y-38313934D01*
X81765952Y-38324841D01*
X81774720Y-38336664D01*
X81782288Y-38349290D01*
X81788582Y-38362597D01*
X81793541Y-38376457D01*
X81797118Y-38390736D01*
X81799278Y-38405297D01*
X81800000Y-38420000D01*
X81800000Y-38720000D01*
X81799278Y-38734703D01*
X81797118Y-38749264D01*
X81793541Y-38763543D01*
X81788582Y-38777403D01*
X81782288Y-38790710D01*
X81774720Y-38803336D01*
X81765952Y-38815159D01*
X81756066Y-38826066D01*
X81745159Y-38835952D01*
X81733336Y-38844720D01*
X81720710Y-38852288D01*
X81707403Y-38858582D01*
X81693543Y-38863541D01*
X81679264Y-38867118D01*
X81664703Y-38869278D01*
X81650000Y-38870000D01*
X80350000Y-38870000D01*
X80335297Y-38869278D01*
X80320736Y-38867118D01*
X80306457Y-38863541D01*
X80292597Y-38858582D01*
X80279290Y-38852288D01*
X80266664Y-38844720D01*
X80254841Y-38835952D01*
X80243934Y-38826066D01*
X80234048Y-38815159D01*
X80225280Y-38803336D01*
X80217712Y-38790710D01*
X80211418Y-38777403D01*
X80206459Y-38763543D01*
X80202882Y-38749264D01*
X80200722Y-38734703D01*
X80200000Y-38720000D01*
X80200000Y-38420000D01*
X80200722Y-38405297D01*
X80202882Y-38390736D01*
X80206459Y-38376457D01*
X80211418Y-38362597D01*
X80217712Y-38349290D01*
X80225280Y-38336664D01*
X80234048Y-38324841D01*
X80243934Y-38313934D01*
X80254841Y-38304048D01*
X80266664Y-38295280D01*
X80279290Y-38287712D01*
X80292597Y-38281418D01*
X80306457Y-38276459D01*
X80320736Y-38272882D01*
X80335297Y-38270722D01*
X80350000Y-38270000D01*
X81650000Y-38270000D01*
X81664703Y-38270722D01*
X81664703Y-38270722D01*
G37*
D15*
X81000000Y-38570000D03*
D11*
G36*
X81664703Y-39540722D02*
G01*
X81679264Y-39542882D01*
X81693543Y-39546459D01*
X81707403Y-39551418D01*
X81720710Y-39557712D01*
X81733336Y-39565280D01*
X81745159Y-39574048D01*
X81756066Y-39583934D01*
X81765952Y-39594841D01*
X81774720Y-39606664D01*
X81782288Y-39619290D01*
X81788582Y-39632597D01*
X81793541Y-39646457D01*
X81797118Y-39660736D01*
X81799278Y-39675297D01*
X81800000Y-39690000D01*
X81800000Y-39990000D01*
X81799278Y-40004703D01*
X81797118Y-40019264D01*
X81793541Y-40033543D01*
X81788582Y-40047403D01*
X81782288Y-40060710D01*
X81774720Y-40073336D01*
X81765952Y-40085159D01*
X81756066Y-40096066D01*
X81745159Y-40105952D01*
X81733336Y-40114720D01*
X81720710Y-40122288D01*
X81707403Y-40128582D01*
X81693543Y-40133541D01*
X81679264Y-40137118D01*
X81664703Y-40139278D01*
X81650000Y-40140000D01*
X80350000Y-40140000D01*
X80335297Y-40139278D01*
X80320736Y-40137118D01*
X80306457Y-40133541D01*
X80292597Y-40128582D01*
X80279290Y-40122288D01*
X80266664Y-40114720D01*
X80254841Y-40105952D01*
X80243934Y-40096066D01*
X80234048Y-40085159D01*
X80225280Y-40073336D01*
X80217712Y-40060710D01*
X80211418Y-40047403D01*
X80206459Y-40033543D01*
X80202882Y-40019264D01*
X80200722Y-40004703D01*
X80200000Y-39990000D01*
X80200000Y-39690000D01*
X80200722Y-39675297D01*
X80202882Y-39660736D01*
X80206459Y-39646457D01*
X80211418Y-39632597D01*
X80217712Y-39619290D01*
X80225280Y-39606664D01*
X80234048Y-39594841D01*
X80243934Y-39583934D01*
X80254841Y-39574048D01*
X80266664Y-39565280D01*
X80279290Y-39557712D01*
X80292597Y-39551418D01*
X80306457Y-39546459D01*
X80320736Y-39542882D01*
X80335297Y-39540722D01*
X80350000Y-39540000D01*
X81650000Y-39540000D01*
X81664703Y-39540722D01*
X81664703Y-39540722D01*
G37*
D15*
X81000000Y-39840000D03*
D11*
G36*
X81664703Y-40810722D02*
G01*
X81679264Y-40812882D01*
X81693543Y-40816459D01*
X81707403Y-40821418D01*
X81720710Y-40827712D01*
X81733336Y-40835280D01*
X81745159Y-40844048D01*
X81756066Y-40853934D01*
X81765952Y-40864841D01*
X81774720Y-40876664D01*
X81782288Y-40889290D01*
X81788582Y-40902597D01*
X81793541Y-40916457D01*
X81797118Y-40930736D01*
X81799278Y-40945297D01*
X81800000Y-40960000D01*
X81800000Y-41260000D01*
X81799278Y-41274703D01*
X81797118Y-41289264D01*
X81793541Y-41303543D01*
X81788582Y-41317403D01*
X81782288Y-41330710D01*
X81774720Y-41343336D01*
X81765952Y-41355159D01*
X81756066Y-41366066D01*
X81745159Y-41375952D01*
X81733336Y-41384720D01*
X81720710Y-41392288D01*
X81707403Y-41398582D01*
X81693543Y-41403541D01*
X81679264Y-41407118D01*
X81664703Y-41409278D01*
X81650000Y-41410000D01*
X80350000Y-41410000D01*
X80335297Y-41409278D01*
X80320736Y-41407118D01*
X80306457Y-41403541D01*
X80292597Y-41398582D01*
X80279290Y-41392288D01*
X80266664Y-41384720D01*
X80254841Y-41375952D01*
X80243934Y-41366066D01*
X80234048Y-41355159D01*
X80225280Y-41343336D01*
X80217712Y-41330710D01*
X80211418Y-41317403D01*
X80206459Y-41303543D01*
X80202882Y-41289264D01*
X80200722Y-41274703D01*
X80200000Y-41260000D01*
X80200000Y-40960000D01*
X80200722Y-40945297D01*
X80202882Y-40930736D01*
X80206459Y-40916457D01*
X80211418Y-40902597D01*
X80217712Y-40889290D01*
X80225280Y-40876664D01*
X80234048Y-40864841D01*
X80243934Y-40853934D01*
X80254841Y-40844048D01*
X80266664Y-40835280D01*
X80279290Y-40827712D01*
X80292597Y-40821418D01*
X80306457Y-40816459D01*
X80320736Y-40812882D01*
X80335297Y-40810722D01*
X80350000Y-40810000D01*
X81650000Y-40810000D01*
X81664703Y-40810722D01*
X81664703Y-40810722D01*
G37*
D15*
X81000000Y-41110000D03*
D11*
G36*
X75164703Y-40810722D02*
G01*
X75179264Y-40812882D01*
X75193543Y-40816459D01*
X75207403Y-40821418D01*
X75220710Y-40827712D01*
X75233336Y-40835280D01*
X75245159Y-40844048D01*
X75256066Y-40853934D01*
X75265952Y-40864841D01*
X75274720Y-40876664D01*
X75282288Y-40889290D01*
X75288582Y-40902597D01*
X75293541Y-40916457D01*
X75297118Y-40930736D01*
X75299278Y-40945297D01*
X75300000Y-40960000D01*
X75300000Y-41260000D01*
X75299278Y-41274703D01*
X75297118Y-41289264D01*
X75293541Y-41303543D01*
X75288582Y-41317403D01*
X75282288Y-41330710D01*
X75274720Y-41343336D01*
X75265952Y-41355159D01*
X75256066Y-41366066D01*
X75245159Y-41375952D01*
X75233336Y-41384720D01*
X75220710Y-41392288D01*
X75207403Y-41398582D01*
X75193543Y-41403541D01*
X75179264Y-41407118D01*
X75164703Y-41409278D01*
X75150000Y-41410000D01*
X73850000Y-41410000D01*
X73835297Y-41409278D01*
X73820736Y-41407118D01*
X73806457Y-41403541D01*
X73792597Y-41398582D01*
X73779290Y-41392288D01*
X73766664Y-41384720D01*
X73754841Y-41375952D01*
X73743934Y-41366066D01*
X73734048Y-41355159D01*
X73725280Y-41343336D01*
X73717712Y-41330710D01*
X73711418Y-41317403D01*
X73706459Y-41303543D01*
X73702882Y-41289264D01*
X73700722Y-41274703D01*
X73700000Y-41260000D01*
X73700000Y-40960000D01*
X73700722Y-40945297D01*
X73702882Y-40930736D01*
X73706459Y-40916457D01*
X73711418Y-40902597D01*
X73717712Y-40889290D01*
X73725280Y-40876664D01*
X73734048Y-40864841D01*
X73743934Y-40853934D01*
X73754841Y-40844048D01*
X73766664Y-40835280D01*
X73779290Y-40827712D01*
X73792597Y-40821418D01*
X73806457Y-40816459D01*
X73820736Y-40812882D01*
X73835297Y-40810722D01*
X73850000Y-40810000D01*
X75150000Y-40810000D01*
X75164703Y-40810722D01*
X75164703Y-40810722D01*
G37*
D15*
X74500000Y-41110000D03*
D11*
G36*
X75164703Y-39540722D02*
G01*
X75179264Y-39542882D01*
X75193543Y-39546459D01*
X75207403Y-39551418D01*
X75220710Y-39557712D01*
X75233336Y-39565280D01*
X75245159Y-39574048D01*
X75256066Y-39583934D01*
X75265952Y-39594841D01*
X75274720Y-39606664D01*
X75282288Y-39619290D01*
X75288582Y-39632597D01*
X75293541Y-39646457D01*
X75297118Y-39660736D01*
X75299278Y-39675297D01*
X75300000Y-39690000D01*
X75300000Y-39990000D01*
X75299278Y-40004703D01*
X75297118Y-40019264D01*
X75293541Y-40033543D01*
X75288582Y-40047403D01*
X75282288Y-40060710D01*
X75274720Y-40073336D01*
X75265952Y-40085159D01*
X75256066Y-40096066D01*
X75245159Y-40105952D01*
X75233336Y-40114720D01*
X75220710Y-40122288D01*
X75207403Y-40128582D01*
X75193543Y-40133541D01*
X75179264Y-40137118D01*
X75164703Y-40139278D01*
X75150000Y-40140000D01*
X73850000Y-40140000D01*
X73835297Y-40139278D01*
X73820736Y-40137118D01*
X73806457Y-40133541D01*
X73792597Y-40128582D01*
X73779290Y-40122288D01*
X73766664Y-40114720D01*
X73754841Y-40105952D01*
X73743934Y-40096066D01*
X73734048Y-40085159D01*
X73725280Y-40073336D01*
X73717712Y-40060710D01*
X73711418Y-40047403D01*
X73706459Y-40033543D01*
X73702882Y-40019264D01*
X73700722Y-40004703D01*
X73700000Y-39990000D01*
X73700000Y-39690000D01*
X73700722Y-39675297D01*
X73702882Y-39660736D01*
X73706459Y-39646457D01*
X73711418Y-39632597D01*
X73717712Y-39619290D01*
X73725280Y-39606664D01*
X73734048Y-39594841D01*
X73743934Y-39583934D01*
X73754841Y-39574048D01*
X73766664Y-39565280D01*
X73779290Y-39557712D01*
X73792597Y-39551418D01*
X73806457Y-39546459D01*
X73820736Y-39542882D01*
X73835297Y-39540722D01*
X73850000Y-39540000D01*
X75150000Y-39540000D01*
X75164703Y-39540722D01*
X75164703Y-39540722D01*
G37*
D15*
X74500000Y-39840000D03*
D11*
G36*
X75164703Y-38270722D02*
G01*
X75179264Y-38272882D01*
X75193543Y-38276459D01*
X75207403Y-38281418D01*
X75220710Y-38287712D01*
X75233336Y-38295280D01*
X75245159Y-38304048D01*
X75256066Y-38313934D01*
X75265952Y-38324841D01*
X75274720Y-38336664D01*
X75282288Y-38349290D01*
X75288582Y-38362597D01*
X75293541Y-38376457D01*
X75297118Y-38390736D01*
X75299278Y-38405297D01*
X75300000Y-38420000D01*
X75300000Y-38720000D01*
X75299278Y-38734703D01*
X75297118Y-38749264D01*
X75293541Y-38763543D01*
X75288582Y-38777403D01*
X75282288Y-38790710D01*
X75274720Y-38803336D01*
X75265952Y-38815159D01*
X75256066Y-38826066D01*
X75245159Y-38835952D01*
X75233336Y-38844720D01*
X75220710Y-38852288D01*
X75207403Y-38858582D01*
X75193543Y-38863541D01*
X75179264Y-38867118D01*
X75164703Y-38869278D01*
X75150000Y-38870000D01*
X73850000Y-38870000D01*
X73835297Y-38869278D01*
X73820736Y-38867118D01*
X73806457Y-38863541D01*
X73792597Y-38858582D01*
X73779290Y-38852288D01*
X73766664Y-38844720D01*
X73754841Y-38835952D01*
X73743934Y-38826066D01*
X73734048Y-38815159D01*
X73725280Y-38803336D01*
X73717712Y-38790710D01*
X73711418Y-38777403D01*
X73706459Y-38763543D01*
X73702882Y-38749264D01*
X73700722Y-38734703D01*
X73700000Y-38720000D01*
X73700000Y-38420000D01*
X73700722Y-38405297D01*
X73702882Y-38390736D01*
X73706459Y-38376457D01*
X73711418Y-38362597D01*
X73717712Y-38349290D01*
X73725280Y-38336664D01*
X73734048Y-38324841D01*
X73743934Y-38313934D01*
X73754841Y-38304048D01*
X73766664Y-38295280D01*
X73779290Y-38287712D01*
X73792597Y-38281418D01*
X73806457Y-38276459D01*
X73820736Y-38272882D01*
X73835297Y-38270722D01*
X73850000Y-38270000D01*
X75150000Y-38270000D01*
X75164703Y-38270722D01*
X75164703Y-38270722D01*
G37*
D15*
X74500000Y-38570000D03*
D11*
G36*
X75164703Y-37000722D02*
G01*
X75179264Y-37002882D01*
X75193543Y-37006459D01*
X75207403Y-37011418D01*
X75220710Y-37017712D01*
X75233336Y-37025280D01*
X75245159Y-37034048D01*
X75256066Y-37043934D01*
X75265952Y-37054841D01*
X75274720Y-37066664D01*
X75282288Y-37079290D01*
X75288582Y-37092597D01*
X75293541Y-37106457D01*
X75297118Y-37120736D01*
X75299278Y-37135297D01*
X75300000Y-37150000D01*
X75300000Y-37450000D01*
X75299278Y-37464703D01*
X75297118Y-37479264D01*
X75293541Y-37493543D01*
X75288582Y-37507403D01*
X75282288Y-37520710D01*
X75274720Y-37533336D01*
X75265952Y-37545159D01*
X75256066Y-37556066D01*
X75245159Y-37565952D01*
X75233336Y-37574720D01*
X75220710Y-37582288D01*
X75207403Y-37588582D01*
X75193543Y-37593541D01*
X75179264Y-37597118D01*
X75164703Y-37599278D01*
X75150000Y-37600000D01*
X73850000Y-37600000D01*
X73835297Y-37599278D01*
X73820736Y-37597118D01*
X73806457Y-37593541D01*
X73792597Y-37588582D01*
X73779290Y-37582288D01*
X73766664Y-37574720D01*
X73754841Y-37565952D01*
X73743934Y-37556066D01*
X73734048Y-37545159D01*
X73725280Y-37533336D01*
X73717712Y-37520710D01*
X73711418Y-37507403D01*
X73706459Y-37493543D01*
X73702882Y-37479264D01*
X73700722Y-37464703D01*
X73700000Y-37450000D01*
X73700000Y-37150000D01*
X73700722Y-37135297D01*
X73702882Y-37120736D01*
X73706459Y-37106457D01*
X73711418Y-37092597D01*
X73717712Y-37079290D01*
X73725280Y-37066664D01*
X73734048Y-37054841D01*
X73743934Y-37043934D01*
X73754841Y-37034048D01*
X73766664Y-37025280D01*
X73779290Y-37017712D01*
X73792597Y-37011418D01*
X73806457Y-37006459D01*
X73820736Y-37002882D01*
X73835297Y-37000722D01*
X73850000Y-37000000D01*
X75150000Y-37000000D01*
X75164703Y-37000722D01*
X75164703Y-37000722D01*
G37*
D15*
X74500000Y-37300000D03*
D11*
G36*
X75164703Y-35730722D02*
G01*
X75179264Y-35732882D01*
X75193543Y-35736459D01*
X75207403Y-35741418D01*
X75220710Y-35747712D01*
X75233336Y-35755280D01*
X75245159Y-35764048D01*
X75256066Y-35773934D01*
X75265952Y-35784841D01*
X75274720Y-35796664D01*
X75282288Y-35809290D01*
X75288582Y-35822597D01*
X75293541Y-35836457D01*
X75297118Y-35850736D01*
X75299278Y-35865297D01*
X75300000Y-35880000D01*
X75300000Y-36180000D01*
X75299278Y-36194703D01*
X75297118Y-36209264D01*
X75293541Y-36223543D01*
X75288582Y-36237403D01*
X75282288Y-36250710D01*
X75274720Y-36263336D01*
X75265952Y-36275159D01*
X75256066Y-36286066D01*
X75245159Y-36295952D01*
X75233336Y-36304720D01*
X75220710Y-36312288D01*
X75207403Y-36318582D01*
X75193543Y-36323541D01*
X75179264Y-36327118D01*
X75164703Y-36329278D01*
X75150000Y-36330000D01*
X73850000Y-36330000D01*
X73835297Y-36329278D01*
X73820736Y-36327118D01*
X73806457Y-36323541D01*
X73792597Y-36318582D01*
X73779290Y-36312288D01*
X73766664Y-36304720D01*
X73754841Y-36295952D01*
X73743934Y-36286066D01*
X73734048Y-36275159D01*
X73725280Y-36263336D01*
X73717712Y-36250710D01*
X73711418Y-36237403D01*
X73706459Y-36223543D01*
X73702882Y-36209264D01*
X73700722Y-36194703D01*
X73700000Y-36180000D01*
X73700000Y-35880000D01*
X73700722Y-35865297D01*
X73702882Y-35850736D01*
X73706459Y-35836457D01*
X73711418Y-35822597D01*
X73717712Y-35809290D01*
X73725280Y-35796664D01*
X73734048Y-35784841D01*
X73743934Y-35773934D01*
X73754841Y-35764048D01*
X73766664Y-35755280D01*
X73779290Y-35747712D01*
X73792597Y-35741418D01*
X73806457Y-35736459D01*
X73820736Y-35732882D01*
X73835297Y-35730722D01*
X73850000Y-35730000D01*
X75150000Y-35730000D01*
X75164703Y-35730722D01*
X75164703Y-35730722D01*
G37*
D15*
X74500000Y-36030000D03*
D11*
G36*
X75164703Y-34460722D02*
G01*
X75179264Y-34462882D01*
X75193543Y-34466459D01*
X75207403Y-34471418D01*
X75220710Y-34477712D01*
X75233336Y-34485280D01*
X75245159Y-34494048D01*
X75256066Y-34503934D01*
X75265952Y-34514841D01*
X75274720Y-34526664D01*
X75282288Y-34539290D01*
X75288582Y-34552597D01*
X75293541Y-34566457D01*
X75297118Y-34580736D01*
X75299278Y-34595297D01*
X75300000Y-34610000D01*
X75300000Y-34910000D01*
X75299278Y-34924703D01*
X75297118Y-34939264D01*
X75293541Y-34953543D01*
X75288582Y-34967403D01*
X75282288Y-34980710D01*
X75274720Y-34993336D01*
X75265952Y-35005159D01*
X75256066Y-35016066D01*
X75245159Y-35025952D01*
X75233336Y-35034720D01*
X75220710Y-35042288D01*
X75207403Y-35048582D01*
X75193543Y-35053541D01*
X75179264Y-35057118D01*
X75164703Y-35059278D01*
X75150000Y-35060000D01*
X73850000Y-35060000D01*
X73835297Y-35059278D01*
X73820736Y-35057118D01*
X73806457Y-35053541D01*
X73792597Y-35048582D01*
X73779290Y-35042288D01*
X73766664Y-35034720D01*
X73754841Y-35025952D01*
X73743934Y-35016066D01*
X73734048Y-35005159D01*
X73725280Y-34993336D01*
X73717712Y-34980710D01*
X73711418Y-34967403D01*
X73706459Y-34953543D01*
X73702882Y-34939264D01*
X73700722Y-34924703D01*
X73700000Y-34910000D01*
X73700000Y-34610000D01*
X73700722Y-34595297D01*
X73702882Y-34580736D01*
X73706459Y-34566457D01*
X73711418Y-34552597D01*
X73717712Y-34539290D01*
X73725280Y-34526664D01*
X73734048Y-34514841D01*
X73743934Y-34503934D01*
X73754841Y-34494048D01*
X73766664Y-34485280D01*
X73779290Y-34477712D01*
X73792597Y-34471418D01*
X73806457Y-34466459D01*
X73820736Y-34462882D01*
X73835297Y-34460722D01*
X73850000Y-34460000D01*
X75150000Y-34460000D01*
X75164703Y-34460722D01*
X75164703Y-34460722D01*
G37*
D15*
X74500000Y-34760000D03*
D11*
G36*
X75164703Y-33190722D02*
G01*
X75179264Y-33192882D01*
X75193543Y-33196459D01*
X75207403Y-33201418D01*
X75220710Y-33207712D01*
X75233336Y-33215280D01*
X75245159Y-33224048D01*
X75256066Y-33233934D01*
X75265952Y-33244841D01*
X75274720Y-33256664D01*
X75282288Y-33269290D01*
X75288582Y-33282597D01*
X75293541Y-33296457D01*
X75297118Y-33310736D01*
X75299278Y-33325297D01*
X75300000Y-33340000D01*
X75300000Y-33640000D01*
X75299278Y-33654703D01*
X75297118Y-33669264D01*
X75293541Y-33683543D01*
X75288582Y-33697403D01*
X75282288Y-33710710D01*
X75274720Y-33723336D01*
X75265952Y-33735159D01*
X75256066Y-33746066D01*
X75245159Y-33755952D01*
X75233336Y-33764720D01*
X75220710Y-33772288D01*
X75207403Y-33778582D01*
X75193543Y-33783541D01*
X75179264Y-33787118D01*
X75164703Y-33789278D01*
X75150000Y-33790000D01*
X73850000Y-33790000D01*
X73835297Y-33789278D01*
X73820736Y-33787118D01*
X73806457Y-33783541D01*
X73792597Y-33778582D01*
X73779290Y-33772288D01*
X73766664Y-33764720D01*
X73754841Y-33755952D01*
X73743934Y-33746066D01*
X73734048Y-33735159D01*
X73725280Y-33723336D01*
X73717712Y-33710710D01*
X73711418Y-33697403D01*
X73706459Y-33683543D01*
X73702882Y-33669264D01*
X73700722Y-33654703D01*
X73700000Y-33640000D01*
X73700000Y-33340000D01*
X73700722Y-33325297D01*
X73702882Y-33310736D01*
X73706459Y-33296457D01*
X73711418Y-33282597D01*
X73717712Y-33269290D01*
X73725280Y-33256664D01*
X73734048Y-33244841D01*
X73743934Y-33233934D01*
X73754841Y-33224048D01*
X73766664Y-33215280D01*
X73779290Y-33207712D01*
X73792597Y-33201418D01*
X73806457Y-33196459D01*
X73820736Y-33192882D01*
X73835297Y-33190722D01*
X73850000Y-33190000D01*
X75150000Y-33190000D01*
X75164703Y-33190722D01*
X75164703Y-33190722D01*
G37*
D15*
X74500000Y-33490000D03*
D11*
G36*
X75164703Y-31920722D02*
G01*
X75179264Y-31922882D01*
X75193543Y-31926459D01*
X75207403Y-31931418D01*
X75220710Y-31937712D01*
X75233336Y-31945280D01*
X75245159Y-31954048D01*
X75256066Y-31963934D01*
X75265952Y-31974841D01*
X75274720Y-31986664D01*
X75282288Y-31999290D01*
X75288582Y-32012597D01*
X75293541Y-32026457D01*
X75297118Y-32040736D01*
X75299278Y-32055297D01*
X75300000Y-32070000D01*
X75300000Y-32370000D01*
X75299278Y-32384703D01*
X75297118Y-32399264D01*
X75293541Y-32413543D01*
X75288582Y-32427403D01*
X75282288Y-32440710D01*
X75274720Y-32453336D01*
X75265952Y-32465159D01*
X75256066Y-32476066D01*
X75245159Y-32485952D01*
X75233336Y-32494720D01*
X75220710Y-32502288D01*
X75207403Y-32508582D01*
X75193543Y-32513541D01*
X75179264Y-32517118D01*
X75164703Y-32519278D01*
X75150000Y-32520000D01*
X73850000Y-32520000D01*
X73835297Y-32519278D01*
X73820736Y-32517118D01*
X73806457Y-32513541D01*
X73792597Y-32508582D01*
X73779290Y-32502288D01*
X73766664Y-32494720D01*
X73754841Y-32485952D01*
X73743934Y-32476066D01*
X73734048Y-32465159D01*
X73725280Y-32453336D01*
X73717712Y-32440710D01*
X73711418Y-32427403D01*
X73706459Y-32413543D01*
X73702882Y-32399264D01*
X73700722Y-32384703D01*
X73700000Y-32370000D01*
X73700000Y-32070000D01*
X73700722Y-32055297D01*
X73702882Y-32040736D01*
X73706459Y-32026457D01*
X73711418Y-32012597D01*
X73717712Y-31999290D01*
X73725280Y-31986664D01*
X73734048Y-31974841D01*
X73743934Y-31963934D01*
X73754841Y-31954048D01*
X73766664Y-31945280D01*
X73779290Y-31937712D01*
X73792597Y-31931418D01*
X73806457Y-31926459D01*
X73820736Y-31922882D01*
X73835297Y-31920722D01*
X73850000Y-31920000D01*
X75150000Y-31920000D01*
X75164703Y-31920722D01*
X75164703Y-31920722D01*
G37*
D15*
X74500000Y-32220000D03*
D11*
G36*
X75164703Y-18250722D02*
G01*
X75179264Y-18252882D01*
X75193543Y-18256459D01*
X75207403Y-18261418D01*
X75220710Y-18267712D01*
X75233336Y-18275280D01*
X75245159Y-18284048D01*
X75256066Y-18293934D01*
X75265952Y-18304841D01*
X75274720Y-18316664D01*
X75282288Y-18329290D01*
X75288582Y-18342597D01*
X75293541Y-18356457D01*
X75297118Y-18370736D01*
X75299278Y-18385297D01*
X75300000Y-18400000D01*
X75300000Y-18700000D01*
X75299278Y-18714703D01*
X75297118Y-18729264D01*
X75293541Y-18743543D01*
X75288582Y-18757403D01*
X75282288Y-18770710D01*
X75274720Y-18783336D01*
X75265952Y-18795159D01*
X75256066Y-18806066D01*
X75245159Y-18815952D01*
X75233336Y-18824720D01*
X75220710Y-18832288D01*
X75207403Y-18838582D01*
X75193543Y-18843541D01*
X75179264Y-18847118D01*
X75164703Y-18849278D01*
X75150000Y-18850000D01*
X73850000Y-18850000D01*
X73835297Y-18849278D01*
X73820736Y-18847118D01*
X73806457Y-18843541D01*
X73792597Y-18838582D01*
X73779290Y-18832288D01*
X73766664Y-18824720D01*
X73754841Y-18815952D01*
X73743934Y-18806066D01*
X73734048Y-18795159D01*
X73725280Y-18783336D01*
X73717712Y-18770710D01*
X73711418Y-18757403D01*
X73706459Y-18743543D01*
X73702882Y-18729264D01*
X73700722Y-18714703D01*
X73700000Y-18700000D01*
X73700000Y-18400000D01*
X73700722Y-18385297D01*
X73702882Y-18370736D01*
X73706459Y-18356457D01*
X73711418Y-18342597D01*
X73717712Y-18329290D01*
X73725280Y-18316664D01*
X73734048Y-18304841D01*
X73743934Y-18293934D01*
X73754841Y-18284048D01*
X73766664Y-18275280D01*
X73779290Y-18267712D01*
X73792597Y-18261418D01*
X73806457Y-18256459D01*
X73820736Y-18252882D01*
X73835297Y-18250722D01*
X73850000Y-18250000D01*
X75150000Y-18250000D01*
X75164703Y-18250722D01*
X75164703Y-18250722D01*
G37*
D15*
X74500000Y-18550000D03*
D11*
G36*
X75164703Y-19520722D02*
G01*
X75179264Y-19522882D01*
X75193543Y-19526459D01*
X75207403Y-19531418D01*
X75220710Y-19537712D01*
X75233336Y-19545280D01*
X75245159Y-19554048D01*
X75256066Y-19563934D01*
X75265952Y-19574841D01*
X75274720Y-19586664D01*
X75282288Y-19599290D01*
X75288582Y-19612597D01*
X75293541Y-19626457D01*
X75297118Y-19640736D01*
X75299278Y-19655297D01*
X75300000Y-19670000D01*
X75300000Y-19970000D01*
X75299278Y-19984703D01*
X75297118Y-19999264D01*
X75293541Y-20013543D01*
X75288582Y-20027403D01*
X75282288Y-20040710D01*
X75274720Y-20053336D01*
X75265952Y-20065159D01*
X75256066Y-20076066D01*
X75245159Y-20085952D01*
X75233336Y-20094720D01*
X75220710Y-20102288D01*
X75207403Y-20108582D01*
X75193543Y-20113541D01*
X75179264Y-20117118D01*
X75164703Y-20119278D01*
X75150000Y-20120000D01*
X73850000Y-20120000D01*
X73835297Y-20119278D01*
X73820736Y-20117118D01*
X73806457Y-20113541D01*
X73792597Y-20108582D01*
X73779290Y-20102288D01*
X73766664Y-20094720D01*
X73754841Y-20085952D01*
X73743934Y-20076066D01*
X73734048Y-20065159D01*
X73725280Y-20053336D01*
X73717712Y-20040710D01*
X73711418Y-20027403D01*
X73706459Y-20013543D01*
X73702882Y-19999264D01*
X73700722Y-19984703D01*
X73700000Y-19970000D01*
X73700000Y-19670000D01*
X73700722Y-19655297D01*
X73702882Y-19640736D01*
X73706459Y-19626457D01*
X73711418Y-19612597D01*
X73717712Y-19599290D01*
X73725280Y-19586664D01*
X73734048Y-19574841D01*
X73743934Y-19563934D01*
X73754841Y-19554048D01*
X73766664Y-19545280D01*
X73779290Y-19537712D01*
X73792597Y-19531418D01*
X73806457Y-19526459D01*
X73820736Y-19522882D01*
X73835297Y-19520722D01*
X73850000Y-19520000D01*
X75150000Y-19520000D01*
X75164703Y-19520722D01*
X75164703Y-19520722D01*
G37*
D15*
X74500000Y-19820000D03*
D11*
G36*
X75164703Y-20790722D02*
G01*
X75179264Y-20792882D01*
X75193543Y-20796459D01*
X75207403Y-20801418D01*
X75220710Y-20807712D01*
X75233336Y-20815280D01*
X75245159Y-20824048D01*
X75256066Y-20833934D01*
X75265952Y-20844841D01*
X75274720Y-20856664D01*
X75282288Y-20869290D01*
X75288582Y-20882597D01*
X75293541Y-20896457D01*
X75297118Y-20910736D01*
X75299278Y-20925297D01*
X75300000Y-20940000D01*
X75300000Y-21240000D01*
X75299278Y-21254703D01*
X75297118Y-21269264D01*
X75293541Y-21283543D01*
X75288582Y-21297403D01*
X75282288Y-21310710D01*
X75274720Y-21323336D01*
X75265952Y-21335159D01*
X75256066Y-21346066D01*
X75245159Y-21355952D01*
X75233336Y-21364720D01*
X75220710Y-21372288D01*
X75207403Y-21378582D01*
X75193543Y-21383541D01*
X75179264Y-21387118D01*
X75164703Y-21389278D01*
X75150000Y-21390000D01*
X73850000Y-21390000D01*
X73835297Y-21389278D01*
X73820736Y-21387118D01*
X73806457Y-21383541D01*
X73792597Y-21378582D01*
X73779290Y-21372288D01*
X73766664Y-21364720D01*
X73754841Y-21355952D01*
X73743934Y-21346066D01*
X73734048Y-21335159D01*
X73725280Y-21323336D01*
X73717712Y-21310710D01*
X73711418Y-21297403D01*
X73706459Y-21283543D01*
X73702882Y-21269264D01*
X73700722Y-21254703D01*
X73700000Y-21240000D01*
X73700000Y-20940000D01*
X73700722Y-20925297D01*
X73702882Y-20910736D01*
X73706459Y-20896457D01*
X73711418Y-20882597D01*
X73717712Y-20869290D01*
X73725280Y-20856664D01*
X73734048Y-20844841D01*
X73743934Y-20833934D01*
X73754841Y-20824048D01*
X73766664Y-20815280D01*
X73779290Y-20807712D01*
X73792597Y-20801418D01*
X73806457Y-20796459D01*
X73820736Y-20792882D01*
X73835297Y-20790722D01*
X73850000Y-20790000D01*
X75150000Y-20790000D01*
X75164703Y-20790722D01*
X75164703Y-20790722D01*
G37*
D15*
X74500000Y-21090000D03*
D11*
G36*
X75164703Y-22060722D02*
G01*
X75179264Y-22062882D01*
X75193543Y-22066459D01*
X75207403Y-22071418D01*
X75220710Y-22077712D01*
X75233336Y-22085280D01*
X75245159Y-22094048D01*
X75256066Y-22103934D01*
X75265952Y-22114841D01*
X75274720Y-22126664D01*
X75282288Y-22139290D01*
X75288582Y-22152597D01*
X75293541Y-22166457D01*
X75297118Y-22180736D01*
X75299278Y-22195297D01*
X75300000Y-22210000D01*
X75300000Y-22510000D01*
X75299278Y-22524703D01*
X75297118Y-22539264D01*
X75293541Y-22553543D01*
X75288582Y-22567403D01*
X75282288Y-22580710D01*
X75274720Y-22593336D01*
X75265952Y-22605159D01*
X75256066Y-22616066D01*
X75245159Y-22625952D01*
X75233336Y-22634720D01*
X75220710Y-22642288D01*
X75207403Y-22648582D01*
X75193543Y-22653541D01*
X75179264Y-22657118D01*
X75164703Y-22659278D01*
X75150000Y-22660000D01*
X73850000Y-22660000D01*
X73835297Y-22659278D01*
X73820736Y-22657118D01*
X73806457Y-22653541D01*
X73792597Y-22648582D01*
X73779290Y-22642288D01*
X73766664Y-22634720D01*
X73754841Y-22625952D01*
X73743934Y-22616066D01*
X73734048Y-22605159D01*
X73725280Y-22593336D01*
X73717712Y-22580710D01*
X73711418Y-22567403D01*
X73706459Y-22553543D01*
X73702882Y-22539264D01*
X73700722Y-22524703D01*
X73700000Y-22510000D01*
X73700000Y-22210000D01*
X73700722Y-22195297D01*
X73702882Y-22180736D01*
X73706459Y-22166457D01*
X73711418Y-22152597D01*
X73717712Y-22139290D01*
X73725280Y-22126664D01*
X73734048Y-22114841D01*
X73743934Y-22103934D01*
X73754841Y-22094048D01*
X73766664Y-22085280D01*
X73779290Y-22077712D01*
X73792597Y-22071418D01*
X73806457Y-22066459D01*
X73820736Y-22062882D01*
X73835297Y-22060722D01*
X73850000Y-22060000D01*
X75150000Y-22060000D01*
X75164703Y-22060722D01*
X75164703Y-22060722D01*
G37*
D15*
X74500000Y-22360000D03*
D11*
G36*
X75164703Y-23330722D02*
G01*
X75179264Y-23332882D01*
X75193543Y-23336459D01*
X75207403Y-23341418D01*
X75220710Y-23347712D01*
X75233336Y-23355280D01*
X75245159Y-23364048D01*
X75256066Y-23373934D01*
X75265952Y-23384841D01*
X75274720Y-23396664D01*
X75282288Y-23409290D01*
X75288582Y-23422597D01*
X75293541Y-23436457D01*
X75297118Y-23450736D01*
X75299278Y-23465297D01*
X75300000Y-23480000D01*
X75300000Y-23780000D01*
X75299278Y-23794703D01*
X75297118Y-23809264D01*
X75293541Y-23823543D01*
X75288582Y-23837403D01*
X75282288Y-23850710D01*
X75274720Y-23863336D01*
X75265952Y-23875159D01*
X75256066Y-23886066D01*
X75245159Y-23895952D01*
X75233336Y-23904720D01*
X75220710Y-23912288D01*
X75207403Y-23918582D01*
X75193543Y-23923541D01*
X75179264Y-23927118D01*
X75164703Y-23929278D01*
X75150000Y-23930000D01*
X73850000Y-23930000D01*
X73835297Y-23929278D01*
X73820736Y-23927118D01*
X73806457Y-23923541D01*
X73792597Y-23918582D01*
X73779290Y-23912288D01*
X73766664Y-23904720D01*
X73754841Y-23895952D01*
X73743934Y-23886066D01*
X73734048Y-23875159D01*
X73725280Y-23863336D01*
X73717712Y-23850710D01*
X73711418Y-23837403D01*
X73706459Y-23823543D01*
X73702882Y-23809264D01*
X73700722Y-23794703D01*
X73700000Y-23780000D01*
X73700000Y-23480000D01*
X73700722Y-23465297D01*
X73702882Y-23450736D01*
X73706459Y-23436457D01*
X73711418Y-23422597D01*
X73717712Y-23409290D01*
X73725280Y-23396664D01*
X73734048Y-23384841D01*
X73743934Y-23373934D01*
X73754841Y-23364048D01*
X73766664Y-23355280D01*
X73779290Y-23347712D01*
X73792597Y-23341418D01*
X73806457Y-23336459D01*
X73820736Y-23332882D01*
X73835297Y-23330722D01*
X73850000Y-23330000D01*
X75150000Y-23330000D01*
X75164703Y-23330722D01*
X75164703Y-23330722D01*
G37*
D15*
X74500000Y-23630000D03*
D11*
G36*
X75164703Y-24600722D02*
G01*
X75179264Y-24602882D01*
X75193543Y-24606459D01*
X75207403Y-24611418D01*
X75220710Y-24617712D01*
X75233336Y-24625280D01*
X75245159Y-24634048D01*
X75256066Y-24643934D01*
X75265952Y-24654841D01*
X75274720Y-24666664D01*
X75282288Y-24679290D01*
X75288582Y-24692597D01*
X75293541Y-24706457D01*
X75297118Y-24720736D01*
X75299278Y-24735297D01*
X75300000Y-24750000D01*
X75300000Y-25050000D01*
X75299278Y-25064703D01*
X75297118Y-25079264D01*
X75293541Y-25093543D01*
X75288582Y-25107403D01*
X75282288Y-25120710D01*
X75274720Y-25133336D01*
X75265952Y-25145159D01*
X75256066Y-25156066D01*
X75245159Y-25165952D01*
X75233336Y-25174720D01*
X75220710Y-25182288D01*
X75207403Y-25188582D01*
X75193543Y-25193541D01*
X75179264Y-25197118D01*
X75164703Y-25199278D01*
X75150000Y-25200000D01*
X73850000Y-25200000D01*
X73835297Y-25199278D01*
X73820736Y-25197118D01*
X73806457Y-25193541D01*
X73792597Y-25188582D01*
X73779290Y-25182288D01*
X73766664Y-25174720D01*
X73754841Y-25165952D01*
X73743934Y-25156066D01*
X73734048Y-25145159D01*
X73725280Y-25133336D01*
X73717712Y-25120710D01*
X73711418Y-25107403D01*
X73706459Y-25093543D01*
X73702882Y-25079264D01*
X73700722Y-25064703D01*
X73700000Y-25050000D01*
X73700000Y-24750000D01*
X73700722Y-24735297D01*
X73702882Y-24720736D01*
X73706459Y-24706457D01*
X73711418Y-24692597D01*
X73717712Y-24679290D01*
X73725280Y-24666664D01*
X73734048Y-24654841D01*
X73743934Y-24643934D01*
X73754841Y-24634048D01*
X73766664Y-24625280D01*
X73779290Y-24617712D01*
X73792597Y-24611418D01*
X73806457Y-24606459D01*
X73820736Y-24602882D01*
X73835297Y-24600722D01*
X73850000Y-24600000D01*
X75150000Y-24600000D01*
X75164703Y-24600722D01*
X75164703Y-24600722D01*
G37*
D15*
X74500000Y-24900000D03*
D11*
G36*
X75164703Y-25870722D02*
G01*
X75179264Y-25872882D01*
X75193543Y-25876459D01*
X75207403Y-25881418D01*
X75220710Y-25887712D01*
X75233336Y-25895280D01*
X75245159Y-25904048D01*
X75256066Y-25913934D01*
X75265952Y-25924841D01*
X75274720Y-25936664D01*
X75282288Y-25949290D01*
X75288582Y-25962597D01*
X75293541Y-25976457D01*
X75297118Y-25990736D01*
X75299278Y-26005297D01*
X75300000Y-26020000D01*
X75300000Y-26320000D01*
X75299278Y-26334703D01*
X75297118Y-26349264D01*
X75293541Y-26363543D01*
X75288582Y-26377403D01*
X75282288Y-26390710D01*
X75274720Y-26403336D01*
X75265952Y-26415159D01*
X75256066Y-26426066D01*
X75245159Y-26435952D01*
X75233336Y-26444720D01*
X75220710Y-26452288D01*
X75207403Y-26458582D01*
X75193543Y-26463541D01*
X75179264Y-26467118D01*
X75164703Y-26469278D01*
X75150000Y-26470000D01*
X73850000Y-26470000D01*
X73835297Y-26469278D01*
X73820736Y-26467118D01*
X73806457Y-26463541D01*
X73792597Y-26458582D01*
X73779290Y-26452288D01*
X73766664Y-26444720D01*
X73754841Y-26435952D01*
X73743934Y-26426066D01*
X73734048Y-26415159D01*
X73725280Y-26403336D01*
X73717712Y-26390710D01*
X73711418Y-26377403D01*
X73706459Y-26363543D01*
X73702882Y-26349264D01*
X73700722Y-26334703D01*
X73700000Y-26320000D01*
X73700000Y-26020000D01*
X73700722Y-26005297D01*
X73702882Y-25990736D01*
X73706459Y-25976457D01*
X73711418Y-25962597D01*
X73717712Y-25949290D01*
X73725280Y-25936664D01*
X73734048Y-25924841D01*
X73743934Y-25913934D01*
X73754841Y-25904048D01*
X73766664Y-25895280D01*
X73779290Y-25887712D01*
X73792597Y-25881418D01*
X73806457Y-25876459D01*
X73820736Y-25872882D01*
X73835297Y-25870722D01*
X73850000Y-25870000D01*
X75150000Y-25870000D01*
X75164703Y-25870722D01*
X75164703Y-25870722D01*
G37*
D15*
X74500000Y-26170000D03*
D11*
G36*
X75164703Y-27140722D02*
G01*
X75179264Y-27142882D01*
X75193543Y-27146459D01*
X75207403Y-27151418D01*
X75220710Y-27157712D01*
X75233336Y-27165280D01*
X75245159Y-27174048D01*
X75256066Y-27183934D01*
X75265952Y-27194841D01*
X75274720Y-27206664D01*
X75282288Y-27219290D01*
X75288582Y-27232597D01*
X75293541Y-27246457D01*
X75297118Y-27260736D01*
X75299278Y-27275297D01*
X75300000Y-27290000D01*
X75300000Y-27590000D01*
X75299278Y-27604703D01*
X75297118Y-27619264D01*
X75293541Y-27633543D01*
X75288582Y-27647403D01*
X75282288Y-27660710D01*
X75274720Y-27673336D01*
X75265952Y-27685159D01*
X75256066Y-27696066D01*
X75245159Y-27705952D01*
X75233336Y-27714720D01*
X75220710Y-27722288D01*
X75207403Y-27728582D01*
X75193543Y-27733541D01*
X75179264Y-27737118D01*
X75164703Y-27739278D01*
X75150000Y-27740000D01*
X73850000Y-27740000D01*
X73835297Y-27739278D01*
X73820736Y-27737118D01*
X73806457Y-27733541D01*
X73792597Y-27728582D01*
X73779290Y-27722288D01*
X73766664Y-27714720D01*
X73754841Y-27705952D01*
X73743934Y-27696066D01*
X73734048Y-27685159D01*
X73725280Y-27673336D01*
X73717712Y-27660710D01*
X73711418Y-27647403D01*
X73706459Y-27633543D01*
X73702882Y-27619264D01*
X73700722Y-27604703D01*
X73700000Y-27590000D01*
X73700000Y-27290000D01*
X73700722Y-27275297D01*
X73702882Y-27260736D01*
X73706459Y-27246457D01*
X73711418Y-27232597D01*
X73717712Y-27219290D01*
X73725280Y-27206664D01*
X73734048Y-27194841D01*
X73743934Y-27183934D01*
X73754841Y-27174048D01*
X73766664Y-27165280D01*
X73779290Y-27157712D01*
X73792597Y-27151418D01*
X73806457Y-27146459D01*
X73820736Y-27142882D01*
X73835297Y-27140722D01*
X73850000Y-27140000D01*
X75150000Y-27140000D01*
X75164703Y-27140722D01*
X75164703Y-27140722D01*
G37*
D15*
X74500000Y-27440000D03*
D11*
G36*
X81664703Y-27140722D02*
G01*
X81679264Y-27142882D01*
X81693543Y-27146459D01*
X81707403Y-27151418D01*
X81720710Y-27157712D01*
X81733336Y-27165280D01*
X81745159Y-27174048D01*
X81756066Y-27183934D01*
X81765952Y-27194841D01*
X81774720Y-27206664D01*
X81782288Y-27219290D01*
X81788582Y-27232597D01*
X81793541Y-27246457D01*
X81797118Y-27260736D01*
X81799278Y-27275297D01*
X81800000Y-27290000D01*
X81800000Y-27590000D01*
X81799278Y-27604703D01*
X81797118Y-27619264D01*
X81793541Y-27633543D01*
X81788582Y-27647403D01*
X81782288Y-27660710D01*
X81774720Y-27673336D01*
X81765952Y-27685159D01*
X81756066Y-27696066D01*
X81745159Y-27705952D01*
X81733336Y-27714720D01*
X81720710Y-27722288D01*
X81707403Y-27728582D01*
X81693543Y-27733541D01*
X81679264Y-27737118D01*
X81664703Y-27739278D01*
X81650000Y-27740000D01*
X80350000Y-27740000D01*
X80335297Y-27739278D01*
X80320736Y-27737118D01*
X80306457Y-27733541D01*
X80292597Y-27728582D01*
X80279290Y-27722288D01*
X80266664Y-27714720D01*
X80254841Y-27705952D01*
X80243934Y-27696066D01*
X80234048Y-27685159D01*
X80225280Y-27673336D01*
X80217712Y-27660710D01*
X80211418Y-27647403D01*
X80206459Y-27633543D01*
X80202882Y-27619264D01*
X80200722Y-27604703D01*
X80200000Y-27590000D01*
X80200000Y-27290000D01*
X80200722Y-27275297D01*
X80202882Y-27260736D01*
X80206459Y-27246457D01*
X80211418Y-27232597D01*
X80217712Y-27219290D01*
X80225280Y-27206664D01*
X80234048Y-27194841D01*
X80243934Y-27183934D01*
X80254841Y-27174048D01*
X80266664Y-27165280D01*
X80279290Y-27157712D01*
X80292597Y-27151418D01*
X80306457Y-27146459D01*
X80320736Y-27142882D01*
X80335297Y-27140722D01*
X80350000Y-27140000D01*
X81650000Y-27140000D01*
X81664703Y-27140722D01*
X81664703Y-27140722D01*
G37*
D15*
X81000000Y-27440000D03*
D11*
G36*
X81664703Y-25870722D02*
G01*
X81679264Y-25872882D01*
X81693543Y-25876459D01*
X81707403Y-25881418D01*
X81720710Y-25887712D01*
X81733336Y-25895280D01*
X81745159Y-25904048D01*
X81756066Y-25913934D01*
X81765952Y-25924841D01*
X81774720Y-25936664D01*
X81782288Y-25949290D01*
X81788582Y-25962597D01*
X81793541Y-25976457D01*
X81797118Y-25990736D01*
X81799278Y-26005297D01*
X81800000Y-26020000D01*
X81800000Y-26320000D01*
X81799278Y-26334703D01*
X81797118Y-26349264D01*
X81793541Y-26363543D01*
X81788582Y-26377403D01*
X81782288Y-26390710D01*
X81774720Y-26403336D01*
X81765952Y-26415159D01*
X81756066Y-26426066D01*
X81745159Y-26435952D01*
X81733336Y-26444720D01*
X81720710Y-26452288D01*
X81707403Y-26458582D01*
X81693543Y-26463541D01*
X81679264Y-26467118D01*
X81664703Y-26469278D01*
X81650000Y-26470000D01*
X80350000Y-26470000D01*
X80335297Y-26469278D01*
X80320736Y-26467118D01*
X80306457Y-26463541D01*
X80292597Y-26458582D01*
X80279290Y-26452288D01*
X80266664Y-26444720D01*
X80254841Y-26435952D01*
X80243934Y-26426066D01*
X80234048Y-26415159D01*
X80225280Y-26403336D01*
X80217712Y-26390710D01*
X80211418Y-26377403D01*
X80206459Y-26363543D01*
X80202882Y-26349264D01*
X80200722Y-26334703D01*
X80200000Y-26320000D01*
X80200000Y-26020000D01*
X80200722Y-26005297D01*
X80202882Y-25990736D01*
X80206459Y-25976457D01*
X80211418Y-25962597D01*
X80217712Y-25949290D01*
X80225280Y-25936664D01*
X80234048Y-25924841D01*
X80243934Y-25913934D01*
X80254841Y-25904048D01*
X80266664Y-25895280D01*
X80279290Y-25887712D01*
X80292597Y-25881418D01*
X80306457Y-25876459D01*
X80320736Y-25872882D01*
X80335297Y-25870722D01*
X80350000Y-25870000D01*
X81650000Y-25870000D01*
X81664703Y-25870722D01*
X81664703Y-25870722D01*
G37*
D15*
X81000000Y-26170000D03*
D11*
G36*
X81664703Y-24600722D02*
G01*
X81679264Y-24602882D01*
X81693543Y-24606459D01*
X81707403Y-24611418D01*
X81720710Y-24617712D01*
X81733336Y-24625280D01*
X81745159Y-24634048D01*
X81756066Y-24643934D01*
X81765952Y-24654841D01*
X81774720Y-24666664D01*
X81782288Y-24679290D01*
X81788582Y-24692597D01*
X81793541Y-24706457D01*
X81797118Y-24720736D01*
X81799278Y-24735297D01*
X81800000Y-24750000D01*
X81800000Y-25050000D01*
X81799278Y-25064703D01*
X81797118Y-25079264D01*
X81793541Y-25093543D01*
X81788582Y-25107403D01*
X81782288Y-25120710D01*
X81774720Y-25133336D01*
X81765952Y-25145159D01*
X81756066Y-25156066D01*
X81745159Y-25165952D01*
X81733336Y-25174720D01*
X81720710Y-25182288D01*
X81707403Y-25188582D01*
X81693543Y-25193541D01*
X81679264Y-25197118D01*
X81664703Y-25199278D01*
X81650000Y-25200000D01*
X80350000Y-25200000D01*
X80335297Y-25199278D01*
X80320736Y-25197118D01*
X80306457Y-25193541D01*
X80292597Y-25188582D01*
X80279290Y-25182288D01*
X80266664Y-25174720D01*
X80254841Y-25165952D01*
X80243934Y-25156066D01*
X80234048Y-25145159D01*
X80225280Y-25133336D01*
X80217712Y-25120710D01*
X80211418Y-25107403D01*
X80206459Y-25093543D01*
X80202882Y-25079264D01*
X80200722Y-25064703D01*
X80200000Y-25050000D01*
X80200000Y-24750000D01*
X80200722Y-24735297D01*
X80202882Y-24720736D01*
X80206459Y-24706457D01*
X80211418Y-24692597D01*
X80217712Y-24679290D01*
X80225280Y-24666664D01*
X80234048Y-24654841D01*
X80243934Y-24643934D01*
X80254841Y-24634048D01*
X80266664Y-24625280D01*
X80279290Y-24617712D01*
X80292597Y-24611418D01*
X80306457Y-24606459D01*
X80320736Y-24602882D01*
X80335297Y-24600722D01*
X80350000Y-24600000D01*
X81650000Y-24600000D01*
X81664703Y-24600722D01*
X81664703Y-24600722D01*
G37*
D15*
X81000000Y-24900000D03*
D11*
G36*
X81664703Y-23330722D02*
G01*
X81679264Y-23332882D01*
X81693543Y-23336459D01*
X81707403Y-23341418D01*
X81720710Y-23347712D01*
X81733336Y-23355280D01*
X81745159Y-23364048D01*
X81756066Y-23373934D01*
X81765952Y-23384841D01*
X81774720Y-23396664D01*
X81782288Y-23409290D01*
X81788582Y-23422597D01*
X81793541Y-23436457D01*
X81797118Y-23450736D01*
X81799278Y-23465297D01*
X81800000Y-23480000D01*
X81800000Y-23780000D01*
X81799278Y-23794703D01*
X81797118Y-23809264D01*
X81793541Y-23823543D01*
X81788582Y-23837403D01*
X81782288Y-23850710D01*
X81774720Y-23863336D01*
X81765952Y-23875159D01*
X81756066Y-23886066D01*
X81745159Y-23895952D01*
X81733336Y-23904720D01*
X81720710Y-23912288D01*
X81707403Y-23918582D01*
X81693543Y-23923541D01*
X81679264Y-23927118D01*
X81664703Y-23929278D01*
X81650000Y-23930000D01*
X80350000Y-23930000D01*
X80335297Y-23929278D01*
X80320736Y-23927118D01*
X80306457Y-23923541D01*
X80292597Y-23918582D01*
X80279290Y-23912288D01*
X80266664Y-23904720D01*
X80254841Y-23895952D01*
X80243934Y-23886066D01*
X80234048Y-23875159D01*
X80225280Y-23863336D01*
X80217712Y-23850710D01*
X80211418Y-23837403D01*
X80206459Y-23823543D01*
X80202882Y-23809264D01*
X80200722Y-23794703D01*
X80200000Y-23780000D01*
X80200000Y-23480000D01*
X80200722Y-23465297D01*
X80202882Y-23450736D01*
X80206459Y-23436457D01*
X80211418Y-23422597D01*
X80217712Y-23409290D01*
X80225280Y-23396664D01*
X80234048Y-23384841D01*
X80243934Y-23373934D01*
X80254841Y-23364048D01*
X80266664Y-23355280D01*
X80279290Y-23347712D01*
X80292597Y-23341418D01*
X80306457Y-23336459D01*
X80320736Y-23332882D01*
X80335297Y-23330722D01*
X80350000Y-23330000D01*
X81650000Y-23330000D01*
X81664703Y-23330722D01*
X81664703Y-23330722D01*
G37*
D15*
X81000000Y-23630000D03*
D11*
G36*
X81664703Y-22060722D02*
G01*
X81679264Y-22062882D01*
X81693543Y-22066459D01*
X81707403Y-22071418D01*
X81720710Y-22077712D01*
X81733336Y-22085280D01*
X81745159Y-22094048D01*
X81756066Y-22103934D01*
X81765952Y-22114841D01*
X81774720Y-22126664D01*
X81782288Y-22139290D01*
X81788582Y-22152597D01*
X81793541Y-22166457D01*
X81797118Y-22180736D01*
X81799278Y-22195297D01*
X81800000Y-22210000D01*
X81800000Y-22510000D01*
X81799278Y-22524703D01*
X81797118Y-22539264D01*
X81793541Y-22553543D01*
X81788582Y-22567403D01*
X81782288Y-22580710D01*
X81774720Y-22593336D01*
X81765952Y-22605159D01*
X81756066Y-22616066D01*
X81745159Y-22625952D01*
X81733336Y-22634720D01*
X81720710Y-22642288D01*
X81707403Y-22648582D01*
X81693543Y-22653541D01*
X81679264Y-22657118D01*
X81664703Y-22659278D01*
X81650000Y-22660000D01*
X80350000Y-22660000D01*
X80335297Y-22659278D01*
X80320736Y-22657118D01*
X80306457Y-22653541D01*
X80292597Y-22648582D01*
X80279290Y-22642288D01*
X80266664Y-22634720D01*
X80254841Y-22625952D01*
X80243934Y-22616066D01*
X80234048Y-22605159D01*
X80225280Y-22593336D01*
X80217712Y-22580710D01*
X80211418Y-22567403D01*
X80206459Y-22553543D01*
X80202882Y-22539264D01*
X80200722Y-22524703D01*
X80200000Y-22510000D01*
X80200000Y-22210000D01*
X80200722Y-22195297D01*
X80202882Y-22180736D01*
X80206459Y-22166457D01*
X80211418Y-22152597D01*
X80217712Y-22139290D01*
X80225280Y-22126664D01*
X80234048Y-22114841D01*
X80243934Y-22103934D01*
X80254841Y-22094048D01*
X80266664Y-22085280D01*
X80279290Y-22077712D01*
X80292597Y-22071418D01*
X80306457Y-22066459D01*
X80320736Y-22062882D01*
X80335297Y-22060722D01*
X80350000Y-22060000D01*
X81650000Y-22060000D01*
X81664703Y-22060722D01*
X81664703Y-22060722D01*
G37*
D15*
X81000000Y-22360000D03*
D11*
G36*
X81664703Y-20790722D02*
G01*
X81679264Y-20792882D01*
X81693543Y-20796459D01*
X81707403Y-20801418D01*
X81720710Y-20807712D01*
X81733336Y-20815280D01*
X81745159Y-20824048D01*
X81756066Y-20833934D01*
X81765952Y-20844841D01*
X81774720Y-20856664D01*
X81782288Y-20869290D01*
X81788582Y-20882597D01*
X81793541Y-20896457D01*
X81797118Y-20910736D01*
X81799278Y-20925297D01*
X81800000Y-20940000D01*
X81800000Y-21240000D01*
X81799278Y-21254703D01*
X81797118Y-21269264D01*
X81793541Y-21283543D01*
X81788582Y-21297403D01*
X81782288Y-21310710D01*
X81774720Y-21323336D01*
X81765952Y-21335159D01*
X81756066Y-21346066D01*
X81745159Y-21355952D01*
X81733336Y-21364720D01*
X81720710Y-21372288D01*
X81707403Y-21378582D01*
X81693543Y-21383541D01*
X81679264Y-21387118D01*
X81664703Y-21389278D01*
X81650000Y-21390000D01*
X80350000Y-21390000D01*
X80335297Y-21389278D01*
X80320736Y-21387118D01*
X80306457Y-21383541D01*
X80292597Y-21378582D01*
X80279290Y-21372288D01*
X80266664Y-21364720D01*
X80254841Y-21355952D01*
X80243934Y-21346066D01*
X80234048Y-21335159D01*
X80225280Y-21323336D01*
X80217712Y-21310710D01*
X80211418Y-21297403D01*
X80206459Y-21283543D01*
X80202882Y-21269264D01*
X80200722Y-21254703D01*
X80200000Y-21240000D01*
X80200000Y-20940000D01*
X80200722Y-20925297D01*
X80202882Y-20910736D01*
X80206459Y-20896457D01*
X80211418Y-20882597D01*
X80217712Y-20869290D01*
X80225280Y-20856664D01*
X80234048Y-20844841D01*
X80243934Y-20833934D01*
X80254841Y-20824048D01*
X80266664Y-20815280D01*
X80279290Y-20807712D01*
X80292597Y-20801418D01*
X80306457Y-20796459D01*
X80320736Y-20792882D01*
X80335297Y-20790722D01*
X80350000Y-20790000D01*
X81650000Y-20790000D01*
X81664703Y-20790722D01*
X81664703Y-20790722D01*
G37*
D15*
X81000000Y-21090000D03*
D11*
G36*
X81664703Y-19520722D02*
G01*
X81679264Y-19522882D01*
X81693543Y-19526459D01*
X81707403Y-19531418D01*
X81720710Y-19537712D01*
X81733336Y-19545280D01*
X81745159Y-19554048D01*
X81756066Y-19563934D01*
X81765952Y-19574841D01*
X81774720Y-19586664D01*
X81782288Y-19599290D01*
X81788582Y-19612597D01*
X81793541Y-19626457D01*
X81797118Y-19640736D01*
X81799278Y-19655297D01*
X81800000Y-19670000D01*
X81800000Y-19970000D01*
X81799278Y-19984703D01*
X81797118Y-19999264D01*
X81793541Y-20013543D01*
X81788582Y-20027403D01*
X81782288Y-20040710D01*
X81774720Y-20053336D01*
X81765952Y-20065159D01*
X81756066Y-20076066D01*
X81745159Y-20085952D01*
X81733336Y-20094720D01*
X81720710Y-20102288D01*
X81707403Y-20108582D01*
X81693543Y-20113541D01*
X81679264Y-20117118D01*
X81664703Y-20119278D01*
X81650000Y-20120000D01*
X80350000Y-20120000D01*
X80335297Y-20119278D01*
X80320736Y-20117118D01*
X80306457Y-20113541D01*
X80292597Y-20108582D01*
X80279290Y-20102288D01*
X80266664Y-20094720D01*
X80254841Y-20085952D01*
X80243934Y-20076066D01*
X80234048Y-20065159D01*
X80225280Y-20053336D01*
X80217712Y-20040710D01*
X80211418Y-20027403D01*
X80206459Y-20013543D01*
X80202882Y-19999264D01*
X80200722Y-19984703D01*
X80200000Y-19970000D01*
X80200000Y-19670000D01*
X80200722Y-19655297D01*
X80202882Y-19640736D01*
X80206459Y-19626457D01*
X80211418Y-19612597D01*
X80217712Y-19599290D01*
X80225280Y-19586664D01*
X80234048Y-19574841D01*
X80243934Y-19563934D01*
X80254841Y-19554048D01*
X80266664Y-19545280D01*
X80279290Y-19537712D01*
X80292597Y-19531418D01*
X80306457Y-19526459D01*
X80320736Y-19522882D01*
X80335297Y-19520722D01*
X80350000Y-19520000D01*
X81650000Y-19520000D01*
X81664703Y-19520722D01*
X81664703Y-19520722D01*
G37*
D15*
X81000000Y-19820000D03*
D11*
G36*
X81664703Y-18250722D02*
G01*
X81679264Y-18252882D01*
X81693543Y-18256459D01*
X81707403Y-18261418D01*
X81720710Y-18267712D01*
X81733336Y-18275280D01*
X81745159Y-18284048D01*
X81756066Y-18293934D01*
X81765952Y-18304841D01*
X81774720Y-18316664D01*
X81782288Y-18329290D01*
X81788582Y-18342597D01*
X81793541Y-18356457D01*
X81797118Y-18370736D01*
X81799278Y-18385297D01*
X81800000Y-18400000D01*
X81800000Y-18700000D01*
X81799278Y-18714703D01*
X81797118Y-18729264D01*
X81793541Y-18743543D01*
X81788582Y-18757403D01*
X81782288Y-18770710D01*
X81774720Y-18783336D01*
X81765952Y-18795159D01*
X81756066Y-18806066D01*
X81745159Y-18815952D01*
X81733336Y-18824720D01*
X81720710Y-18832288D01*
X81707403Y-18838582D01*
X81693543Y-18843541D01*
X81679264Y-18847118D01*
X81664703Y-18849278D01*
X81650000Y-18850000D01*
X80350000Y-18850000D01*
X80335297Y-18849278D01*
X80320736Y-18847118D01*
X80306457Y-18843541D01*
X80292597Y-18838582D01*
X80279290Y-18832288D01*
X80266664Y-18824720D01*
X80254841Y-18815952D01*
X80243934Y-18806066D01*
X80234048Y-18795159D01*
X80225280Y-18783336D01*
X80217712Y-18770710D01*
X80211418Y-18757403D01*
X80206459Y-18743543D01*
X80202882Y-18729264D01*
X80200722Y-18714703D01*
X80200000Y-18700000D01*
X80200000Y-18400000D01*
X80200722Y-18385297D01*
X80202882Y-18370736D01*
X80206459Y-18356457D01*
X80211418Y-18342597D01*
X80217712Y-18329290D01*
X80225280Y-18316664D01*
X80234048Y-18304841D01*
X80243934Y-18293934D01*
X80254841Y-18284048D01*
X80266664Y-18275280D01*
X80279290Y-18267712D01*
X80292597Y-18261418D01*
X80306457Y-18256459D01*
X80320736Y-18252882D01*
X80335297Y-18250722D01*
X80350000Y-18250000D01*
X81650000Y-18250000D01*
X81664703Y-18250722D01*
X81664703Y-18250722D01*
G37*
D15*
X81000000Y-18550000D03*
M02*
