M48
; DRILL file {KiCad 5.1.2-f72e74a~84~ubuntu18.04.1} date 2019年06月14日 星期五 20时14分05秒
; FORMAT={-:-/ absolute / inch / decimal}
; #@! TF.CreationDate,2019-06-14T20:14:05+08:00
; #@! TF.GenerationSoftware,Kicad,Pcbnew,5.1.2-f72e74a~84~ubuntu18.04.1
; #@! TF.FileFunction,Plated,1,2,PTH
FMAT,2
INCH
T1C0.0157
T2C0.0394
%
G90
G05
T1
X-0.0285Y0.0325
X-0.0285Y-0.2825
X-0.0285Y-0.5974
X-0.0285Y-0.9124
X-0.0285Y-1.2274
X-0.0285Y-1.5423
X-0.0285Y-1.8573
X-0.0285Y-2.1722
X0.1594Y0.0177
X0.1594Y-0.2972
X0.1594Y-0.6122
X0.1594Y-0.9272
X0.1594Y-1.2421
X0.1594Y-1.5571
X0.1594Y-1.872
X0.1594Y-2.187
X0.2864Y0.0325
X0.2864Y-0.2825
X0.2864Y-0.5974
X0.2864Y-0.9124
X0.2864Y-1.2274
X0.2864Y-1.5423
X0.2864Y-1.8573
X0.2864Y-2.1722
X0.4744Y0.0177
X0.4744Y-0.2972
X0.4744Y-0.6122
X0.4744Y-0.9272
X0.4744Y-1.2421
X0.4744Y-1.5571
X0.4744Y-1.872
X0.4744Y-2.187
X0.6014Y0.0325
X0.6014Y-0.2825
X0.6014Y-0.5974
X0.6014Y-0.9124
X0.6014Y-1.2274
X0.6014Y-1.5423
X0.6014Y-1.8573
X0.6014Y-2.1722
X0.7894Y0.0177
X0.7894Y-0.2972
X0.7894Y-0.6122
X0.7894Y-0.9272
X0.7894Y-1.2421
X0.7894Y-1.5571
X0.7894Y-1.872
X0.7894Y-2.187
X0.9163Y0.0325
X0.9163Y-0.2825
X0.9163Y-0.5974
X0.9163Y-0.9124
X0.9163Y-1.2274
X0.9163Y-1.5423
X0.9163Y-1.8573
X0.9163Y-2.1722
X1.1043Y0.0177
X1.1043Y-0.2972
X1.1043Y-0.6122
X1.1043Y-0.9272
X1.1043Y-1.2421
X1.1043Y-1.5571
X1.1043Y-1.872
X1.1043Y-2.187
X1.2313Y0.0325
X1.2313Y-0.2825
X1.2313Y-0.5974
X1.2313Y-0.9124
X1.2313Y-1.2274
X1.2313Y-1.5423
X1.2313Y-1.8573
X1.2313Y-2.1722
X1.4193Y0.0177
X1.4193Y-0.2972
X1.4193Y-0.6122
X1.4193Y-0.9272
X1.4193Y-1.2421
X1.4193Y-1.5571
X1.4193Y-1.872
X1.4193Y-2.187
X1.5463Y0.0325
X1.5463Y-0.2825
X1.5463Y-0.5974
X1.5463Y-0.9124
X1.5463Y-1.2274
X1.5463Y-1.5423
X1.5463Y-1.8573
X1.5463Y-2.1722
X1.7343Y0.0177
X1.7343Y-0.2972
X1.7343Y-0.6122
X1.7343Y-0.9272
X1.7343Y-1.2421
X1.7343Y-1.5571
X1.7343Y-1.872
X1.7343Y-2.187
X1.8612Y0.0325
X1.8612Y-0.2825
X1.8612Y-0.5974
X1.8612Y-0.9124
X1.8612Y-1.2274
X1.8612Y-1.5423
X1.8612Y-1.8573
X1.8612Y-2.1722
X2.0492Y0.0177
X2.0492Y-0.2972
X2.0492Y-0.6122
X2.0492Y-0.9272
X2.0492Y-1.2421
X2.0492Y-1.5571
X2.0492Y-1.872
X2.0492Y-2.187
X2.1762Y0.0325
X2.1762Y-0.2825
X2.1762Y-0.5974
X2.1762Y-0.9124
X2.1762Y-1.2274
X2.1762Y-1.5423
X2.1762Y-1.8573
X2.1762Y-2.1722
X2.3642Y0.0177
X2.3642Y-0.2972
X2.3642Y-0.6122
X2.3642Y-0.9272
X2.3642Y-1.2421
X2.3642Y-1.5571
X2.3642Y-1.872
X2.3642Y-2.187
X2.5128Y-2.2264
X2.5285Y0.0768
X2.5285Y-0.2382
X2.5285Y-0.5531
X2.5285Y-0.8681
X2.5285Y-1.1831
X2.5285Y-1.498
X2.5285Y-1.813
X2.5285Y-2.128
X2.8317Y-1.4606
X3.0325Y-1.0079
X3.0728Y-1.31
X3.1309Y-0.8327
X3.1309Y-1.6171
X3.2717Y-0.8819
X3.2717Y-0.9301
X3.2736Y-1.0295
X3.2746Y-0.9803
T2
X3.4134Y-0.9094
X3.4134Y-1.0094
X3.4134Y-1.1094
X3.4134Y-1.2094
X3.4134Y-1.3094
X3.4134Y-1.4094
X3.4134Y-1.5094
T0
M30
